<svg width="375" height="667" viewBox="0 0 375 667" fill="none" xmlns="http://www.w3.org/2000/svg">
<path d="M375 0H0V667H375V0Z" fill="#261734"/>
<path d="M69.95 82.15L5.45 17.75C4.45 16.75 2.75 16.75 1.75 17.75C0.75 18.75 0.75 20.45 1.75 21.45L66.15 85.95C67.15 86.95 68.85 86.95 69.85 85.95C70.95 84.85 70.95 83.25 69.95 82.15Z" fill="url(#paint0_linear)"/>
<path d="M334.55 54.85L302.35 22.55C301.85 22.05 301.05 22.05 300.45 22.55C299.95 23.05 299.95 23.85 300.45 24.45L332.65 56.65C333.15 57.15 333.95 57.15 334.55 56.65C335.05 56.15 335.05 55.35 334.55 54.85Z" fill="url(#paint1_linear)"/>
<path opacity="0.15" d="M346.45 127.65L314.25 95.45C313.75 94.95 312.95 94.95 312.35 95.45C311.85 95.95 311.85 96.75 312.35 97.35L344.55 129.55C345.05 130.05 345.85 130.05 346.45 129.55C346.95 128.95 346.95 128.15 346.45 127.65Z" fill="url(#paint2_linear)"/>
<path opacity="0.15" d="M149.65 502.55L117.45 470.35C116.95 469.85 116.15 469.85 115.55 470.35C115.05 470.85 115.05 471.65 115.55 472.25L147.75 504.45C148.25 504.95 149.05 504.95 149.65 504.45C150.15 503.85 150.15 503.05 149.65 502.55Z" fill="url(#paint3_linear)"/>
<path opacity="0.15" d="M340.45 312.05L227.35 198.85C225.55 197.05 222.65 197.05 220.85 198.85C219.05 200.65 219.05 203.55 220.85 205.35L333.95 318.55C335.75 320.35 338.65 320.35 340.45 318.55C342.25 316.75 342.25 313.85 340.45 312.05Z" fill="url(#paint4_linear)"/>
<path d="M108 416C167.094 416 215 368.094 215 309C215 249.906 167.094 202 108 202C48.9055 202 1 249.906 1 309C1 368.094 48.9055 416 108 416Z" fill="url(#paint5_radial)"/>
<path opacity="0.93" d="M283 441.6H282.8C281.5 441.6 280.5 440.6 280.5 439.3V439.1C280.5 438.4 279.9 437.8 279.2 437.8H279.1C278.4 437.8 277.8 438.4 277.8 439.1V439.3C277.8 440.6 276.8 441.6 275.5 441.6H275.3C274.6 441.6 274 442.2 274 442.9C274 443.6 274.6 444.2 275.3 444.2H275.5C276.8 444.2 277.8 445.2 277.8 446.5V446.7C277.8 447.4 278.4 448 279.1 448H279.2C279.9 448 280.5 447.4 280.5 446.7V446.5C280.5 445.2 281.5 444.2 282.8 444.2H283C283.7 444.2 284.3 443.6 284.3 442.9C284.3 442.2 283.7 441.6 283 441.6Z" fill="#361C56"/>
<path opacity="0.93" d="M343.5 265.7H343.3C342 265.7 341 264.7 341 263.4V263.2C341 262.5 340.4 261.9 339.7 261.9H339.6C338.9 261.9 338.3 262.5 338.3 263.2V263.4C338.3 264.7 337.3 265.7 336 265.7H335.8C335.1 265.7 334.5 266.3 334.5 267C334.5 267.7 335.1 268.3 335.8 268.3H336C337.3 268.3 338.3 269.3 338.3 270.6V270.8C338.3 271.5 338.9 272.1 339.6 272.1H339.7C340.4 272.1 341 271.5 341 270.8V270.6C341 269.3 342 268.3 343.3 268.3H343.5C344.2 268.3 344.8 267.7 344.8 267C344.8 266.3 344.2 265.7 343.5 265.7Z" fill="#361C56"/>
<path opacity="0.93" d="M291.7 137.5H291.5C290.2 137.5 289.2 136.5 289.2 135.2V135C289.2 134.3 288.6 133.7 287.9 133.7H287.8C287.1 133.7 286.5 134.3 286.5 135V135.2C286.5 136.5 285.5 137.5 284.2 137.5H284C283.3 137.5 282.7 138.1 282.7 138.8C282.7 139.5 283.3 140.1 284 140.1H284.2C285.5 140.1 286.5 141.1 286.5 142.4V142.6C286.5 143.3 287.1 143.9 287.8 143.9H287.9C288.6 143.9 289.2 143.3 289.2 142.6V142.4C289.2 141.1 290.2 140.1 291.5 140.1H291.7C292.4 140.1 293 139.5 293 138.8C293 138.1 292.4 137.5 291.7 137.5Z" fill="#361C56"/>
<path opacity="0.93" d="M36.9 465.9H36.8C35.5 465.9 34.5 464.9 34.5 463.6V463.4C34.5 462.7 33.9 462.1 33.2 462.1H33.1C32.4 462.1 31.8 462.7 31.8 463.4V463.6C31.8 464.9 30.8 465.9 29.5 465.9H29.3C28.6 465.9 28 466.5 28 467.2C28 467.9 28.6 468.5 29.3 468.5H29.5C30.8 468.5 31.8 469.5 31.8 470.8V471C31.8 471.7 32.4 472.3 33.1 472.3H33.2C33.9 472.3 34.5 471.7 34.5 471V470.8C34.5 469.5 35.5 468.5 36.8 468.5H37C37.7 468.5 38.3 467.9 38.3 467.2C38.3 466.5 37.7 465.9 36.9 465.9Z" fill="#361C56"/>
<path opacity="0.93" d="M287.2 393.5C286.5 393.5 286 393 286 392.4V392.3C286 391.9 285.7 391.6 285.3 391.6C284.9 391.6 284.6 391.9 284.6 392.3V392.4C284.6 393 284.1 393.5 283.5 393.5H283.4C283 393.5 282.7 393.8 282.7 394.2C282.7 394.6 283 394.9 283.4 394.9H283.5C284.1 394.9 284.6 395.4 284.6 396V396.1C284.6 396.5 284.9 396.8 285.3 396.8C285.7 396.8 286 396.5 286 396.1V396C286 395.4 286.5 394.9 287.1 394.9H287.2C287.6 394.9 287.9 394.6 287.9 394.2C287.9 393.8 287.6 393.5 287.2 393.5Z" fill="#361C56"/>
<path opacity="0.93" d="M96.1999 331C95.4999 331 95 330.5 95 329.9V329.8C95 329.4 94.7 329.1 94.3 329.1C93.9 329.1 93.5999 329.4 93.5999 329.8V329.9C93.5999 330.5 93.1 331 92.5 331H92.4C92 331 91.7 331.3 91.7 331.7C91.7 332.1 92 332.4 92.4 332.4H92.5C93.1 332.4 93.5999 332.9 93.5999 333.5V333.6C93.5999 334 93.9 334.3 94.3 334.3C94.7 334.3 95 334 95 333.6V333.5C95 332.9 95.4999 332.4 96.0999 332.4H96.1999C96.5999 332.4 96.9 332.1 96.9 331.7C96.8 331.3 96.4999 331 96.1999 331Z" fill="#361C56"/>
<path opacity="0.93" d="M37.6001 303.1C36.9001 303.1 36.4001 302.6 36.4001 302V301.9C36.4001 301.5 36.1001 301.2 35.7001 301.2C35.3001 301.2 35.0001 301.5 35.0001 301.9V302C35.0001 302.6 34.5001 303.1 33.9001 303.1H33.8001C33.4001 303.1 33.1001 303.4 33.1001 303.8C33.1001 304.2 33.4001 304.5 33.8001 304.5H33.9001C34.5001 304.5 35.0001 305 35.0001 305.6V305.7C35.0001 306.1 35.3001 306.4 35.7001 306.4C36.1001 306.4 36.4001 306.1 36.4001 305.7V305.6C36.4001 305 36.9001 304.5 37.5001 304.5H37.6001C38.0001 304.5 38.3001 304.2 38.3001 303.8C38.3001 303.4 38.0001 303.1 37.6001 303.1Z" fill="#361C56"/>
<path opacity="0.93" d="M177.4 287.2C176.7 287.2 176.2 286.7 176.2 286.1V286C176.2 285.6 175.9 285.3 175.5 285.3C175.1 285.3 174.8 285.6 174.8 286V286.1C174.8 286.7 174.3 287.2 173.7 287.2H173.6C173.2 287.2 172.9 287.5 172.9 287.9C172.9 288.3 173.2 288.6 173.6 288.6H173.7C174.3 288.6 174.8 289.1 174.8 289.7V289.8C174.8 290.2 175.1 290.5 175.5 290.5C175.9 290.5 176.2 290.2 176.2 289.8V289.7C176.2 289.1 176.7 288.6 177.3 288.6H177.4C177.8 288.6 178.1 288.3 178.1 287.9C178 287.5 177.7 287.2 177.4 287.2Z" fill="#361C56"/>
<path opacity="0.93" d="M316.7 165.6C316 165.6 315.5 165.1 315.5 164.5V164.4C315.5 164 315.2 163.7 314.8 163.7C314.4 163.7 314.1 164 314.1 164.4V164.5C314.1 165.1 313.6 165.6 313 165.6H312.9C312.5 165.6 312.2 165.9 312.2 166.3C312.2 166.7 312.5 167 312.9 167H313C313.6 167 314.1 167.5 314.1 168.1V168.2C314.1 168.6 314.4 168.9 314.8 168.9C315.2 168.9 315.5 168.6 315.5 168.2V168.1C315.5 167.5 316 167 316.6 167H316.7C317.1 167 317.4 166.7 317.4 166.3C317.4 165.9 317.1 165.6 316.7 165.6Z" fill="#361C56"/>
<path opacity="0.93" d="M40.2 110.3C39.5 110.3 39 109.8 39 109.2V109.1C39 108.7 38.7 108.4 38.3 108.4C37.9 108.4 37.6 108.7 37.6 109.1V109.2C37.6 109.8 37.1 110.3 36.5 110.3H36.4C36 110.3 35.7 110.6 35.7 111C35.7 111.4 36 111.7 36.4 111.7H36.5C37.1 111.7 37.6 112.2 37.6 112.8V112.9C37.6 113.3 37.9 113.6 38.3 113.6C38.7 113.6 39 113.3 39 112.9V112.8C39 112.2 39.5 111.7 40.1 111.7H40.2C40.6 111.7 40.9 111.4 40.9 111C40.8 110.6 40.6 110.3 40.2 110.3Z" fill="#361C56"/>
<path opacity="0.93" d="M175.6 54.9C174.9 54.9 174.4 54.4 174.4 53.8V53.7C174.4 53.3 174.1 53 173.7 53C173.3 53 173 53.3 173 53.7V53.8C173 54.4 172.5 54.9 171.9 54.9H171.8C171.4 54.9 171.1 55.2 171.1 55.6C171.1 56 171.4 56.3 171.8 56.3H171.9C172.5 56.3 173 56.8 173 57.4V57.5C173 57.9 173.3 58.2 173.7 58.2C174.1 58.2 174.4 57.9 174.4 57.5V57.4C174.4 56.8 174.9 56.3 175.5 56.3H175.6C176 56.3 176.3 56 176.3 55.6C176.2 55.2 175.9 54.9 175.6 54.9Z" fill="#361C56"/>
<path d="M217.2 89.3H217C215.9 89.3 215 88.4 215 87.3V87.1C215 86.4 214.5 85.9 213.8 85.9H213.7C213 85.9 212.5 86.4 212.5 87.1V87.3C212.5 88.4 211.6 89.3 210.5 89.3H210.3C209.6 89.3 209.1 89.8 209.1 90.5C209.1 91.2 209.6 91.7 210.3 91.7H210.5C211.6 91.7 212.5 92.6 212.5 93.7V93.9C212.5 94.6 213 95.1 213.7 95.1H213.8C214.5 95.1 215 94.6 215 93.9V93.7C215 92.6 215.9 91.7 217 91.7H217.2C217.9 91.7 218.4 91.2 218.4 90.5C218.4 89.8 217.9 89.3 217.2 89.3Z" fill="white"/>
<path d="M248 394.7H247.8C246.5 394.7 245.5 393.7 245.5 392.4V392.2C245.5 391.5 244.9 390.9 244.2 390.9H244.1C243.4 390.9 242.8 391.5 242.8 392.2V392.4C242.8 393.7 241.8 394.7 240.5 394.7H240.3C239.6 394.7 239 395.3 239 396C239 396.7 239.6 397.3 240.3 397.3H240.5C241.8 397.3 242.8 398.3 242.8 399.6V399.8C242.8 400.5 243.4 401.1 244.1 401.1H244.2C244.9 401.1 245.5 400.5 245.5 399.8V399.6C245.5 398.3 246.5 397.3 247.8 397.3H248C248.7 397.3 249.3 396.7 249.3 396C249.3 395.3 248.7 394.7 248 394.7Z" fill="white"/>
<path d="M38.4 125H38.3C37.3 125 36.5 124.2 36.5 123.2V123C36.5 122.4 36 122 35.5 122H35.4C34.8 122 34.4 122.5 34.4 123V123.2C34.4 124.2 33.6 125 32.6 125H32.5C31.9 125 31.5 125.5 31.5 126C31.5 126.6 32 127 32.5 127H32.6C33.6 127 34.4 127.8 34.4 128.8V129C34.4 129.6 34.9 130 35.4 130H35.5C36.1 130 36.5 129.5 36.5 129V128.8C36.5 127.8 37.3 127 38.3 127H38.4C39 127 39.4 126.5 39.4 126C39.4 125.4 38.9 125 38.4 125Z" fill="white"/>
<path d="M68.1 476C67.7 476 67.5 475.7 67.5 475.4V475.3C67.5 475.1 67.3 475 67.2 475C67 475 66.9 475.2 66.9 475.3V475.4C66.9 475.7 66.6 476 66.3 476C66.1 476 66 476.2 66 476.3C66 476.5 66.2 476.6 66.3 476.6C66.6 476.6 66.9 476.9 66.9 477.2V477.3C66.9 477.5 67.1 477.6 67.2 477.6C67.4 477.6 67.5 477.4 67.5 477.3V477.2C67.5 476.9 67.8 476.6 68.1 476.6C68.3 476.6 68.4 476.4 68.4 476.3C68.4 476.2 68.3 476 68.1 476Z" fill="white"/>
<path d="M41.7999 320.4H41.5999C40.2999 320.4 39.2999 319.4 39.2999 318.1V317.9C39.2999 317.2 38.6999 316.6 37.9999 316.6C37.2999 316.6 36.6999 317.2 36.6999 317.9V318.1C36.6999 319.4 35.6999 320.4 34.3999 320.4H34.1999C33.4999 320.4 32.8999 321 32.8999 321.7C32.8999 322.4 33.4999 323 34.1999 323H34.3999C35.6999 323 36.6999 324 36.6999 325.3V325.5C36.6999 326.2 37.2999 326.8 37.9999 326.8C38.6999 326.8 39.2999 326.2 39.2999 325.5V325.3C39.2999 324 40.2999 323 41.5999 323H41.7999C42.4999 323 43.0999 322.4 43.0999 321.7C43.0999 321 42.4999 320.4 41.7999 320.4Z" fill="white"/>
<path d="M168.8 40.8H168.6C167.3 40.8 166.3 39.8 166.3 38.5V38.3C166.3 37.6 165.7 37 165 37H164.9C164.2 37 163.6 37.6 163.6 38.3V38.5C163.6 39.8 162.6 40.8 161.3 40.8H161.1C160.4 40.8 159.8 41.4 159.8 42.1C159.8 42.8 160.4 43.4 161.1 43.4H161.3C162.6 43.4 163.6 44.4 163.6 45.7V45.9C163.6 46.6 164.2 47.2 164.9 47.2H165C165.7 47.2 166.3 46.6 166.3 45.9V45.7C166.3 44.4 167.3 43.4 168.6 43.4H168.8C169.5 43.4 170.1 42.8 170.1 42.1C170.1 41.4 169.5 40.8 168.8 40.8Z" fill="white"/>
<path d="M246.5 302.1H246.4C245.6 302.1 245 301.5 245 300.7V300.6C245 300.2 244.6 299.8 244.2 299.8C243.8 299.8 243.4 300.2 243.4 300.6V300.7C243.4 301.5 242.8 302.1 242 302.1H241.9C241.5 302.1 241.1 302.5 241.1 302.9C241.1 303.3 241.5 303.7 241.9 303.7H242C242.8 303.7 243.4 304.3 243.4 305.1V305.2C243.4 305.6 243.8 306 244.2 306C244.6 306 245 305.6 245 305.2V305.1C245 304.3 245.6 303.7 246.4 303.7H246.5C246.9 303.7 247.3 303.3 247.3 302.9C247.3 302.5 246.9 302.1 246.5 302.1Z" fill="white"/>
<path d="M276.9 348.5C276.2 348.5 275.7 348 275.7 347.4V347.3C275.7 346.9 275.4 346.6 275 346.6C274.6 346.6 274.3 346.9 274.3 347.3V347.4C274.3 348 273.8 348.5 273.2 348.5H273.1C272.7 348.5 272.4 348.8 272.4 349.2C272.4 349.6 272.7 349.9 273.1 349.9H273.2C273.8 349.9 274.3 350.4 274.3 351V351.1C274.3 351.5 274.6 351.8 275 351.8C275.4 351.8 275.7 351.5 275.7 351.1V351C275.7 350.4 276.2 349.9 276.8 349.9H276.9C277.3 349.9 277.6 349.6 277.6 349.2C277.5 348.8 277.2 348.5 276.9 348.5Z" fill="white"/>
<path d="M341.3 395.3C340.6 395.3 340.1 394.8 340.1 394.2V394.1C340.1 393.7 339.8 393.4 339.4 393.4C339 393.4 338.7 393.7 338.7 394.1V394.2C338.7 394.8 338.2 395.3 337.6 395.3H337.5C337.1 395.3 336.8 395.6 336.8 396C336.8 396.4 337.1 396.7 337.5 396.7H337.6C338.2 396.7 338.7 397.2 338.7 397.8V397.9C338.7 398.3 339 398.6 339.4 398.6C339.8 398.6 340.1 398.3 340.1 397.9V397.8C340.1 397.2 340.6 396.7 341.2 396.7H341.3C341.7 396.7 342 396.4 342 396C341.9 395.6 341.7 395.3 341.3 395.3Z" fill="white"/>
<path d="M153 367.9C152.3 367.9 151.8 367.4 151.8 366.8V366.7C151.8 366.3 151.5 366 151.1 366C150.7 366 150.4 366.3 150.4 366.7V366.8C150.4 367.4 149.9 367.9 149.3 367.9H149.2C148.8 367.9 148.5 368.2 148.5 368.6C148.5 369 148.8 369.3 149.2 369.3H149.3C149.9 369.3 150.4 369.8 150.4 370.4V370.5C150.4 370.9 150.7 371.2 151.1 371.2C151.5 371.2 151.8 370.9 151.8 370.5V370.4C151.8 369.8 152.3 369.3 152.9 369.3H153C153.4 369.3 153.7 369 153.7 368.6C153.7 368.2 153.4 367.9 153 367.9Z" fill="white"/>
<path d="M18.4 140C17.7 140 17.2 139.5 17.2 138.9V138.8C17.2 138.4 16.9 138.1 16.5 138.1C16.1 138.1 15.8 138.4 15.8 138.8V138.9C15.8 139.5 15.3 140 14.7 140C14.3 140 14 140.3 14 140.7C14 141.1 14.3 141.4 14.7 141.4H14.8C15.4 141.4 15.9 141.9 15.9 142.5V142.6C15.9 143 16.2 143.3 16.6 143.3C17 143.3 17.3 143 17.3 142.6V142.5C17.3 141.9 17.8 141.4 18.4 141.4H18.5C18.9 141.4 19.2 141.1 19.2 140.7C19.1 140.3 18.8 140 18.4 140Z" fill="white"/>
<path d="M275.9 54.7C275.5 54.7 275.1 54.4 275.1 54V53.9C275.1 53.7 274.9 53.5 274.7 53.5C274.5 53.5 274.3 53.7 274.3 53.9V54C274.3 54.4 274 54.7 273.6 54.7H273.5C273.3 54.7 273.1 54.9 273.1 55.1C273.1 55.3 273.3 55.5 273.5 55.5H273.6C274 55.5 274.3 55.8 274.3 56.2V56.3C274.3 56.5 274.5 56.7 274.7 56.7C274.9 56.7 275.1 56.5 275.1 56.3V56.2C275.1 55.8 275.4 55.5 275.8 55.5H275.9C276.1 55.5 276.3 55.3 276.3 55.1C276.3 54.9 276.1 54.7 275.9 54.7Z" fill="white"/>
<path d="M307 473.1C306.3 473.1 305.8 472.6 305.8 472V471.9C305.8 471.5 305.5 471.2 305.1 471.2C304.7 471.2 304.4 471.5 304.4 471.9V472C304.4 472.6 303.9 473.1 303.3 473.1H303.2C302.8 473.1 302.5 473.4 302.5 473.8C302.5 474.2 302.8 474.5 303.2 474.5H303.3C303.9 474.5 304.4 475 304.4 475.6V475.7C304.4 476.1 304.7 476.4 305.1 476.4C305.5 476.4 305.8 476.1 305.8 475.7V475.6C305.8 475 306.3 474.5 306.9 474.5H307C307.4 474.5 307.7 474.2 307.7 473.8C307.6 473.4 307.4 473.1 307 473.1Z" fill="white"/>
<path d="M253.3 41.5C252.6 41.5 252.1 41 252.1 40.4V40.2C252.1 39.8 251.8 39.5 251.4 39.5C251 39.5 250.7 39.8 250.7 40.2V40.3C250.7 40.9 250.2 41.4 249.6 41.4H249.5C249.1 41.4 248.8 41.7 248.8 42.1C248.8 42.5 249.1 42.8 249.5 42.8H249.6C250.2 42.8 250.7 43.3 250.7 43.9V44C250.7 44.4 251 44.7 251.4 44.7C251.8 44.7 252.1 44.4 252.1 44V43.9C252.1 43.3 252.6 42.8 253.2 42.8H253.3C253.7 42.8 254 42.5 254 42.1C254 41.8 253.7 41.5 253.3 41.5Z" fill="white"/>
<path d="M34.8 71.5C34.1 71.5 33.6 71 33.6 70.4V70.3C33.6 69.9 33.3 69.6 32.9 69.6C32.5 69.6 32.2001 69.9 32.2001 70.3V70.4C32.2001 71 31.7 71.5 31.1 71.5H31C30.6 71.5 30.3 71.8 30.3 72.2C30.3 72.6 30.6 72.9 31 72.9H31.1C31.7 72.9 32.2001 73.4 32.2001 74V74C32.2001 74.4 32.5 74.7 32.9 74.7C33.3 74.7 33.6 74.4 33.6 74V73.9C33.6 73.3 34.1001 72.8 34.7001 72.8H34.8C35.2 72.8 35.5 72.5 35.5 72.1C35.4 71.8 35.1 71.5 34.8 71.5Z" fill="white"/>
<defs>
<linearGradient id="paint0_linear" x1="1.70952" y1="17.7252" x2="69.8957" y2="85.9114" gradientUnits="userSpaceOnUse">
<stop stop-color="#492168" stop-opacity="0"/>
<stop offset="0.4689" stop-color="#9B2168" stop-opacity="0.7793"/>
<stop offset="0.6016" stop-color="#B32168"/>
<stop offset="1" stop-color="#FF6B95"/>
</linearGradient>
<linearGradient id="paint1_linear" x1="300.47" y1="22.5841" x2="334.563" y2="56.6772" gradientUnits="userSpaceOnUse">
<stop stop-color="#492168" stop-opacity="0"/>
<stop offset="0.4689" stop-color="#9B2168" stop-opacity="0.7793"/>
<stop offset="0.6016" stop-color="#B32168"/>
<stop offset="1" stop-color="#FF6B95"/>
</linearGradient>
<linearGradient id="paint2_linear" x1="312.336" y1="95.4072" x2="346.429" y2="129.5" gradientUnits="userSpaceOnUse">
<stop stop-color="#492168" stop-opacity="0"/>
<stop offset="0.4689" stop-color="#9B2168" stop-opacity="0.7793"/>
<stop offset="0.6016" stop-color="#B32168"/>
<stop offset="1" stop-color="#FF6B95"/>
</linearGradient>
<linearGradient id="paint3_linear" x1="115.51" y1="470.306" x2="149.603" y2="504.399" gradientUnits="userSpaceOnUse">
<stop stop-color="#492168" stop-opacity="0"/>
<stop offset="0.4689" stop-color="#9B2168" stop-opacity="0.7793"/>
<stop offset="0.6016" stop-color="#B32168"/>
<stop offset="1" stop-color="#FF6B95"/>
</linearGradient>
<linearGradient id="paint4_linear" x1="220.759" y1="198.896" x2="340.465" y2="318.602" gradientUnits="userSpaceOnUse">
<stop stop-color="#492168" stop-opacity="0"/>
<stop offset="0.4689" stop-color="#9B2168" stop-opacity="0.7793"/>
<stop offset="0.6016" stop-color="#B32168"/>
<stop offset="1" stop-color="#FF6B95"/>
</linearGradient>
<radialGradient id="paint5_radial" cx="0" cy="0" r="1" gradientUnits="userSpaceOnUse" gradientTransform="translate(83.2785 298.45) scale(182.307)">
<stop stop-color="#261734"/>
<stop offset="0.4777" stop-color="#271835"/>
<stop offset="1" stop-color="#37265D"/>
</radialGradient>
</defs>
</svg>
