<svg width="13" height="16" viewBox="0 0 13 16" fill="none" xmlns="http://www.w3.org/2000/svg">
<path d="M10.6 5.1L11.5 4C11.7 3.8 11.7 3.4 11.4 3.2C11.2 3 10.8 3 10.6 3.3L9.6 4.4C8.6 3.7 7.4 3.3 6.1 3.3C2.8 3.3 0 6.1 0 9.5C0 12.9 2.8 15.7 6.2 15.7C9.6 15.7 12.4 12.9 12.4 9.5C12.4 7.8 11.7 6.2 10.6 5.1ZM6.2 14.5C3.4 14.5 1.1 12.2 1.1 9.4C1.1 6.6 3.4 4.3 6.2 4.3C9 4.3 11.3 6.6 11.3 9.4C11.3 12.2 9 14.5 6.2 14.5Z" fill="#FF6B95"/>
<path d="M6.8 8.39999V6.49999C6.8 6.19999 6.5 5.89999 6.2 5.89999C5.9 5.89999 5.6 6.19999 5.6 6.49999V8.39999C5.3 8.59999 5 8.99999 5 9.49999C5 10.2 5.5 10.7 6.2 10.7C6.9 10.7 7.4 10.2 7.4 9.49999C7.4 8.99999 7.2 8.59999 6.8 8.39999Z" fill="#FF6B95"/>
<path d="M5 1.5C5 1.3 5.2 1.1 5.4 1.1H7.1C7.3 1.1 7.5 1.3 7.5 1.5V2.3H8.7V1.5C8.6 0.7 7.9 0 7.1 0H5.3C4.5 0 3.8 0.7 3.8 1.5V2.3H5V1.5Z" fill="#FF6B95"/>
</svg>
