<svg width="15" height="14" viewBox="0 0 15 14" fill="none" xmlns="http://www.w3.org/2000/svg">
<path d="M11.3 13.8C11.2 13.8 11.1 13.8 11 13.7L7.2 11.7L3.4 13.7C3.2 13.8 3 13.8 2.8 13.7C2.6 13.6 2.5 13.4 2.6 13.1L3.3 8.8L0.2 5.8C0 5.7 0 5.4 0 5.2C0 5 0.2 4.8 0.5 4.8L4.8 4.2L6.7 0.3C6.8 0.1 7 0 7.2 0C7.4 0 7.6 0.1 7.7 0.3L9.6 4.2L13.9 4.8C14.1 4.8 14.3 5 14.4 5.2C14.5 5.4 14.4 5.6 14.3 5.8L11.2 8.8L11.9 13.1C11.9 13.3 11.8 13.5 11.7 13.7C11.6 13.7 11.4 13.8 11.3 13.8ZM1.8 5.8L4.3 8.2C4.4 8.3 4.5 8.5 4.5 8.7L3.9 12.1L7 10.5C7.2 10.4 7.4 10.4 7.5 10.5L10.6 12.1L10 8.7C10 8.5 10 8.3 10.2 8.2L12.7 5.8L9.2 5.3C9 5.3 8.8 5.2 8.8 5L7.2 1.9L5.7 5C5.6 5.2 5.4 5.3 5.2 5.3L1.8 5.8Z" fill="#FF6B95"/>
</svg>
