<svg width="349" height="546" viewBox="0 0 349 546" fill="none" xmlns="http://www.w3.org/2000/svg">
<path d="M306.8 467.1C300 479.9 291.3 491.6 281.1 501.7C257.1 525.7 224.7 541.4 188.8 544C129.4 548.3 76.3 516.1 50 467.1H306.8Z" fill="#0BFF90" stroke="black" stroke-width="1.3817" stroke-miterlimit="10" stroke-linecap="round" stroke-linejoin="round"/>
<path d="M323.8 364V398.9C323.8 399.2 323.8 399.5 323.8 399.8C323.6 424.1 317.5 447 306.8 467.2H50.1C39.3 447.1 33.1 424.2 32.7 399.8C32.7 399.1 32.7 398.4 32.7 397.7V364C32.7 363 32.8 362.1 32.9 361.2H323.7C323.8 362.1 323.8 363 323.8 364Z" fill="#0BFF90" stroke="black" stroke-width="1.3817" stroke-miterlimit="10" stroke-linecap="round" stroke-linejoin="round"/>
<path d="M323.8 399.8C323.6 424.1 317.5 447 306.8 467.2H50.1C39.3 447.1 33.1 424.2 32.7 399.8H323.8Z" fill="#3475EA" stroke="black" stroke-width="1.3817" stroke-miterlimit="10" stroke-linecap="round" stroke-linejoin="round"/>
<path d="M240.1 164.8C241.9 165.8 243.6 166.8 245.3 167.8C282.2 190.6 306.8 231.5 306.8 278.1V356.7H47.5V278.1C47.5 231.5 72.1 190.7 109 167.8C110.6 166.8 112.1 165.9 113.7 165" stroke="black" stroke-width="1.3817" stroke-miterlimit="10" stroke-linecap="round" stroke-linejoin="round"/>
<path d="M63.1 346.7C67.5183 346.7 71.1 343.118 71.1 338.7C71.1 334.282 67.5183 330.7 63.1 330.7C58.6817 330.7 55.1 334.282 55.1 338.7C55.1 343.118 58.6817 346.7 63.1 346.7Z" fill="#EA3D94" stroke="black" stroke-width="1.3817" stroke-miterlimit="10" stroke-linecap="round" stroke-linejoin="round"/>
<path d="M263.2 359.6C271.595 359.6 278.4 352.795 278.4 344.4C278.4 336.005 271.595 329.2 263.2 329.2C254.805 329.2 248 336.005 248 344.4C248 352.795 254.805 359.6 263.2 359.6Z" fill="#EA3D94" stroke="black" stroke-width="1.1685" stroke-miterlimit="10" stroke-linecap="round" stroke-linejoin="round"/>
<path d="M189.8 359.6C199.741 359.6 207.8 351.541 207.8 341.6C207.8 331.659 199.741 323.6 189.8 323.6C179.859 323.6 171.8 331.659 171.8 341.6C171.8 351.541 179.859 359.6 189.8 359.6Z" fill="#EA3D94" stroke="black" stroke-width="1.3817" stroke-miterlimit="10" stroke-linecap="round" stroke-linejoin="round"/>
<path d="M111.9 359.5C123.719 359.5 133.3 349.919 133.3 338.1C133.3 326.281 123.719 316.7 111.9 316.7C100.081 316.7 90.5 326.281 90.5 338.1C90.5 349.919 100.081 359.5 111.9 359.5Z" fill="#EA3D94" stroke="black" stroke-width="1.3817" stroke-miterlimit="10" stroke-linecap="round" stroke-linejoin="round"/>
<path d="M241 2.39999L247 5.7" stroke="white" stroke-width="1.3817" stroke-miterlimit="10" stroke-linecap="round" stroke-linejoin="round"/>
<path d="M242.4 7L245.7 1" stroke="white" stroke-width="1.3817" stroke-miterlimit="10" stroke-linecap="round" stroke-linejoin="round"/>
<path d="M35.9 112.4L41.9 115.7" stroke="white" stroke-width="1.3817" stroke-miterlimit="10" stroke-linecap="round" stroke-linejoin="round"/>
<path d="M37.3 117L40.6 111" stroke="white" stroke-width="1.3817" stroke-miterlimit="10" stroke-linecap="round" stroke-linejoin="round"/>
<path d="M337.1 127L343.5 124.4" stroke="white" stroke-width="1.3817" stroke-miterlimit="10" stroke-linecap="round" stroke-linejoin="round"/>
<path d="M341.6 128.9L339 122.5" stroke="white" stroke-width="1.3817" stroke-miterlimit="10" stroke-linecap="round" stroke-linejoin="round"/>
<path d="M252.1 70.6L258 73.9" stroke="white" stroke-width="1.3817" stroke-miterlimit="10" stroke-linecap="round" stroke-linejoin="round"/>
<path d="M253.4 75.2L256.7 69.2" stroke="white" stroke-width="1.3817" stroke-miterlimit="10" stroke-linecap="round" stroke-linejoin="round"/>
<path d="M203.4 51.7L209 47.8" stroke="white" stroke-width="1.3817" stroke-miterlimit="10" stroke-linecap="round" stroke-linejoin="round"/>
<path d="M208.2 52.5L204.3 46.9" stroke="white" stroke-width="1.3817" stroke-miterlimit="10" stroke-linecap="round" stroke-linejoin="round"/>
<path d="M286 23.9L291.6 20" stroke="white" stroke-width="1.3817" stroke-miterlimit="10" stroke-linecap="round" stroke-linejoin="round"/>
<path d="M290.7 24.8L286.8 19.2" stroke="white" stroke-width="1.3817" stroke-miterlimit="10" stroke-linecap="round" stroke-linejoin="round"/>
<path d="M97.5 137C98.3284 137 99 136.328 99 135.5C99 134.672 98.3284 134 97.5 134C96.6716 134 96 134.672 96 135.5C96 136.328 96.6716 137 97.5 137Z" fill="white"/>
<path d="M1.5 42.7C2.32843 42.7 3 42.0284 3 41.2C3 40.3716 2.32843 39.7 1.5 39.7C0.671573 39.7 0 40.3716 0 41.2C0 42.0284 0.671573 42.7 1.5 42.7Z" fill="white"/>
<path d="M22.5 8C23.3284 8 24 7.32843 24 6.5C24 5.67157 23.3284 5 22.5 5C21.6716 5 21 5.67157 21 6.5C21 7.32843 21.6716 8 22.5 8Z" fill="white"/>
<path d="M251.9 37.5C253.225 37.5 254.3 36.4255 254.3 35.1C254.3 33.7745 253.225 32.7 251.9 32.7C250.575 32.7 249.5 33.7745 249.5 35.1C249.5 36.4255 250.575 37.5 251.9 37.5Z" fill="white"/>
<path d="M342.7 22.4C344.025 22.4 345.1 21.3255 345.1 20C345.1 18.6745 344.025 17.6 342.7 17.6C341.375 17.6 340.3 18.6745 340.3 20C340.3 21.3255 341.375 22.4 342.7 22.4Z" fill="white"/>
<path d="M124.5 9C125.881 9 127 7.88071 127 6.5C127 5.11929 125.881 4 124.5 4C123.119 4 122 5.11929 122 6.5C122 7.88071 123.119 9 124.5 9Z" fill="white"/>
<path d="M151.1 55.1C153.309 55.1 155.1 53.3091 155.1 51.1C155.1 48.8908 153.309 47.1 151.1 47.1C148.891 47.1 147.1 48.8908 147.1 51.1C147.1 53.3091 148.891 55.1 151.1 55.1Z" fill="white"/>
<path d="M92.4 234.1H87.2V343.2H92.4V234.1Z" fill="#FF6CAF" stroke="black" stroke-width="1.3817" stroke-miterlimit="10" stroke-linecap="round" stroke-linejoin="round"/>
<path d="M102.8 225.6C102.2 225.6 101.6 225.8 101.1 226.1C100.5 225.6 99.8 225.2 99 224.9C99 224.5 99.1 224.1 99.1 223.8C99.1 218.7 95 214.6 89.9 214.6C84.8 214.6 80.7 218.7 80.7 223.8C80.7 223.9 80.7 224.1 80.7 224.2C80.4 224.1 80 224.1 79.7 224.1C76.3 224.1 73.6 226.8 73.6 230.2C73.6 233.3 75.9 235.9 78.9 236.2C78.7 236.8 78.6 237.4 78.6 238C78.6 241.4 81.3 244.1 84.7 244.1C87.1 244.1 89.1 242.7 90.1 240.7H90.2C91 242.7 92.9 244.1 95.2 244.1C98.2 244.1 100.6 241.7 100.6 238.7C100.6 237.4 100.2 236.2 99.4 235.3C100.9 234.7 102.1 233.4 102.6 231.9H102.7C104.5 231.9 105.9 230.5 105.9 228.7C106 227 104.6 225.6 102.8 225.6Z" fill="#0BFF90" stroke="black" stroke-width="1.3817" stroke-miterlimit="10" stroke-linecap="round" stroke-linejoin="round"/>
<path d="M82.1 228.8C81.2 227.4 80.6 225.6 80.6 223.8C80.6 223.3 80.6 222.8 80.7 222.3" stroke="black" stroke-width="1.3817" stroke-miterlimit="10" stroke-linecap="round" stroke-linejoin="round"/>
<path d="M92.7 227.5C93.7 225.8 95.4 224.7 97.5 224.7C98.3 224.7 99 224.9 99.7 225.1" stroke="black" stroke-width="1.3817" stroke-miterlimit="10" stroke-linecap="round" stroke-linejoin="round"/>
<path d="M78.6 238.1C78.6 236.5 79.2 235.1 80.1 234.1" stroke="black" stroke-width="1.3817" stroke-miterlimit="10" stroke-linecap="round" stroke-linejoin="round"/>
<path d="M84.8 238.1C84.2 237.2 83.8 236 83.8 234.8C83.8 232.8 84.7 231.1 86.2 230" stroke="black" stroke-width="1.3817" stroke-miterlimit="10" stroke-linecap="round" stroke-linejoin="round"/>
<path d="M97.2 233.7C99.3 234.5 100.7 236.4 100.7 238.8C100.7 241.8 98.3 244.2 95.3 244.2C92.3 244.2 89.9 241.8 89.9 238.8C89.9 238.2 90 237.6 90.2 237" stroke="black" stroke-width="1.3817" stroke-miterlimit="10" stroke-linecap="round" stroke-linejoin="round"/>
<path d="M102.8 232C101.2 232 100 230.9 99.7 229.4" stroke="black" stroke-width="1.3817" stroke-miterlimit="10" stroke-linecap="round" stroke-linejoin="round"/>
<path d="M228.6 247.2H225.8V343.2H228.6V247.2Z" fill="#FF6CAF" stroke="black" stroke-width="1.3817" stroke-miterlimit="10" stroke-linecap="round" stroke-linejoin="round"/>
<path d="M234.3 241C234 241 233.6 241.1 233.4 241.3C233.1 241 232.7 240.8 232.2 240.7C232.2 240.5 232.2 240.3 232.2 240.1C232.2 237.3 230 235.1 227.2 235.1C224.4 235.1 222.2 237.3 222.2 240.1C222.2 240.2 222.2 240.3 222.2 240.3C222 240.3 221.8 240.2 221.6 240.2C219.8 240.2 218.3 241.7 218.3 243.5C218.3 245.2 219.6 246.6 221.2 246.8C221.1 247.1 221.1 247.4 221.1 247.8C221.1 249.6 222.6 251.1 224.4 251.1C225.7 251.1 226.8 250.4 227.4 249.3H227.5C227.9 250.4 229 251.1 230.2 251.1C231.8 251.1 233.1 249.8 233.1 248.2C233.1 247.5 232.9 246.9 232.5 246.4C233.3 246.1 234 245.4 234.3 244.5C235.3 244.5 236 243.7 236 242.8C236 241.8 235.2 241 234.3 241Z" fill="#0BFF90" stroke="black" stroke-width="1.3817" stroke-miterlimit="10" stroke-linecap="round" stroke-linejoin="round"/>
<path d="M223 242.8C222.5 242 222.2 241.1 222.2 240.1C222.2 239.8 222.2 239.6 222.3 239.3" stroke="black" stroke-width="1.3817" stroke-miterlimit="10" stroke-linecap="round" stroke-linejoin="round"/>
<path d="M228.8 242C229.3 241.1 230.3 240.5 231.4 240.5C231.8 240.5 232.2 240.6 232.6 240.7" stroke="black" stroke-width="1.3817" stroke-miterlimit="10" stroke-linecap="round" stroke-linejoin="round"/>
<path d="M221.1 247.8C221.1 247 221.4 246.2 221.9 245.6" stroke="black" stroke-width="1.3817" stroke-miterlimit="10" stroke-linecap="round" stroke-linejoin="round"/>
<path d="M224.5 247.8C224.2 247.3 224 246.7 224 246C224 244.9 224.5 244 225.3 243.4" stroke="black" stroke-width="1.3817" stroke-miterlimit="10" stroke-linecap="round" stroke-linejoin="round"/>
<path d="M231.2 245.4C232.3 245.8 233.1 246.9 233.1 248.2C233.1 249.8 231.8 251.1 230.2 251.1C228.6 251.1 227.3 249.8 227.3 248.2C227.3 247.9 227.4 247.5 227.5 247.2" stroke="black" stroke-width="1.3817" stroke-miterlimit="10" stroke-linecap="round" stroke-linejoin="round"/>
<path d="M234.3 244.5C233.5 244.5 232.7 243.9 232.6 243.1" stroke="black" stroke-width="1.3817" stroke-miterlimit="10" stroke-linecap="round" stroke-linejoin="round"/>
<path d="M80.8 296.1H77.4V358.5H80.8V296.1Z" fill="#FF6CAF" stroke="black" stroke-width="1.3817" stroke-miterlimit="10" stroke-linecap="round" stroke-linejoin="round"/>
<path d="M90.5 296.3C90.5 293.8 88.5 291.8 86 291.8C85.7 291.8 85.4 291.8 85.1 291.9C84.6 289.1 82.1 286.9 79.1 286.9C75.7 286.9 73 289.6 73 293C73 293.1 73 293.2 73 293.3C72.8 293.3 72.6 293.2 72.3 293.2C72 293.2 71.6 293.2 71.3 293.3C70.9 292.8 70.3 292.5 69.6 292.5C68.4 292.5 67.5 293.4 67.5 294.6C67.5 295.3 67.8 295.9 68.3 296.3C68.2 296.6 68.2 296.9 68.2 297.3C68.2 298.9 69.1 300.3 70.5 300.9C70.1 301.6 69.9 302.4 69.9 303.3C69.9 306.1 72.2 308.4 75 308.4C76.6 308.4 78 307.7 78.9 306.5C80 308.2 81.8 309.3 84 309.3C87.3 309.3 90 306.6 90 303.3C90 301.9 89.6 300.7 88.8 299.7C89.9 298.8 90.5 297.6 90.5 296.3Z" fill="#0BFF90" stroke="black" stroke-width="1.3817" stroke-miterlimit="10" stroke-linecap="round" stroke-linejoin="round"/>
<path d="M84.8 290.9C85 291.5 85.2 292.3 85.2 293C85.2 293.8 85 294.5 84.8 295.2" stroke="black" stroke-width="1.3817" stroke-miterlimit="10" stroke-linecap="round" stroke-linejoin="round"/>
<path d="M89.5 299.1C88.8 300 87.8 300.6 86.6 300.7" stroke="black" stroke-width="1.3817" stroke-miterlimit="10" stroke-linecap="round" stroke-linejoin="round"/>
<path d="M72.4 293.2C73.4 293.2 74.4 293.6 75.1 294.2" stroke="black" stroke-width="1.3817" stroke-miterlimit="10" stroke-linecap="round" stroke-linejoin="round"/>
<path d="M73.1 301.2C72.9 301.2 72.6 301.3 72.4 301.3C71.7 301.3 71 301.1 70.4 300.8" stroke="black" stroke-width="1.3817" stroke-miterlimit="10" stroke-linecap="round" stroke-linejoin="round"/>
<path d="M79.5 300.7C79.9 301.4 80.2 302.3 80.2 303.2C80.2 304.9 79.4 306.4 78.1 307.3" stroke="black" stroke-width="1.3817" stroke-miterlimit="10" stroke-linecap="round" stroke-linejoin="round"/>
<path d="M75.2 299.5C75.6 297.7 77.2 296.3 79.1 296.3C80 296.3 80.9 296.6 81.5 297.1" stroke="black" stroke-width="1.3817" stroke-miterlimit="10" stroke-linecap="round" stroke-linejoin="round"/>
<path d="M70.8 292.9C71.4 293.3 71.8 293.9 71.8 294.7C71.8 295.1 71.7 295.5 71.4 295.9" stroke="black" stroke-width="1.3817" stroke-miterlimit="10" stroke-linecap="round" stroke-linejoin="round"/>
<path d="M273.096 343.187L276.996 343.187L276.996 250.087L273.096 250.087L273.096 343.187Z" fill="#FF6CAF" stroke="black" stroke-width="1.3817" stroke-miterlimit="10" stroke-linecap="round" stroke-linejoin="round"/>
<path d="M261.9 250.3C261.9 247.5 264.2 245.2 267 245.2C267.4 245.2 267.7 245.2 268.1 245.3C268.7 242 271.5 239.5 275 239.5C278.9 239.5 282 242.6 282 246.5C282 246.6 282 246.7 282 246.8C282.3 246.8 282.5 246.7 282.8 246.7C283.2 246.7 283.6 246.8 283.9 246.8C284.3 246.2 285 245.8 285.8 245.8C287.1 245.8 288.2 246.9 288.2 248.2C288.2 249 287.8 249.7 287.2 250.1C287.3 250.5 287.3 250.8 287.3 251.2C287.3 253 286.2 254.6 284.7 255.4C285.1 256.2 285.4 257.1 285.4 258.1C285.4 261.3 282.8 264 279.5 264C277.7 264 276 263.2 275 261.9C273.8 263.8 271.6 265.1 269.2 265.1C265.4 265.1 262.3 262 262.3 258.2C262.3 256.6 262.8 255.2 263.7 254C262.6 253.2 261.9 251.8 261.9 250.3Z" fill="#0BFF90" stroke="black" stroke-width="1.3817" stroke-miterlimit="10" stroke-linecap="round" stroke-linejoin="round"/>
<path d="M268.4 244.1C268.1 244.8 268 245.7 268 246.5C268 247.4 268.2 248.3 268.5 249.1" stroke="black" stroke-width="1.3817" stroke-miterlimit="10" stroke-linecap="round" stroke-linejoin="round"/>
<path d="M263 253.5C263.8 254.5 265 255.2 266.4 255.4" stroke="black" stroke-width="1.3817" stroke-miterlimit="10" stroke-linecap="round" stroke-linejoin="round"/>
<path d="M282.8 246.8C281.6 246.8 280.5 247.2 279.7 248" stroke="black" stroke-width="1.3817" stroke-miterlimit="10" stroke-linecap="round" stroke-linejoin="round"/>
<path d="M281.9 256C282.2 256.1 282.5 256.1 282.8 256.1C283.6 256.1 284.4 255.9 285.1 255.5" stroke="black" stroke-width="1.3817" stroke-miterlimit="10" stroke-linecap="round" stroke-linejoin="round"/>
<path d="M274.5 255.4C274 256.3 273.7 257.3 273.7 258.3C273.7 260.3 274.7 262 276.1 263" stroke="black" stroke-width="1.3817" stroke-miterlimit="10" stroke-linecap="round" stroke-linejoin="round"/>
<path d="M279.5 253.9C279.1 251.8 277.2 250.2 275 250.2C273.9 250.2 273 250.6 272.2 251.2" stroke="black" stroke-width="1.3817" stroke-miterlimit="10" stroke-linecap="round" stroke-linejoin="round"/>
<path d="M284.5 246.3C283.8 246.7 283.4 247.5 283.4 248.3C283.4 248.8 283.6 249.3 283.8 249.7" stroke="black" stroke-width="1.3817" stroke-miterlimit="10" stroke-linecap="round" stroke-linejoin="round"/>
<path d="M323.6 361.2H32.9C34.1 352 41.5 344.7 50.7 343.4C51.2 340.3 53.8 337.9 57 337.9C59.7 337.9 61.9 339.5 62.9 341.8C63.5 338.7 66.3 336.3 69.6 336.3C71.8 336.3 73.7 337.3 75 338.9C76 338.3 77.2 337.9 78.5 337.9C78.6 337.9 78.6 337.9 78.7 337.9C79.7 333.4 83.7 330.1 88.4 330.1C93.9 330.1 98.3 334.5 98.3 340C98.3 341.1 98.1 342.1 97.8 343.1H110.4V255.4H115.6V343.1H123C123 339.9 125.6 337.4 128.7 337.4C131.9 337.4 134.4 340 134.4 343.1H191C191 339 194.4 335.6 198.5 335.6C201.6 335.6 204.2 337.4 205.3 340C206.3 338.4 208.1 337.3 210.1 337.3C213.3 337.3 215.8 339.9 215.8 343H239.8V226.8H245.8V343.2H270.1C270.1 336.4 275.6 330.9 282.5 330.9C289.3 330.9 294.9 336.4 294.9 343.2H302.9C313.6 343.2 322.3 351 323.6 361.2Z" fill="#FF6CAF" stroke="black" stroke-width="1.3817" stroke-miterlimit="10" stroke-linecap="round" stroke-linejoin="round"/>
<path d="M130.2 255.8C130.2 252.1 127.2 249 123.4 249C122.9 249 122.5 249 122 249.1C121.2 244.8 117.5 241.5 112.9 241.5C107.8 241.5 103.7 245.6 103.7 250.7C103.7 250.8 103.7 251 103.7 251.1C103.4 251 103 251 102.7 251C102.2 251 101.7 251.1 101.2 251.2C100.6 250.4 99.7 249.9 98.7 249.9C96.9 249.9 95.5 251.3 95.5 253.1C95.5 254.1 96 255 96.8 255.6C96.7 256.1 96.6 256.6 96.6 257.1C96.6 259.5 98 261.6 100.1 262.6C99.5 263.7 99.2 264.9 99.2 266.2C99.2 270.5 102.7 273.9 106.9 273.9C109.3 273.9 111.5 272.8 112.9 271.1C114.5 273.6 117.3 275.3 120.6 275.3C125.6 275.3 129.7 271.2 129.7 266.2C129.7 264.1 129 262.3 127.9 260.7C129.3 259.6 130.2 257.8 130.2 255.8Z" fill="#0BFF90" stroke="black" stroke-width="1.3817" stroke-miterlimit="10" stroke-linecap="round" stroke-linejoin="round"/>
<path d="M121.7 247.6C122.1 248.6 122.3 249.6 122.3 250.8C122.3 252 122.1 253.1 121.7 254.2" fill="#0BFF90"/>
<path d="M121.7 247.6C122.1 248.6 122.3 249.6 122.3 250.8C122.3 252 122.1 253.1 121.7 254.2" stroke="black" stroke-width="1.3817" stroke-miterlimit="10" stroke-linecap="round" stroke-linejoin="round"/>
<path d="M128.8 260C127.7 261.3 126.2 262.3 124.4 262.5L128.8 260Z" fill="#0BFF90"/>
<path d="M128.8 260C127.7 261.3 126.2 262.3 124.4 262.5" stroke="black" stroke-width="1.3817" stroke-miterlimit="10" stroke-linecap="round" stroke-linejoin="round"/>
<path d="M102.8 251.1C104.4 251.1 105.8 251.7 106.9 252.7L102.8 251.1Z" fill="#0BFF90"/>
<path d="M102.8 251.1C104.4 251.1 105.8 251.7 106.9 252.7" stroke="black" stroke-width="1.3817" stroke-miterlimit="10" stroke-linecap="round" stroke-linejoin="round"/>
<path d="M103.9 263.2C103.5 263.3 103.2 263.3 102.8 263.3C101.7 263.3 100.7 263 99.8 262.5" fill="#0BFF90"/>
<path d="M103.9 263.2C103.5 263.3 103.2 263.3 102.8 263.3C101.7 263.3 100.7 263 99.8 262.5" stroke="black" stroke-width="1.3817" stroke-miterlimit="10" stroke-linecap="round" stroke-linejoin="round"/>
<path d="M113.7 262.5C114.4 263.6 114.7 264.9 114.7 266.4C114.7 269 113.4 271.2 111.5 272.6" fill="#0BFF90"/>
<path d="M113.7 262.5C114.4 263.6 114.7 264.9 114.7 266.4C114.7 269 113.4 271.2 111.5 272.6" stroke="black" stroke-width="1.3817" stroke-miterlimit="10" stroke-linecap="round" stroke-linejoin="round"/>
<path d="M107.1 260.6C107.7 257.9 110.1 255.8 113 255.8C114.4 255.8 115.7 256.3 116.7 257.1" fill="#0BFF90"/>
<path d="M107.1 260.6C107.7 257.9 110.1 255.8 113 255.8C114.4 255.8 115.7 256.3 116.7 257.1" stroke="black" stroke-width="1.3817" stroke-miterlimit="10" stroke-linecap="round" stroke-linejoin="round"/>
<path d="M100.5 250.5C101.4 251.1 102 252.1 102 253.2C102 253.9 101.8 254.5 101.5 255" fill="#0BFF90"/>
<path d="M100.5 250.5C101.4 251.1 102 252.1 102 253.2C102 253.9 101.8 254.5 101.5 255" stroke="black" stroke-width="1.3817" stroke-miterlimit="10" stroke-linecap="round" stroke-linejoin="round"/>
<path d="M228 213.7C228.7 213.7 229.4 213.9 229.9 214.3C230.6 213.7 231.4 213.2 232.4 213C232.3 212.6 232.3 212.1 232.3 211.7C232.3 205.8 237.1 201.1 242.9 201.1C248.7 201.1 253.5 205.9 253.5 211.7C253.5 211.9 253.5 212 253.5 212.2C253.9 212.1 254.3 212.1 254.7 212.1C258.6 212.1 261.8 215.3 261.8 219.2C261.8 222.8 259.1 225.8 255.6 226.2C255.8 226.9 255.9 227.5 255.9 228.3C255.9 232.2 252.7 235.4 248.8 235.4C246 235.4 243.7 233.8 242.5 231.5C242.4 231.5 242.4 231.5 242.3 231.5C241.4 233.8 239.1 235.4 236.5 235.4C233 235.4 230.2 232.6 230.2 229.1C230.2 227.6 230.7 226.3 231.6 225.2C229.8 224.5 228.5 223.1 227.9 221.3H227.8C225.8 221.3 224.1 219.7 224.1 217.6C224.3 215.3 225.9 213.7 228 213.7Z" fill="#0BFF90" stroke="black" stroke-width="1.3817" stroke-miterlimit="10" stroke-linecap="round" stroke-linejoin="round"/>
<path d="M251.9 217.3C253 215.6 253.6 213.7 253.6 211.5C253.6 210.9 253.6 210.4 253.5 209.8" stroke="black" stroke-width="1.3817" stroke-miterlimit="10" stroke-linecap="round" stroke-linejoin="round"/>
<path d="M239.6 215.8C238.5 213.9 236.4 212.6 234.1 212.6C233.2 212.6 232.4 212.8 231.6 213.1" stroke="black" stroke-width="1.3817" stroke-miterlimit="10" stroke-linecap="round" stroke-linejoin="round"/>
<path d="M255.9 228.1C255.9 226.3 255.2 224.7 254.1 223.4" stroke="black" stroke-width="1.3817" stroke-miterlimit="10" stroke-linecap="round" stroke-linejoin="round"/>
<path d="M248.8 228.1C249.5 227 249.9 225.7 249.9 224.3C249.9 222 248.8 220 247.1 218.7" stroke="black" stroke-width="1.3817" stroke-miterlimit="10" stroke-linecap="round" stroke-linejoin="round"/>
<path d="M234.4 223C232 223.9 230.3 226.2 230.3 228.9C230.3 232.4 233.1 235.2 236.6 235.2C240.1 235.2 242.9 232.4 242.9 228.9C242.9 228.2 242.8 227.5 242.6 226.9" stroke="black" stroke-width="1.3817" stroke-miterlimit="10" stroke-linecap="round" stroke-linejoin="round"/>
<path d="M228 221C229.8 221 231.3 219.7 231.6 218" stroke="black" stroke-width="1.3817" stroke-miterlimit="10" stroke-linecap="round" stroke-linejoin="round"/>
<path d="M134.2 426.2H83.2C77.6 426.2 73 421.6 73 416C73 410.4 77.6 405.8 83.2 405.8H134.2C139.8 405.8 144.4 410.4 144.4 416C144.3 421.6 139.8 426.2 134.2 426.2Z" fill="#FF6CAF" stroke="black" stroke-width="1.3817" stroke-miterlimit="10" stroke-linecap="round" stroke-linejoin="round"/>
<path d="M263.5 451.1H221.7C214 451.1 207.7 444.8 207.7 437.1C207.7 429.4 214 423.1 221.7 423.1H263.5C271.2 423.1 277.5 429.4 277.5 437.1C277.5 444.8 271.2 451.1 263.5 451.1Z" fill="#FF6CAF" stroke="black" stroke-width="1.3817" stroke-miterlimit="10" stroke-linecap="round" stroke-linejoin="round"/>
<path d="M128.1 494.6H179.2C184.6 494.6 189 490.2 189 484.8C189 479.4 184.6 475 179.2 475H128.1C122.7 475 118.3 479.4 118.3 484.8C118.3 490.2 122.7 494.6 128.1 494.6Z" fill="#FF6CAF" stroke="black" stroke-width="1.3817" stroke-miterlimit="10" stroke-linecap="round" stroke-linejoin="round"/>
<path d="M253 492.3C256.258 492.3 258.9 489.658 258.9 486.4C258.9 483.142 256.258 480.5 253 480.5C249.741 480.5 247.1 483.142 247.1 486.4C247.1 489.658 249.741 492.3 253 492.3Z" fill="#FF6CAF" stroke="black" stroke-width="1.3817" stroke-miterlimit="10" stroke-linecap="round" stroke-linejoin="round"/>
<path d="M122.4 460.5C125.438 460.5 127.9 458.038 127.9 455C127.9 451.962 125.438 449.5 122.4 449.5C119.362 449.5 116.9 451.962 116.9 455C116.9 458.038 119.362 460.5 122.4 460.5Z" fill="#FF6CAF" stroke="black" stroke-width="1.3817" stroke-miterlimit="10" stroke-linecap="round" stroke-linejoin="round"/>
<path d="M174.2 528.6C176.409 528.6 178.2 526.809 178.2 524.6C178.2 522.391 176.409 520.6 174.2 520.6C171.991 520.6 170.2 522.391 170.2 524.6C170.2 526.809 171.991 528.6 174.2 528.6Z" fill="#FF6CAF" stroke="black" stroke-width="1.3817" stroke-miterlimit="10" stroke-linecap="round" stroke-linejoin="round"/>
<path d="M58.9 443C61.1092 443 62.9 441.209 62.9 439C62.9 436.791 61.1092 435 58.9 435C56.6909 435 54.9 436.791 54.9 439C54.9 441.209 56.6909 443 58.9 443Z" fill="#FF6CAF" stroke="black" stroke-width="1.3817" stroke-miterlimit="10" stroke-linecap="round" stroke-linejoin="round"/>
<path d="M99.8 389.7C102.893 389.7 105.4 387.193 105.4 384.1C105.4 381.007 102.893 378.5 99.8 378.5C96.7072 378.5 94.2 381.007 94.2 384.1C94.2 387.193 96.7072 389.7 99.8 389.7Z" fill="#FF6CAF" stroke="black" stroke-width="1.3817" stroke-miterlimit="10" stroke-linecap="round" stroke-linejoin="round"/>
<path d="M179.7 423C181.633 423 183.2 421.433 183.2 419.5C183.2 417.567 181.633 416 179.7 416C177.767 416 176.2 417.567 176.2 419.5C176.2 421.433 177.767 423 179.7 423Z" fill="#FF6CAF" stroke="black" stroke-width="1.3817" stroke-miterlimit="10" stroke-linecap="round" stroke-linejoin="round"/>
<path d="M214 393.2C215.933 393.2 217.5 391.633 217.5 389.7C217.5 387.767 215.933 386.2 214 386.2C212.067 386.2 210.5 387.767 210.5 389.7C210.5 391.633 212.067 393.2 214 393.2Z" fill="#FF6CAF" stroke="black" stroke-width="1.3817" stroke-miterlimit="10" stroke-linecap="round" stroke-linejoin="round"/>
<path d="M157.1 375C159.033 375 160.6 373.433 160.6 371.5C160.6 369.567 159.033 368 157.1 368C155.167 368 153.6 369.567 153.6 371.5C153.6 373.433 155.167 375 157.1 375Z" fill="#FF6CAF" stroke="black" stroke-width="1.3817" stroke-miterlimit="10" stroke-linecap="round" stroke-linejoin="round"/>
<path d="M51 389.7C52.933 389.7 54.5 388.133 54.5 386.2C54.5 384.267 52.933 382.7 51 382.7C49.067 382.7 47.5 384.267 47.5 386.2C47.5 388.133 49.067 389.7 51 389.7Z" fill="#FF6CAF" stroke="black" stroke-width="1.3817" stroke-miterlimit="10" stroke-linecap="round" stroke-linejoin="round"/>
<path d="M308.3 375C310.233 375 311.8 373.433 311.8 371.5C311.8 369.567 310.233 368 308.3 368C306.367 368 304.8 369.567 304.8 371.5C304.8 373.433 306.367 375 308.3 375Z" fill="#FF6CAF" stroke="black" stroke-width="1.3817" stroke-miterlimit="10" stroke-linecap="round" stroke-linejoin="round"/>
<path d="M227.2 517.1C229.133 517.1 230.7 515.533 230.7 513.6C230.7 511.667 229.133 510.1 227.2 510.1C225.267 510.1 223.7 511.667 223.7 513.6C223.7 515.533 225.267 517.1 227.2 517.1Z" fill="#FF6CAF" stroke="black" stroke-width="1.3817" stroke-miterlimit="10" stroke-linecap="round" stroke-linejoin="round"/>
<path d="M100.8 499.8C102.733 499.8 104.3 498.233 104.3 496.3C104.3 494.367 102.733 492.8 100.8 492.8C98.867 492.8 97.3 494.367 97.3 496.3C97.3 498.233 98.867 499.8 100.8 499.8Z" fill="#FF6CAF" stroke="black" stroke-width="1.3817" stroke-miterlimit="10" stroke-linecap="round" stroke-linejoin="round"/>
<path d="M281.4 392C284.935 392 287.8 389.135 287.8 385.6C287.8 382.065 284.935 379.2 281.4 379.2C277.865 379.2 275 382.065 275 385.6C275 389.135 277.865 392 281.4 392Z" fill="#FF6CAF" stroke="black" stroke-width="1.3817" stroke-miterlimit="10" stroke-linecap="round" stroke-linejoin="round"/>
<path d="M295.6 446.6C298.361 446.6 300.6 444.361 300.6 441.6C300.6 438.839 298.361 436.6 295.6 436.6C292.839 436.6 290.6 438.839 290.6 441.6C290.6 444.361 292.839 446.6 295.6 446.6Z" fill="#FF6CAF" stroke="black" stroke-width="1.3817" stroke-miterlimit="10" stroke-linecap="round" stroke-linejoin="round"/>
<path d="M282.5 337.3C277.9 337.2 274.4 333.7 272.9 330.1C271.5 326.8 271.4 323.3 271.4 319.4V319.2C271.4 316 271.4 313 270.4 310.3C269.8 308.6 268.7 307.1 267.3 305.9C266.9 305.5 266.2 305.8 266.2 306.4C266.2 308 266.2 309 266.2 309C266.2 314.7 263.6 319.9 259.5 323.3C259.5 323.4 259.6 323.5 259.6 323.6C260.3 325.1 260.4 327 259.8 328.6C259.2 330.3 258.1 331.6 257.1 332.7C256.8 333 256.6 333.3 256.3 333.6C255.3 334.8 254.9 335.8 255.1 336.5C255.2 337.1 255.9 337.6 256.7 338C257.7 338.4 259 338.5 260.3 338.6C261.5 338.7 262.6 339.7 262.6 340.9C262.6 342.2 261.5 343.2 260.3 343.2H260.2C258.6 343.1 256.8 343 255.1 342.3C252.9 341.4 251.2 339.7 250.7 337.6C250.3 336.1 250.4 333.7 252.8 330.7C253.1 330.3 253.4 330 253.7 329.7C254.5 328.8 255.2 327.9 255.6 327C255.7 326.6 255.7 326.2 255.7 325.8C253.5 326.8 251 327.4 248.5 327.4H248C245.3 327.4 242.7 326.7 240.3 325.6C240.1 326 240.1 326.5 240.3 327C240.6 327.9 241.4 328.8 242.2 329.7C242.5 330 242.8 330.4 243.1 330.7C245.5 333.7 245.6 336.1 245.2 337.6C244.7 339.6 243.1 341.4 240.8 342.3C239.1 343 237.3 343.1 235.7 343.2H235.6C234.3 343.2 233.3 342.2 233.3 340.9C233.3 339.7 234.3 338.6 235.6 338.6C236.9 338.5 238.1 338.4 239.2 338C240 337.7 240.7 337.1 240.8 336.5C241 335.8 240.5 334.8 239.6 333.6C239.4 333.3 239.1 333 238.8 332.7C237.8 331.6 236.7 330.3 236.1 328.6C235.5 327 235.6 325.1 236.3 323.6C236.4 323.4 236.5 323.2 236.6 323.1C232.7 319.7 230.2 314.7 230.2 309.1C230.2 309.1 230.2 307.9 230.2 305.9C230.2 305.3 229.6 305 229.1 305.3C227.4 306.6 226 308.3 225.2 310.3C224.2 313 224.2 316 224.2 319.2V319.4C224.2 323.3 224.1 326.7 222.7 330.1C221.2 333.6 217.7 337.2 213.2 337.3C211.9 337.3 210.8 336.2 210.9 334.9C211 333.7 212 332.8 213.2 332.7C215.6 332.6 217.6 330.4 218.5 328.4C219.6 325.9 219.7 322.9 219.7 319.5V319.3C219.7 315.8 219.7 312.3 221 308.8C222.5 304.7 225.8 301.5 229.8 299.8C230.1 299.7 230.2 299.4 230.2 299.2C230.2 296.5 230.2 293.6 230.2 291C230.2 286.3 230.2 282.5 230.2 282.4V280.8C230.2 279.7 229.2 278.8 228 278.9C227 279 226.3 279.9 226.3 280.9V285.5C226.3 286.7 225.3 287.7 224.1 287.6C222.9 287.6 222 286.5 222 285.4V280.8C222 277.3 224.9 274.5 228.4 274.6C231.1 274.7 233.4 276.6 234.1 279.2C234.2 279.5 234.2 280 234.3 280.5C234.3 280.8 234.4 281 234.6 281.1C234.8 281.3 235 281.4 235.2 281.4C235.8 281.4 236.2 280.9 236.2 280.3V275.8C236.2 273.7 234.5 272 232.4 272H228.5C227.3 272 226.3 271 226.4 269.8C226.4 268.6 227.5 267.7 228.6 267.7H232.5C236.9 267.7 240.5 271.3 240.5 275.7V280C240.5 280.3 240.6 280.7 240.9 280.9C241.1 281.1 241.4 281.2 241.7 281.3C242.4 281.3 243 280.7 243 280V275.7C243 273.6 242.2 271.5 240.6 270L236.6 266C235.8 265.2 235.7 263.8 236.5 263C237.3 262.1 238.7 262.1 239.6 263L243.7 267.1C246 269.4 247.3 272.5 247.3 275.8V280.5C247.3 280.8 247.4 281 247.6 281.2C247.8 281.4 248 281.5 248.3 281.5C248.6 281.5 248.8 281.4 249 281.2C249.2 281 249.3 280.8 249.3 280.5V275.8C249.3 272.5 250.6 269.4 252.9 267.1L257 263C257.8 262.2 259.2 262.2 260.1 263C260.9 263.8 260.8 265.2 260 266L256 270C254.5 271.5 253.6 273.6 253.6 275.7V280C253.6 280.7 254.2 281.4 254.9 281.3C255.2 281.3 255.5 281.1 255.7 280.9C255.9 280.7 256.1 280.4 256.1 280V275.7C256.1 271.3 259.7 267.7 264.1 267.7H268C269.2 267.7 270.2 268.6 270.2 269.8C270.2 271 269.3 272 268.1 272H264.2C262.1 272 260.4 273.7 260.4 275.8V280.3C260.4 280.9 260.9 281.4 261.4 281.4C261.6 281.4 261.9 281.3 262 281.1C262.2 280.9 262.3 280.7 262.3 280.5C262.3 280 262.4 279.5 262.5 279.2C263.2 276.7 265.4 274.7 268.2 274.6C271.7 274.5 274.6 277.3 274.6 280.8V285.4C274.6 286.6 273.7 287.6 272.5 287.6C271.3 287.6 270.3 286.7 270.3 285.5V280.9C270.3 279.9 269.6 279.1 268.6 278.9C267.4 278.8 266.4 279.7 266.4 280.8V282.4C266.4 282.4 266.4 286.2 266.4 291C266.4 293.7 266.4 296.7 266.4 299.5C266.4 299.8 266.6 300 266.8 300.1C270.5 301.9 273.5 305 274.9 308.8C276.2 312.2 276.2 315.8 276.2 319.3V319.5C276.2 322.9 276.3 325.8 277.4 328.4C278.3 330.4 280.3 332.7 282.7 332.7C283.9 332.7 285 333.7 285 334.9C284.9 336.2 283.8 337.3 282.5 337.3Z" fill="#3475EA" stroke="black" stroke-width="1.3817" stroke-miterlimit="10" stroke-linecap="round" stroke-linejoin="round"/>
<path d="M274.3 280.8V285.4C274.3 286.6 273.4 287.6 272.2 287.6C271 287.6 270 286.7 270 285.5V280.9C270 279.9 269.3 279.1 268.3 278.9C267.1 278.8 266.1 279.7 266.1 280.8V282.4C266.1 282.4 266.1 286.2 266.1 291H229.8C229.8 286.3 229.8 282.5 229.8 282.4V280.8C229.8 279.7 228.8 278.8 227.6 278.9C226.6 279 225.9 279.9 225.9 280.9V285.5C225.9 286.7 224.9 287.7 223.7 287.6C222.5 287.6 221.6 286.5 221.6 285.4V280.8C221.6 277.3 224.5 274.5 228 274.6C230.7 274.7 233 276.6 233.7 279.2C233.8 279.5 233.8 280 233.9 280.5C233.9 280.8 234 281 234.2 281.1C234.4 281.3 234.6 281.4 234.8 281.4C235.4 281.4 235.8 280.9 235.8 280.3V275.8C235.8 273.7 234.1 272 232 272H228.1C226.9 272 225.9 271 226 269.8C226 268.6 227.1 267.7 228.2 267.7H232.1C236.5 267.7 240.1 271.3 240.1 275.7V280C240.1 280.3 240.2 280.7 240.5 280.9C240.7 281.1 241 281.2 241.3 281.3C242 281.3 242.6 280.7 242.6 280V275.7C242.6 273.6 241.8 271.5 240.2 270L236.2 266C235.4 265.2 235.3 263.8 236.1 263C236.9 262.1 238.3 262.1 239.2 263L243.3 267.1C245.6 269.4 246.9 272.5 246.9 275.8V280.5C246.9 280.8 247 281 247.2 281.2C247.4 281.4 247.6 281.5 247.9 281.5C248.2 281.5 248.4 281.4 248.6 281.2C248.8 281 248.9 280.8 248.9 280.5V275.8C248.9 272.5 250.2 269.4 252.5 267.1L256.6 263C257.4 262.2 258.8 262.2 259.7 263C260.5 263.8 260.4 265.2 259.6 266L255.6 270C254.1 271.5 253.2 273.6 253.2 275.7V280C253.2 280.7 253.8 281.4 254.5 281.3C254.8 281.3 255.1 281.1 255.3 280.9C255.5 280.7 255.7 280.4 255.7 280V275.7C255.7 271.3 259.3 267.7 263.7 267.7H267.6C268.8 267.7 269.8 268.6 269.8 269.8C269.8 271 268.9 272 267.7 272H263.8C261.7 272 260 273.7 260 275.8V280.3C260 280.9 260.5 281.4 261 281.4C261.2 281.4 261.5 281.3 261.6 281.1C261.8 280.9 261.9 280.7 261.9 280.5C261.9 280 262 279.5 262.1 279.2C262.8 276.7 265 274.7 267.8 274.6C271.4 274.5 274.3 277.3 274.3 280.8Z" fill="#19F27A" stroke="black" stroke-width="1.3817" stroke-miterlimit="10" stroke-linecap="round" stroke-linejoin="round"/>
<path d="M258.5 322.1C258.9 322.5 259.3 323 259.6 323.6" stroke="black" stroke-width="1.3817" stroke-miterlimit="10" stroke-linecap="round" stroke-linejoin="round"/>
<path d="M237.2 321.9C236.8 322.3 236.4 322.8 236.1 323.4" stroke="black" stroke-width="1.3817" stroke-miterlimit="10" stroke-linecap="round" stroke-linejoin="round"/>
<path d="M234.6 284.8V288.2" stroke="black" stroke-width="1.3817" stroke-miterlimit="10" stroke-linecap="round" stroke-linejoin="round"/>
<path d="M238 284.8V288.2" stroke="black" stroke-width="1.3817" stroke-miterlimit="10" stroke-linecap="round" stroke-linejoin="round"/>
<path d="M241.3 284.8V288.2" stroke="black" stroke-width="1.3817" stroke-miterlimit="10" stroke-linecap="round" stroke-linejoin="round"/>
<path d="M244.7 284.8V288.2" stroke="black" stroke-width="1.3817" stroke-miterlimit="10" stroke-linecap="round" stroke-linejoin="round"/>
<path d="M248 284.8V288.2" stroke="black" stroke-width="1.3817" stroke-miterlimit="10" stroke-linecap="round" stroke-linejoin="round"/>
<path d="M251.4 284.8V288.2" stroke="black" stroke-width="1.3817" stroke-miterlimit="10" stroke-linecap="round" stroke-linejoin="round"/>
<path d="M254.7 284.8V288.2" stroke="black" stroke-width="1.3817" stroke-miterlimit="10" stroke-linecap="round" stroke-linejoin="round"/>
<path d="M258.1 284.8V288.2" stroke="black" stroke-width="1.3817" stroke-miterlimit="10" stroke-linecap="round" stroke-linejoin="round"/>
<path d="M261.4 284.8V288.2" stroke="black" stroke-width="1.3817" stroke-miterlimit="10" stroke-linecap="round" stroke-linejoin="round"/>
<path d="M248.2 320.7C255.49 320.7 261.4 314.79 261.4 307.5C261.4 300.21 255.49 294.3 248.2 294.3C240.91 294.3 235 300.21 235 307.5C235 314.79 240.91 320.7 248.2 320.7Z" fill="#19F27A" stroke="black" stroke-width="1.3817" stroke-miterlimit="10" stroke-linecap="round" stroke-linejoin="round"/>
<path d="M242.9 305.8C244.446 305.8 245.7 304.546 245.7 303C245.7 301.454 244.446 300.2 242.9 300.2C241.354 300.2 240.1 301.454 240.1 303C240.1 304.546 241.354 305.8 242.9 305.8Z" fill="white" stroke="black" stroke-width="1.3817" stroke-miterlimit="10" stroke-linecap="round" stroke-linejoin="round"/>
<path d="M242.9 304C243.452 304 243.9 303.552 243.9 303C243.9 302.448 243.452 302 242.9 302C242.348 302 241.9 302.448 241.9 303C241.9 303.552 242.348 304 242.9 304Z" fill="black"/>
<path d="M253.2 305.8C254.746 305.8 256 304.546 256 303C256 301.454 254.746 300.2 253.2 300.2C251.654 300.2 250.4 301.454 250.4 303C250.4 304.546 251.654 305.8 253.2 305.8Z" fill="white" stroke="black" stroke-width="1.3817" stroke-miterlimit="10" stroke-linecap="round" stroke-linejoin="round"/>
<path d="M253.2 304C253.752 304 254.2 303.552 254.2 303C254.2 302.448 253.752 302 253.2 302C252.648 302 252.2 302.448 252.2 303C252.2 303.552 252.648 304 253.2 304Z" fill="black"/>
<path d="M245.3 313.5H255.9" stroke="black" stroke-width="1.3817" stroke-miterlimit="10" stroke-linecap="round" stroke-linejoin="round"/>
<path d="M239.1 312.5C238.3 311 237.8 309.3 237.8 307.5C237.8 307.3 237.8 307 237.8 306.8" stroke="white" stroke-width="1.3817" stroke-miterlimit="10" stroke-linecap="round" stroke-linejoin="round" stroke-dasharray="2.42 2.42"/>
<path d="M252.2 317C251 317.5 249.6 317.8 248.2 317.8C244.3 317.8 240.9 315.6 239.2 312.5" stroke="white" stroke-width="1.3817" stroke-miterlimit="10" stroke-linecap="round" stroke-linejoin="round"/>
<path d="M189 337.3C184.4 337.2 180.9 333.7 179.4 330.1C178 326.8 177.9 323.3 177.9 319.4V319.2C177.9 316 177.9 313 176.9 310.3C176.3 308.6 175.2 307.1 173.8 305.9C173.4 305.5 172.7 305.8 172.7 306.4C172.7 308 172.7 309 172.7 309C172.7 314.7 170.1 319.9 166 323.3C166 323.4 166.1 323.5 166.1 323.6C166.8 325.1 166.9 327 166.3 328.6C165.7 330.3 164.6 331.6 163.6 332.7C163.3 333 163.1 333.3 162.8 333.6C161.8 334.8 161.4 335.8 161.6 336.5C161.7 337.1 162.4 337.6 163.2 338C164.2 338.4 165.5 338.5 166.8 338.6C168 338.7 169.1 339.7 169.1 340.9C169.1 342.2 168 343.2 166.8 343.2H166.7C165.1 343.1 163.3 343 161.6 342.3C159.4 341.4 157.7 339.7 157.2 337.6C156.8 336.1 156.9 333.7 159.3 330.7C159.6 330.3 159.9 330 160.2 329.7C161 328.8 161.7 327.9 162.1 327C162.2 326.6 162.2 326.2 162.2 325.8C160 326.8 157.5 327.4 155 327.4H154.5C151.8 327.4 149.2 326.7 146.8 325.6C146.6 326 146.6 326.5 146.8 327C147.1 327.9 147.9 328.8 148.7 329.7C149 330 149.3 330.4 149.6 330.7C152 333.7 152.1 336.1 151.7 337.6C151.2 339.6 149.6 341.4 147.3 342.3C145.6 343 143.8 343.1 142.2 343.2H142.1C140.8 343.2 139.8 342.2 139.8 340.9C139.8 339.7 140.8 338.6 142.1 338.6C143.4 338.5 144.6 338.4 145.7 338C146.5 337.7 147.2 337.1 147.3 336.5C147.5 335.8 147 334.8 146.1 333.6C145.9 333.3 145.6 333 145.3 332.7C144.3 331.6 143.2 330.3 142.6 328.6C142 327 142.1 325.1 142.8 323.6C142.9 323.4 143 323.2 143.1 323.1C139.2 319.7 136.7 314.7 136.7 309.1C136.7 309.1 136.7 307.9 136.7 305.9C136.7 305.3 136.1 305 135.6 305.3C133.9 306.6 132.5 308.3 131.7 310.3C130.7 313 130.7 316 130.7 319.2V319.4C130.7 323.3 130.6 326.7 129.2 330.1C127.7 333.6 124.2 337.2 119.7 337.3C118.4 337.3 117.3 336.2 117.4 334.9C117.5 333.7 118.5 332.8 119.7 332.7C122.1 332.6 124.1 330.4 125 328.4C126.1 325.9 126.2 322.9 126.2 319.5V319.3C126.2 315.8 126.2 312.3 127.5 308.8C129 304.7 132.3 301.5 136.3 299.8C136.6 299.7 136.7 299.4 136.7 299.2C136.7 296.5 136.7 293.6 136.7 291C136.7 286.3 136.7 282.5 136.7 282.4V280.8C136.7 279.7 135.7 278.8 134.5 278.9C133.5 279 132.8 279.9 132.8 280.9V285.5C132.8 286.7 131.8 287.7 130.6 287.6C129.4 287.6 128.5 286.5 128.5 285.4V280.8C128.5 277.3 131.4 274.5 134.9 274.6C137.6 274.7 139.9 276.6 140.6 279.2C140.7 279.5 140.7 280 140.8 280.5C140.8 280.8 140.9 281 141.1 281.1C141.3 281.3 141.5 281.4 141.7 281.4C142.3 281.4 142.7 280.9 142.7 280.3V275.8C142.7 273.7 141 272 138.9 272H135C133.8 272 132.8 271 132.9 269.8C132.9 268.6 134 267.7 135.1 267.7H139C143.4 267.7 147 271.3 147 275.7V280C147 280.3 147.1 280.7 147.4 280.9C147.6 281.1 147.9 281.2 148.2 281.3C148.9 281.3 149.5 280.7 149.5 280V275.7C149.5 273.6 148.7 271.5 147.1 270L143.1 266C142.3 265.2 142.2 263.8 143 263C143.8 262.1 145.2 262.1 146.1 263L150.2 267.1C152.5 269.4 153.8 272.5 153.8 275.8V280.5C153.8 280.8 153.9 281 154.1 281.2C154.3 281.4 154.5 281.5 154.8 281.5C155.1 281.5 155.3 281.4 155.5 281.2C155.7 281 155.8 280.8 155.8 280.5V275.8C155.8 272.5 157.1 269.4 159.4 267.1L163.5 263C164.3 262.2 165.7 262.2 166.6 263C167.4 263.8 167.3 265.2 166.5 266L162.5 270C161 271.5 160.1 273.6 160.1 275.7V280C160.1 280.7 160.7 281.4 161.4 281.3C161.7 281.3 162 281.1 162.2 280.9C162.4 280.7 162.6 280.4 162.6 280V275.7C162.6 271.3 166.2 267.7 170.6 267.7H174.5C175.7 267.7 176.7 268.6 176.7 269.8C176.7 271 175.8 272 174.6 272H170.7C168.6 272 166.9 273.7 166.9 275.8V280.3C166.9 280.9 167.4 281.4 167.9 281.4C168.1 281.4 168.4 281.3 168.5 281.1C168.7 280.9 168.8 280.7 168.8 280.5C168.8 280 168.9 279.5 169 279.2C169.7 276.7 171.9 274.7 174.7 274.6C178.2 274.5 181.1 277.3 181.1 280.8V285.4C181.1 286.6 180.2 287.6 179 287.6C177.8 287.6 176.8 286.7 176.8 285.5V280.9C176.8 279.9 176.1 279.1 175.1 278.9C173.9 278.8 172.9 279.7 172.9 280.8V282.4C172.9 282.4 172.9 286.2 172.9 291C172.9 293.7 172.9 296.7 172.9 299.5C172.9 299.8 173.1 300 173.3 300.1C177 301.9 180 305 181.4 308.8C182.7 312.2 182.7 315.8 182.7 319.3V319.5C182.7 322.9 182.8 325.8 183.9 328.4C184.8 330.4 186.8 332.7 189.2 332.7C190.4 332.7 191.5 333.7 191.5 334.9C191.4 336.2 190.3 337.3 189 337.3Z" fill="#19F27A" stroke="black" stroke-width="1.3817" stroke-miterlimit="10" stroke-linecap="round" stroke-linejoin="round"/>
<path d="M180.7 280.8V285.4C180.7 286.6 179.8 287.6 178.6 287.6C177.4 287.6 176.4 286.7 176.4 285.5V280.9C176.4 279.9 175.7 279.1 174.7 278.9C173.5 278.8 172.5 279.7 172.5 280.8V282.4C172.5 282.4 172.5 286.2 172.5 291H136.2C136.2 286.3 136.2 282.5 136.2 282.4V280.8C136.2 279.7 135.2 278.8 134 278.9C133 279 132.3 279.9 132.3 280.9V285.5C132.3 286.7 131.3 287.7 130.1 287.6C128.9 287.6 128 286.5 128 285.4V280.8C128 277.3 130.9 274.5 134.4 274.6C137.1 274.7 139.4 276.6 140.1 279.2C140.2 279.5 140.2 280 140.3 280.5C140.3 280.8 140.4 281 140.6 281.1C140.8 281.3 141 281.4 141.2 281.4C141.8 281.4 142.2 280.9 142.2 280.3V275.8C142.2 273.7 140.5 272 138.4 272H134.5C133.3 272 132.3 271 132.4 269.8C132.4 268.6 133.5 267.7 134.6 267.7H138.5C142.9 267.7 146.5 271.3 146.5 275.7V280C146.5 280.3 146.6 280.7 146.9 280.9C147.1 281.1 147.4 281.2 147.7 281.3C148.4 281.3 149 280.7 149 280V275.7C149 273.6 148.2 271.5 146.6 270L142.6 266C141.8 265.2 141.7 263.8 142.5 263C143.3 262.1 144.7 262.1 145.6 263L149.7 267.1C152 269.4 153.3 272.5 153.3 275.8V280.5C153.3 280.8 153.4 281 153.6 281.2C153.8 281.4 154 281.5 154.3 281.5C154.6 281.5 154.8 281.4 155 281.2C155.2 281 155.3 280.8 155.3 280.5V275.8C155.3 272.5 156.6 269.4 158.9 267.1L163 263C163.8 262.2 165.2 262.2 166.1 263C166.9 263.8 166.8 265.2 166 266L162 270C160.5 271.5 159.6 273.6 159.6 275.7V280C159.6 280.7 160.2 281.4 160.9 281.3C161.2 281.3 161.5 281.1 161.7 280.9C161.9 280.7 162.1 280.4 162.1 280V275.7C162.1 271.3 165.7 267.7 170.1 267.7H174C175.2 267.7 176.2 268.6 176.2 269.8C176.2 271 175.3 272 174.1 272H170.2C168.1 272 166.4 273.7 166.4 275.8V280.3C166.4 280.9 166.9 281.4 167.4 281.4C167.6 281.4 167.9 281.3 168 281.1C168.2 280.9 168.3 280.7 168.3 280.5C168.3 280 168.4 279.5 168.5 279.2C169.2 276.7 171.4 274.7 174.2 274.6C177.9 274.5 180.7 277.3 180.7 280.8Z" fill="#FF6CAF" stroke="black" stroke-width="1.3817" stroke-miterlimit="10" stroke-linecap="round" stroke-linejoin="round"/>
<path d="M165 322.1C165.4 322.5 165.8 323 166.1 323.6" stroke="black" stroke-width="1.3817" stroke-miterlimit="10" stroke-linecap="round" stroke-linejoin="round"/>
<path d="M143.7 321.9C143.3 322.3 142.9 322.8 142.6 323.4" stroke="black" stroke-width="1.3817" stroke-miterlimit="10" stroke-linecap="round" stroke-linejoin="round"/>
<path d="M141.1 284.8V288.2" stroke="black" stroke-width="1.3817" stroke-miterlimit="10" stroke-linecap="round" stroke-linejoin="round"/>
<path d="M144.5 284.8V288.2" stroke="black" stroke-width="1.3817" stroke-miterlimit="10" stroke-linecap="round" stroke-linejoin="round"/>
<path d="M147.8 284.8V288.2" stroke="black" stroke-width="1.3817" stroke-miterlimit="10" stroke-linecap="round" stroke-linejoin="round"/>
<path d="M151.2 284.8V288.2" stroke="black" stroke-width="1.3817" stroke-miterlimit="10" stroke-linecap="round" stroke-linejoin="round"/>
<path d="M154.5 284.8V288.2" stroke="black" stroke-width="1.3817" stroke-miterlimit="10" stroke-linecap="round" stroke-linejoin="round"/>
<path d="M157.9 284.8V288.2" stroke="black" stroke-width="1.3817" stroke-miterlimit="10" stroke-linecap="round" stroke-linejoin="round"/>
<path d="M161.2 284.8V288.2" stroke="black" stroke-width="1.3817" stroke-miterlimit="10" stroke-linecap="round" stroke-linejoin="round"/>
<path d="M164.6 284.8V288.2" stroke="black" stroke-width="1.3817" stroke-miterlimit="10" stroke-linecap="round" stroke-linejoin="round"/>
<path d="M167.9 284.8V288.2" stroke="black" stroke-width="1.3817" stroke-miterlimit="10" stroke-linecap="round" stroke-linejoin="round"/>
<path d="M154.7 320.7C161.99 320.7 167.9 314.79 167.9 307.5C167.9 300.21 161.99 294.3 154.7 294.3C147.41 294.3 141.5 300.21 141.5 307.5C141.5 314.79 147.41 320.7 154.7 320.7Z" fill="#FF6CAF" stroke="black" stroke-width="1.3817" stroke-miterlimit="10" stroke-linecap="round" stroke-linejoin="round"/>
<path d="M150.4 308.4C151.946 308.4 153.2 307.146 153.2 305.6C153.2 304.054 151.946 302.8 150.4 302.8C148.854 302.8 147.6 304.054 147.6 305.6C147.6 307.146 148.854 308.4 150.4 308.4Z" fill="white" stroke="black" stroke-width="1.3817" stroke-miterlimit="10" stroke-linecap="round" stroke-linejoin="round"/>
<path d="M150.4 306.6C150.952 306.6 151.4 306.152 151.4 305.6C151.4 305.048 150.952 304.6 150.4 304.6C149.848 304.6 149.4 305.048 149.4 305.6C149.4 306.152 149.848 306.6 150.4 306.6Z" fill="black"/>
<path d="M160.7 308.4C162.246 308.4 163.5 307.146 163.5 305.6C163.5 304.054 162.246 302.8 160.7 302.8C159.154 302.8 157.9 304.054 157.9 305.6C157.9 307.146 159.154 308.4 160.7 308.4Z" fill="white" stroke="black" stroke-width="1.3817" stroke-miterlimit="10" stroke-linecap="round" stroke-linejoin="round"/>
<path d="M160.7 306.6C161.252 306.6 161.7 306.152 161.7 305.6C161.7 305.048 161.252 304.6 160.7 304.6C160.148 304.6 159.7 305.048 159.7 305.6C159.7 306.152 160.148 306.6 160.7 306.6Z" fill="black"/>
<path d="M153.4 312.8H158.7" stroke="black" stroke-width="1.3817" stroke-miterlimit="10" stroke-linecap="round" stroke-linejoin="round"/>
<path d="M145.6 312.5C144.8 311 144.3 309.3 144.3 307.5C144.3 307.3 144.3 307 144.3 306.8" stroke="white" stroke-width="1.3817" stroke-miterlimit="10" stroke-linecap="round" stroke-linejoin="round" stroke-dasharray="2.42 2.42"/>
<path d="M158.7 317C157.5 317.5 156.1 317.8 154.7 317.8C150.8 317.8 147.4 315.6 145.7 312.5" stroke="white" stroke-width="1.3817" stroke-miterlimit="10" stroke-linecap="round" stroke-linejoin="round"/>
<path d="M73.1 219.1C81.4 204.4 92.9 191.6 106.4 181.7" stroke="white" stroke-width="3.1088" stroke-miterlimit="10" stroke-linecap="round" stroke-linejoin="round" stroke-dasharray="6.91 6.91"/>
<path d="M57.5 291.2V278.2C57.5 257.5 62.9 237 73.1 219.1" stroke="white" stroke-width="3.1088" stroke-miterlimit="10" stroke-linecap="round" stroke-linejoin="round"/>
<path d="M186.8 133.1H164.9C161.4 133.1 158.6 130.3 158.6 126.8V113.3C158.6 103.8 166.3 96 175.9 96C185.4 96 193.2 103.7 193.2 113.3V126.8C193.1 130.3 190.3 133.1 186.8 133.1Z" fill="#27FF83" stroke="black" stroke-width="1.3817" stroke-miterlimit="10" stroke-linecap="round" stroke-linejoin="round"/>
<path d="M127.3 114.6C127.3 129.9 134.4 143.5 145.4 152.4V160.2C145.4 161.3 144.1 162 143.2 161.3C128.7 151.1 119.2 134.2 119.2 115C119.2 95.9 128.7 79 143.2 68.7C144.1 68.1 145.4 68.7 145.4 69.8V76.6C134.4 85.7 127.3 99.3 127.3 114.6Z" fill="#0BFF90" stroke="black" stroke-width="1.3817" stroke-miterlimit="10" stroke-linecap="round" stroke-linejoin="round"/>
<path d="M232.4 115.1C232.4 134.2 222.9 151.1 208.4 161.4C207.5 162 206.2 161.4 206.2 160.3V152.5C217.2 143.6 224.3 130 224.3 114.7C224.3 99.4 217.2 85.8 206.2 76.9V70C206.2 68.9 207.5 68.2 208.4 68.9C222.9 79.1 232.4 96 232.4 115.1Z" fill="#0BFF90" stroke="black" stroke-width="1.3817" stroke-miterlimit="10" stroke-linecap="round" stroke-linejoin="round"/>
<path d="M224.3 114.6C224.3 129.9 217.2 143.5 206.2 152.4V152.2C206.2 150.1 204.5 148.5 202.5 148.5H198.9C196.8 148.5 195.2 150.2 195.2 152.2V165.4C195.2 167.1 194.1 168.6 192.5 169.1C187.3 170.7 181.7 171.6 175.9 171.6C170.1 171.6 164.5 170.7 159.3 169.1C157.7 168.6 156.6 167.1 156.6 165.4V152.2C156.6 150.1 154.9 148.5 152.9 148.5H149.3C147.2 148.5 145.6 150.2 145.6 152.2V152.4C134.6 143.5 127.5 129.9 127.5 114.6C127.5 99.3 134.6 85.7 145.6 76.8V114.9C145.6 120.5 150.1 125 155.7 125H196.4C202 125 206.5 120.5 206.5 114.9V76.8C217.3 85.7 224.3 99.3 224.3 114.6Z" fill="#3475EA" stroke="black" stroke-width="1.3817" stroke-miterlimit="10" stroke-linecap="round" stroke-linejoin="round"/>
<path d="M133 104.4C134.3 98.7 136.8 93.4 140.2 88.7" stroke="white" stroke-width="1.3817" stroke-miterlimit="10" stroke-linecap="round" stroke-linejoin="round" stroke-dasharray="2.42 2.42"/>
<path d="M137.4 136.2C133.8 129.7 131.8 122.3 131.8 114.7C131.8 111.2 132.2 107.8 133 104.5" stroke="white" stroke-width="1.3817" stroke-miterlimit="10" stroke-linecap="round" stroke-linejoin="round"/>
<path d="M156.8 155.5H145.5C142.6 155.5 140.2 153.1 140.2 150.2C140.2 147.3 142.6 144.9 145.5 144.9H156.8C159.7 144.9 162.1 147.3 162.1 150.2C162.1 153.2 159.7 155.5 156.8 155.5Z" fill="#0BFF90" stroke="black" stroke-width="1.3817" stroke-miterlimit="10" stroke-linecap="round" stroke-linejoin="round"/>
<path d="M194.9 155.5H206.2C209.1 155.5 211.5 153.1 211.5 150.2C211.5 147.3 209.1 144.9 206.2 144.9H194.9C192 144.9 189.6 147.3 189.6 150.2C189.6 153.2 192 155.5 194.9 155.5Z" fill="#0BFF90" stroke="black" stroke-width="1.3817" stroke-miterlimit="10" stroke-linecap="round" stroke-linejoin="round"/>
<path d="M158.6 129.9V144.9" stroke="black" stroke-width="1.3817" stroke-miterlimit="10" stroke-linecap="round" stroke-linejoin="round"/>
<path d="M193.1 129.9V144.9" stroke="black" stroke-width="1.3817" stroke-miterlimit="10" stroke-linecap="round" stroke-linejoin="round"/>
<path d="M206.2 114.9V134.9" stroke="black" stroke-width="1.3817" stroke-miterlimit="10" stroke-linecap="round" stroke-linejoin="round"/>
<path d="M145.4 114.9V134.9" stroke="black" stroke-width="1.3817" stroke-miterlimit="10" stroke-linecap="round" stroke-linejoin="round"/>
<path d="M162.5 118.2V127.9C162.5 130.8 164.9 133.2 167.8 133.2H183.8C186.7 133.2 189.1 130.8 189.1 127.9V118.2" fill="#27FF83"/>
<path d="M162.5 118.2V127.9C162.5 130.8 164.9 133.2 167.8 133.2H183.8C186.7 133.2 189.1 130.8 189.1 127.9V118.2" stroke="black" stroke-width="1.3817" stroke-miterlimit="10" stroke-linecap="round" stroke-linejoin="round"/>
<path d="M165.1 125.6V113.6C165.1 107.8 169.7 102.8 175.5 102.7C181.6 102.5 186.5 107.4 186.5 113.4V125.6C186.5 128 184.6 129.9 182.2 129.9H169.3C167 129.9 165.1 127.9 165.1 125.6Z" fill="#27E2C7" stroke="black" stroke-width="1.3817" stroke-miterlimit="10" stroke-linecap="round" stroke-linejoin="round"/>
<path d="M168.7 112.2C169.3 108.9 172.2 106.2 175.6 106.1C175.7 106.1 175.7 106.1 175.8 106.1C175.9 106.1 176.1 106.1 176.2 106.1" stroke="white" stroke-width="1.3817" stroke-miterlimit="10" stroke-linecap="round" stroke-linejoin="round" stroke-dasharray="2.42 2.42"/>
<path d="M168.6 124.2V113.6C168.6 113.1 168.6 112.6 168.7 112.2" stroke="white" stroke-width="1.3817" stroke-miterlimit="10" stroke-linecap="round" stroke-linejoin="round"/>
<path d="M181.9 147H169.7C168.6 147 167.8 146.1 167.8 145.1V140.4C167.8 139.3 168.7 138.5 169.7 138.5H181.9C183 138.5 183.8 139.4 183.8 140.4V145.1C183.9 146.2 183 147 181.9 147Z" fill="#FF6CAF" stroke="black" stroke-width="1.3817" stroke-miterlimit="10" stroke-linecap="round" stroke-linejoin="round"/>
<path d="M187.2 164.4H164.4C163.3 164.4 162.5 163.5 162.5 162.5V158.7C162.5 157.6 163.4 156.8 164.4 156.8H187.2C188.3 156.8 189.1 157.7 189.1 158.7V162.5C189.2 163.5 188.3 164.4 187.2 164.4Z" fill="#FF6CAF" stroke="black" stroke-width="1.3817" stroke-miterlimit="10" stroke-linecap="round" stroke-linejoin="round"/>
<path d="M200.5 188.6V212.9" stroke="white" stroke-width="1.3817" stroke-miterlimit="10" stroke-linecap="round" stroke-linejoin="round" stroke-dasharray="4.49 4.49"/>
<path d="M200.5 162.3V188.6" stroke="white" stroke-width="1.3817" stroke-miterlimit="10" stroke-linecap="round" stroke-linejoin="round"/>
<path d="M207.3 183.4V193.5" stroke="white" stroke-width="1.3817" stroke-miterlimit="10" stroke-linecap="round" stroke-linejoin="round" stroke-dasharray="4.49 4.49"/>
<path d="M207.3 166.9V183.4" stroke="white" stroke-width="1.3817" stroke-miterlimit="10" stroke-linecap="round" stroke-linejoin="round"/>
<path d="M214.5 161.2V181.5" stroke="white" stroke-width="1.3817" stroke-miterlimit="10" stroke-linecap="round" stroke-linejoin="round"/>
<path d="M151.1 188.6V212.9" stroke="white" stroke-width="1.3817" stroke-miterlimit="10" stroke-linecap="round" stroke-linejoin="round" stroke-dasharray="4.49 4.49"/>
<path d="M151.1 162.3V188.6" stroke="white" stroke-width="1.3817" stroke-miterlimit="10" stroke-linecap="round" stroke-linejoin="round"/>
<path d="M144.4 182.2V193.5" stroke="white" stroke-width="1.3817" stroke-miterlimit="10" stroke-linecap="round" stroke-linejoin="round" stroke-dasharray="4.49 4.49"/>
<path d="M144.4 166.9V182.2" stroke="white" stroke-width="1.3817" stroke-miterlimit="10" stroke-linecap="round" stroke-linejoin="round"/>
<path d="M137.1 161.2V181.5" stroke="white" stroke-width="1.3817" stroke-miterlimit="10" stroke-linecap="round" stroke-linejoin="round"/>
<path d="M213.8 157.2C219.4 157.8 224.3 158.6 228.3 159.5C235.5 161.1 239.8 163 239.8 165.1C239.8 165.4 239.7 165.6 239.6 165.9C237 170.9 209.9 174.9 176.8 174.9C143.8 174.9 116.7 171 114 166C113.9 165.7 113.8 165.5 113.8 165.2C113.8 163.1 118.1 161.1 125.4 159.6C128.9 158.8 133 158.2 137.6 157.6" stroke="black" stroke-width="2.7633" stroke-miterlimit="10" stroke-linecap="round" stroke-linejoin="round"/>
<path d="M218.7 428.8H264.9" stroke="white" stroke-width="1.3817" stroke-miterlimit="10" stroke-linecap="round" stroke-linejoin="round" stroke-dasharray="7.6 7.6"/>
<path d="M212.4 437.1H271.2" stroke="white" stroke-width="1.3817" stroke-miterlimit="10" stroke-linecap="round" stroke-linejoin="round" stroke-dasharray="7.6 7.6"/>
<path d="M218.7 445.4H266.3" stroke="white" stroke-width="1.3817" stroke-miterlimit="10" stroke-linecap="round" stroke-linejoin="round" stroke-dasharray="7.6 7.6"/>
<path d="M79.1 416H137.6" stroke="white" stroke-width="1.3817" stroke-miterlimit="10" stroke-linecap="round" stroke-linejoin="round" stroke-dasharray="7.6 7.6"/>
<path d="M124.1 481.6H182.3" stroke="white" stroke-width="1.3817" stroke-miterlimit="10" stroke-linecap="round" stroke-linejoin="round" stroke-dasharray="7.6 7.6"/>
<path d="M124.1 489.2H182.3" stroke="white" stroke-width="1.3817" stroke-miterlimit="10" stroke-linecap="round" stroke-linejoin="round" stroke-dasharray="7.6 7.6"/>
<path d="M61.8136 97.8149L68.6136 98.8149" stroke="white" stroke-width="1.3817" stroke-miterlimit="10" stroke-linecap="round" stroke-linejoin="round"/>
<path d="M64.7136 101.715L65.7136 95.015" stroke="white" stroke-width="1.3817" stroke-miterlimit="10" stroke-linecap="round" stroke-linejoin="round"/>
<path d="M107.714 73.715C106.814 75.915 105.814 78.015 104.614 79.915C100.314 87.115 94.3136 92.915 87.4136 96.915C80.8136 100.715 73.3136 102.915 65.6136 103.215C59.0136 103.515 52.1136 102.415 45.6136 99.715C32.6136 94.415 23.3136 84.015 18.8136 71.815C17.4136 68.115 16.6136 64.215 16.2136 60.215C15.5136 52.715 16.5136 45.015 19.5136 37.515C22.1136 31.115 26.0136 25.515 30.7136 21.015C35.0136 17.115 40.0136 13.915 45.4136 11.615C56.6136 7.01496 69.6136 6.61496 81.7136 11.515C101.714 19.715 113.114 39.915 111.114 60.415C110.614 64.915 109.514 69.315 107.714 73.715Z" fill="#0BFF90" stroke="black" stroke-width="1.3817" stroke-miterlimit="10" stroke-linecap="round" stroke-linejoin="round"/>
<path d="M73.7136 31.015C73.0136 32.815 71.5136 34.215 69.8136 34.915C68.1136 35.615 66.2136 35.715 64.3136 34.915L30.8136 21.115C35.0136 17.115 40.0136 13.915 45.4136 11.615L69.8136 21.615C73.5136 23.115 75.2136 27.315 73.7136 31.015Z" fill="#FF6CAF" stroke="black" stroke-width="1.3817" stroke-miterlimit="10" stroke-linecap="round" stroke-linejoin="round"/>
<path d="M70.5136 29.715C70.1136 30.615 69.4136 31.315 68.5136 31.715C67.6136 32.115 66.6136 32.115 65.7136 31.715L50.8136 25.615" stroke="black" stroke-width="1.3817" stroke-miterlimit="10" stroke-linecap="round" stroke-linejoin="round" stroke-dasharray="7.6 7.6"/>
<path d="M107.714 73.7149C106.814 75.9149 105.814 78.0149 104.614 79.9149L61.1137 62.1149C58.5137 61.0149 56.5137 59.0149 55.5137 56.6149C54.5137 54.2149 54.4137 51.4149 55.5137 48.8149C57.6137 43.6149 63.6137 41.1149 68.9137 43.2149L111.114 60.5149C110.614 64.9149 109.514 69.3149 107.714 73.7149Z" fill="#FF6CAF" stroke="black" stroke-width="1.3817" stroke-miterlimit="10" stroke-linecap="round" stroke-linejoin="round"/>
<path d="M103.114 75.615L62.4136 58.915C60.7136 58.215 59.4136 56.915 58.7136 55.215C58.0136 53.515 58.0136 51.715 58.7136 50.015" stroke="black" stroke-width="1.3817" stroke-miterlimit="10" stroke-linecap="round" stroke-linejoin="round" stroke-dasharray="7.6 7.6"/>
<path d="M51.5136 80.0149C51.0136 81.2149 50.0136 82.2149 48.9136 82.6149C47.7136 83.1149 46.4136 83.1149 45.2136 82.6149L18.8136 71.9149C17.4136 68.2149 16.6136 64.3149 16.2136 60.3149L48.9136 73.7149C51.3136 74.7149 52.5136 77.5149 51.5136 80.0149Z" fill="#FF6CAF" stroke="black" stroke-width="1.3817" stroke-miterlimit="10" stroke-linecap="round" stroke-linejoin="round"/>
<path d="M44.0136 78.5149L30.2136 72.8149" stroke="black" stroke-width="1.3817" stroke-miterlimit="10" stroke-linecap="round" stroke-linejoin="round" stroke-dasharray="7.6 7.6"/>
<path d="M87.4136 96.915C80.8136 100.715 73.3136 102.915 65.6136 103.215L59.5136 100.715C55.9136 99.215 54.2136 95.115 55.6136 91.515C56.3136 89.715 57.7136 88.415 59.4136 87.715C61.1136 87.015 63.0136 86.915 64.8136 87.715L87.4136 96.915Z" fill="#FF6CAF" stroke="black" stroke-width="1.3817" stroke-miterlimit="10" stroke-linecap="round" stroke-linejoin="round"/>
<path d="M37.5136 60.415L29.4136 57.115C26.8136 56.115 25.6136 53.115 26.7136 50.615C27.7136 48.015 30.7136 46.815 33.2136 47.915L41.3136 51.215C43.9136 52.215 45.1136 55.215 44.0136 57.715C42.9136 60.215 40.0136 61.415 37.5136 60.415Z" fill="#FF6CAF" stroke="black" stroke-width="1.3817" stroke-miterlimit="10" stroke-linecap="round" stroke-linejoin="round"/>
<path d="M92.4136 44.315L87.3136 42.215C84.1136 40.915 82.6136 37.315 83.9136 34.115C85.2136 30.915 88.8136 29.415 92.0136 30.715L97.1136 32.815C100.314 34.115 101.814 37.715 100.514 40.915C99.2136 44.115 95.6136 45.615 92.4136 44.315Z" fill="#FF6CAF" stroke="black" stroke-width="1.3817" stroke-miterlimit="10" stroke-linecap="round" stroke-linejoin="round"/>
<path d="M346.5 88.8C343.8 99.3 336.8 108.2 327.2 113.1C326.6 111.4 326.5 109.5 325.1 108.5C323.8 107.5 321.9 107.9 320.5 108.8C319.1 109.7 318.1 111 316.9 112.1C315.7 113.2 314.1 114.1 312.5 113.9C311.4 113.8 310.4 113.1 309.3 112.8C306.6 112.1 303.6 113.9 302.3 116.4C302.3 116.5 302.2 116.6 302.2 116.7C296.4 115.5 291 112.9 286.5 109.4C286.9 108.1 287 106.7 287.4 105.3C287.9 103.6 289.5 102 291.2 102.3C293.1 102.7 293.7 105.1 294.8 106.7C295.9 108.2 297.9 109.1 299.7 108.9C301.6 108.7 303.3 107.5 304.1 105.8C304.9 104.2 304.8 102.3 305.2 100.6C305.6 98.9 307 97.1 308.7 97.2C310.6 97.3 311.7 99.5 312.2 101.4C312.7 103.3 313.1 105.5 314.9 106.3C317.2 107.4 319.8 105.2 320.6 102.8C321.4 100.4 321.3 97.7 322.3 95.4C323.3 93.1 326.4 91.3 328.3 92.9C330 94.3 329.7 97.3 331.4 98.7C332.9 99.9 335.2 99.3 336.5 98C337.8 96.7 338.5 94.8 339.3 93.1C340.1 91.4 341.2 89.6 343 88.9C344 88.2 345.3 88.3 346.5 88.8Z" fill="#FF6CAF" stroke="black" stroke-width="1.3817" stroke-miterlimit="10" stroke-linecap="round" stroke-linejoin="round"/>
<path d="M327.2 113.1C323.2 115.2 318.8 116.6 314 117.1C309.9 117.6 305.9 117.4 302 116.6C302 116.5 302.1 116.4 302.1 116.3C303.4 113.8 306.4 112 309.1 112.7C310.2 113 311.2 113.7 312.3 113.8C313.9 114 315.5 113.1 316.7 112C317.9 110.9 318.9 109.6 320.3 108.7C321.7 107.8 323.6 107.5 324.9 108.4C326.5 109.5 326.6 111.5 327.2 113.1Z" fill="#3475EA" stroke="black" stroke-width="1.3817" stroke-miterlimit="10" stroke-linecap="round" stroke-linejoin="round"/>
<path d="M346.5 88.8C345.3 88.3 344 88.2 342.8 88.7C341 89.4 339.9 91.1 339.1 92.9C338.3 94.6 337.6 96.5 336.3 97.8C335 99.1 332.6 99.7 331.2 98.5C329.5 97.1 329.8 94.1 328.1 92.7C326.1 91.1 323.1 92.9 322.1 95.2C321.1 97.5 321.3 100.2 320.4 102.6C319.6 105 317 107.2 314.7 106.1C312.9 105.3 312.5 103.1 312 101.2C311.5 99.3 310.5 97.1 308.5 97C306.7 96.9 305.4 98.7 305 100.4C304.6 102.1 304.7 104 303.9 105.6C303.1 107.3 301.4 108.5 299.5 108.7C297.6 108.9 295.7 108 294.6 106.5C293.4 104.9 292.9 102.5 291 102.1C289.3 101.7 287.8 103.4 287.2 105.1C286.8 106.4 286.7 107.8 286.3 109.2C278.6 103.2 273.3 94.2 272.1 83.7C272 82.8 271.9 81.9 271.9 81.1C273.2 80.8 274.1 80.5 274.4 80.5C277.1 80.5 279.4 82.4 281.2 84.5C283 86.5 284.6 88.8 287 90.1C289.4 91.4 292.9 91.2 294.3 88.9C295.5 86.9 294.8 84 296.5 82.4C298 80.9 300.6 81.3 302.3 82.5C304.1 83.7 305.4 85.4 307.1 86.6C308.9 87.8 311.4 88.2 312.9 86.7C315.4 84.2 312.6 79 315.3 76.8C316.8 75.6 319.2 76.2 320.6 77.5C322.1 78.8 323 80.6 324.2 82.1C325.4 83.6 327.2 85 329.2 84.7C332.4 84.2 333.3 80.1 335.4 77.6C338 74.6 342.8 74.2 346.5 75.9C346.6 76 347 76.1 347.5 76.2C347.9 80.6 347.5 84.8 346.5 88.8Z" fill="#3475EA" stroke="black" stroke-width="1.3817" stroke-miterlimit="10" stroke-linecap="round" stroke-linejoin="round"/>
<path d="M347.5 76.2C347.1 76.1 346.7 75.9 346.5 75.9C342.8 74.2 338 74.6 335.4 77.6C333.3 80.1 332.4 84.2 329.2 84.7C327.3 85 325.5 83.6 324.2 82.1C323 80.6 322.1 78.8 320.6 77.5C319.1 76.2 316.8 75.6 315.3 76.8C312.6 79 315.3 84.2 312.9 86.7C311.4 88.2 308.8 87.8 307.1 86.6C305.3 85.4 304 83.7 302.3 82.5C300.5 81.3 297.9 80.9 296.5 82.4C294.9 84.1 295.5 86.9 294.3 88.9C292.9 91.2 289.4 91.4 287 90.1C284.6 88.8 283 86.5 281.2 84.5C279.4 82.5 277.1 80.6 274.4 80.5C274.1 80.5 273.2 80.7 271.9 81.1V81C271.6 74.3 273.1 67.9 276 62.2C276.6 61.9 277.3 61.7 277.9 61.5C281.4 60.8 285.2 62.5 287 65.6C288.2 67.6 288.7 70.2 290.8 71.3C293.1 72.5 295.9 70.9 297.4 68.7C298.9 66.6 299.5 64 300.9 61.8C302.3 59.6 304.9 57.9 307.3 58.8C309.4 59.6 310.3 62.1 311 64.2C311.7 66.3 312.8 68.7 315.1 69.2C317.9 69.8 320.1 67 321.5 64.5C322.9 62 324.7 59.1 327.5 59.1C330.2 59.2 331.9 61.9 334 63.6C336.7 65.7 340.7 66 343.8 64.3C343.9 64.3 344.1 64.1 344.5 63.9C346 67.3 347 71 347.5 75C347.5 75.6 347.5 75.9 347.5 76.2Z" fill="#FF6CAF" stroke="black" stroke-width="1.3817" stroke-miterlimit="10" stroke-linecap="round" stroke-linejoin="round"/>
<path d="M344.4 64.2C344 64.4 343.7 64.5 343.7 64.6C340.7 66.3 336.7 66 333.9 63.9C331.8 62.2 330.1 59.5 327.4 59.4C324.6 59.3 322.7 62.3 321.4 64.8C320.1 67.3 317.8 70.1 315 69.5C312.8 69 311.7 66.6 310.9 64.5C310.2 62.4 309.3 59.9 307.2 59.1C304.8 58.2 302.1 59.9 300.8 62.1C299.4 64.3 298.8 66.9 297.3 69C295.8 71.1 293 72.7 290.7 71.6C288.6 70.6 288.1 67.9 286.9 65.9C285.1 62.8 281.3 61.2 277.8 61.8C277.1 61.9 276.5 62.2 275.9 62.5C280.1 54.2 287.4 47.6 296.3 44.2C296 45.1 295.7 45.9 295.5 46.1C294.7 47.7 293.7 49.2 293.5 51C293.3 52.8 294.4 54.8 296.2 54.9C299.3 54.9 300.2 49.5 303.2 49.7C306.1 49.9 306.6 55.1 309.5 55.1C310.9 55.1 311.9 53.8 312.5 52.6C313.1 51.4 313.7 50 314.9 49.3C316.6 48.3 318.8 49.3 320.4 50.5C322 51.7 323.6 53.1 325.5 53.2C328.2 53.3 329.8 50.9 330.8 48.4C336.8 52 341.5 57.5 344.4 64.2C344.4 64.1 344.4 64.1 344.4 64.2Z" fill="#3475EA"/>
<path d="M344.4 64.2C344 64.4 343.7 64.5 343.7 64.6C340.7 66.3 336.7 66 333.9 63.9C331.8 62.2 330.1 59.5 327.4 59.4C324.6 59.3 322.7 62.3 321.4 64.8C320.1 67.3 317.8 70.1 315 69.5C312.8 69 311.7 66.6 310.9 64.5C310.2 62.4 309.3 59.9 307.2 59.1C304.8 58.2 302.1 59.9 300.8 62.1C299.4 64.3 298.8 66.9 297.3 69C295.8 71.1 293 72.7 290.7 71.6C288.6 70.6 288.1 67.9 286.9 65.9C285.1 62.8 281.3 61.2 277.8 61.8C277.1 61.9 276.5 62.2 275.9 62.5C280.1 54.2 287.4 47.6 296.3 44.2C296 45.1 295.7 45.9 295.5 46.1C294.7 47.7 293.7 49.2 293.5 51C293.3 52.8 294.4 54.8 296.2 54.9C299.3 54.9 300.2 49.5 303.2 49.7C306.1 49.9 306.6 55.1 309.5 55.1C310.9 55.1 311.9 53.8 312.5 52.6C313.1 51.4 313.7 50 314.9 49.3C316.6 48.3 318.8 49.3 320.4 50.5C322 51.7 323.6 53.1 325.5 53.2C328.2 53.3 329.8 50.9 330.8 48.4C336.8 52 341.5 57.5 344.4 64.2ZM344.4 64.2C344.4 64.1 344.4 64.1 344.4 64.2Z" stroke="black" stroke-width="1.3817" stroke-miterlimit="10" stroke-linecap="round" stroke-linejoin="round"/>
<path d="M331.1 48.1C330.1 50.6 328.5 53 325.8 52.9C323.8 52.8 322.2 51.3 320.7 50.2C319.1 49 316.9 48.1 315.2 49C314 49.7 313.4 51.1 312.8 52.3C312.2 53.5 311.1 54.8 309.8 54.8C306.9 54.8 306.4 49.6 303.5 49.4C300.5 49.2 299.5 54.7 296.5 54.6C294.7 54.6 293.6 52.5 293.8 50.7C294 48.9 295 47.4 295.8 45.8C295.9 45.6 296.2 44.8 296.6 43.9C299.5 42.8 302.5 42.1 305.7 41.7C314.9 40.7 323.8 43.2 331.1 48.1Z" fill="#FF6CAF" stroke="black" stroke-width="1.3817" stroke-miterlimit="10" stroke-linecap="round" stroke-linejoin="round"/>
<path d="M279.9 74.2C280.894 74.2 281.7 73.3942 281.7 72.4C281.7 71.4059 280.894 70.6 279.9 70.6C278.906 70.6 278.1 71.4059 278.1 72.4C278.1 73.3942 278.906 74.2 279.9 74.2Z" fill="black"/>
<path d="M308.5 82.7C309.218 82.7 309.8 82.118 309.8 81.4C309.8 80.6821 309.218 80.1 308.5 80.1C307.782 80.1 307.2 80.6821 307.2 81.4C307.2 82.118 307.782 82.7 308.5 82.7Z" fill="black"/>
<path d="M326.5 68.9C327.494 68.9 328.3 68.0942 328.3 67.1C328.3 66.1059 327.494 65.3 326.5 65.3C325.506 65.3 324.7 66.1059 324.7 67.1C324.7 68.0942 325.506 68.9 326.5 68.9Z" fill="black"/>
<path d="M299.2 105.1C299.973 105.1 300.6 104.473 300.6 103.7C300.6 102.927 299.973 102.3 299.2 102.3C298.427 102.3 297.8 102.927 297.8 103.7C297.8 104.473 298.427 105.1 299.2 105.1Z" fill="black"/>
<path d="M326.4 103.4C327.173 103.4 327.8 102.773 327.8 102C327.8 101.227 327.173 100.6 326.4 100.6C325.627 100.6 325 101.227 325 102C325 102.773 325.627 103.4 326.4 103.4Z" fill="black"/>
<path d="M317 55.9C318.049 55.9 318.9 55.0494 318.9 54C318.9 52.9507 318.049 52.1 317 52.1C315.951 52.1 315.1 52.9507 315.1 54C315.1 55.0494 315.951 55.9 317 55.9Z" fill="black"/>
<path d="M287.8 55.4C288.408 55.4 288.9 54.9075 288.9 54.3C288.9 53.6925 288.408 53.2 287.8 53.2C287.193 53.2 286.7 53.6925 286.7 54.3C286.7 54.9075 287.193 55.4 287.8 55.4Z" fill="black"/>
<path d="M299.5 168.5C308.557 168.5 315.9 161.157 315.9 152.1C315.9 143.043 308.557 135.7 299.5 135.7C290.442 135.7 283.1 143.043 283.1 152.1C283.1 161.157 290.442 168.5 299.5 168.5Z" fill="#0BFF90" stroke="black" stroke-width="1.3817" stroke-miterlimit="10" stroke-linecap="round" stroke-linejoin="round"/>
<path d="M289.4 151.3C290.615 151.3 291.6 150.315 291.6 149.1C291.6 147.885 290.615 146.9 289.4 146.9C288.185 146.9 287.2 147.885 287.2 149.1C287.2 150.315 288.185 151.3 289.4 151.3Z" fill="#3475EA" stroke="black" stroke-width="1.3817" stroke-miterlimit="10" stroke-linecap="round" stroke-linejoin="round"/>
<path d="M305.6 160.8C307.809 160.8 309.6 159.009 309.6 156.8C309.6 154.591 307.809 152.8 305.6 152.8C303.391 152.8 301.6 154.591 301.6 156.8C301.6 159.009 303.391 160.8 305.6 160.8Z" fill="#3475EA" stroke="black" stroke-width="1.3817" stroke-miterlimit="10" stroke-linecap="round" stroke-linejoin="round"/>
<path d="M303.3 147.6C305.454 147.6 307.2 145.854 307.2 143.7C307.2 141.546 305.454 139.8 303.3 139.8C301.146 139.8 299.4 141.546 299.4 143.7C299.4 145.854 301.146 147.6 303.3 147.6Z" stroke="black" stroke-width="1.3817" stroke-miterlimit="10" stroke-linecap="round" stroke-linejoin="round" stroke-dasharray="3.11 3.11"/>
<path d="M105.7 455.6C106.5 450.1 110.4 445.1 115.5 442.8C120.6 440.6 126.9 441.2 131.5 444.5C134.6 446.7 136.9 449.9 139.6 452.6C142.3 455.3 145.8 457.6 149.6 457.3C157.4 456.7 161.6 445.6 169.5 445.6C173 445.6 176 447.9 178.5 450.3C181 452.7 183.3 455.5 186.5 457C189.7 458.5 194 458.1 195.8 455.1" stroke="black" stroke-width="1.3817" stroke-miterlimit="10" stroke-linecap="round" stroke-linejoin="round" stroke-dasharray="8.29 8.29"/>
<path d="M128 391.7C127.8 389.6 129.8 387.8 131.9 387.6C134 387.4 136 388.3 137.8 389.4C139.6 390.5 141.3 391.8 143.3 392.3C145.7 393 148.4 392.6 150.4 391.3C151.9 390.4 153.1 389 154.8 388.5C156.9 387.9 159.1 389 160.8 390.3C162.5 391.6 164.1 393.2 166.1 394.1C168.1 394.9 170.8 394.6 171.9 392.8" stroke="black" stroke-width="1.3817" stroke-miterlimit="10" stroke-linecap="round" stroke-linejoin="round" stroke-dasharray="8.29 8.29"/>
<path d="M238.1 379.3C238.2 375.6 241.8 372.4 245.6 372.6C248.6 372.8 251 374.9 253.3 376.7C255.7 378.5 258.5 380.2 261.4 379.7C263.4 379.3 265 377.9 266.5 376.5C268 375.1 269.5 373.6 271.4 372.9C273.3 372.2 275.8 372.6 276.8 374.4" stroke="black" stroke-width="1.3817" stroke-miterlimit="10" stroke-linecap="round" stroke-linejoin="round" stroke-dasharray="8.29 8.29"/>
<path d="M306.9 419.8C305.2 417.7 303 415.5 300.3 415.6C297 415.8 295 419.5 291.9 420.7C289.4 421.7 286.6 420.9 284.3 419.4C282 418 280.2 416 278.1 414.4C276 412.7 273.5 411.3 270.9 411.4C268.2 411.5 265.5 413.5 265.4 416.1" stroke="black" stroke-width="1.3817" stroke-miterlimit="10" stroke-linecap="round" stroke-linejoin="round" stroke-dasharray="8.29 8.29"/>
<path d="M162.7 513.4C164.8 511.1 168.3 510.2 171.2 511.2C175.3 512.6 177.9 517.3 182.2 517.6C188.3 518 192 509.4 198.2 509.3C203.9 509.2 207.6 516.4 213.3 516.6" stroke="black" stroke-width="1.3817" stroke-miterlimit="10" stroke-linecap="round" stroke-linejoin="round" stroke-dasharray="8.29 8.29"/>
<path d="M235 501.3C237.6 497.9 242.4 496.5 246.4 497.9C248.8 498.7 250.8 500.5 253.2 501.4C257.7 503.1 263.3 501.5 266.1 497.6" stroke="black" stroke-width="1.3817" stroke-miterlimit="10" stroke-linecap="round" stroke-linejoin="round" stroke-dasharray="8.29 8.29"/>
<path d="M42.6 376.3C44.8 371.7 50.5 369.1 55.4 370.5C59.7 371.7 63.1 375.6 67.5 376.2C70.6 376.6 73.8 375.4 75.7 373" stroke="black" stroke-width="1.3817" stroke-miterlimit="10" stroke-linecap="round" stroke-linejoin="round" stroke-dasharray="8.29 8.29"/>
<path d="M58.7 453.7C61.1 451.3 64.6 449.5 67.8 450.5C69.8 451.1 71.3 452.6 73 453.8C75 455.2 77.4 456.3 79.9 456.2C82.4 456 84.9 454.4 85.5 452" stroke="black" stroke-width="1.3817" stroke-miterlimit="10" stroke-linecap="round" stroke-linejoin="round" stroke-dasharray="8.29 8.29"/>
<path d="M99.7 509.9C101.4 506.9 105 505.5 108.4 505.5C111.8 505.5 115.1 506.7 118.3 507.9C121.5 509.1 124.9 510.2 128.3 510C131.7 509.8 135.3 508.1 136.6 504.9" stroke="black" stroke-width="1.3817" stroke-miterlimit="10" stroke-linecap="round" stroke-linejoin="round" stroke-dasharray="8.29 8.29"/>
</svg>
