<svg width="309" height="550" viewBox="0 0 309 550" fill="none" xmlns="http://www.w3.org/2000/svg">
<path d="M269.8 500.6C268 502.7 266.1 504.7 264.1 506.6C240.1 530.6 207.7 546.3 171.8 548.9C150 550.5 129.1 547.1 110.1 539.9C113.3 539.3 116.5 538.6 119.7 537.8C141.4 532.2 161.4 521.7 182.7 514.6C210.6 505.2 240.2 502.2 269.8 500.6Z" fill="#FFDE1D" stroke="black" stroke-width="1.3817" stroke-miterlimit="10" stroke-linecap="round" stroke-linejoin="round"/>
<path d="M279.9 487.9C276.8 492.3 273.4 496.5 269.8 500.6C240.2 502.2 210.7 505.2 182.7 514.5C161.5 521.6 141.4 532.1 119.7 537.7C116.5 538.5 113.3 539.2 110.1 539.8C89.2 531.9 70.6 519.2 55.5 503.1C130.2 498.1 205 493 279.9 487.9Z" fill="#FF2727" stroke="black" stroke-width="1.3817" stroke-miterlimit="10" stroke-linecap="round" stroke-linejoin="round"/>
<path d="M293.2 465C289.4 473.1 285 480.7 279.9 487.9C205 493 130.2 498.1 55.4 503.1C52.3 499.8 49.4 496.4 46.6 492.8C63.7 491.7 80.8 489.8 97.3 485.4C120.7 479.2 143.2 467.4 158.3 448.5C163.3 442.2 167.6 435 174.3 430.6C184.6 423.8 198.4 425.1 209.7 429.9C221 434.7 230.8 442.5 241.4 448.7C257.2 457.9 275 463.4 293.2 465Z" fill="#1ECEF7" stroke="black" stroke-width="1.3817" stroke-miterlimit="10" stroke-linecap="round" stroke-linejoin="round"/>
<path d="M304.3 430.1C302.1 442.3 298.3 454.1 293.2 465C275 463.4 257.2 457.9 241.4 448.7C230.8 442.5 221 434.7 209.7 429.9C198.4 425.1 184.5 423.8 174.3 430.6C167.6 435 163.3 442.2 158.3 448.5C143.3 467.4 120.7 479.2 97.3 485.4C80.8 489.8 63.7 491.7 46.6 492.8C41.1 485.7 36.2 478.1 32 470.1C64.2 465.4 95 450.9 119 428.8C129.2 419.3 138.4 408.4 150.3 401.1C173.6 386.9 203.7 389.1 229.3 398.4C248.3 405.3 265.9 415.7 284.6 423.4C291 426 297.6 428.3 304.3 430.1Z" fill="#FFDE1D" stroke="black" stroke-width="1.3817" stroke-miterlimit="10" stroke-linecap="round" stroke-linejoin="round"/>
<path d="M306.7 398V403.6C306.7 412.6 305.9 421.5 304.3 430C297.6 428.3 291 426 284.6 423.3C265.9 415.6 248.3 405.2 229.3 398.3C203.7 389 173.5 386.8 150.3 401C138.4 408.3 129.2 419.2 119 428.7C95.1 450.8 64.3 465.3 32 470C26.2 458.9 21.8 446.9 19.1 434.3C31.1 432.5 42.8 428.9 53.7 423.6C71.5 414.8 86.8 401.6 104.4 392.2C143.2 371.4 172.8 353.4 233.3 378.2C256.8 387.9 281.6 393.6 306.7 398Z" fill="#FF2727" stroke="black" stroke-width="1.3817" stroke-miterlimit="10" stroke-linecap="round" stroke-linejoin="round"/>
<path d="M306.7 368.8V398C281.6 393.6 256.8 387.9 233.3 378.3C227.7 376 222.3 374.1 217.2 372.5C187.6 363.3 165.8 365.4 145.6 372.5C131.8 377.4 118.7 384.7 104.4 392.4C86.9 401.8 71.6 415 53.7 423.8C42.8 429.2 31.1 432.8 19.1 434.5C16.8 424.2 15.6 413.5 15.6 402.6V368.9C15.6 357.4 24.9 348.1 36.4 348.1H286C297.4 348 306.7 357.3 306.7 368.8Z" fill="#1ECEF7" stroke="black" stroke-width="1.3817" stroke-miterlimit="10" stroke-linecap="round" stroke-linejoin="round"/>
<path d="M124.8 34.3L130.8 37.6" stroke="white" stroke-width="1.3817" stroke-miterlimit="10" stroke-linecap="round" stroke-linejoin="round"/>
<path d="M126.2 39L129.5 33" stroke="white" stroke-width="1.3817" stroke-miterlimit="10" stroke-linecap="round" stroke-linejoin="round"/>
<path d="M46.4 4.39999L52.4 7.69999" stroke="white" stroke-width="1.3817" stroke-miterlimit="10" stroke-linecap="round" stroke-linejoin="round"/>
<path d="M47.7 9L51 3" stroke="white" stroke-width="1.3817" stroke-miterlimit="10" stroke-linecap="round" stroke-linejoin="round"/>
<path d="M86.5 157.6L89.2 163.9" stroke="white" stroke-width="1.3817" stroke-miterlimit="10" stroke-linecap="round" stroke-linejoin="round"/>
<path d="M84.7 162.1L90.9 159.4" stroke="white" stroke-width="1.3817" stroke-miterlimit="10" stroke-linecap="round" stroke-linejoin="round"/>
<path d="M209.5 4.80001L216.1 3.20001" stroke="white" stroke-width="1.3817" stroke-miterlimit="10" stroke-linecap="round" stroke-linejoin="round"/>
<path d="M213.6 7.30001L212 0.700012" stroke="white" stroke-width="1.3817" stroke-miterlimit="10" stroke-linecap="round" stroke-linejoin="round"/>
<path d="M294.9 75.7L301.8 75.6" stroke="white" stroke-width="1.3817" stroke-miterlimit="10" stroke-linecap="round" stroke-linejoin="round"/>
<path d="M298.4 79.1L298.3 72.2" stroke="white" stroke-width="1.3817" stroke-miterlimit="10" stroke-linecap="round" stroke-linejoin="round"/>
<path d="M192.9 55.9L198.5 52" stroke="white" stroke-width="1.3817" stroke-miterlimit="10" stroke-linecap="round" stroke-linejoin="round"/>
<path d="M197.6 56.8L193.7 51.2" stroke="white" stroke-width="1.3817" stroke-miterlimit="10" stroke-linecap="round" stroke-linejoin="round"/>
<path d="M97 8.79999C97.8284 8.79999 98.5 8.12841 98.5 7.29999C98.5 6.47156 97.8284 5.79999 97 5.79999C96.1716 5.79999 95.5 6.47156 95.5 7.29999C95.5 8.12841 96.1716 8.79999 97 8.79999Z" fill="white"/>
<path d="M282.2 117.3C283.415 117.3 284.4 116.315 284.4 115.1C284.4 113.885 283.415 112.9 282.2 112.9C280.985 112.9 280 113.885 280 115.1C280 116.315 280.985 117.3 282.2 117.3Z" fill="white"/>
<path d="M74.6 129.9C75.815 129.9 76.8 128.915 76.8 127.7C76.8 126.485 75.815 125.5 74.6 125.5C73.385 125.5 72.4 126.485 72.4 127.7C72.4 128.915 73.385 129.9 74.6 129.9Z" fill="white"/>
<path d="M41.4 143.9C42.615 143.9 43.6 142.915 43.6 141.7C43.6 140.485 42.615 139.5 41.4 139.5C40.185 139.5 39.2 140.485 39.2 141.7C39.2 142.915 40.185 143.9 41.4 143.9Z" fill="white"/>
<path d="M262 139.1C263.325 139.1 264.4 138.025 264.4 136.7C264.4 135.374 263.325 134.3 262 134.3C260.675 134.3 259.6 135.374 259.6 136.7C259.6 138.025 260.675 139.1 262 139.1Z" fill="white"/>
<path d="M6.39999 107.5C7.78071 107.5 8.89999 106.381 8.89999 105C8.89999 103.619 7.78071 102.5 6.39999 102.5C5.01928 102.5 3.89999 103.619 3.89999 105C3.89999 106.381 5.01928 107.5 6.39999 107.5Z" fill="white"/>
<path d="M104.6 102.4C106.809 102.4 108.6 100.609 108.6 98.4C108.6 96.1909 106.809 94.4 104.6 94.4C102.391 94.4 100.6 96.1909 100.6 98.4C100.6 100.609 102.391 102.4 104.6 102.4Z" fill="white"/>
<path d="M193.8 478.6C205.508 478.6 215 469.108 215 457.4C215 445.692 205.508 436.2 193.8 436.2C182.092 436.2 172.6 445.692 172.6 457.4C172.6 469.108 182.092 478.6 193.8 478.6Z" fill="#FF2727" stroke="black" stroke-width="1.3817" stroke-miterlimit="10" stroke-linecap="round" stroke-linejoin="round"/>
<path d="M286 348L268 347.8L261.4 347.3C242.4 344.1 228 327.7 228 307.8V271.3C221.7 271.6 215.5 274.9 211.9 281.1L184.6 328.5C183.2 325 182.5 321.3 182.5 317.3V296.7C175.9 296.7 169.2 300 165.4 306.5L141.5 347.8H118.2L114.6 347.4C106.5 345.8 100.4 338.6 100.4 330V316.5C93.9 316.6 87.5 319.9 83.7 326.3L71.4 347.7V347.9H36.3C24.8 347.9 15.5 357.2 15.5 368.7V372.4H306.7V368.7C306.7 357.3 297.4 348 286 348Z" fill="#FFDE1D" stroke="black" stroke-width="1.3817" stroke-miterlimit="10" stroke-linecap="round" stroke-linejoin="round"/>
<path d="M130.2 347.8H118.2C108.4 347.8 100.5 339.9 100.5 330.1V316.6C107.3 316.5 114.1 319.7 117.9 326.4L130.2 347.8Z" fill="#FF8B0D" stroke="black" stroke-width="1.3817" stroke-miterlimit="10" stroke-linecap="round" stroke-linejoin="round"/>
<path d="M284.4 347.8H268C245.9 347.8 228 329.9 228 307.8V271.3C234.9 271 242 274.2 246 281.1L284.4 347.8Z" fill="#FF8B0D" stroke="black" stroke-width="1.3817" stroke-miterlimit="10" stroke-linecap="round" stroke-linejoin="round"/>
<path d="M223.3 347.8H212.9C196 347.8 182.4 334.1 182.4 317.2V296.6C189 296.6 195.7 299.9 199.4 306.4L223.3 347.8Z" fill="#FF8B0D" stroke="black" stroke-width="1.3817" stroke-miterlimit="10" stroke-linecap="round" stroke-linejoin="round"/>
<path d="M193.8 472.4C202.084 472.4 208.8 465.684 208.8 457.4C208.8 449.116 202.084 442.4 193.8 442.4C185.516 442.4 178.8 449.116 178.8 457.4C178.8 465.684 185.516 472.4 193.8 472.4Z" stroke="black" stroke-width="1.3817" stroke-miterlimit="10" stroke-linecap="round" stroke-linejoin="round" stroke-dasharray="6.22 6.22"/>
<path d="M39.5 409.5C46.6797 409.5 52.5 403.68 52.5 396.5C52.5 389.32 46.6797 383.5 39.5 383.5C32.3203 383.5 26.5 389.32 26.5 396.5C26.5 403.68 32.3203 409.5 39.5 409.5Z" stroke="black" stroke-width="1.3817" stroke-miterlimit="10" stroke-linecap="round" stroke-linejoin="round" stroke-dasharray="6.22 6.22"/>
<path d="M111.7 529.7C118.327 529.7 123.7 524.327 123.7 517.7C123.7 511.073 118.327 505.7 111.7 505.7C105.073 505.7 99.7 511.073 99.7 517.7C99.7 524.327 105.073 529.7 111.7 529.7Z" stroke="black" stroke-width="1.3817" stroke-miterlimit="10" stroke-linecap="round" stroke-linejoin="round"/>
<path d="M267.6 446.6C273.344 446.6 278 441.944 278 436.2C278 430.456 273.344 425.8 267.6 425.8C261.856 425.8 257.2 430.456 257.2 436.2C257.2 441.944 261.856 446.6 267.6 446.6Z" stroke="black" stroke-width="1.3817" stroke-miterlimit="10" stroke-linecap="round" stroke-linejoin="round" stroke-dasharray="6.22 6.22"/>
<path d="M182.3 413.3C186.663 413.3 190.2 409.763 190.2 405.4C190.2 401.037 186.663 397.5 182.3 397.5C177.937 397.5 174.4 401.037 174.4 405.4C174.4 409.763 177.937 413.3 182.3 413.3Z" stroke="black" stroke-width="1.3817" stroke-miterlimit="10" stroke-linecap="round" stroke-linejoin="round" stroke-dasharray="6.22 6.22"/>
<path d="M116.6 464.6C121.791 464.6 126 460.391 126 455.2C126 450.009 121.791 445.8 116.6 445.8C111.409 445.8 107.2 450.009 107.2 455.2C107.2 460.391 111.409 464.6 116.6 464.6Z" stroke="black" stroke-width="1.3817" stroke-miterlimit="10" stroke-linecap="round" stroke-linejoin="round" stroke-dasharray="6.22 6.22"/>
<path d="M65.4 446.2C69.4317 446.2 72.7 442.932 72.7 438.9C72.7 434.868 69.4317 431.6 65.4 431.6C61.3683 431.6 58.1 434.868 58.1 438.9C58.1 442.932 61.3683 446.2 65.4 446.2Z" stroke="black" stroke-width="1.3817" stroke-miterlimit="10" stroke-linecap="round" stroke-linejoin="round"/>
<path d="M197.4 533.6C200.438 533.6 202.9 531.138 202.9 528.1C202.9 525.062 200.438 522.6 197.4 522.6C194.362 522.6 191.9 525.062 191.9 528.1C191.9 531.138 194.362 533.6 197.4 533.6Z" stroke="black" stroke-width="1.3817" stroke-miterlimit="10" stroke-linecap="round" stroke-linejoin="round" stroke-dasharray="6.22 6.22"/>
<path d="M290.4 388C292.885 388 294.9 385.985 294.9 383.5C294.9 381.015 292.885 379 290.4 379C287.915 379 285.9 381.015 285.9 383.5C285.9 385.985 287.915 388 290.4 388Z" stroke="black" stroke-width="1.3817" stroke-miterlimit="10" stroke-linecap="round" stroke-linejoin="round"/>
<path d="M116.6 460C119.251 460 121.4 457.851 121.4 455.2C121.4 452.549 119.251 450.4 116.6 450.4C113.949 450.4 111.8 452.549 111.8 455.2C111.8 457.851 113.949 460 116.6 460Z" stroke="black" stroke-width="1.3817" stroke-miterlimit="10" stroke-linecap="round" stroke-linejoin="round"/>
<path d="M272.6 439.3C271.6 440.9 269.7 442 267.6 442C264.4 442 261.7 439.4 261.7 436.1C261.7 434.5 262.4 433 263.4 432" stroke="black" stroke-width="1.3817" stroke-miterlimit="10" stroke-linecap="round" stroke-linejoin="round"/>
<path d="M39.5 405.1C44.2496 405.1 48.1 401.25 48.1 396.5C48.1 391.75 44.2496 387.9 39.5 387.9C34.7503 387.9 30.9 391.75 30.9 396.5C30.9 401.25 34.7503 405.1 39.5 405.1Z" stroke="black" stroke-width="1.3817" stroke-miterlimit="10" stroke-linecap="round" stroke-linejoin="round"/>
<path d="M62.6 234.7V230.6C62.6 226.4 66 223 70.2 223" stroke="black" stroke-width="1.3817" stroke-miterlimit="10" stroke-linecap="round" stroke-linejoin="round"/>
<path d="M90.9 263.5V273.5C90.9 274.8 89.8 275.9 88.5 275.9C87.2 275.9 86.1 274.8 86.1 273.5V263.5C86.1 262.1 85 261 83.6 261H82.4C81.1 267.2 77.5 272.6 72.5 276.2C70.8 285.3 67.8 302.4 65.6 318.1C64.3 327.3 63.4 336 63.2 342.4H65.2C66.5 342.4 67.6 343.5 67.6 344.8C67.6 346.1 66.5 347.2 65.2 347.2H61.4C60.6 347.2 59.8 346.9 59.2 346.3C58.6 345.7 58.3 344.9 58.3 344.1C58.4 337.5 59.3 328 60.7 318.1C62.6 304.1 65.2 289 67 279.2C64.1 280.4 61 281 57.7 281C54 281 50.5 280.2 47.4 278.8C49.2 288.5 51.8 303.9 53.8 318.1C55.1 328 56.1 337.5 56.2 344.1C56.2 344.9 55.9 345.7 55.3 346.3C54.7 346.9 53.9 347.2 53.1 347.2H49.4C48.1 347.2 47 346.1 47 344.8C47 343.5 48.1 342.4 49.4 342.4H51.3C51.1 336 50.1 327.3 48.9 318.1C46.7 301.9 43.5 284.2 41.9 275.4C37.5 271.8 34.3 266.8 33.1 261H31.9C30.5 261 29.4 262.1 29.4 263.5V273.5C29.4 274.8 28.3 275.9 27 275.9C25.7 275.9 24.6 274.8 24.6 273.5V263.5C24.6 259.5 27.9 256.2 31.9 256.2H32.5C32.5 256.1 32.5 255.9 32.5 255.8C32.5 255 32.5 254.2 32.6 253.5H82.9C83 254.3 83 255 83 255.8C83 255.9 83 256.1 83 256.2H83.6C87.7 256.2 90.9 259.4 90.9 263.5Z" fill="#FF2727" stroke="black" stroke-width="1.3817" stroke-miterlimit="10" stroke-linecap="round" stroke-linejoin="round"/>
<path d="M48.8 231.7L51 238.9" stroke="black" stroke-width="1.3817" stroke-miterlimit="10" stroke-linecap="round" stroke-linejoin="round"/>
<path d="M78.8 253.4H36.7C37.7 242.6 46.7 234.2 57.8 234.2C68.8 234.2 77.8 242.6 78.8 253.4Z" fill="#1ECEF7" stroke="black" stroke-width="1.3817" stroke-miterlimit="10" stroke-linecap="round" stroke-linejoin="round"/>
<path d="M66.9 279.4C67.3 277.2 67.5 276.9 67.8 275.3" stroke="black" stroke-width="1.3817" stroke-miterlimit="10" stroke-linecap="round" stroke-linejoin="round"/>
<path d="M47.6 279.2C47.2 277 47 276.7 46.7 275.1" stroke="black" stroke-width="1.3817" stroke-miterlimit="10" stroke-linecap="round" stroke-linejoin="round"/>
<path d="M49.8 240.4H56.9" stroke="black" stroke-width="1.3817" stroke-miterlimit="10" stroke-linecap="round" stroke-linejoin="round"/>
<path d="M82.3 261H80" stroke="black" stroke-width="1.3817" stroke-miterlimit="10" stroke-linecap="round" stroke-linejoin="round"/>
<path d="M33.2 261H35.5" stroke="black" stroke-width="1.3817" stroke-miterlimit="10" stroke-linecap="round" stroke-linejoin="round"/>
<path d="M67.5 266.4H48.3C46.8 266.4 45.6 265.2 45.6 263.7V260.9C45.6 259.4 46.8 258.2 48.3 258.2H67.6C69.1 258.2 70.3 259.4 70.3 260.9V263.7C70.2 265.2 69 266.4 67.5 266.4Z" fill="#FFDE1D" stroke="black" stroke-width="1.3817" stroke-miterlimit="10" stroke-linecap="round" stroke-linejoin="round"/>
<path d="M49.8 264.3C50.9046 264.3 51.8 263.404 51.8 262.3C51.8 261.195 50.9046 260.3 49.8 260.3C48.6954 260.3 47.8 261.195 47.8 262.3C47.8 263.404 48.6954 264.3 49.8 264.3Z" fill="black"/>
<path d="M53.6 262.3H66.9" stroke="black" stroke-width="1.3817" stroke-miterlimit="10" stroke-linecap="round" stroke-linejoin="round" stroke-dasharray="2.42 2.42"/>
<path d="M70.2 228.8C73.4033 228.8 76 226.203 76 223C76 219.797 73.4033 217.2 70.2 217.2C66.9968 217.2 64.4 219.797 64.4 223C64.4 226.203 66.9968 228.8 70.2 228.8Z" fill="#1ECEF7" stroke="black" stroke-width="1.3817" stroke-miterlimit="10" stroke-linecap="round" stroke-linejoin="round"/>
<path d="M70.2 225.8C71.7464 225.8 73 224.546 73 223C73 221.454 71.7464 220.2 70.2 220.2C68.6536 220.2 67.4 221.454 67.4 223C67.4 224.546 68.6536 225.8 70.2 225.8Z" fill="white" stroke="black" stroke-width="1.3817" stroke-miterlimit="10" stroke-linecap="round" stroke-linejoin="round"/>
<path d="M70.2 224C70.7523 224 71.2 223.552 71.2 223C71.2 222.448 70.7523 222 70.2 222C69.6477 222 69.2 222.448 69.2 223C69.2 223.552 69.6477 224 70.2 224Z" fill="black"/>
<path d="M47.2 232C50.4033 232 53 229.403 53 226.2C53 222.997 50.4033 220.4 47.2 220.4C43.9968 220.4 41.4 222.997 41.4 226.2C41.4 229.403 43.9968 232 47.2 232Z" fill="#1ECEF7" stroke="black" stroke-width="1.3817" stroke-miterlimit="10" stroke-linecap="round" stroke-linejoin="round"/>
<path d="M47.2 229C48.7464 229 50 227.746 50 226.2C50 224.654 48.7464 223.4 47.2 223.4C45.6536 223.4 44.4 224.654 44.4 226.2C44.4 227.746 45.6536 229 47.2 229Z" fill="white" stroke="black" stroke-width="1.3817" stroke-miterlimit="10" stroke-linecap="round" stroke-linejoin="round"/>
<path d="M47.2 227.2C47.7523 227.2 48.2 226.752 48.2 226.2C48.2 225.648 47.7523 225.2 47.2 225.2C46.6477 225.2 46.2 225.648 46.2 226.2C46.2 226.752 46.6477 227.2 47.2 227.2Z" fill="black"/>
<path d="M42.4 240.8L39 237" stroke="black" stroke-width="1.3817" stroke-miterlimit="10" stroke-linecap="round" stroke-linejoin="round"/>
<path d="M70.2 238.2L73 234.7" stroke="black" stroke-width="1.3817" stroke-miterlimit="10" stroke-linecap="round" stroke-linejoin="round"/>
<path d="M53.8 318.1C55.1 328 56.1 337.5 56.2 344.1C56.2 344.9 55.9 345.7 55.3 346.3C54.7 346.9 53.9 347.2 53.1 347.2H49.4C48.1 347.2 47 346.1 47 344.8C47 343.5 48.1 342.4 49.4 342.4H51.3C51.1 336 50.1 327.3 48.9 318.1H53.8Z" fill="#FFDE1D" stroke="black" stroke-width="1.3817" stroke-miterlimit="10" stroke-linecap="round" stroke-linejoin="round"/>
<path d="M67.7 344.7C67.7 346 66.6 347.1 65.3 347.1H61.5C60.7 347.1 59.9 346.8 59.3 346.2C58.7 345.6 58.4 344.8 58.4 344C58.5 337.4 59.4 327.9 60.8 318H65.7C64.4 327.2 63.5 335.9 63.3 342.3H65.3C66.6 342.3 67.7 343.4 67.7 344.7Z" fill="#FFDE1D" stroke="black" stroke-width="1.3817" stroke-miterlimit="10" stroke-linecap="round" stroke-linejoin="round"/>
<path d="M29.4 267.8V273.4C29.4 274.7 28.3 275.8 27 275.8C25.7 275.8 24.6 274.7 24.6 273.4V267.8H29.4Z" fill="#FFDE1D" stroke="black" stroke-width="1.3817" stroke-miterlimit="10" stroke-linecap="round" stroke-linejoin="round"/>
<path d="M90.9 267.8V273.4C90.9 274.7 89.8 275.8 88.5 275.8C87.2 275.8 86.1 274.7 86.1 273.4V267.8H90.9Z" fill="#FFDE1D" stroke="black" stroke-width="1.3817" stroke-miterlimit="10" stroke-linecap="round" stroke-linejoin="round"/>
<path d="M82.9 253.4H32.6C32.8 245.9 35 230.1 36.4 220.3C37.1 215.6 41.1 212.1 45.9 212.1H69.5C74.2 212.1 78.3 215.6 79 220.3C80.5 230 82.7 245.9 82.9 253.4Z" stroke="black" stroke-width="1.3817" stroke-miterlimit="10" stroke-linecap="round" stroke-linejoin="round"/>
<path d="M49.1 215.5H66.4" stroke="white" stroke-width="1.3817" stroke-miterlimit="10" stroke-linecap="round" stroke-linejoin="round" stroke-dasharray="2.42 2.42"/>
<path d="M40.1 219.5C40.6 217.3 42.5 215.8 44.6 215.7L49 215.4" stroke="white" stroke-width="1.3817" stroke-miterlimit="10" stroke-linecap="round" stroke-linejoin="round"/>
<path d="M140 231.7L137.9 238.9" stroke="black" stroke-width="1.3817" stroke-miterlimit="10" stroke-linecap="round" stroke-linejoin="round"/>
<path d="M141.7 232C144.903 232 147.5 229.403 147.5 226.2C147.5 222.997 144.903 220.4 141.7 220.4C138.497 220.4 135.9 222.997 135.9 226.2C135.9 229.403 138.497 232 141.7 232Z" fill="#FF2727" stroke="black" stroke-width="1.3817" stroke-miterlimit="10" stroke-linecap="round" stroke-linejoin="round"/>
<path d="M141.7 229C143.246 229 144.5 227.746 144.5 226.2C144.5 224.654 143.246 223.4 141.7 223.4C140.154 223.4 138.9 224.654 138.9 226.2C138.9 227.746 140.154 229 141.7 229Z" fill="white" stroke="black" stroke-width="1.3817" stroke-miterlimit="10" stroke-linecap="round" stroke-linejoin="round"/>
<path d="M141.7 227.2C142.252 227.2 142.7 226.752 142.7 226.2C142.7 225.648 142.252 225.2 141.7 225.2C141.148 225.2 140.7 225.648 140.7 226.2C140.7 226.752 141.148 227.2 141.7 227.2Z" fill="black"/>
<path d="M164.3 263.5V273.5C164.3 274.8 163.2 275.9 161.9 275.9C160.6 275.9 159.5 274.8 159.5 273.5V263.5C159.5 262.1 158.4 261 157 261H155.8C154.5 267.2 150.9 272.6 145.9 276.2C144.2 285.3 141.2 302.4 139 318.1C137.7 327.3 136.8 336 136.6 342.4H138.6C139.9 342.4 141 343.5 141 344.8C141 346.1 139.9 347.2 138.6 347.2H134.8C134 347.2 133.2 346.9 132.6 346.3C132 345.7 131.7 344.9 131.7 344.1C131.8 337.5 132.7 328 134.1 318.1C136 304.1 138.6 289 140.4 279.2C137.5 280.4 134.4 281 131.1 281C127.4 281 123.9 280.2 120.8 278.8C122.6 288.5 125.2 303.9 127.2 318.1C128.5 328 129.5 337.5 129.6 344.1C129.6 344.9 129.3 345.7 128.7 346.3C128.1 346.9 127.3 347.2 126.5 347.2H122.8C121.5 347.2 120.4 346.1 120.4 344.8C120.4 343.5 121.5 342.4 122.8 342.4H124.7C124.5 336 123.5 327.3 122.3 318.1C120.1 301.9 116.9 284.2 115.3 275.4C110.9 271.8 107.7 266.8 106.5 261H105.3C103.9 261 102.8 262.1 102.8 263.5V273.5C102.8 274.8 101.7 275.9 100.4 275.9C99.1 275.9 98 274.8 98 273.5V263.5C98 259.5 101.3 256.2 105.3 256.2H105.9C105.9 256.1 105.9 255.9 105.9 255.8C105.9 255 105.9 254.2 106 253.5H156.3C156.4 254.3 156.4 255 156.4 255.8C156.4 255.9 156.4 256.1 156.4 256.2H157C161 256.2 164.3 259.4 164.3 263.5Z" fill="#FFDE1D" stroke="black" stroke-width="1.3817" stroke-miterlimit="10" stroke-linecap="round" stroke-linejoin="round"/>
<path d="M122.2 231.7L124.4 238.9" stroke="black" stroke-width="1.3817" stroke-miterlimit="10" stroke-linecap="round" stroke-linejoin="round"/>
<path d="M152.2 253.4H110C111 242.6 120 234.2 131.1 234.2C142.2 234.2 151.2 242.6 152.2 253.4Z" fill="#FF2727" stroke="black" stroke-width="1.3817" stroke-miterlimit="10" stroke-linecap="round" stroke-linejoin="round"/>
<path d="M156.3 253.4H106C106.2 245.9 108.4 230.1 109.8 220.3C110.5 215.6 114.5 212.1 119.3 212.1H142.9C147.6 212.1 151.7 215.6 152.4 220.3C153.9 230 156.1 245.9 156.3 253.4Z" stroke="black" stroke-width="1.3817" stroke-miterlimit="10" stroke-linecap="round" stroke-linejoin="round"/>
<path d="M122.4 215.5H139.8" stroke="white" stroke-width="1.3817" stroke-miterlimit="10" stroke-linecap="round" stroke-linejoin="round" stroke-dasharray="2.42 2.42"/>
<path d="M113.5 219.5C114 217.3 115.9 215.8 118 215.7L122.4 215.4" stroke="white" stroke-width="1.3817" stroke-miterlimit="10" stroke-linecap="round" stroke-linejoin="round"/>
<path d="M140.3 279.4C140.7 277.2 140.9 276.9 141.2 275.3" stroke="black" stroke-width="1.3817" stroke-miterlimit="10" stroke-linecap="round" stroke-linejoin="round"/>
<path d="M121 279.2C120.6 277 120.4 276.7 120.1 275.1" stroke="black" stroke-width="1.3817" stroke-miterlimit="10" stroke-linecap="round" stroke-linejoin="round"/>
<path d="M118.8 247.2H142.2" stroke="black" stroke-width="1.3817" stroke-miterlimit="10" stroke-linecap="round" stroke-linejoin="round"/>
<path d="M155.7 261H153.4" stroke="black" stroke-width="1.3817" stroke-miterlimit="10" stroke-linecap="round" stroke-linejoin="round"/>
<path d="M106.6 261H108.9" stroke="black" stroke-width="1.3817" stroke-miterlimit="10" stroke-linecap="round" stroke-linejoin="round"/>
<path d="M140.9 266.4H121.6C120.1 266.4 118.9 265.2 118.9 263.7V260.9C118.9 259.4 120.1 258.2 121.6 258.2H140.9C142.4 258.2 143.6 259.4 143.6 260.9V263.7C143.6 265.2 142.4 266.4 140.9 266.4Z" fill="#1ECEF7" stroke="black" stroke-width="1.3817" stroke-miterlimit="10" stroke-linecap="round" stroke-linejoin="round"/>
<path d="M123.2 264.3C124.305 264.3 125.2 263.404 125.2 262.3C125.2 261.195 124.305 260.3 123.2 260.3C122.095 260.3 121.2 261.195 121.2 262.3C121.2 263.404 122.095 264.3 123.2 264.3Z" fill="black"/>
<path d="M127 262.3H140.3" stroke="black" stroke-width="1.3817" stroke-miterlimit="10" stroke-linecap="round" stroke-linejoin="round" stroke-dasharray="2.42 2.42"/>
<path d="M120.5 232C123.703 232 126.3 229.403 126.3 226.2C126.3 222.997 123.703 220.4 120.5 220.4C117.297 220.4 114.7 222.997 114.7 226.2C114.7 229.403 117.297 232 120.5 232Z" fill="#FF2727" stroke="black" stroke-width="1.3817" stroke-miterlimit="10" stroke-linecap="round" stroke-linejoin="round"/>
<path d="M120.5 229C122.046 229 123.3 227.746 123.3 226.2C123.3 224.654 122.046 223.4 120.5 223.4C118.954 223.4 117.7 224.654 117.7 226.2C117.7 227.746 118.954 229 120.5 229Z" fill="white" stroke="black" stroke-width="1.3817" stroke-miterlimit="10" stroke-linecap="round" stroke-linejoin="round"/>
<path d="M120.5 227.2C121.052 227.2 121.5 226.752 121.5 226.2C121.5 225.648 121.052 225.2 120.5 225.2C119.948 225.2 119.5 225.648 119.5 226.2C119.5 226.752 119.948 227.2 120.5 227.2Z" fill="black"/>
<path d="M115.8 240.8L112.3 237" stroke="black" stroke-width="1.3817" stroke-miterlimit="10" stroke-linecap="round" stroke-linejoin="round"/>
<path d="M143.6 238.2L146.4 234.7" stroke="black" stroke-width="1.3817" stroke-miterlimit="10" stroke-linecap="round" stroke-linejoin="round"/>
<path d="M127.2 318.1C128.5 328 129.5 337.5 129.6 344.1C129.6 344.9 129.3 345.7 128.7 346.3C128.1 346.9 127.3 347.2 126.5 347.2H122.8C121.5 347.2 120.4 346.1 120.4 344.8C120.4 343.5 121.5 342.4 122.8 342.4H124.7C124.5 336 123.5 327.3 122.3 318.1H127.2Z" fill="#1ECEF7" stroke="black" stroke-width="1.3817" stroke-miterlimit="10" stroke-linecap="round" stroke-linejoin="round"/>
<path d="M141.1 344.7C141.1 346 140 347.1 138.7 347.1H134.9C134.1 347.1 133.3 346.8 132.7 346.2C132.1 345.6 131.8 344.8 131.8 344C131.9 337.4 132.8 327.9 134.2 318H139.1C137.8 327.2 136.9 335.9 136.7 342.3H138.7C140 342.3 141.1 343.4 141.1 344.7Z" fill="#1ECEF7" stroke="black" stroke-width="1.3817" stroke-miterlimit="10" stroke-linecap="round" stroke-linejoin="round"/>
<path d="M102.8 267.8V273.4C102.8 274.7 101.7 275.8 100.4 275.8C99.1 275.8 98 274.7 98 273.4V267.8H102.8Z" fill="#1ECEF7" stroke="black" stroke-width="1.3817" stroke-miterlimit="10" stroke-linecap="round" stroke-linejoin="round"/>
<path d="M164.3 267.8V273.4C164.3 274.7 163.2 275.8 161.9 275.8C160.6 275.8 159.5 274.7 159.5 273.4V267.8H164.3Z" fill="#1ECEF7" stroke="black" stroke-width="1.3817" stroke-miterlimit="10" stroke-linecap="round" stroke-linejoin="round"/>
<path d="M239.1 347.8H212.1" stroke="black" stroke-width="1.3817" stroke-miterlimit="10" stroke-linecap="round" stroke-linejoin="round"/>
<path d="M141.4 347.8H164.3" stroke="black" stroke-width="1.3817" stroke-miterlimit="10" stroke-linecap="round" stroke-linejoin="round"/>
<path d="M32 360.3C32.5523 360.3 33 359.852 33 359.3C33 358.748 32.5523 358.3 32 358.3C31.4477 358.3 31 358.748 31 359.3C31 359.852 31.4477 360.3 32 360.3Z" fill="black"/>
<path d="M215.6 300.3C216.318 300.3 216.9 299.718 216.9 299C216.9 298.282 216.318 297.7 215.6 297.7C214.882 297.7 214.3 298.282 214.3 299C214.3 299.718 214.882 300.3 215.6 300.3Z" fill="black"/>
<path d="M223.3 312.1C224.018 312.1 224.6 311.518 224.6 310.8C224.6 310.082 224.018 309.5 223.3 309.5C222.582 309.5 222 310.082 222 310.8C222 311.518 222.582 312.1 223.3 312.1Z" fill="black"/>
<path d="M217.7 323.7C218.528 323.7 219.2 323.028 219.2 322.2C219.2 321.372 218.528 320.7 217.7 320.7C216.872 320.7 216.2 321.372 216.2 322.2C216.2 323.028 216.872 323.7 217.7 323.7Z" fill="black"/>
<path d="M231.9 340.5C232.563 340.5 233.1 339.963 233.1 339.3C233.1 338.637 232.563 338.1 231.9 338.1C231.237 338.1 230.7 338.637 230.7 339.3C230.7 339.963 231.237 340.5 231.9 340.5Z" fill="black"/>
<path d="M204.1 305.4C204.597 305.4 205 304.997 205 304.5C205 304.003 204.597 303.6 204.1 303.6C203.603 303.6 203.2 304.003 203.2 304.5C203.2 304.997 203.603 305.4 204.1 305.4Z" fill="black"/>
<path d="M223.3 277.8C223.908 277.8 224.4 277.307 224.4 276.7C224.4 276.092 223.908 275.6 223.3 275.6C222.692 275.6 222.2 276.092 222.2 276.7C222.2 277.307 222.692 277.8 223.3 277.8Z" fill="black"/>
<path d="M172.2 308.3C172.752 308.3 173.2 307.852 173.2 307.3C173.2 306.748 172.752 306.3 172.2 306.3C171.648 306.3 171.2 306.748 171.2 307.3C171.2 307.852 171.648 308.3 172.2 308.3Z" fill="black"/>
<path d="M176.7 326.2C177.473 326.2 178.1 325.573 178.1 324.8C178.1 324.027 177.473 323.4 176.7 323.4C175.927 323.4 175.3 324.027 175.3 324.8C175.3 325.573 175.927 326.2 176.7 326.2Z" fill="black"/>
<path d="M158.4 339.7C159.284 339.7 160 338.984 160 338.1C160 337.216 159.284 336.5 158.4 336.5C157.516 336.5 156.8 337.216 156.8 338.1C156.8 338.984 157.516 339.7 158.4 339.7Z" fill="black"/>
<path d="M164.3 326.2C165.073 326.2 165.7 325.573 165.7 324.8C165.7 324.027 165.073 323.4 164.3 323.4C163.527 323.4 162.9 324.027 162.9 324.8C162.9 325.573 163.527 326.2 164.3 326.2Z" fill="black"/>
<path d="M178 345.1C179.215 345.1 180.2 344.115 180.2 342.9C180.2 341.685 179.215 340.7 178 340.7C176.785 340.7 175.8 341.685 175.8 342.9C175.8 344.115 176.785 345.1 178 345.1Z" fill="black"/>
<path d="M95.4 345.6C96.3389 345.6 97.1 344.839 97.1 343.9C97.1 342.961 96.3389 342.2 95.4 342.2C94.4611 342.2 93.7 342.961 93.7 343.9C93.7 344.839 94.4611 345.6 95.4 345.6Z" fill="black"/>
<path d="M80.9 343.3C81.4523 343.3 81.9 342.852 81.9 342.3C81.9 341.748 81.4523 341.3 80.9 341.3C80.3477 341.3 79.9 341.748 79.9 342.3C79.9 342.852 80.3477 343.3 80.9 343.3Z" fill="black"/>
<path d="M89.5 336.5C89.8866 336.5 90.2 336.187 90.2 335.8C90.2 335.413 89.8866 335.1 89.5 335.1C89.1134 335.1 88.8 335.413 88.8 335.8C88.8 336.187 89.1134 336.5 89.5 336.5Z" fill="black"/>
<path d="M95.4 324.8C96.1732 324.8 96.8 324.173 96.8 323.4C96.8 322.627 96.1732 322 95.4 322C94.6268 322 94 322.627 94 323.4C94 324.173 94.6268 324.8 95.4 324.8Z" fill="black"/>
<path d="M96.3 332C96.5761 332 96.8 331.776 96.8 331.5C96.8 331.224 96.5761 331 96.3 331C96.0239 331 95.8 331.224 95.8 331.5C95.8 331.776 96.0239 332 96.3 332Z" fill="black"/>
<path d="M288.8 355.6C289.684 355.6 290.4 354.884 290.4 354C290.4 353.116 289.684 352.4 288.8 352.4C287.916 352.4 287.2 353.116 287.2 354C287.2 354.884 287.916 355.6 288.8 355.6Z" fill="black"/>
<path d="M252.8 356.4C254.125 356.4 255.2 355.325 255.2 354C255.2 352.674 254.125 351.6 252.8 351.6C251.475 351.6 250.4 352.674 250.4 354C250.4 355.325 251.475 356.4 252.8 356.4Z" fill="black"/>
<path d="M269.4 359.9C270.284 359.9 271 359.184 271 358.3C271 357.416 270.284 356.7 269.4 356.7C268.516 356.7 267.8 357.416 267.8 358.3C267.8 359.184 268.516 359.9 269.4 359.9Z" fill="black"/>
<path d="M204.5 354.6C205.328 354.6 206 353.928 206 353.1C206 352.272 205.328 351.6 204.5 351.6C203.672 351.6 203 352.272 203 353.1C203 353.928 203.672 354.6 204.5 354.6Z" fill="black"/>
<path d="M225.6 360.7C226.925 360.7 228 359.626 228 358.3C228 356.975 226.925 355.9 225.6 355.9C224.275 355.9 223.2 356.975 223.2 358.3C223.2 359.626 224.275 360.7 225.6 360.7Z" fill="black"/>
<path d="M164.3 357.5C165.073 357.5 165.7 356.873 165.7 356.1C165.7 355.327 165.073 354.7 164.3 354.7C163.527 354.7 162.9 355.327 162.9 356.1C162.9 356.873 163.527 357.5 164.3 357.5Z" fill="black"/>
<path d="M186.8 354C187.518 354 188.1 353.418 188.1 352.7C188.1 351.982 187.518 351.4 186.8 351.4C186.082 351.4 185.5 351.982 185.5 352.7C185.5 353.418 186.082 354 186.8 354Z" fill="black"/>
<path d="M81.9 358.3C83.115 358.3 84.1 357.315 84.1 356.1C84.1 354.885 83.115 353.9 81.9 353.9C80.685 353.9 79.7 354.885 79.7 356.1C79.7 357.315 80.685 358.3 81.9 358.3Z" fill="black"/>
<path d="M60.3 359.6C61.4598 359.6 62.4 358.66 62.4 357.5C62.4 356.34 61.4598 355.4 60.3 355.4C59.1402 355.4 58.2 356.34 58.2 357.5C58.2 358.66 59.1402 359.6 60.3 359.6Z" fill="black"/>
<path d="M125.4 355.4C125.952 355.4 126.4 354.952 126.4 354.4C126.4 353.848 125.952 353.4 125.4 353.4C124.848 353.4 124.4 353.848 124.4 354.4C124.4 354.952 124.848 355.4 125.4 355.4Z" fill="black"/>
<path d="M107.9 361.3C108.618 361.3 109.2 360.718 109.2 360C109.2 359.282 108.618 358.7 107.9 358.7C107.182 358.7 106.6 359.282 106.6 360C106.6 360.718 107.182 361.3 107.9 361.3Z" fill="black"/>
<path d="M144.4 360.7C145.449 360.7 146.3 359.849 146.3 358.8C146.3 357.751 145.449 356.9 144.4 356.9C143.351 356.9 142.5 357.751 142.5 358.8C142.5 359.849 143.351 360.7 144.4 360.7Z" fill="black"/>
<path d="M160.4 154C163.714 154 166.4 151.314 166.4 148C166.4 144.686 163.714 142 160.4 142C157.086 142 154.4 144.686 154.4 148C154.4 151.314 157.086 154 160.4 154Z" fill="#FF2727" stroke="black" stroke-width="1.3817" stroke-miterlimit="10" stroke-linecap="round" stroke-linejoin="round"/>
<path d="M162.4 183C163.615 183 164.6 182.015 164.6 180.8C164.6 179.585 163.615 178.6 162.4 178.6C161.185 178.6 160.2 179.585 160.2 180.8C160.2 182.015 161.185 183 162.4 183Z" fill="#FFDA22" stroke="black" stroke-width="1.3817" stroke-miterlimit="10" stroke-linecap="round" stroke-linejoin="round"/>
<path d="M166.4 163.6C168.333 163.6 169.9 162.033 169.9 160.1C169.9 158.167 168.333 156.6 166.4 156.6C164.467 156.6 162.9 158.167 162.9 160.1C162.9 162.033 164.467 163.6 166.4 163.6Z" fill="#FF2727" stroke="black" stroke-width="1.3817" stroke-miterlimit="10" stroke-linecap="round" stroke-linejoin="round"/>
<path d="M155.8 165.8C157.788 165.8 159.4 164.188 159.4 162.2C159.4 160.212 157.788 158.6 155.8 158.6C153.812 158.6 152.2 160.212 152.2 162.2C152.2 164.188 153.812 165.8 155.8 165.8Z" fill="#FF2727" stroke="black" stroke-width="1.3817" stroke-miterlimit="10" stroke-linecap="round" stroke-linejoin="round"/>
<path d="M164.6 172.4C165.815 172.4 166.8 171.415 166.8 170.2C166.8 168.985 165.815 168 164.6 168C163.385 168 162.4 168.985 162.4 170.2C162.4 171.415 163.385 172.4 164.6 172.4Z" fill="#FFDA22" stroke="black" stroke-width="1.3817" stroke-miterlimit="10" stroke-linecap="round" stroke-linejoin="round"/>
<path d="M158 176C159.325 176 160.4 174.926 160.4 173.6C160.4 172.275 159.325 171.2 158 171.2C156.675 171.2 155.6 172.275 155.6 173.6C155.6 174.926 156.675 176 158 176Z" fill="#FFDA22" stroke="black" stroke-width="1.3817" stroke-miterlimit="10" stroke-linecap="round" stroke-linejoin="round"/>
<path d="M162.9 188.3V209.6" stroke="black" stroke-width="1.3817" stroke-miterlimit="10" stroke-linecap="round" stroke-linejoin="round"/>
<path d="M155.8 179.4V190.4" stroke="black" stroke-width="1.3817" stroke-miterlimit="10" stroke-linecap="round" stroke-linejoin="round"/>
<path d="M168 173.6V188.3" stroke="black" stroke-width="1.3817" stroke-miterlimit="10" stroke-linecap="round" stroke-linejoin="round"/>
<path d="M209.4 154C212.714 154 215.4 151.314 215.4 148C215.4 144.686 212.714 142 209.4 142C206.086 142 203.4 144.686 203.4 148C203.4 151.314 206.086 154 209.4 154Z" fill="#FF2727" stroke="black" stroke-width="1.3817" stroke-miterlimit="10" stroke-linecap="round" stroke-linejoin="round"/>
<path d="M191.2 70.2H224C225.1 70.2 225.5 71.6 224.6 72.2L216.3 77.7C210.3 81.7 207.1 88.8 208.2 96L212.5 124.7L218.8 129.1V144.4C218.8 146.7 217 148.5 214.7 148.5H204.2C201.9 148.5 200.1 146.7 200.1 144.4V127.2H191.2V70.2Z" fill="#1ECEF7" stroke="black" stroke-width="1.3817" stroke-miterlimit="10" stroke-linecap="round" stroke-linejoin="round"/>
<path d="M179.2 70.2H146.4C145.3 70.2 144.9 71.6 145.8 72.2L154.1 77.7C160.1 81.7 163.3 88.8 162.2 96L157.9 124.7L151.6 129.1V144.4C151.6 146.7 153.4 148.5 155.7 148.5H166.2C168.5 148.5 170.3 146.7 170.3 144.4V127.2H179.2V70.2Z" fill="#1ECEF7" stroke="black" stroke-width="1.3817" stroke-miterlimit="10" stroke-linecap="round" stroke-linejoin="round"/>
<path d="M208.4 96.6C205.5 95.1 203 93 201.1 90.5C200.4 89.6 200.1 88.6 200.1 87.5V62.8C200.1 61.7 200.4 60.6 201 59.6C201.2 59.2 201.4 58.9 201.5 58.7L205.4 50.7C206.9 47.6 206.7 44 204.8 41L195.8 26.8C194 23.9 190.8 22.2 187.4 22.2H183C179.6 22.2 176.4 23.9 174.6 26.8L165.6 41C163.8 43.9 163.5 47.6 165 50.7L168.9 58.7C169 58.9 169.2 59.2 169.4 59.6C170 60.5 170.3 61.6 170.3 62.8V87.5C170.3 88.6 169.9 89.7 169.3 90.5C167.4 93 164.9 95.1 162 96.6L123 116.9H174V139.7C174 141.6 175.5 143.1 177.4 143.1H193C194.9 143.1 196.4 141.6 196.4 139.7V133.1V116.9H247.4L208.4 96.6Z" fill="#FF2727" stroke="black" stroke-width="1.3817" stroke-miterlimit="10" stroke-linecap="round" stroke-linejoin="round"/>
<path d="M174 116.9V133.1H133.3C131.3 133.1 129.4 132.6 127.6 131.7L114.1 124.4C112.9 123.8 112.9 122.1 114.1 121.5L122.9 117H174V116.9Z" fill="#FFDE1D" stroke="black" stroke-width="1.3817" stroke-miterlimit="10" stroke-linecap="round" stroke-linejoin="round"/>
<path d="M256.3 124.3L242.8 131.6C241.1 132.5 239.1 133 237.1 133H196.4V116.8H247.4L256.2 121.3C257.4 122 257.5 123.7 256.3 124.3Z" fill="#FFDE1D" stroke="black" stroke-width="1.3817" stroke-miterlimit="10" stroke-linecap="round" stroke-linejoin="round"/>
<path d="M170.9 48.9C169.4 48.9 168.1 47.6 168.2 46.1C168.2 45.1 168.5 44.1 169.1 43.3L178.1 29.1C179.2 27.4 181 26.4 183 26.4H187.4C189.4 26.4 191.2 27.4 192.3 29.1L201.3 43.3C201.9 44.2 202.2 45.1 202.2 46.1C202.3 47.6 201 48.9 199.5 48.9H170.9Z" fill="#1ECEF7" stroke="black" stroke-width="1.3817" stroke-miterlimit="10" stroke-linecap="round" stroke-linejoin="round"/>
<path d="M178.1 34.2L180.4 30.5C181 29.6 181.9 29.1 182.9 29.1H187.3" stroke="white" stroke-width="1.3817" stroke-miterlimit="10" stroke-linecap="round" stroke-linejoin="round" stroke-dasharray="2.42 2.42"/>
<path d="M172.1 43.8L178.1 34.2" stroke="white" stroke-width="1.3817" stroke-miterlimit="10" stroke-linecap="round" stroke-linejoin="round"/>
<path d="M151.7 141.7H170.4" stroke="black" stroke-width="1.3817" stroke-miterlimit="10" stroke-linecap="round" stroke-linejoin="round"/>
<path d="M161 133.1V141.4" stroke="black" stroke-width="1.3817" stroke-miterlimit="10" stroke-linecap="round" stroke-linejoin="round"/>
<path d="M218.7 141.7H200.1" stroke="black" stroke-width="1.3817" stroke-miterlimit="10" stroke-linecap="round" stroke-linejoin="round"/>
<path d="M209.4 133.1V141.4" stroke="black" stroke-width="1.3817" stroke-miterlimit="10" stroke-linecap="round" stroke-linejoin="round"/>
<path d="M257.1 122.9H205.3V133.1" stroke="black" stroke-width="1.3817" stroke-miterlimit="10" stroke-linecap="round" stroke-linejoin="round"/>
<path d="M211 128H240.3" stroke="black" stroke-width="1.3817" stroke-miterlimit="10" stroke-linecap="round" stroke-linejoin="round"/>
<path d="M113.3 122.9H165.2V133.1" stroke="black" stroke-width="1.3817" stroke-miterlimit="10" stroke-linecap="round" stroke-linejoin="round"/>
<path d="M159.4 128H130.2" stroke="black" stroke-width="1.3817" stroke-miterlimit="10" stroke-linecap="round" stroke-linejoin="round"/>
<path d="M188.7 60.4H181.7V111.9H188.7V60.4Z" fill="#1ECEF7" stroke="black" stroke-width="1.3817" stroke-miterlimit="10" stroke-linecap="round" stroke-linejoin="round"/>
<path d="M196.4 107.8L192 111.9V61L196.4 65.3V107.8Z" fill="#1ECEF7" stroke="black" stroke-width="1.3817" stroke-miterlimit="10" stroke-linecap="round" stroke-linejoin="round"/>
<path d="M174.1 107.8L178.5 111.9V61L174.1 65.3V107.8Z" fill="#1ECEF7" stroke="black" stroke-width="1.3817" stroke-miterlimit="10" stroke-linecap="round" stroke-linejoin="round"/>
<path d="M187.9 139.3H183.2C181.4 139.3 179.9 137.8 179.9 136V121.2C179.9 119.4 181.4 117.9 183.2 117.9H187.9C189.7 117.9 191.2 119.4 191.2 121.2V136C191.2 137.8 189.7 139.3 187.9 139.3Z" fill="#FFDE1D" stroke="black" stroke-width="1.3817" stroke-miterlimit="10" stroke-linecap="round" stroke-linejoin="round"/>
<path d="M211.4 183C212.615 183 213.6 182.015 213.6 180.8C213.6 179.585 212.615 178.6 211.4 178.6C210.185 178.6 209.2 179.585 209.2 180.8C209.2 182.015 210.185 183 211.4 183Z" fill="#FFDA22" stroke="black" stroke-width="1.3817" stroke-miterlimit="10" stroke-linecap="round" stroke-linejoin="round"/>
<path d="M215.4 163.6C217.333 163.6 218.9 162.033 218.9 160.1C218.9 158.167 217.333 156.6 215.4 156.6C213.467 156.6 211.9 158.167 211.9 160.1C211.9 162.033 213.467 163.6 215.4 163.6Z" fill="#FF2727" stroke="black" stroke-width="1.3817" stroke-miterlimit="10" stroke-linecap="round" stroke-linejoin="round"/>
<path d="M204.8 165.8C206.788 165.8 208.4 164.188 208.4 162.2C208.4 160.212 206.788 158.6 204.8 158.6C202.812 158.6 201.2 160.212 201.2 162.2C201.2 164.188 202.812 165.8 204.8 165.8Z" fill="#FF2727" stroke="black" stroke-width="1.3817" stroke-miterlimit="10" stroke-linecap="round" stroke-linejoin="round"/>
<path d="M213.5 172.4C214.715 172.4 215.7 171.415 215.7 170.2C215.7 168.985 214.715 168 213.5 168C212.285 168 211.3 168.985 211.3 170.2C211.3 171.415 212.285 172.4 213.5 172.4Z" fill="#FFDA22" stroke="black" stroke-width="1.3817" stroke-miterlimit="10" stroke-linecap="round" stroke-linejoin="round"/>
<path d="M207 176C208.325 176 209.4 174.926 209.4 173.6C209.4 172.275 208.325 171.2 207 171.2C205.675 171.2 204.6 172.275 204.6 173.6C204.6 174.926 205.675 176 207 176Z" fill="#FFDA22" stroke="black" stroke-width="1.3817" stroke-miterlimit="10" stroke-linecap="round" stroke-linejoin="round"/>
<path d="M211.8 188.3V209.6" stroke="black" stroke-width="1.3817" stroke-miterlimit="10" stroke-linecap="round" stroke-linejoin="round"/>
<path d="M204.8 179.4V190.4" stroke="black" stroke-width="1.3817" stroke-miterlimit="10" stroke-linecap="round" stroke-linejoin="round"/>
<path d="M217 173.6V188.3" stroke="black" stroke-width="1.3817" stroke-miterlimit="10" stroke-linecap="round" stroke-linejoin="round"/>
<path d="M263.4 55.2C272.402 55.2 279.7 47.9022 279.7 38.9C279.7 29.8978 272.402 22.6 263.4 22.6C254.398 22.6 247.1 29.8978 247.1 38.9C247.1 47.9022 254.398 55.2 263.4 55.2Z" fill="#1ECEF7" stroke="black" stroke-width="1.3817" stroke-miterlimit="10" stroke-linecap="round" stroke-linejoin="round"/>
<path d="M73.6 95.5C74.1523 95.5 74.6 95.0523 74.6 94.5C74.6 93.9477 74.1523 93.5 73.6 93.5C73.0477 93.5 72.6 93.9477 72.6 94.5C72.6 95.0523 73.0477 95.5 73.6 95.5Z" fill="#FFA131" stroke="black" stroke-width="1.3817" stroke-miterlimit="10" stroke-linecap="round" stroke-linejoin="round"/>
<path d="M36.8 50.9C38.6778 50.9 40.2 49.3777 40.2 47.5C40.2 45.6222 38.6778 44.1 36.8 44.1C34.9222 44.1 33.4 45.6222 33.4 47.5C33.4 49.3777 34.9222 50.9 36.8 50.9Z" fill="#FF2727" stroke="black" stroke-width="1.3817" stroke-miterlimit="10" stroke-linecap="round" stroke-linejoin="round"/>
<path d="M30.5 65C32.2121 65 33.6 63.6121 33.6 61.9C33.6 60.1879 32.2121 58.8 30.5 58.8C28.7879 58.8 27.4 60.1879 27.4 61.9C27.4 63.6121 28.7879 65 30.5 65Z" fill="#1ECEF7" stroke="black" stroke-width="1.3817" stroke-miterlimit="10" stroke-linecap="round" stroke-linejoin="round"/>
<path d="M28.5 38.2C29.6598 38.2 30.6 37.2598 30.6 36.1C30.6 34.9402 29.6598 34 28.5 34C27.3402 34 26.4 34.9402 26.4 36.1C26.4 37.2598 27.3402 38.2 28.5 38.2Z" fill="#FFA131" stroke="black" stroke-width="1.3817" stroke-miterlimit="10" stroke-linecap="round" stroke-linejoin="round"/>
<path d="M23.3 54.8C24.4598 54.8 25.4 53.8598 25.4 52.7C25.4 51.5402 24.4598 50.6 23.3 50.6C22.1402 50.6 21.2 51.5402 21.2 52.7C21.2 53.8598 22.1402 54.8 23.3 54.8Z" fill="#FF2727" stroke="black" stroke-width="1.3817" stroke-miterlimit="10" stroke-linecap="round" stroke-linejoin="round"/>
<path d="M48.7 80C49.6389 80 50.4 79.2389 50.4 78.3C50.4 77.3611 49.6389 76.6 48.7 76.6C47.7611 76.6 47 77.3611 47 78.3C47 79.2389 47.7611 80 48.7 80Z" fill="#FFA131" stroke="black" stroke-width="1.3817" stroke-miterlimit="10" stroke-linecap="round" stroke-linejoin="round"/>
<path d="M69.9 62.2C71.0598 62.2 72 61.2598 72 60.1C72 58.9402 71.0598 58 69.9 58C68.7402 58 67.8 58.9402 67.8 60.1C67.8 61.2598 68.7402 62.2 69.9 62.2Z" fill="#FFA131" stroke="black" stroke-width="1.3817" stroke-miterlimit="10" stroke-linecap="round" stroke-linejoin="round"/>
<path d="M14.8 70.5C16.4016 70.5 17.7 69.2016 17.7 67.6C17.7 65.9984 16.4016 64.7 14.8 64.7C13.1984 64.7 11.9 65.9984 11.9 67.6C11.9 69.2016 13.1984 70.5 14.8 70.5Z" fill="#FFA131" stroke="black" stroke-width="1.3817" stroke-miterlimit="10" stroke-linecap="round" stroke-linejoin="round"/>
<path d="M45 36.1C46.2703 36.1 47.3 35.0703 47.3 33.8C47.3 32.5297 46.2703 31.5 45 31.5C43.7297 31.5 42.7 32.5297 42.7 33.8C42.7 35.0703 43.7297 36.1 45 36.1Z" fill="#FFA131" stroke="black" stroke-width="1.3817" stroke-miterlimit="10" stroke-linecap="round" stroke-linejoin="round"/>
<path d="M23.7 21.2C24.6389 21.2 25.4 20.4389 25.4 19.5C25.4 18.5611 24.6389 17.8 23.7 17.8C22.7611 17.8 22 18.5611 22 19.5C22 20.4389 22.7611 21.2 23.7 21.2Z" fill="#FFA131" stroke="black" stroke-width="1.3817" stroke-miterlimit="10" stroke-linecap="round" stroke-linejoin="round"/>
<path d="M89.5 40.8C91.1016 40.8 92.4 39.5016 92.4 37.9C92.4 36.2984 91.1016 35 89.5 35C87.8984 35 86.6 36.2984 86.6 37.9C86.6 39.5016 87.8984 40.8 89.5 40.8Z" fill="#1ECEF7" stroke="black" stroke-width="1.3817" stroke-miterlimit="10" stroke-linecap="round" stroke-linejoin="round"/>
<path d="M81.3 95.7C82.3494 95.7 83.2 94.8494 83.2 93.8C83.2 92.7507 82.3494 91.9 81.3 91.9C80.2507 91.9 79.4 92.7507 79.4 93.8C79.4 94.8494 80.2507 95.7 81.3 95.7Z" fill="#FF2727" stroke="black" stroke-width="1.3817" stroke-miterlimit="10" stroke-linecap="round" stroke-linejoin="round"/>
<path d="M50.1 95.8L46.5 99.1C46.3 99.3 46 99.4 45.7 99.4C32 99.6 19.8 90.2 16.5 76.8C16.3 76.1 16.8 75.5 17.4 75.4L27 74C27.4 73.9 27.8 73.6 27.9 73.2L29.1 68.9C29.3 68.2 30.1 67.9 30.7 68.2L42.4 74.1C42.9 74.3 43.1 74.9 43 75.4L42.4 77.9L41.4 81.8C41.3 82.1 41.4 82.5 41.6 82.8L50.1 94.3C50.5 94.7 50.5 95.4 50.1 95.8Z" fill="#1ECEF7" stroke="black" stroke-width="1.3817" stroke-miterlimit="10" stroke-linecap="round" stroke-linejoin="round"/>
<path d="M21.8 41.5L15.9 49C15.7 49.2 15.6 49.5 15.7 49.8L15.9 53L16.2 58.8C16.2 59.2 16 59.7 15.6 59.9L6.8 64.4C6.3 64.7 5.6 64.5 5.3 63.9C5.20001 63.7 5.1 63.6 5 63.4C-1.5 50.8 1.90001 35.7 12.3 27C12.8 26.6 13.6 26.7 14 27.3L20.4 37.8L21.8 40.1C22.1 40.6 22.1 41.2 21.8 41.5Z" fill="#FFA131" stroke="black" stroke-width="1.3817" stroke-miterlimit="10" stroke-linecap="round" stroke-linejoin="round"/>
<path d="M81.3 44.8L79.1 46.1C78.9 46.2 78.6 46.3 78.3 46.2L71.9 44.7C71.3 44.6 70.6 45 70.5 45.6L70.2 47.1C70.1 47.6 69.8 47.9 69.3 48L67.4 48.4L63 49.3C62.7 49.4 62.4 49.3 62.2 49.2L52.8 43.5C52.5 43.3 52.3 43 52.2 42.6L51.4 30.6C51.4 30 51.8 29.5 52.4 29.4C53.7 29.2 55.1 29.1 56.5 29.1C67.2 29.1 76.5 34.7 81.8 43.2C82.1 43.8 81.9 44.5 81.3 44.8Z" fill="#FF2727" stroke="black" stroke-width="1.3817" stroke-miterlimit="10" stroke-linecap="round" stroke-linejoin="round"/>
<path d="M93.4 64.9C92 73.5 87.1 80.6 80.4 85.1C79.8 85.5 78.9 85.2 78.7 84.5L76.2 76.8C76.1 76.5 76.1 76.2 76.3 75.9L77.5 73.8L78.7 71.7C78.9 71.3 78.9 70.8 78.6 70.5L74.7 65.1C74.5 64.9 74.5 64.6 74.5 64.3L76.3 52.6C76.4 52.1 76.8 51.7 77.4 51.6L78.5 51.5C79 51.5 79.4 51.2 79.5 50.7L80 49.3C80.2 48.7 80.9 48.4 81.5 48.6L87.6 51C87.9 51.1 88.2 51.1 88.4 51L90.7 50.1C91.3 49.9 92 50.2 92.2 50.8C93.7 55.4 94.1 60.1 93.4 64.9Z" fill="#FFA131" stroke="black" stroke-width="1.3817" stroke-miterlimit="10" stroke-linecap="round" stroke-linejoin="round"/>
<path d="M76 94.8C76.2 95.3 76.1 95.9 75.7 96.2C70.7 100.1 64.4 102.4 57.6 102.4C56.5 102.4 56.1 101 57 100.3L58.7 99.1C59.2 98.8 59.3 98.1 59.1 97.6L52.3 85C52.1 84.7 52.1 84.3 52.2 84L53.4 81.1C53.6 80.6 54.1 80.3 54.7 80.4L71.8 83.6C72.5 83.7 72.9 84.5 72.7 85.1L72.3 86.1C72.2 86.4 72.2 86.7 72.3 87L76 94.8Z" fill="#FFA131" stroke="black" stroke-width="1.3817" stroke-miterlimit="10" stroke-linecap="round" stroke-linejoin="round"/>
<path d="M70.1 72.7C70.4 73 70.5 73.5 70.4 73.9L69.5 76.1L51.6 72.8C50.9 72.7 50.5 71.9 50.8 71.2L51.2 70.2C51.4 69.7 51.2 69.1 50.8 68.8L39.7 61.1C39.3 60.8 39.1 60.2 39.3 59.7L40.2 57.6C40.3 57.3 40.5 57.1 40.8 57L49.5 53C49.9 52.8 50.2 52.4 50.2 51.9V51.3C50 50.6 51 50 51.8 50.4L59.9 55.3C60.1 55.4 60.4 55.5 60.7 55.4L63.7 54.8C64.4 54.7 65.1 55.2 65.1 55.9V67.2C65.1 67.5 65.2 67.8 65.4 68L70.1 72.7Z" fill="#FFA131" stroke="black" stroke-width="1.3817" stroke-miterlimit="10" stroke-linecap="round" stroke-linejoin="round"/>
<path d="M23.3 88.8L32.7 76.6" stroke="black" stroke-width="1.3817" stroke-miterlimit="10" stroke-linecap="round" stroke-linejoin="round" stroke-dasharray="4.37 4.37"/>
<path d="M31.4 95.7L38.3 87.1" stroke="black" stroke-width="1.3817" stroke-miterlimit="10" stroke-linecap="round" stroke-linejoin="round" stroke-dasharray="4.37 4.37"/>
<path d="M1.8 52.7H11" stroke="black" stroke-width="1.3817" stroke-miterlimit="10" stroke-linecap="round" stroke-linejoin="round" stroke-dasharray="4.37 4.37"/>
<path d="M5.2 36.1L15.6 41.6" stroke="black" stroke-width="1.3817" stroke-miterlimit="10" stroke-linecap="round" stroke-linejoin="round" stroke-dasharray="4.37 4.37"/>
<path d="M61.2 29.5L57.8 40.9" stroke="black" stroke-width="1.3817" stroke-miterlimit="10" stroke-linecap="round" stroke-linejoin="round" stroke-dasharray="4.37 4.37"/>
<path d="M73.3 34.4L67.8 42.6" stroke="black" stroke-width="1.3817" stroke-miterlimit="10" stroke-linecap="round" stroke-linejoin="round" stroke-dasharray="4.37 4.37"/>
<path d="M67.4 100.8L61.2 87.1" stroke="black" stroke-width="1.3817" stroke-miterlimit="10" stroke-linecap="round" stroke-linejoin="round" stroke-dasharray="4.37 4.37"/>
<path d="M91.2 72.3L81.9 69.1" stroke="black" stroke-width="1.3817" stroke-miterlimit="10" stroke-linecap="round" stroke-linejoin="round" stroke-dasharray="4.37 4.37"/>
<path d="M93.7 60.1L81.9 59.3" stroke="black" stroke-width="1.3817" stroke-miterlimit="10" stroke-linecap="round" stroke-linejoin="round" stroke-dasharray="4.37 4.37"/>
<path d="M49.2 58.1L54.6 61.9" stroke="black" stroke-width="1.3817" stroke-miterlimit="10" stroke-linecap="round" stroke-linejoin="round" stroke-dasharray="4.37 4.37"/>
<path d="M63.1 71L56.6 63.8" stroke="black" stroke-width="1.3817" stroke-miterlimit="10" stroke-linecap="round" stroke-linejoin="round" stroke-dasharray="4.37 4.37"/>
<path d="M62.2 58.4L56.6 61.9" stroke="black" stroke-width="1.3817" stroke-miterlimit="10" stroke-linecap="round" stroke-linejoin="round" stroke-dasharray="4.37 4.37"/>
<path d="M49.9 65.7L53.9 63.5" stroke="black" stroke-width="1.3817" stroke-miterlimit="10" stroke-linecap="round" stroke-linejoin="round" stroke-dasharray="4.37 4.37"/>
<path d="M54.8 54.9L55.1 59.3" stroke="black" stroke-width="1.3817" stroke-miterlimit="10" stroke-linecap="round" stroke-linejoin="round" stroke-dasharray="4.37 4.37"/>
<path d="M54.8 69.9L55.1 65.2" stroke="black" stroke-width="1.3817" stroke-miterlimit="10" stroke-linecap="round" stroke-linejoin="round" stroke-dasharray="4.37 4.37"/>
<path d="M247.3 39C247.7 38.4 248.4 37.9 249.2 37.8C249.4 37.8 249.6 37.7 249.8 37.8C250.4 38 250.8 38.7 250.8 39.3C250.8 39.9 250.8 40.6 251 41.3C251.3 42.1 252.2 42.6 253 42.9C253.7 43.2 254.7 43.3 255.1 42.7C255.3 42.4 255.3 42.1 255.2 41.7C255.2 40.9 255.1 40 255.1 39.2C255.1 38.9 255.1 38.6 255.2 38.3C255.3 38 255.7 37.8 256 37.7C257.6 37.1 259.7 38.2 261 37C261.4 36.6 261.6 36.1 261.8 35.5C262.1 34.6 262.2 33.5 261.8 32.6C261.4 31.7 260.4 31 259.5 31.3C258.4 31.6 258 32.9 257 33.5C256.9 33.6 256.8 33.6 256.7 33.6C256.6 33.6 256.5 33.5 256.4 33.4C255.1 32 254.6 30 255.1 28.2C255.2 27.8 255.3 27.3 255 27.1C254.9 27 254.7 27 254.6 27C254.1 27 253.6 27 253 27" stroke="black" stroke-width="1.3817" stroke-miterlimit="10" stroke-linecap="round" stroke-linejoin="round"/>
<path d="M271.2 25.3C271.1 26.3 270.9 27.2 270.5 28.1C270.1 29 269.4 29.8 268.5 30.1C267.8 30.3 267 30.2 266.5 30.8C266 31.3 266.1 32.3 266.6 32.8C267.1 33.4 267.8 33.7 268.5 34C269.2 34.3 269.9 34.5 270.4 35.1C271.3 36 271.3 37.6 270.6 38.6C270.2 39.2 269.6 39.6 269.4 40.3C269.1 41.1 269.4 42.1 270.1 42.8C270.7 43.4 271.6 43.7 272.5 43.8C272.8 43.8 273 43.8 273.2 43.7C273.4 43.6 273.4 43.4 273.6 43.3C274.1 42.8 274.9 43.1 275.3 43.6C275.7 44.1 275.8 44.8 276 45.5C276.2 46.1 276.6 46.8 277.2 47" stroke="black" stroke-width="1.3817" stroke-miterlimit="10" stroke-linecap="round" stroke-linejoin="round"/>
<path d="M267.4 54.6C267.2 54.7 267.1 54.5 267.1 54.3C267 53.3 267.3 52.2 267.2 51.1C267 49.2 265.5 47.7 263.9 46.7C263.4 46.4 262.7 46.2 262.5 46.7C262.4 46.9 262.4 47.1 262.4 47.3C262.2 48.2 261.2 48.7 260.2 48.6C259.2 48.5 258.4 48.1 257.5 48C256.6 47.8 255.5 48.1 255.1 48.9C254.9 49.2 254.9 49.6 254.9 50C255 51 255.3 51.9 255.8 52.7" stroke="black" stroke-width="1.3817" stroke-miterlimit="10" stroke-linecap="round" stroke-linejoin="round"/>
<path d="M270.9 185.3C271 187.4 269.7 189.3 268.5 191C266.9 193.3 265.3 195.5 263.7 197.8C262.9 198.9 262.1 200 261 200.7C259.7 201.5 258.1 201.6 256.5 201.7C249.9 201.9 243 201.1 236.6 201.8C236.6 201.7 236.6 201.6 236.6 201.5C236.6 185.3 247.5 171.6 262.3 167.5C262.4 171.3 263.7 175 266.1 177.9C268.1 180.1 270.8 182.3 270.9 185.3Z" fill="#FFDE1D" stroke="black" stroke-width="1.3817" stroke-miterlimit="10" stroke-linecap="round" stroke-linejoin="round"/>
<path d="M307.4 201.4C307.4 220.9 291.6 236.8 272 236.8C262.9 236.8 254.6 233.3 248.3 227.7C252.6 224 256.1 219.4 258.5 214.3C259.3 212.6 259.9 210.9 261 209.4C264.3 204.7 270.5 203 276.3 202.5C279.1 202.2 282 202.1 284.7 201.2C287.6 200.2 290 198.2 292.6 196.4C296.6 193.6 301 191.5 305.6 189.9C306.7 193.5 307.4 197.4 307.4 201.4Z" fill="#FFDE1D" stroke="black" stroke-width="1.3817" stroke-miterlimit="10" stroke-linecap="round" stroke-linejoin="round"/>
<path d="M305.4 189.9C300.8 191.5 296.4 193.6 292.4 196.4C289.9 198.1 287.4 200.1 284.5 201.2C281.8 202.2 278.9 202.3 276.1 202.5C270.4 203 264.1 204.7 260.8 209.4C259.8 210.9 259.1 212.6 258.3 214.3C255.9 219.4 252.4 224 248.1 227.7C241 221.3 236.5 212.1 236.4 201.8C242.9 201.1 249.8 201.9 256.3 201.7C257.8 201.7 259.5 201.5 260.8 200.7C261.9 200 262.7 198.9 263.5 197.8C265.1 195.5 266.7 193.3 268.3 191C269.5 189.3 270.8 187.4 270.7 185.3C270.6 182.3 267.9 180.1 266 177.7C263.6 174.8 262.3 171.1 262.2 167.3C265.3 166.4 268.5 166 271.8 166C287.5 166 300.6 176 305.4 189.9Z" fill="#FF2727" stroke="black" stroke-width="1.3817" stroke-miterlimit="10" stroke-linecap="round" stroke-linejoin="round"/>
<path d="M251.7 181.1C249.7 182.6 249.1 185.3 249.1 187.8C249.2 190.1 249.7 192.6 251.4 194.3C252 194.9 252.6 195.3 253.3 195.7C256.7 197.4 261.2 196.3 263.5 193.3C265.8 190.3 265.4 185.8 263 182.9C262.1 181.8 259.2 180.3 254.9 182.2C252.5 183.3 251 186.2 251.5 188.8C252.1 191.4 254.6 193.4 257.3 193.4C258.2 193.4 259 193.1 259.7 192.6C260.5 192 261 191 261.3 190C261.6 189.1 261.7 188 261.4 187.1C260.8 185.1 258.2 183.9 256.2 184.9C255.1 185.5 254.3 186.6 254.3 187.9C254.3 189.1 255.3 190.4 256.5 190.6C257.4 190.7 258.4 190.3 258.7 189.5C259 188.7 258.3 187.6 257.4 187.7" stroke="black" stroke-width="1.3817" stroke-miterlimit="10" stroke-linecap="round" stroke-linejoin="round"/>
<path d="M279.7 205.8C275.9 205 271.4 205.3 268.7 208.2C267.8 209.2 267.1 210.3 266.5 211.5C265.8 212.9 265.1 214.3 264.8 215.9C264.1 219.7 266 223.7 268.9 226.3C269.8 227.1 270.8 227.9 272 228.4C274.4 229.6 277.2 229.8 279.8 229C282.4 228.3 284.6 226.5 286.1 224.3C286.8 223.2 287.2 222.1 287.7 220.9C288.1 219.7 288.5 218.4 288.5 217.1C288.6 213.3 285.9 209.8 282.4 208.4C278.9 207.1 274.7 207.9 271.6 210C270.4 210.8 269.3 211.9 268.6 213.3C268.2 214.1 268 215 267.9 215.9C267.5 219.7 269.2 223.7 272.5 225.7C274.7 227 277.4 227.2 279.8 226.4C282.2 225.6 284.2 223.7 285.1 221.4C285.6 220.3 285.8 219.1 285.9 217.9C286 216.9 285.9 215.8 285.6 214.8C284.6 211.9 281.1 210.4 278 210.3C277 210.3 276 210.3 275.1 210.7C272.2 211.8 270.9 215.5 271.6 218.6C271.9 219.9 272.6 221.2 273.7 222.1C275.3 223.5 277.8 223.7 279.7 222.7C281.6 221.6 282.6 219.4 282.3 217.3C282.2 216.7 282 216.2 281.7 215.8C280.8 214.6 279.1 214.5 277.6 214.5C276.7 214.5 275.7 214.5 275 215.1C274.1 215.8 274.1 217.3 274.7 218.2C275.2 219 276 219.7 277 219.7C277.9 219.7 278.9 219 279.1 218.1C279.2 217.2 278.3 216.2 277.4 216.4" stroke="black" stroke-width="1.3817" stroke-miterlimit="10" stroke-linecap="round" stroke-linejoin="round"/>
<path d="M287.7 192.4C290.1 191.7 291.1 190 291.5 188C291.9 186.1 291.1 184.1 289.8 182.6C289.3 182 288.6 181.5 287.9 181.1C286.5 180.5 284.8 180.6 283.3 181C282.4 181.3 281.3 182.1 281 182.7C279.6 185 280.1 188.4 282.3 190C283.6 190.9 285.4 191.2 286.8 190.5C288.2 189.8 289.2 188.2 288.9 186.6C288.6 185 287 183.8 285.5 184C284.8 184.1 284.1 184.5 283.7 185.1C283.3 185.7 283.3 186.6 283.7 187.2C284.1 187.8 285 188.1 285.7 187.7C286.4 187.4 286.6 186.4 286.2 185.8" stroke="black" stroke-width="1.3817" stroke-miterlimit="10" stroke-linecap="round" stroke-linejoin="round"/>
<path d="M247.4 213C249.443 213 251.1 211.343 251.1 209.3C251.1 207.257 249.443 205.6 247.4 205.6C245.357 205.6 243.7 207.257 243.7 209.3C243.7 211.343 245.357 213 247.4 213Z" fill="#FFDE1D" stroke="black" stroke-width="1.3817" stroke-miterlimit="10" stroke-linecap="round" stroke-linejoin="round"/>
<path d="M296.8 208C298.954 208 300.7 206.254 300.7 204.1C300.7 201.946 298.954 200.2 296.8 200.2C294.646 200.2 292.9 201.946 292.9 204.1C292.9 206.254 294.646 208 296.8 208Z" fill="#FF2727" stroke="black" stroke-width="1.3817" stroke-miterlimit="10" stroke-linecap="round" stroke-linejoin="round"/>
<path d="M272 176.4C273.436 176.4 274.6 175.236 274.6 173.8C274.6 172.364 273.436 171.2 272 171.2C270.564 171.2 269.4 172.364 269.4 173.8C269.4 175.236 270.564 176.4 272 176.4Z" fill="#FFDE1D" stroke="black" stroke-width="1.3817" stroke-miterlimit="10" stroke-linecap="round" stroke-linejoin="round"/>
<path d="M273.2 200.1C275.023 200.1 276.5 198.623 276.5 196.8C276.5 194.977 275.023 193.5 273.2 193.5C271.377 193.5 269.9 194.977 269.9 196.8C269.9 198.623 271.377 200.1 273.2 200.1Z" fill="#FFDE1D" stroke="black" stroke-width="1.3817" stroke-miterlimit="10" stroke-linecap="round" stroke-linejoin="round"/>
</svg>
