<svg width="338" height="542" viewBox="0 0 338 542" fill="none" xmlns="http://www.w3.org/2000/svg">
<path d="M98.2 522.5H226.9" stroke="black" stroke-width="1.3817" stroke-miterlimit="10" stroke-linecap="round" stroke-linejoin="round" stroke-dasharray="11.05 11.05"/>
<path d="M119.9 531.5H205.3" stroke="black" stroke-width="1.3817" stroke-miterlimit="10" stroke-linecap="round" stroke-linejoin="round" stroke-dasharray="11.05 11.05"/>
<path d="M295.9 453.3C288.7 469.8 278.6 484.7 266.2 497.3H59C46.6 484.7 36.4 469.8 29.1 453.3H295.9Z" fill="#FFAA00" stroke="black" stroke-width="1.3817" stroke-miterlimit="10" stroke-linecap="round" stroke-linejoin="round"/>
<path d="M42.6 461.7H282.4" stroke="black" stroke-width="1.3817" stroke-miterlimit="10" stroke-linecap="round" stroke-linejoin="round"/>
<path d="M51.7 475H273.3" stroke="black" stroke-width="1.3817" stroke-miterlimit="10" stroke-linecap="round" stroke-linejoin="round"/>
<path d="M60.9 488.2H264.1" stroke="black" stroke-width="1.3817" stroke-miterlimit="10" stroke-linecap="round" stroke-linejoin="round"/>
<path d="M73 456.4V461.7" stroke="black" stroke-width="1.3817" stroke-miterlimit="10" stroke-linecap="round" stroke-linejoin="round"/>
<path d="M56.3 463.8V473.2" stroke="black" stroke-width="1.3817" stroke-miterlimit="10" stroke-linecap="round" stroke-linejoin="round"/>
<path d="M105.1 456.4V461.7" stroke="black" stroke-width="1.3817" stroke-miterlimit="10" stroke-linecap="round" stroke-linejoin="round"/>
<path d="M88.4 463.8V473.2" stroke="black" stroke-width="1.3817" stroke-miterlimit="10" stroke-linecap="round" stroke-linejoin="round"/>
<path d="M137.2 456.4V461.7" stroke="black" stroke-width="1.3817" stroke-miterlimit="10" stroke-linecap="round" stroke-linejoin="round"/>
<path d="M120.6 463.8V473.2" stroke="black" stroke-width="1.3817" stroke-miterlimit="10" stroke-linecap="round" stroke-linejoin="round"/>
<path d="M169.3 456.4V461.7" stroke="black" stroke-width="1.3817" stroke-miterlimit="10" stroke-linecap="round" stroke-linejoin="round"/>
<path d="M152.7 463.8V473.2" stroke="black" stroke-width="1.3817" stroke-miterlimit="10" stroke-linecap="round" stroke-linejoin="round"/>
<path d="M201.5 456.4V461.7" stroke="black" stroke-width="1.3817" stroke-miterlimit="10" stroke-linecap="round" stroke-linejoin="round"/>
<path d="M184.8 463.8V473.2" stroke="black" stroke-width="1.3817" stroke-miterlimit="10" stroke-linecap="round" stroke-linejoin="round"/>
<path d="M233.6 456.4V461.7" stroke="black" stroke-width="1.3817" stroke-miterlimit="10" stroke-linecap="round" stroke-linejoin="round"/>
<path d="M216.9 463.8V473.2" stroke="black" stroke-width="1.3817" stroke-miterlimit="10" stroke-linecap="round" stroke-linejoin="round"/>
<path d="M265.7 456.4V461.7" stroke="black" stroke-width="1.3817" stroke-miterlimit="10" stroke-linecap="round" stroke-linejoin="round"/>
<path d="M73 476.8V486.4" stroke="black" stroke-width="1.3817" stroke-miterlimit="10" stroke-linecap="round" stroke-linejoin="round"/>
<path d="M105.1 476.8V486.4" stroke="black" stroke-width="1.3817" stroke-miterlimit="10" stroke-linecap="round" stroke-linejoin="round"/>
<path d="M137.2 476.8V486.4" stroke="black" stroke-width="1.3817" stroke-miterlimit="10" stroke-linecap="round" stroke-linejoin="round"/>
<path d="M169.3 476.8V486.4" stroke="black" stroke-width="1.3817" stroke-miterlimit="10" stroke-linecap="round" stroke-linejoin="round"/>
<path d="M201.5 476.8V486.4" stroke="black" stroke-width="1.3817" stroke-miterlimit="10" stroke-linecap="round" stroke-linejoin="round"/>
<path d="M233.6 476.8V486.4" stroke="black" stroke-width="1.3817" stroke-miterlimit="10" stroke-linecap="round" stroke-linejoin="round"/>
<path d="M265.7 476.8V486.4" stroke="black" stroke-width="1.3817" stroke-miterlimit="10" stroke-linecap="round" stroke-linejoin="round"/>
<path d="M249.1 463.8V473.2" stroke="black" stroke-width="1.3817" stroke-miterlimit="10" stroke-linecap="round" stroke-linejoin="round"/>
<path d="M88.4 489.7V495.6" stroke="black" stroke-width="1.3817" stroke-miterlimit="10" stroke-linecap="round" stroke-linejoin="round"/>
<path d="M120.6 489.7V495.6" stroke="black" stroke-width="1.3817" stroke-miterlimit="10" stroke-linecap="round" stroke-linejoin="round"/>
<path d="M152.7 489.7V495.6" stroke="black" stroke-width="1.3817" stroke-miterlimit="10" stroke-linecap="round" stroke-linejoin="round"/>
<path d="M184.8 489.7V495.6" stroke="black" stroke-width="1.3817" stroke-miterlimit="10" stroke-linecap="round" stroke-linejoin="round"/>
<path d="M216.9 489.7V495.6" stroke="black" stroke-width="1.3817" stroke-miterlimit="10" stroke-linecap="round" stroke-linejoin="round"/>
<path d="M249.1 489.7V495.6" stroke="black" stroke-width="1.3817" stroke-miterlimit="10" stroke-linecap="round" stroke-linejoin="round"/>
<path d="M59 497.3H266.1C265.8 497.6 265.5 497.9 265.2 498.2C241.2 522.2 208.8 537.9 172.9 540.5C128.6 543.6 87.8 526.5 59 497.3Z" fill="#FF4166" stroke="black" stroke-width="1.3817" stroke-miterlimit="10" stroke-linecap="round" stroke-linejoin="round"/>
<path d="M77.9 504.6H247.3" stroke="black" stroke-width="1.3817" stroke-miterlimit="10" stroke-linecap="round" stroke-linejoin="round" stroke-dasharray="11.05 11.05"/>
<path d="M85.3 513.5H239.8" stroke="black" stroke-width="1.3817" stroke-miterlimit="10" stroke-linecap="round" stroke-linejoin="round" stroke-dasharray="11.05 11.05"/>
<path d="M307.9 394.7V395.2C307.9 403.3 307.2 411.3 306 419H18.9C17.5 411.1 16.8 403 16.8 394.7H307.9Z" fill="#FFAA00" stroke="black" stroke-width="1.3817" stroke-miterlimit="10" stroke-linecap="round" stroke-linejoin="round"/>
<path d="M25.2 400.3C25.9732 400.3 26.6 399.673 26.6 398.9C26.6 398.127 25.9732 397.5 25.2 397.5C24.4268 397.5 23.8 398.127 23.8 398.9C23.8 399.673 24.4268 400.3 25.2 400.3Z" fill="black"/>
<path d="M30.5 415.4C31.2732 415.4 31.9 414.773 31.9 414C31.9 413.227 31.2732 412.6 30.5 412.6C29.7268 412.6 29.1 413.227 29.1 414C29.1 414.773 29.7268 415.4 30.5 415.4Z" fill="black"/>
<path d="M37.6 407.3C38.3732 407.3 39 406.673 39 405.9C39 405.127 38.3732 404.5 37.6 404.5C36.8268 404.5 36.2 405.127 36.2 405.9C36.2 406.673 36.8268 407.3 37.6 407.3Z" fill="black"/>
<path d="M44 400.3C44.7732 400.3 45.4 399.673 45.4 398.9C45.4 398.127 44.7732 397.5 44 397.5C43.2268 397.5 42.6 398.127 42.6 398.9C42.6 399.673 43.2268 400.3 44 400.3Z" fill="black"/>
<path d="M49.3 415.4C50.0732 415.4 50.7 414.773 50.7 414C50.7 413.227 50.0732 412.6 49.3 412.6C48.5268 412.6 47.9 413.227 47.9 414C47.9 414.773 48.5268 415.4 49.3 415.4Z" fill="black"/>
<path d="M56.4 407.3C57.1732 407.3 57.8 406.673 57.8 405.9C57.8 405.127 57.1732 404.5 56.4 404.5C55.6268 404.5 55 405.127 55 405.9C55 406.673 55.6268 407.3 56.4 407.3Z" fill="black"/>
<path d="M62.9 400.3C63.6732 400.3 64.3 399.673 64.3 398.9C64.3 398.127 63.6732 397.5 62.9 397.5C62.1268 397.5 61.5 398.127 61.5 398.9C61.5 399.673 62.1268 400.3 62.9 400.3Z" fill="black"/>
<path d="M68.1 415.4C68.8732 415.4 69.5 414.773 69.5 414C69.5 413.227 68.8732 412.6 68.1 412.6C67.3268 412.6 66.7 413.227 66.7 414C66.7 414.773 67.3268 415.4 68.1 415.4Z" fill="black"/>
<path d="M75.2 407.3C75.9732 407.3 76.6 406.673 76.6 405.9C76.6 405.127 75.9732 404.5 75.2 404.5C74.4268 404.5 73.8 405.127 73.8 405.9C73.8 406.673 74.4268 407.3 75.2 407.3Z" fill="black"/>
<path d="M81.7 400.3C82.4732 400.3 83.1 399.673 83.1 398.9C83.1 398.127 82.4732 397.5 81.7 397.5C80.9268 397.5 80.3 398.127 80.3 398.9C80.3 399.673 80.9268 400.3 81.7 400.3Z" fill="black"/>
<path d="M87 415.4C87.7732 415.4 88.4 414.773 88.4 414C88.4 413.227 87.7732 412.6 87 412.6C86.2268 412.6 85.6 413.227 85.6 414C85.6 414.773 86.2268 415.4 87 415.4Z" fill="black"/>
<path d="M94 407.3C94.7732 407.3 95.4 406.673 95.4 405.9C95.4 405.127 94.7732 404.5 94 404.5C93.2268 404.5 92.6 405.127 92.6 405.9C92.6 406.673 93.2268 407.3 94 407.3Z" fill="black"/>
<path d="M100.5 400.3C101.273 400.3 101.9 399.673 101.9 398.9C101.9 398.127 101.273 397.5 100.5 397.5C99.7268 397.5 99.1 398.127 99.1 398.9C99.1 399.673 99.7268 400.3 100.5 400.3Z" fill="black"/>
<path d="M105.8 415.4C106.573 415.4 107.2 414.773 107.2 414C107.2 413.227 106.573 412.6 105.8 412.6C105.027 412.6 104.4 413.227 104.4 414C104.4 414.773 105.027 415.4 105.8 415.4Z" fill="black"/>
<path d="M112.9 407.3C113.673 407.3 114.3 406.673 114.3 405.9C114.3 405.127 113.673 404.5 112.9 404.5C112.127 404.5 111.5 405.127 111.5 405.9C111.5 406.673 112.127 407.3 112.9 407.3Z" fill="black"/>
<path d="M119.3 400.3C120.073 400.3 120.7 399.673 120.7 398.9C120.7 398.127 120.073 397.5 119.3 397.5C118.527 397.5 117.9 398.127 117.9 398.9C117.9 399.673 118.527 400.3 119.3 400.3Z" fill="black"/>
<path d="M124.6 415.4C125.373 415.4 126 414.773 126 414C126 413.227 125.373 412.6 124.6 412.6C123.827 412.6 123.2 413.227 123.2 414C123.2 414.773 123.827 415.4 124.6 415.4Z" fill="black"/>
<path d="M131.7 407.3C132.473 407.3 133.1 406.673 133.1 405.9C133.1 405.127 132.473 404.5 131.7 404.5C130.927 404.5 130.3 405.127 130.3 405.9C130.3 406.673 130.927 407.3 131.7 407.3Z" fill="black"/>
<path d="M138.2 400.3C138.973 400.3 139.6 399.673 139.6 398.9C139.6 398.127 138.973 397.5 138.2 397.5C137.427 397.5 136.8 398.127 136.8 398.9C136.8 399.673 137.427 400.3 138.2 400.3Z" fill="black"/>
<path d="M143.4 415.4C144.173 415.4 144.8 414.773 144.8 414C144.8 413.227 144.173 412.6 143.4 412.6C142.627 412.6 142 413.227 142 414C142 414.773 142.627 415.4 143.4 415.4Z" fill="black"/>
<path d="M150.5 407.3C151.273 407.3 151.9 406.673 151.9 405.9C151.9 405.127 151.273 404.5 150.5 404.5C149.727 404.5 149.1 405.127 149.1 405.9C149.1 406.673 149.727 407.3 150.5 407.3Z" fill="black"/>
<path d="M157 400.3C157.773 400.3 158.4 399.673 158.4 398.9C158.4 398.127 157.773 397.5 157 397.5C156.227 397.5 155.6 398.127 155.6 398.9C155.6 399.673 156.227 400.3 157 400.3Z" fill="black"/>
<path d="M162.3 415.4C163.073 415.4 163.7 414.773 163.7 414C163.7 413.227 163.073 412.6 162.3 412.6C161.527 412.6 160.9 413.227 160.9 414C160.9 414.773 161.527 415.4 162.3 415.4Z" fill="black"/>
<path d="M169.3 407.3C170.073 407.3 170.7 406.673 170.7 405.9C170.7 405.127 170.073 404.5 169.3 404.5C168.527 404.5 167.9 405.127 167.9 405.9C167.9 406.673 168.527 407.3 169.3 407.3Z" fill="black"/>
<path d="M175.8 400.3C176.573 400.3 177.2 399.673 177.2 398.9C177.2 398.127 176.573 397.5 175.8 397.5C175.027 397.5 174.4 398.127 174.4 398.9C174.4 399.673 175.027 400.3 175.8 400.3Z" fill="black"/>
<path d="M181.1 415.4C181.873 415.4 182.5 414.773 182.5 414C182.5 413.227 181.873 412.6 181.1 412.6C180.327 412.6 179.7 413.227 179.7 414C179.7 414.773 180.327 415.4 181.1 415.4Z" fill="black"/>
<path d="M188.2 407.3C188.973 407.3 189.6 406.673 189.6 405.9C189.6 405.127 188.973 404.5 188.2 404.5C187.427 404.5 186.8 405.127 186.8 405.9C186.8 406.673 187.427 407.3 188.2 407.3Z" fill="black"/>
<path d="M194.6 400.3C195.373 400.3 196 399.673 196 398.9C196 398.127 195.373 397.5 194.6 397.5C193.827 397.5 193.2 398.127 193.2 398.9C193.2 399.673 193.827 400.3 194.6 400.3Z" fill="black"/>
<path d="M199.9 415.4C200.673 415.4 201.3 414.773 201.3 414C201.3 413.227 200.673 412.6 199.9 412.6C199.127 412.6 198.5 413.227 198.5 414C198.5 414.773 199.127 415.4 199.9 415.4Z" fill="black"/>
<path d="M207 407.3C207.773 407.3 208.4 406.673 208.4 405.9C208.4 405.127 207.773 404.5 207 404.5C206.227 404.5 205.6 405.127 205.6 405.9C205.6 406.673 206.227 407.3 207 407.3Z" fill="black"/>
<path d="M213.5 400.3C214.273 400.3 214.9 399.673 214.9 398.9C214.9 398.127 214.273 397.5 213.5 397.5C212.727 397.5 212.1 398.127 212.1 398.9C212.1 399.673 212.727 400.3 213.5 400.3Z" fill="black"/>
<path d="M218.7 415.4C219.473 415.4 220.1 414.773 220.1 414C220.1 413.227 219.473 412.6 218.7 412.6C217.927 412.6 217.3 413.227 217.3 414C217.3 414.773 217.927 415.4 218.7 415.4Z" fill="black"/>
<path d="M225.8 407.3C226.573 407.3 227.2 406.673 227.2 405.9C227.2 405.127 226.573 404.5 225.8 404.5C225.027 404.5 224.4 405.127 224.4 405.9C224.4 406.673 225.027 407.3 225.8 407.3Z" fill="black"/>
<path d="M232.3 400.3C233.073 400.3 233.7 399.673 233.7 398.9C233.7 398.127 233.073 397.5 232.3 397.5C231.527 397.5 230.9 398.127 230.9 398.9C230.9 399.673 231.527 400.3 232.3 400.3Z" fill="black"/>
<path d="M237.6 415.4C238.373 415.4 239 414.773 239 414C239 413.227 238.373 412.6 237.6 412.6C236.827 412.6 236.2 413.227 236.2 414C236.2 414.773 236.827 415.4 237.6 415.4Z" fill="black"/>
<path d="M244.6 407.3C245.373 407.3 246 406.673 246 405.9C246 405.127 245.373 404.5 244.6 404.5C243.827 404.5 243.2 405.127 243.2 405.9C243.2 406.673 243.827 407.3 244.6 407.3Z" fill="black"/>
<path d="M251.1 400.3C251.873 400.3 252.5 399.673 252.5 398.9C252.5 398.127 251.873 397.5 251.1 397.5C250.327 397.5 249.7 398.127 249.7 398.9C249.7 399.673 250.327 400.3 251.1 400.3Z" fill="black"/>
<path d="M256.4 415.4C257.173 415.4 257.8 414.773 257.8 414C257.8 413.227 257.173 412.6 256.4 412.6C255.627 412.6 255 413.227 255 414C255 414.773 255.627 415.4 256.4 415.4Z" fill="black"/>
<path d="M263.5 407.3C264.273 407.3 264.9 406.673 264.9 405.9C264.9 405.127 264.273 404.5 263.5 404.5C262.727 404.5 262.1 405.127 262.1 405.9C262.1 406.673 262.727 407.3 263.5 407.3Z" fill="black"/>
<path d="M269.9 400.3C270.673 400.3 271.3 399.673 271.3 398.9C271.3 398.127 270.673 397.5 269.9 397.5C269.127 397.5 268.5 398.127 268.5 398.9C268.5 399.673 269.127 400.3 269.9 400.3Z" fill="black"/>
<path d="M275.2 415.4C275.973 415.4 276.6 414.773 276.6 414C276.6 413.227 275.973 412.6 275.2 412.6C274.427 412.6 273.8 413.227 273.8 414C273.8 414.773 274.427 415.4 275.2 415.4Z" fill="black"/>
<path d="M282.3 407.3C283.073 407.3 283.7 406.673 283.7 405.9C283.7 405.127 283.073 404.5 282.3 404.5C281.527 404.5 280.9 405.127 280.9 405.9C280.9 406.673 281.527 407.3 282.3 407.3Z" fill="black"/>
<path d="M288.8 400.3C289.573 400.3 290.2 399.673 290.2 398.9C290.2 398.127 289.573 397.5 288.8 397.5C288.027 397.5 287.4 398.127 287.4 398.9C287.4 399.673 288.027 400.3 288.8 400.3Z" fill="black"/>
<path d="M294 415.4C294.773 415.4 295.4 414.773 295.4 414C295.4 413.227 294.773 412.6 294 412.6C293.227 412.6 292.6 413.227 292.6 414C292.6 414.773 293.227 415.4 294 415.4Z" fill="black"/>
<path d="M301.1 407.3C301.873 407.3 302.5 406.673 302.5 405.9C302.5 405.127 301.873 404.5 301.1 404.5C300.327 404.5 299.7 405.127 299.7 405.9C299.7 406.673 300.327 407.3 301.1 407.3Z" fill="black"/>
<path d="M18.9 419.1H306C304 431.1 300.6 442.5 295.9 453.3H29.1C24.4 442.5 20.9 431 18.9 419.1Z" fill="#545454" stroke="black" stroke-width="1.3817" stroke-miterlimit="10" stroke-linecap="round" stroke-linejoin="round"/>
<path d="M25.9 424.1H298.9" stroke="black" stroke-width="1.3817" stroke-miterlimit="10" stroke-linecap="round" stroke-linejoin="round"/>
<path d="M28.9 431H295.9" stroke="black" stroke-width="1.3817" stroke-miterlimit="10" stroke-linecap="round" stroke-linejoin="round"/>
<path d="M32.2 437.9H292.6" stroke="black" stroke-width="1.3817" stroke-miterlimit="10" stroke-linecap="round" stroke-linejoin="round"/>
<path d="M36.1 444.9H288.7" stroke="black" stroke-width="1.3817" stroke-miterlimit="10" stroke-linecap="round" stroke-linejoin="round"/>
<path d="M307.9 370.4H16.7V378.7H307.9V370.4Z" fill="white" stroke="black" stroke-width="1.3817" stroke-miterlimit="10" stroke-linecap="round" stroke-linejoin="round"/>
<path d="M307.9 363.5H16.7C16.7 360.3 17 357.3 17.6 354.3H307C307.5 357.2 307.9 360.3 307.9 363.5Z" fill="#545454" stroke="black" stroke-width="1.3817" stroke-miterlimit="10" stroke-linecap="round" stroke-linejoin="round"/>
<path d="M307.9 363.7V370.4H16.7V363.7C16.7 363.6 16.7 363.5 16.7 363.5H307.8C307.9 363.5 307.9 363.6 307.9 363.7Z" fill="white" stroke="black" stroke-width="1.3817" stroke-miterlimit="10" stroke-linecap="round" stroke-linejoin="round"/>
<path d="M16.7 378.7H307.9V394.8H16.7C16.7 394.6 16.7 394.4 16.7 394.2V378.7Z" fill="#545454" stroke="black" stroke-width="1.3817" stroke-miterlimit="10" stroke-linecap="round" stroke-linejoin="round"/>
<path d="M230.2 432.9H195C190.9 432.9 187.6 429.6 187.6 425.5V411.9C187.6 409.4 189.2 407.3 191.5 406.5C198.5 404 203.5 397.2 203.2 389.3C202.9 380.2 195.4 372.7 186.3 372.4C176.2 372 168 380 168 390C168 397.7 172.9 404.2 179.8 406.6C182.1 407.4 183.6 409.6 183.6 412.1V425.7C183.6 429.8 180.3 433.1 176.2 433.1H175.1C170.4 433.1 166.4 435.6 164.2 439.4C162.8 441.9 160.1 443.5 157.2 443.5H108.6C103.6 443.5 99.6 439.5 99.6 434.5V433C99.8 430.8 101.2 426.7 108 424.4C122.9 421 134.1 407.7 134.1 391.7C134.1 382.9 130.7 374.9 125.2 369C122.6 366.2 121.2 362.6 121.2 358.8V339.2C121.2 338.1 120.4 337.2 119.4 337.1C118.1 336.9 117.1 337.9 117.1 339.2V357.4C117.1 359.7 114.8 361.3 112.6 360.5C110.6 359.7 108.6 359.2 106.4 358.8C103.6 358.3 101.6 355.9 101.6 353.1V339.9C101.6 338.8 100.8 337.9 99.8 337.8C98.5 337.6 97.5 338.6 97.5 339.9V353.6C97.5 356.3 95.7 358.7 93.1 359.3C91.1 359.8 89.2 360.4 87.4 361.2C85.2 362.1 82.8 360.5 82.8 358.1V340C82.8 338.9 82 338 81 337.9C79.7 337.7 78.7 338.7 78.7 340V362.7C78.7 365.1 77.8 367.4 76.2 369.2C72.4 373.2 69.7 378.2 68.3 383.7C67.6 386.3 65.2 388.2 62.5 388.2H59.2C55.8 388.2 53 385.4 53 382V378.3C53 375.8 54.2 373.5 56.1 371.8C57.9 370.3 59.1 368 59.1 365.5C59.1 362.8 57.8 360.5 55.9 359C54.1 357.6 53 355.4 53 353.1C53 347.9 53 340 53 340C53 338.9 52.2 338 51.2 337.9C49.9 337.7 48.9 338.7 48.9 340C48.9 340 48.9 348 48.9 353.2C48.9 355.5 47.9 357.7 46 359.1C44 360.6 42.8 363 42.8 365.6C42.8 368.1 43.9 370.4 45.8 371.9C47.7 373.5 48.9 375.8 48.9 378.4V382.1C48.9 387.8 53.5 392.4 59.2 392.4H61.8C64.7 392.4 67.2 394.5 67.7 397.4C67.8 397.8 67.8 398.3 67.9 398.7C68.5 401.9 66.1 404.8 62.8 404.8H53C49.7 404.8 46.6 403.5 44.4 401.1C42.4 399 39.5 397.7 36.4 397.9C31.4 398.2 27.4 402.3 27.1 407.2C26.7 413 31.3 417.9 37.1 417.9C40.4 417.9 43.4 416.3 45.2 413.8C47.4 410.7 51 409 54.7 409H69C70.7 409 72.3 409.9 73.3 411.3C76.9 416.4 81.8 420.5 87.7 423C92.5 425 95.7 429.7 95.7 434.9C95.7 442.2 101.6 448.1 108.9 448.1H109.5C111.3 448.1 112.7 449.5 112.7 451.3V451.6C112.7 457.1 110.2 462.1 106.1 465.7C103.2 468.3 101.4 472.1 101.6 476.4C102 482.9 107.2 488.2 113.7 488.7C121.4 489.2 127.8 483.2 127.8 475.6C127.8 471.6 126 468 123.2 465.6C119 462 116.7 456.7 116.7 451.2C116.7 449.4 118.1 448 119.9 448H157C159.9 448 162.5 449.6 164 452.1C166.2 455.9 170.2 458.4 174.9 458.4H229.9C236.9 458.4 242.8 452.6 242.7 445.6C242.6 438.4 237 432.9 230.2 432.9Z" fill="#FF4166" stroke="black" stroke-width="1.3817" stroke-miterlimit="10" stroke-linecap="round" stroke-linejoin="round"/>
<path d="M117.9 410.3C113.3 414.5 107.2 417.1 100.5 417.1C89 417.1 79.2 409.5 76 399.1" stroke="white" stroke-width="1.3817" stroke-miterlimit="10" stroke-linecap="round" stroke-linejoin="round"/>
<path d="M121.4 376.6C124.4 380.8 126.1 385.9 126.1 391.5C126.1 398.9 122.9 405.6 117.9 410.3" stroke="white" stroke-width="1.3817" stroke-miterlimit="10" stroke-linecap="round" stroke-linejoin="round" stroke-dasharray="3.09 3.09"/>
<path d="M30.2 410.4C29.7 409.5 29.4 408.4 29.4 407.3C29.4 405.1 30.5 403.1 32.1 401.9" stroke="white" stroke-width="1.3817" stroke-miterlimit="10" stroke-linecap="round" stroke-linejoin="round" stroke-dasharray="3.09 3.09"/>
<path d="M41.8 410.9C40.6 412.8 38.5 414 36.2 414C33.6 414 31.4 412.5 30.3 410.4" stroke="white" stroke-width="1.3817" stroke-miterlimit="10" stroke-linecap="round" stroke-linejoin="round"/>
<path d="M190.1 377.7C194.6 379.6 197.8 384.1 197.8 389.3C197.8 392.4 196.7 395.3 194.8 397.5" stroke="white" stroke-width="1.3817" stroke-miterlimit="10" stroke-linecap="round" stroke-linejoin="round" stroke-dasharray="3.09 3.09"/>
<path d="M175.6 397.6C173.7 395.4 172.5 392.5 172.5 389.3C172.5 382.3 178.1 376.7 185.1 376.7C186.8 376.7 188.5 377.1 190 377.7" stroke="white" stroke-width="1.3817" stroke-miterlimit="10" stroke-linecap="round" stroke-linejoin="round"/>
<path d="M118.9 483.2C117.5 484 115.8 484.5 114 484.5C108.7 484.5 104.3 480.2 104.3 474.8C104.3 472.8 104.9 471 105.9 469.5" stroke="white" stroke-width="1.3817" stroke-miterlimit="10" stroke-linecap="round" stroke-linejoin="round"/>
<path d="M121.7 469C122.9 470.6 123.6 472.6 123.6 474.8C123.6 478.4 121.7 481.5 118.8 483.1" stroke="white" stroke-width="1.3817" stroke-miterlimit="10" stroke-linecap="round" stroke-linejoin="round" stroke-dasharray="3.09 3.09"/>
<path d="M47.4 369.9C45.7 368.9 44.6 367.1 44.6 364.9C44.6 363 45.5 361.3 46.9 360.3" stroke="white" stroke-width="1.3817" stroke-miterlimit="10" stroke-linecap="round" stroke-linejoin="round"/>
<path d="M54 360.5C55.2 361.6 56 363.1 56 364.9C56 367.1 54.8 369 53 370" stroke="white" stroke-width="1.3817" stroke-miterlimit="10" stroke-linecap="round" stroke-linejoin="round"/>
<path d="M232.5 452.7C235.5 451.5 237.6 448.6 237.6 445.1C237.6 440.6 233.9 436.9 229.4 436.9H227.5" stroke="white" stroke-width="1.3817" stroke-miterlimit="10" stroke-linecap="round" stroke-linejoin="round" stroke-dasharray="3.09 3.09"/>
<path d="M183 453.3H229.4C230.5 453.3 231.5 453.1 232.5 452.7" stroke="white" stroke-width="1.3817" stroke-miterlimit="10" stroke-linecap="round" stroke-linejoin="round"/>
<path d="M165.1 339.6H50.5L94.9 253.1C96.4 250.1 99.5 248.3 102.8 248.3H112.9C116.2 248.3 119.3 250.2 120.8 253.1L160.9 331.3L165.1 339.6Z" fill="#545454" stroke="black" stroke-width="1.3817" stroke-miterlimit="10" stroke-linecap="round" stroke-linejoin="round"/>
<path d="M160.8 331.3V339.6H113.3C110.2 339.6 107.8 337.1 107.8 334.1V248.3H112.8C116.1 248.3 119.2 250.2 120.7 253.1L160.8 331.3Z" fill="#3D3D3D" stroke="black" stroke-width="1.3817" stroke-miterlimit="10" stroke-linecap="round" stroke-linejoin="round"/>
<path d="M287.1 339.6H198.3L169.8 284C169 282.3 167.3 281.3 165.4 281.3H158.1C156.2 281.3 154.5 282.3 153.7 284L131.8 326.7L116.8 297.4C115 293.9 111.4 291.7 107.4 291.7H66.3C63.2 291.7 60.4 293.4 59 296.2L36.7 339.7C30.8 339.9 25.6 342.6 22 346.7H302.8C298.9 342.3 293.3 339.6 287.1 339.6Z" fill="#545454" stroke="black" stroke-width="1.3817" stroke-miterlimit="10" stroke-linecap="round" stroke-linejoin="round"/>
<path d="M138.4 339.6H93.9C90.8 339.6 88.4 337.1 88.4 334.1V291.6H107.4C111.4 291.6 115 293.8 116.8 297.3L138.4 339.6Z" fill="#3D3D3D" stroke="black" stroke-width="1.2008" stroke-miterlimit="10" stroke-linecap="round" stroke-linejoin="round"/>
<path d="M307 354.3H17.6C18.5 351.4 19.9 348.8 21.9 346.7H302.7C304.6 348.8 306.1 351.4 307 354.3Z" fill="#FF4166" stroke="black" stroke-width="1.3817" stroke-miterlimit="10" stroke-linecap="round" stroke-linejoin="round"/>
<path d="M28.8 346.7L24 354.3" stroke="black" stroke-width="1.3817" stroke-miterlimit="10" stroke-linecap="round" stroke-linejoin="round"/>
<path d="M37.3 346.7L32.5 354.3" stroke="black" stroke-width="1.3817" stroke-miterlimit="10" stroke-linecap="round" stroke-linejoin="round"/>
<path d="M45.8 346.7L41 354.3" stroke="black" stroke-width="1.3817" stroke-miterlimit="10" stroke-linecap="round" stroke-linejoin="round"/>
<path d="M54.3 346.7L49.5 354.3" stroke="black" stroke-width="1.3817" stroke-miterlimit="10" stroke-linecap="round" stroke-linejoin="round"/>
<path d="M62.8 346.7L57.9 354.3" stroke="black" stroke-width="1.3817" stroke-miterlimit="10" stroke-linecap="round" stroke-linejoin="round"/>
<path d="M71.3 346.7L66.4 354.3" stroke="black" stroke-width="1.3817" stroke-miterlimit="10" stroke-linecap="round" stroke-linejoin="round"/>
<path d="M79.7 346.7L74.9 354.3" stroke="black" stroke-width="1.3817" stroke-miterlimit="10" stroke-linecap="round" stroke-linejoin="round"/>
<path d="M88.2 346.7L83.4 354.3" stroke="black" stroke-width="1.3817" stroke-miterlimit="10" stroke-linecap="round" stroke-linejoin="round"/>
<path d="M96.7 346.7L91.9 354.3" stroke="black" stroke-width="1.3817" stroke-miterlimit="10" stroke-linecap="round" stroke-linejoin="round"/>
<path d="M105.2 346.7L100.3 354.3" stroke="black" stroke-width="1.3817" stroke-miterlimit="10" stroke-linecap="round" stroke-linejoin="round"/>
<path d="M113.7 346.7L108.8 354.3" stroke="black" stroke-width="1.3817" stroke-miterlimit="10" stroke-linecap="round" stroke-linejoin="round"/>
<path d="M122.1 346.7L117.3 354.3" stroke="black" stroke-width="1.3817" stroke-miterlimit="10" stroke-linecap="round" stroke-linejoin="round"/>
<path d="M130.6 346.7L125.8 354.3" stroke="black" stroke-width="1.3817" stroke-miterlimit="10" stroke-linecap="round" stroke-linejoin="round"/>
<path d="M139.1 346.7L134.3 354.3" stroke="black" stroke-width="1.3817" stroke-miterlimit="10" stroke-linecap="round" stroke-linejoin="round"/>
<path d="M147.6 346.7L142.7 354.3" stroke="black" stroke-width="1.3817" stroke-miterlimit="10" stroke-linecap="round" stroke-linejoin="round"/>
<path d="M156.1 346.7L151.2 354.3" stroke="black" stroke-width="1.3817" stroke-miterlimit="10" stroke-linecap="round" stroke-linejoin="round"/>
<path d="M164.5 346.7L159.7 354.3" stroke="black" stroke-width="1.3817" stroke-miterlimit="10" stroke-linecap="round" stroke-linejoin="round"/>
<path d="M173 346.7L168.2 354.3" stroke="black" stroke-width="1.3817" stroke-miterlimit="10" stroke-linecap="round" stroke-linejoin="round"/>
<path d="M181.5 346.7L176.7 354.3" stroke="black" stroke-width="1.3817" stroke-miterlimit="10" stroke-linecap="round" stroke-linejoin="round"/>
<path d="M190 346.7L185.1 354.3" stroke="black" stroke-width="1.3817" stroke-miterlimit="10" stroke-linecap="round" stroke-linejoin="round"/>
<path d="M198.5 346.7L193.6 354.3" stroke="black" stroke-width="1.3817" stroke-miterlimit="10" stroke-linecap="round" stroke-linejoin="round"/>
<path d="M206.9 346.7L202.1 354.3" stroke="black" stroke-width="1.3817" stroke-miterlimit="10" stroke-linecap="round" stroke-linejoin="round"/>
<path d="M215.4 346.7L210.6 354.3" stroke="black" stroke-width="1.3817" stroke-miterlimit="10" stroke-linecap="round" stroke-linejoin="round"/>
<path d="M223.9 346.7L219.1 354.3" stroke="black" stroke-width="1.3817" stroke-miterlimit="10" stroke-linecap="round" stroke-linejoin="round"/>
<path d="M232.4 346.7L227.5 354.3" stroke="black" stroke-width="1.3817" stroke-miterlimit="10" stroke-linecap="round" stroke-linejoin="round"/>
<path d="M240.9 346.7L236 354.3" stroke="black" stroke-width="1.3817" stroke-miterlimit="10" stroke-linecap="round" stroke-linejoin="round"/>
<path d="M249.3 346.7L244.5 354.3" stroke="black" stroke-width="1.3817" stroke-miterlimit="10" stroke-linecap="round" stroke-linejoin="round"/>
<path d="M257.8 346.7L253 354.3" stroke="black" stroke-width="1.3817" stroke-miterlimit="10" stroke-linecap="round" stroke-linejoin="round"/>
<path d="M266.3 346.7L261.5 354.3" stroke="black" stroke-width="1.3817" stroke-miterlimit="10" stroke-linecap="round" stroke-linejoin="round"/>
<path d="M274.8 346.7L270 354.3" stroke="black" stroke-width="1.3817" stroke-miterlimit="10" stroke-linecap="round" stroke-linejoin="round"/>
<path d="M283.3 346.7L278.4 354.3" stroke="black" stroke-width="1.3817" stroke-miterlimit="10" stroke-linecap="round" stroke-linejoin="round"/>
<path d="M291.7 346.7L286.9 354.3" stroke="black" stroke-width="1.3817" stroke-miterlimit="10" stroke-linecap="round" stroke-linejoin="round"/>
<path d="M300.2 346.7L295.4 354.3" stroke="black" stroke-width="1.3817" stroke-miterlimit="10" stroke-linecap="round" stroke-linejoin="round"/>
<path d="M107.8 244.7V176.9" stroke="#FFAA00" stroke-width="1.3817" stroke-miterlimit="10" stroke-linecap="round" stroke-linejoin="round"/>
<path d="M99.2 177.5C103.1 180.7 105.6 185.6 105.6 191V244" stroke="#FFAA00" stroke-width="1.3817" stroke-miterlimit="10" stroke-linecap="round" stroke-linejoin="round"/>
<path d="M99.8 184.7C101.9 187 103.1 190 103.1 193.3V238.3" stroke="#FFAA00" stroke-width="1.3817" stroke-miterlimit="10" stroke-linecap="round" stroke-linejoin="round"/>
<path d="M100.5 232.8V197.4C100.5 193 97 189.5 92.6 189.5C90.8 189.5 89.2 190.1 87.9 191" stroke="#FFAA00" stroke-width="1.3817" stroke-miterlimit="10" stroke-linecap="round" stroke-linejoin="round"/>
<path d="M98.6 226.5V202.2C98.6 200 97 198.1 94.9 197.8" stroke="#FFAA00" stroke-width="1.3817" stroke-miterlimit="10" stroke-linecap="round" stroke-linejoin="round"/>
<path d="M114.6 179.2C111.7 182.3 110 186.4 110 191V244" stroke="#FFAA00" stroke-width="1.3817" stroke-miterlimit="10" stroke-linecap="round" stroke-linejoin="round"/>
<path d="M120.2 181.6C115.7 183.6 112.6 188.1 112.6 193.3V238.3" stroke="#FFAA00" stroke-width="1.3817" stroke-miterlimit="10" stroke-linecap="round" stroke-linejoin="round"/>
<path d="M115.2 232.2V197.3C115.2 193.7 117.6 190.7 120.9 189.7" stroke="#FFAA00" stroke-width="1.3817" stroke-miterlimit="10" stroke-linecap="round" stroke-linejoin="round"/>
<path d="M107.8 176.9V166.6" stroke="#FFAA00" stroke-width="1.3817" stroke-miterlimit="10" stroke-linecap="round" stroke-linejoin="round" stroke-dasharray="2.58 2.58"/>
<path d="M94.8 174.9C96.4 175.5 97.9 176.4 99.2 177.5" stroke="#FFAA00" stroke-width="1.3817" stroke-miterlimit="10" stroke-linecap="round" stroke-linejoin="round" stroke-dasharray="2.58 2.58"/>
<path d="M88.7 180.5H90.3C94.1 180.5 97.4 182.1 99.8 184.7" stroke="#FFAA00" stroke-width="1.3817" stroke-miterlimit="10" stroke-linecap="round" stroke-linejoin="round" stroke-dasharray="2.58 2.58"/>
<path d="M87.9 190.9C86.4 192 85.3 193.7 84.9 195.6" stroke="#FFAA00" stroke-width="1.3817" stroke-miterlimit="10" stroke-linecap="round" stroke-linejoin="round" stroke-dasharray="2.58 2.58"/>
<path d="M94.8 197.8C94.6 197.8 94.3 197.7 94.1 197.7C91.6 197.7 89.6 199.7 89.6 202.2V214.6" stroke="#FFAA00" stroke-width="1.3817" stroke-miterlimit="10" stroke-linecap="round" stroke-linejoin="round" stroke-dasharray="2.58 2.58"/>
<path d="M120.8 174.9C118.4 175.9 116.3 177.4 114.6 179.2" stroke="#FFAA00" stroke-width="1.3817" stroke-miterlimit="10" stroke-linecap="round" stroke-linejoin="round" stroke-dasharray="2.58 2.58"/>
<path d="M127 180.5H125.4C123.5 180.5 121.8 180.9 120.2 181.6" stroke="#FFAA00" stroke-width="1.3817" stroke-miterlimit="10" stroke-linecap="round" stroke-linejoin="round" stroke-dasharray="2.58 2.58"/>
<path d="M120.8 189.7C121.5 189.5 122.3 189.4 123 189.4C126.8 189.4 130 192.1 130.7 195.7" stroke="#FFAA00" stroke-width="1.3817" stroke-miterlimit="10" stroke-linecap="round" stroke-linejoin="round" stroke-dasharray="2.58 2.58"/>
<path d="M126 206.3V214.6" stroke="#FFAA00" stroke-width="1.3817" stroke-miterlimit="10" stroke-linecap="round" stroke-linejoin="round" stroke-dasharray="2.58 2.58"/>
<path d="M117.1 227.3V202.2C117.1 199.7 119.1 197.7 121.6 197.7C124.1 197.7 126.1 199.7 126.1 202.2V206.3" stroke="#FFAA00" stroke-width="1.3817" stroke-miterlimit="10" stroke-linecap="round" stroke-linejoin="round"/>
<path d="M151.2 155.9L151.1 152.9C151.1 152.4 151.3 151.9 151.8 151.7L156.5 149.1C156.9 148.9 157.4 148.9 157.8 149.1L160.4 150.6L151.2 155.9Z" fill="#FF4166" stroke="black" stroke-width="1.0545" stroke-miterlimit="10" stroke-linecap="round" stroke-linejoin="round"/>
<path d="M174.4 160.7L176.8 162.6C177.2 162.9 177.4 163.4 177.3 163.9L176.2 169.2C176.1 169.6 175.8 170 175.3 170.2L172.4 171.2L174.4 160.7Z" fill="#FF4166" stroke="black" stroke-width="1.0545" stroke-miterlimit="10" stroke-linecap="round" stroke-linejoin="round"/>
<path d="M162 176.5C169.235 176.5 175.1 170.635 175.1 163.4C175.1 156.165 169.235 150.3 162 150.3C154.765 150.3 148.9 156.165 148.9 163.4C148.9 170.635 154.765 176.5 162 176.5Z" fill="#FF4166" stroke="black" stroke-width="1.0545" stroke-miterlimit="10" stroke-linecap="round" stroke-linejoin="round"/>
<path d="M155.9 169.8C157.999 169.8 159.7 168.099 159.7 166C159.7 163.901 157.999 162.2 155.9 162.2C153.801 162.2 152.1 163.901 152.1 166C152.1 168.099 153.801 169.8 155.9 169.8Z" fill="#FF4166" stroke="black" stroke-width="1.0545" stroke-miterlimit="10" stroke-linecap="round" stroke-linejoin="round"/>
<path d="M157.7 169.3C157.4 169.3 157.2 169.3 156.9 169.3C154.7 169.1 153.2 167.1 153.4 165C153.5 164.1 153.9 163.2 154.5 162.6" stroke="black" stroke-width="1.0363" stroke-miterlimit="10" stroke-linecap="round" stroke-linejoin="round"/>
<path d="M152.2 161.2C153.4 160.3 154.9 159.9 156.4 160.1C159.7 160.5 162.1 163.4 161.8 166.8C161.5 169.4 159.7 171.4 157.3 172" stroke="black" stroke-width="1.0363" stroke-miterlimit="10" stroke-linecap="round" stroke-linejoin="round" stroke-dasharray="2.84 2.84"/>
<path d="M168.7 166.3C169.749 166.3 170.6 165.449 170.6 164.4C170.6 163.351 169.749 162.5 168.7 162.5C167.651 162.5 166.8 163.351 166.8 164.4C166.8 165.449 167.651 166.3 168.7 166.3Z" stroke="black" stroke-width="0.7452" stroke-miterlimit="10" stroke-linecap="round" stroke-linejoin="round"/>
<path d="M168.7 167.9C170.633 167.9 172.2 166.333 172.2 164.4C172.2 162.467 170.633 160.9 168.7 160.9C166.767 160.9 165.2 162.467 165.2 164.4C165.2 166.333 166.767 167.9 168.7 167.9Z" stroke="black" stroke-width="1.0545" stroke-miterlimit="10" stroke-linecap="round" stroke-linejoin="round" stroke-dasharray="1.58 1.58"/>
<path d="M194.8 134.8L199.4 129.6" stroke="black" stroke-width="1.0545" stroke-miterlimit="10" stroke-linecap="round" stroke-linejoin="round" stroke-dasharray="2.36 2.36"/>
<path d="M185.4 145.2L194.8 134.8" stroke="black" stroke-width="1.0545" stroke-miterlimit="10" stroke-linecap="round" stroke-linejoin="round"/>
<path d="M174.7 149.1C175.915 149.1 176.9 148.115 176.9 146.9C176.9 145.685 175.915 144.7 174.7 144.7C173.485 144.7 172.5 145.685 172.5 146.9C172.5 148.115 173.485 149.1 174.7 149.1Z" fill="#FF4166" stroke="black" stroke-width="1.0545" stroke-miterlimit="10" stroke-linecap="round" stroke-linejoin="round"/>
<path d="M165.5 145.8C166.328 145.8 167 145.128 167 144.3C167 143.472 166.328 142.8 165.5 142.8C164.672 142.8 164 143.472 164 144.3C164 145.128 164.672 145.8 165.5 145.8Z" fill="#FF4166" stroke="black" stroke-width="1.0545" stroke-miterlimit="10" stroke-linecap="round" stroke-linejoin="round"/>
<path d="M178.4 158.3C179.228 158.3 179.9 157.628 179.9 156.8C179.9 155.972 179.228 155.3 178.4 155.3C177.572 155.3 176.9 155.972 176.9 156.8C176.9 157.628 177.572 158.3 178.4 158.3Z" fill="#FF4166" stroke="black" stroke-width="1.0545" stroke-miterlimit="10" stroke-linecap="round" stroke-linejoin="round"/>
<path d="M171 140.7C171.497 140.7 171.9 140.297 171.9 139.8C171.9 139.303 171.497 138.9 171 138.9C170.503 138.9 170.1 139.303 170.1 139.8C170.1 140.297 170.503 140.7 171 140.7Z" fill="#FF4166"/>
<path d="M182 149.8C182.442 149.8 182.8 149.442 182.8 149C182.8 148.558 182.442 148.2 182 148.2C181.558 148.2 181.2 148.558 181.2 149C181.2 149.442 181.558 149.8 182 149.8Z" fill="#FF4166"/>
<path d="M178.6 137.4C179.152 137.4 179.6 136.952 179.6 136.4C179.6 135.848 179.152 135.4 178.6 135.4C178.048 135.4 177.6 135.848 177.6 136.4C177.6 136.952 178.048 137.4 178.6 137.4Z" fill="#FF4166"/>
<path d="M195.6 123.7L205.4 112.8" stroke="black" stroke-width="1.0545" stroke-miterlimit="10" stroke-linecap="round" stroke-linejoin="round" stroke-dasharray="2.36 2.36"/>
<path d="M177.5 143.8L195.6 123.7" stroke="black" stroke-width="1.0545" stroke-miterlimit="10" stroke-linecap="round" stroke-linejoin="round"/>
<path d="M185.4 128.8L188.2 125.8" stroke="black" stroke-width="1.0545" stroke-miterlimit="10" stroke-linecap="round" stroke-linejoin="round" stroke-dasharray="2.36 2.36"/>
<path d="M180.9 133.9L185.4 128.8" stroke="black" stroke-width="1.0545" stroke-miterlimit="10" stroke-linecap="round" stroke-linejoin="round"/>
<path d="M175.4 133.6L178.7 130" stroke="black" stroke-width="1.0545" stroke-miterlimit="10" stroke-linecap="round" stroke-linejoin="round" stroke-dasharray="2.36 2.36"/>
<path d="M172.2 137.2L175.4 133.6" stroke="black" stroke-width="1.0545" stroke-miterlimit="10" stroke-linecap="round" stroke-linejoin="round"/>
<path d="M180.6 144.9L186.8 137.9" stroke="black" stroke-width="1.0545" stroke-miterlimit="10" stroke-linecap="round" stroke-linejoin="round"/>
<path d="M184.8 149.8L187.3 147" stroke="black" stroke-width="1.0545" stroke-miterlimit="10" stroke-linecap="round" stroke-linejoin="round" stroke-dasharray="2.36 2.36"/>
<path d="M180.5 154.5L184.8 149.8" stroke="black" stroke-width="1.0545" stroke-miterlimit="10" stroke-linecap="round" stroke-linejoin="round"/>
<path d="M57.9 209.2C58.9493 209.2 59.8 208.349 59.8 207.3C59.8 206.251 58.9493 205.4 57.9 205.4C56.8507 205.4 56 206.251 56 207.3C56 208.349 56.8507 209.2 57.9 209.2Z" fill="white"/>
<path d="M95.5 168C96.2732 168 96.9 167.373 96.9 166.6C96.9 165.827 96.2732 165.2 95.5 165.2C94.7268 165.2 94.1 165.827 94.1 166.6C94.1 167.373 94.7268 168 95.5 168Z" fill="white"/>
<path d="M101.4 174.2C101.952 174.2 102.4 173.752 102.4 173.2C102.4 172.648 101.952 172.2 101.4 172.2C100.848 172.2 100.4 172.648 100.4 173.2C100.4 173.752 100.848 174.2 101.4 174.2Z" fill="white"/>
<path d="M114.6 172.7C115.373 172.7 116 172.073 116 171.3C116 170.527 115.373 169.9 114.6 169.9C113.827 169.9 113.2 170.527 113.2 171.3C113.2 172.073 113.827 172.7 114.6 172.7Z" fill="white"/>
<path d="M134.3 206.5C135.239 206.5 136 205.739 136 204.8C136 203.861 135.239 203.1 134.3 203.1C133.361 203.1 132.6 203.861 132.6 204.8C132.6 205.739 133.361 206.5 134.3 206.5Z" fill="white"/>
<path d="M127.6 222.7C128.318 222.7 128.9 222.118 128.9 221.4C128.9 220.682 128.318 220.1 127.6 220.1C126.882 220.1 126.3 220.682 126.3 221.4C126.3 222.118 126.882 222.7 127.6 222.7Z" fill="white"/>
<path d="M81.3 205.8C82.1837 205.8 82.9 205.084 82.9 204.2C82.9 203.316 82.1837 202.6 81.3 202.6C80.4164 202.6 79.7 203.316 79.7 204.2C79.7 205.084 80.4164 205.8 81.3 205.8Z" fill="white"/>
<path d="M134.3 188C134.797 188 135.2 187.597 135.2 187.1C135.2 186.603 134.797 186.2 134.3 186.2C133.803 186.2 133.4 186.603 133.4 187.1C133.4 187.597 133.803 188 134.3 188Z" fill="white"/>
<path d="M82.5 223.1L87.2 219.8" stroke="white" stroke-width="1.3817" stroke-miterlimit="10" stroke-linecap="round" stroke-linejoin="round"/>
<path d="M86.5 223.8L83.2 219.1" stroke="white" stroke-width="1.3817" stroke-miterlimit="10" stroke-linecap="round" stroke-linejoin="round"/>
<path d="M80.3 182.3L86.1 182.5" stroke="white" stroke-width="1.3817" stroke-miterlimit="10" stroke-linecap="round" stroke-linejoin="round"/>
<path d="M83.1 185.2L83.3 179.5" stroke="white" stroke-width="1.3817" stroke-miterlimit="10" stroke-linecap="round" stroke-linejoin="round"/>
<path d="M129.8 177.6L135 180" stroke="white" stroke-width="1.3817" stroke-miterlimit="10" stroke-linecap="round" stroke-linejoin="round"/>
<path d="M131.2 181.4L133.5 176.2" stroke="white" stroke-width="1.3817" stroke-miterlimit="10" stroke-linecap="round" stroke-linejoin="round"/>
<path d="M196.9 67.6L202.9 70.9" stroke="white" stroke-width="1.3817" stroke-miterlimit="10" stroke-linecap="round" stroke-linejoin="round"/>
<path d="M198.3 72.2L201.6 66.2" stroke="white" stroke-width="1.3817" stroke-miterlimit="10" stroke-linecap="round" stroke-linejoin="round"/>
<path d="M306.7 15.2L312.7 18.5" stroke="white" stroke-width="1.3817" stroke-miterlimit="10" stroke-linecap="round" stroke-linejoin="round"/>
<path d="M308.1 19.9L311.4 13.9" stroke="white" stroke-width="1.3817" stroke-miterlimit="10" stroke-linecap="round" stroke-linejoin="round"/>
<path d="M0.700012 38L6.70001 41.3" stroke="white" stroke-width="1.3817" stroke-miterlimit="10" stroke-linecap="round" stroke-linejoin="round"/>
<path d="M2.10004 42.6L5.30004 36.6" stroke="white" stroke-width="1.3817" stroke-miterlimit="10" stroke-linecap="round" stroke-linejoin="round"/>
<path d="M128 64.3L134 67.7" stroke="white" stroke-width="1.3817" stroke-miterlimit="10" stroke-linecap="round" stroke-linejoin="round"/>
<path d="M129.3 69L132.7 63" stroke="white" stroke-width="1.3817" stroke-miterlimit="10" stroke-linecap="round" stroke-linejoin="round"/>
<path d="M67.7 50.3L74.4 48.7" stroke="white" stroke-width="1.3817" stroke-miterlimit="10" stroke-linecap="round" stroke-linejoin="round"/>
<path d="M71.9 52.8L70.2 46.2" stroke="white" stroke-width="1.3817" stroke-miterlimit="10" stroke-linecap="round" stroke-linejoin="round"/>
<path d="M330.5 80.1L337.3 80" stroke="white" stroke-width="1.3817" stroke-miterlimit="10" stroke-linecap="round" stroke-linejoin="round"/>
<path d="M334 83.5L333.9 76.6" stroke="white" stroke-width="1.3817" stroke-miterlimit="10" stroke-linecap="round" stroke-linejoin="round"/>
<path d="M14 16.7L20.8 16.6" stroke="white" stroke-width="1.3817" stroke-miterlimit="10" stroke-linecap="round" stroke-linejoin="round"/>
<path d="M17.4 20.1L17.3 13.3" stroke="white" stroke-width="1.3817" stroke-miterlimit="10" stroke-linecap="round" stroke-linejoin="round"/>
<path d="M83 92.4C83.8284 92.4 84.5 91.7285 84.5 90.9C84.5 90.0716 83.8284 89.4 83 89.4C82.1716 89.4 81.5 90.0716 81.5 90.9C81.5 91.7285 82.1716 92.4 83 92.4Z" fill="white"/>
<path d="M304.3 105.5C305.128 105.5 305.8 104.828 305.8 104C305.8 103.172 305.128 102.5 304.3 102.5C303.472 102.5 302.8 103.172 302.8 104C302.8 104.828 303.472 105.5 304.3 105.5Z" fill="white"/>
<path d="M297.8 151C299.015 151 300 150.015 300 148.8C300 147.585 299.015 146.6 297.8 146.6C296.585 146.6 295.6 147.585 295.6 148.8C295.6 150.015 296.585 151 297.8 151Z" fill="white"/>
<path d="M36.2 146.3C37.415 146.3 38.4 145.315 38.4 144.1C38.4 142.885 37.415 141.9 36.2 141.9C34.985 141.9 34 142.885 34 144.1C34 145.315 34.985 146.3 36.2 146.3Z" fill="white"/>
<path d="M170 48.2C171.325 48.2 172.4 47.1255 172.4 45.8C172.4 44.4745 171.325 43.4 170 43.4C168.675 43.4 167.6 44.4745 167.6 45.8C167.6 47.1255 168.675 48.2 170 48.2Z" fill="white"/>
<path d="M154.8 37.8C156.181 37.8 157.3 36.6807 157.3 35.3C157.3 33.9193 156.181 32.8 154.8 32.8C153.419 32.8 152.3 33.9193 152.3 35.3C152.3 36.6807 153.419 37.8 154.8 37.8Z" fill="white"/>
<path d="M189.5 8.89999C191.709 8.89999 193.5 7.10913 193.5 4.89999C193.5 2.69085 191.709 0.899994 189.5 0.899994C187.291 0.899994 185.5 2.69085 185.5 4.89999C185.5 7.10913 187.291 8.89999 189.5 8.89999Z" fill="white"/>
<path d="M288.2 128C279.5 131.3 270.1 132.3 260.8 130.6C261 128.2 261.2 125.6 261.3 124.6C261.3 123.6 261.7 120.6 260.8 119.8C259.8 118.9 257.1 120.2 255 121.6C253.9 122.3 252.5 121.4 252.8 120.1C253 118.8 253.2 117.5 252.5 117.2C251.9 116.9 249.3 118.4 248.6 118.7C247.4 119.2 246.1 119.9 244.8 120.1C240.9 120.8 243.7 114.2 244.1 112.5C244.6 110.3 243 110.2 241.3 110.6C240.3 110.8 239.4 111.1 238.5 111.4C237.6 111.7 237.1 112.2 236.7 111.2C236.3 110.4 236.9 109.1 237.1 108.4C237.2 108 237.3 107.6 237.2 107.2C236.9 106.3 237 106.7 236.1 106.6C234.4 106.4 230.3 107.3 227.2 108.3C221.8 99.9 219 90.2 219.1 80.3C221.5 80.5 224.4 80.2 225.5 79.6C228.1 78.4 230.6 78.1 233.5 77.9C234.2 77.8 235.1 77.7 235.8 77.7C236.9 77.8 236.8 77.3 237.2 78.4C237.5 79.3 236.9 80.9 236.6 81.8C236.1 83.7 235.3 86 235.3 88.1C235.3 89.1 236.3 89.8 237.2 89.5C239.8 88.7 242.4 87.8 245.1 87.3C247.4 86.9 249.5 86.6 248.9 89.6C247.9 94.9 244.7 99.6 243.7 104.9C243.5 106 244.6 107 245.6 106.6C248.3 105.6 250.8 103 253.7 103.4C256.3 103.8 255.7 107.4 255 110.1C254.7 111.4 256.1 112.5 257.2 111.7C258.4 110.9 259.4 109.7 260.2 109C261.8 107.5 263.4 106.2 265.2 105.1C266.5 104.3 269.1 102.3 270.2 104C271.3 105.7 271.1 108.8 271.3 110.8C271.5 113.3 271.2 116 271.9 118.5C272 119 272.4 120.4 272.9 120.7C273.4 121 273.4 120.8 274 120.5C274.9 120 275.7 119.1 276.5 118.5C277.8 117.4 279.6 115.5 281.4 115.3C283.5 115.1 284 117.4 284.2 119.1C284.4 120.9 284 125.1 285.5 126.3C286 126.6 287 127.3 288.2 128Z" fill="#FFAA00" stroke="black" stroke-width="1.3817" stroke-miterlimit="10" stroke-linecap="round" stroke-linejoin="round"/>
<path d="M311.6 109.6C311.4 109.9 311.2 110.2 311 110.5C305 118.7 297.1 124.6 288.2 128C287.1 127.3 286.1 126.6 285.4 126.1C283.8 124.9 284.3 120.6 284.1 118.9C283.9 117.3 283.4 114.9 281.3 115.1C279.5 115.3 277.7 117.2 276.4 118.3C275.6 119 274.8 119.9 273.9 120.3C273.3 120.6 273.3 120.8 272.8 120.5C272.3 120.2 271.9 118.8 271.8 118.3C271.1 115.9 271.4 113.1 271.2 110.6C271.1 108.6 271.2 105.6 270.1 103.8C269 102 266.4 104.1 265.1 104.9C263.2 106 261.7 107.3 260.1 108.8C259.4 109.5 258.3 110.7 257.1 111.5C256 112.3 254.5 111.2 254.9 109.9C255.6 107.2 256.2 103.6 253.6 103.2C250.7 102.7 248.2 105.4 245.5 106.4C244.4 106.8 243.4 105.9 243.6 104.7C244.6 99.4 247.8 94.7 248.8 89.4C249.4 86.4 247.3 86.7 245 87.1C242.3 87.6 239.7 88.5 237.1 89.3C236.2 89.6 235.2 88.9 235.2 87.9C235.2 85.8 236 83.4 236.5 81.6C236.7 80.8 237.4 79.1 237.1 78.2C236.7 77.2 236.8 77.6 235.7 77.5C235 77.5 234.2 77.6 233.4 77.7C230.6 77.9 228 78.2 225.4 79.4C224.3 79.9 221.5 80.2 219 80.1C219.1 70.3 222 60.4 227.9 51.7C231.7 51.2 236.2 51.2 237.8 51.2C240.6 51.3 240.4 52.8 240 55.1C239.6 57.8 239.2 60.5 238.6 63.2C238.3 64.4 237.3 67.3 238.5 68.3C240 69.6 243.9 66.9 245.4 66.4C248.4 65.3 251.4 64.3 254.6 63.7C257 63.3 259.2 62.3 261.5 61.6C262.6 61.2 263.7 62.3 263.4 63.4C263 64.7 262.4 65.9 261.9 67.1C261 69.5 260.7 72.1 260.1 74.6C259.3 78.1 258.1 81.9 258.3 85.6C258.3 86.6 259.4 87.3 260.3 86.9C263.5 85.6 266.5 83.3 269.4 81.6C271.2 80.6 276.9 75.5 278.9 77.5C280.6 79.2 279.4 84.2 279 86.2C278.8 87.6 278 90.2 278.7 91.5C279.1 92.3 279.3 92.1 280.2 91.7C280.8 91.4 281.3 90.9 281.7 90.5C283.8 88.6 285.8 86.7 288.8 86.2C291.8 85.7 291.9 88.2 291.8 90.6C291.8 93.1 291.4 95.6 291 98C290.7 100.2 290 102.7 290.1 105.1C290.2 106.5 292 107 292.8 105.8C293.2 105.2 293.5 104.7 293.8 104.2C295 102.6 296.4 101.2 297.8 99.8C300.2 97.5 303.4 94.3 306.6 93.4C309.4 92.6 309.4 95.4 309.6 97.5C309.8 100.4 310.8 105.4 311.6 109.6Z" fill="#FF4166" stroke="black" stroke-width="1.3817" stroke-miterlimit="10" stroke-linecap="round" stroke-linejoin="round"/>
<path d="M320 88.8C318.8 96.1 316 103.2 311.6 109.6C310.8 105.5 309.8 100.4 309.6 97.6C309.4 95.5 309.4 92.8 306.6 93.5C303.3 94.4 300.1 97.7 297.8 99.9C296.4 101.3 294.9 102.7 293.8 104.3C293.4 104.8 293.1 105.4 292.8 105.9C292 107.1 290.2 106.6 290.1 105.2C290 102.8 290.7 100.3 291 98.1C291.4 95.7 291.7 93.2 291.8 90.7C291.8 88.3 291.8 85.8 288.8 86.3C285.9 86.8 283.8 88.7 281.7 90.6C281.2 91 280.7 91.5 280.2 91.8C279.3 92.2 279.1 92.4 278.7 91.6C278 90.3 278.8 87.7 279 86.3C279.3 84.3 280.6 79.3 278.9 77.6C276.9 75.7 271.2 80.7 269.4 81.7C266.5 83.4 263.5 85.6 260.3 87C259.4 87.4 258.3 86.7 258.3 85.7C258.1 82 259.3 78.2 260.1 74.7C260.7 72.2 261 69.6 261.9 67.2C262.3 66 263 64.8 263.4 63.5C263.8 62.4 262.7 61.3 261.5 61.7C259.2 62.4 257.1 63.4 254.6 63.8C251.4 64.4 248.4 65.4 245.4 66.5C243.9 67 240 69.8 238.5 68.4C237.3 67.3 238.3 64.5 238.6 63.3C239.2 60.6 239.6 57.9 240 55.2C240.3 52.9 240.5 51.5 237.8 51.3C236.3 51.2 231.7 51.2 227.9 51.8C228.2 51.4 228.4 51 228.7 50.7C234.1 43.3 241.1 37.8 248.9 34.2C249.5 34.2 249.9 34.2 250.2 34.2C252.1 34 253.9 34.4 255.8 34.7C256.7 34.8 257.6 34.8 258.6 34.9C259.7 35 260.3 36.2 259.7 37.1C256.5 41.9 255.7 47.8 253.8 53.2C253.4 54.2 254.3 55.3 255.3 55.1C259.8 54.6 263.9 52 268.2 51.1C269.5 50.8 270.8 50.6 272.1 50.7C273.1 50.8 273.1 50.6 273.4 51.5C273.6 52.1 273.4 53 273.3 53.6C273.1 55.5 272.6 57.5 272.4 59.4C272.3 60.7 273.8 61.5 274.8 60.7C276.7 59.1 278.8 57.7 280.9 56.3C282.4 55.3 283.8 54.3 285.3 53.3C285.9 52.9 288 50.8 288.8 51.2C290.1 51.7 289.2 55.5 289.1 56.6C289 58.5 288.7 60.5 288.8 62.5C288.9 63.7 290.3 64.3 291.2 63.5C293.9 61.2 298.3 58.4 300.2 60.4C301.3 61.6 300.5 64.6 300.2 66C299.8 68.5 299 70.9 298.8 73.4C298.7 75.1 299.2 78.5 301.5 78.1C303.8 77.7 305.4 74.8 307.6 74C312 72.4 311.6 81.5 312 83.9C312.3 85.9 312.9 89.9 314.7 91.1C315.7 91.9 318 90.4 320 88.8Z" fill="#FFAA00" stroke="black" stroke-width="1.3817" stroke-miterlimit="10" stroke-linecap="round" stroke-linejoin="round"/>
<path d="M320 88.8C318 90.4 315.7 91.9 314.6 91.1C312.8 89.9 312.2 85.9 311.9 83.9C311.5 81.5 311.9 72.4 307.5 74C305.3 74.8 303.8 77.7 301.4 78.1C299.1 78.5 298.6 75.1 298.7 73.4C298.8 70.9 299.6 68.4 300.1 66C300.4 64.6 301.2 61.7 300.1 60.4C298.2 58.3 293.8 61.1 291.1 63.5C290.2 64.3 288.8 63.7 288.7 62.5C288.6 60.5 288.8 58.5 289 56.6C289.1 55.5 290 51.7 288.7 51.2C287.8 50.9 285.7 52.9 285.2 53.3C283.8 54.4 282.3 55.3 280.8 56.3C278.7 57.7 276.7 59.1 274.7 60.7C273.7 61.5 272.2 60.7 272.3 59.4C272.5 57.5 273 55.5 273.2 53.6C273.3 53 273.5 52.1 273.3 51.5C273 50.6 273 50.7 272 50.7C270.7 50.6 269.4 50.8 268.1 51.1C263.7 52.1 259.6 54.6 255.2 55.1C254.1 55.2 253.3 54.2 253.7 53.2C255.6 47.8 256.4 41.9 259.6 37.1C260.2 36.2 259.6 35 258.5 34.9C257.6 34.8 256.6 34.8 255.7 34.7C253.9 34.4 252 34.1 250.1 34.2C249.8 34.2 249.4 34.2 248.8 34.2C260 29.2 272.8 28.3 284.7 32C282.5 33.7 279.7 36.2 278.4 37.3C277.4 38.2 278 39.8 279.3 39.8C281.5 39.9 283.7 40.2 285.9 40.4C286.8 40.5 287.4 41.4 287.1 42.3C286.9 42.9 286.7 43.4 286.6 44C286.3 45.1 287.3 46.1 288.4 45.8C290.9 45.1 293.8 44.2 295.8 46C297.1 47.1 297.4 49.1 297.8 50.6C298.2 51.8 298.6 53.1 299 54.3C299.4 55.5 301 55.5 301.6 54.4C302.2 53.3 303.9 53.4 304.3 54.6C304.7 55.9 304.9 57.3 305.3 58.3C306 60.4 306.8 62.8 308 64.9C308.5 65.8 309.9 65.9 310.5 65C311.7 63.1 312.4 58 312.9 53.7C319.5 64.2 322 76.7 320 88.8Z" fill="#FF4166" stroke="black" stroke-width="1.3817" stroke-miterlimit="10" stroke-linecap="round" stroke-linejoin="round"/>
<path d="M313 53.8C312.5 58.2 311.8 63.2 310.6 65.1C310 66 308.7 66 308.1 65C306.9 63 306.2 60.6 305.4 58.4C305.1 57.4 304.8 56 304.4 54.7C304 53.5 302.3 53.3 301.7 54.5C301.1 55.6 299.5 55.5 299.1 54.4C298.6 53.2 298.2 51.9 297.9 50.7C297.4 49.1 297.2 47.2 295.9 46.1C293.9 44.3 291 45.2 288.5 45.9C287.4 46.2 286.4 45.2 286.7 44.1C286.8 43.5 287.1 43 287.2 42.4C287.5 41.5 286.9 40.6 286 40.5C283.8 40.2 281.6 40 279.4 39.9C278.1 39.8 277.5 38.2 278.5 37.4C279.8 36.3 282.6 33.8 284.8 32.1C290 33.7 295 36.2 299.7 39.6C305.2 43.5 309.7 48.3 313 53.8Z" fill="#FFAA00" stroke="black" stroke-width="1.3817" stroke-miterlimit="10" stroke-linecap="round" stroke-linejoin="round"/>
<path d="M261.3 124.6C261.3 125.6 261 128.2 260.8 130.6C253.5 129.3 246.3 126.3 239.9 121.7C234.7 117.9 230.4 113.3 227.1 108.2C230.2 107.2 234.3 106.3 236 106.5C236.9 106.6 236.9 106.2 237.1 107.1C237.2 107.5 237 107.9 237 108.3C236.9 109.1 236.3 110.4 236.6 111.1C237.1 112.1 237.5 111.6 238.4 111.3C239.3 111 240.3 110.7 241.2 110.5C243 110.2 244.6 110.2 244 112.4C243.6 114.1 240.8 120.8 244.7 120C246 119.7 247.3 119.1 248.5 118.6C249.2 118.3 251.7 116.8 252.4 117.1C253 117.4 252.9 118.7 252.7 120C252.5 121.3 253.9 122.2 254.9 121.5C257 120.1 259.6 118.8 260.7 119.7C261.7 120.6 261.3 123.6 261.3 124.6Z" fill="#FF4166" stroke="black" stroke-width="1.3817" stroke-miterlimit="10" stroke-linecap="round" stroke-linejoin="round"/>
<path d="M241.1 46.6C242.4 46.4 243.7 46.2 245.1 45.9C246.1 45.7 247.4 45.6 248.1 46.3C249.2 47.3 248.7 49 248.3 50.4C247.9 51.7 247.7 53 247.5 54.3C247.3 55.5 247.1 56.7 247 57.9C246.9 58.8 246.7 59.7 247.1 60.5C248.3 60 249.3 59 250.3 58.1C251.3 57.3 252.6 56.5 253.9 56.8" stroke="black" stroke-width="1.3817" stroke-miterlimit="10" stroke-linecap="round" stroke-linejoin="round" stroke-dasharray="4.49 4.49"/>
<path d="M300.6 107.9C297.8 109.7 295 111.5 291.7 111.9C288.5 112.3 284.7 110.8 283.6 107.8C282.9 105.9 283.3 103.9 282.9 101.9C282.6 99.9 280.9 97.9 279 98.3C278.4 98.5 277.9 98.8 277.2 98.9C276.6 98.9 276 98.6 275.5 98.3C273.5 97 271.3 95.6 270.3 93.5C269.9 92.7 269.7 91.9 269.1 91.3C267.9 90.1 265.9 90.4 264.4 91.2C262.9 92 261.5 93.2 259.9 93.4" stroke="black" stroke-width="1.3817" stroke-miterlimit="10" stroke-linecap="round" stroke-linejoin="round" stroke-dasharray="4.49 4.49"/>
<path d="M304.3 86.6C302.5 84.8 299.4 87.1 297 86.4C295.7 86 294.7 84.8 294.3 83.5C293.9 82.2 294 80.8 294.1 79.5C294.2 78.7 294.3 77.8 293.8 77.1C293 76.1 291.4 76.4 290.3 77.1C289.2 77.8 288.2 78.8 287 78.8C285.4 78.9 284.1 77.5 283.5 76C282.2 72.4 284.2 68.3 283.4 64.5C283.3 63.9 282.9 63.2 282.3 63.1C282 63.1 281.7 63.2 281.4 63.4C277.6 65.3 274.1 67.6 270.8 70.3" stroke="black" stroke-width="1.3817" stroke-miterlimit="10" stroke-linecap="round" stroke-linejoin="round" stroke-dasharray="4.49 4.49"/>
<path d="M266.3 39C267.8 39.1 269.4 39.3 270.9 39.4C271.5 39.5 272.3 39.6 272.6 40.1C273.4 41.5 270.4 43 271.2 44.3C271.5 44.8 272.1 44.9 272.6 44.9C273.7 44.9 274.7 44.6 275.7 44.4C276.7 44.2 277.9 44.4 278.6 45.2C279.3 46 279.3 47.2 279.1 48.3C278.9 49.4 278.5 50.4 278.5 51.5" stroke="black" stroke-width="1.3817" stroke-miterlimit="10" stroke-linecap="round" stroke-linejoin="round" stroke-dasharray="4.49 4.49"/>
<path d="M239.6 72.7C240.8 73.2 242.2 72.9 243.5 72.5C244.8 72.1 246 71.6 247.4 71.7C248.8 71.8 250 73 249.9 74.3C249.8 74.9 249.4 75.5 249 76C248.4 76.7 247.9 77.5 247.3 78.2C247 78.6 246.7 79 246.6 79.5C246.5 80 246.6 80.6 247.1 80.8" stroke="black" stroke-width="1.3817" stroke-miterlimit="10" stroke-linecap="round" stroke-linejoin="round" stroke-dasharray="4.49 4.49"/>
<path d="M228.9 88.8C228.5 90.5 228.2 92.3 228.5 94C228.8 95.7 229.8 97.4 231.3 98.3C231.6 98.4 231.9 98.6 232.2 98.6C232.5 98.6 232.8 98.4 233.1 98.2C234.2 97.4 235.3 96.2 236.7 96.2" stroke="black" stroke-width="1.3817" stroke-miterlimit="10" stroke-linecap="round" stroke-linejoin="round" stroke-dasharray="4.49 4.49"/>
<path d="M264.1 116.5C264.6 117.9 264.7 119.4 264.3 120.8C264.2 121.3 264 121.7 264 122.2C264 123.6 265.5 124.6 266.9 125C269.3 125.7 272 125.5 274.4 124.5" stroke="black" stroke-width="1.3817" stroke-miterlimit="10" stroke-linecap="round" stroke-linejoin="round" stroke-dasharray="4.49 4.49"/>
<path d="M91.7 399.1C92.9702 399.1 94 398.07 94 396.8C94 395.53 92.9702 394.5 91.7 394.5C90.4297 394.5 89.4 395.53 89.4 396.8C89.4 398.07 90.4297 399.1 91.7 399.1Z" fill="white"/>
<path d="M107.2 405.2C109.354 405.2 111.1 403.454 111.1 401.3C111.1 399.146 109.354 397.4 107.2 397.4C105.046 397.4 103.3 399.146 103.3 401.3C103.3 403.454 105.046 405.2 107.2 405.2Z" fill="white"/>
<path d="M112.9 385.7C113.507 385.7 114 385.208 114 384.6C114 383.992 113.507 383.5 112.9 383.5C112.292 383.5 111.8 383.992 111.8 384.6C111.8 385.208 112.292 385.7 112.9 385.7Z" fill="white"/>
<path d="M85.5 384.7C86.6046 384.7 87.5 383.805 87.5 382.7C87.5 381.595 86.6046 380.7 85.5 380.7C84.3954 380.7 83.5 381.595 83.5 382.7C83.5 383.805 84.3954 384.7 85.5 384.7Z" fill="white"/>
<path d="M97 380.2C98.1046 380.2 99 379.305 99 378.2C99 377.095 98.1046 376.2 97 376.2C95.8954 376.2 95 377.095 95 378.2C95 379.305 95.8954 380.2 97 380.2Z" fill="white"/>
<path d="M105.8 371.9C106.905 371.9 107.8 371.005 107.8 369.9C107.8 368.795 106.905 367.9 105.8 367.9C104.695 367.9 103.8 368.795 103.8 369.9C103.8 371.005 104.695 371.9 105.8 371.9Z" fill="white"/>
<path d="M183.8 394.7C185.07 394.7 186.1 393.67 186.1 392.4C186.1 391.13 185.07 390.1 183.8 390.1C182.53 390.1 181.5 391.13 181.5 392.4C181.5 393.67 182.53 394.7 183.8 394.7Z" fill="white"/>
<path d="M190.1 398.8C190.763 398.8 191.3 398.263 191.3 397.6C191.3 396.937 190.763 396.4 190.1 396.4C189.437 396.4 188.9 396.937 188.9 397.6C188.9 398.263 189.437 398.8 190.1 398.8Z" fill="white"/>
<path d="M183.2 404C183.863 404 184.4 403.463 184.4 402.8C184.4 402.137 183.863 401.6 183.2 401.6C182.537 401.6 182 402.137 182 402.8C182 403.463 182.537 404 183.2 404Z" fill="white"/>
<path d="M185.8 441.6C186.573 441.6 187.2 440.973 187.2 440.2C187.2 439.427 186.573 438.8 185.8 438.8C185.027 438.8 184.4 439.427 184.4 440.2C184.4 440.973 185.027 441.6 185.8 441.6Z" fill="white"/>
<path d="M211.1 446.8C212.094 446.8 212.9 445.994 212.9 445C212.9 444.006 212.094 443.2 211.1 443.2C210.106 443.2 209.3 444.006 209.3 445C209.3 445.994 210.106 446.8 211.1 446.8Z" fill="white"/>
<path d="M220.6 440.8C221.705 440.8 222.6 439.905 222.6 438.8C222.6 437.695 221.705 436.8 220.6 436.8C219.495 436.8 218.6 437.695 218.6 438.8C218.6 439.905 219.495 440.8 220.6 440.8Z" fill="white"/>
<path d="M199.4 448.1C200.173 448.1 200.8 447.473 200.8 446.7C200.8 445.927 200.173 445.3 199.4 445.3C198.627 445.3 198 445.927 198 446.7C198 447.473 198.627 448.1 199.4 448.1Z" fill="white"/>
<path d="M171.5 449.2C172.108 449.2 172.6 448.708 172.6 448.1C172.6 447.492 172.108 447 171.5 447C170.892 447 170.4 447.492 170.4 448.1C170.4 448.708 170.892 449.2 171.5 449.2Z" fill="white"/>
<path d="M167.6 444.5C168.318 444.5 168.9 443.918 168.9 443.2C168.9 442.482 168.318 441.9 167.6 441.9C166.882 441.9 166.3 442.482 166.3 443.2C166.3 443.918 166.882 444.5 167.6 444.5Z" fill="white"/>
<path d="M111.6 472.3C112.594 472.3 113.4 471.494 113.4 470.5C113.4 469.506 112.594 468.7 111.6 468.7C110.606 468.7 109.8 469.506 109.8 470.5C109.8 471.494 110.606 472.3 111.6 472.3Z" fill="white"/>
<path d="M116.2 468.3C117.028 468.3 117.7 467.628 117.7 466.8C117.7 465.972 117.028 465.3 116.2 465.3C115.372 465.3 114.7 465.972 114.7 466.8C114.7 467.628 115.372 468.3 116.2 468.3Z" fill="white"/>
<path d="M113.4 461.2C113.787 461.2 114.1 460.887 114.1 460.5C114.1 460.113 113.787 459.8 113.4 459.8C113.013 459.8 112.7 460.113 112.7 460.5C112.7 460.887 113.013 461.2 113.4 461.2Z" fill="white"/>
<path d="M36.6 409.3C37.9255 409.3 39 408.225 39 406.9C39 405.575 37.9255 404.5 36.6 404.5C35.2745 404.5 34.2 405.575 34.2 406.9C34.2 408.225 35.2745 409.3 36.6 409.3Z" fill="white"/>
<path d="M43.3 406C43.7418 406 44.1 405.642 44.1 405.2C44.1 404.758 43.7418 404.4 43.3 404.4C42.8582 404.4 42.5 404.758 42.5 405.2C42.5 405.642 42.8582 406 43.3 406Z" fill="white"/>
<path d="M49.5 366C50.218 366 50.8 365.418 50.8 364.7C50.8 363.982 50.218 363.4 49.5 363.4C48.782 363.4 48.2 363.982 48.2 364.7C48.2 365.418 48.782 366 49.5 366Z" fill="white"/>
<path d="M204.6 43.2C211.614 43.2 217.3 37.514 217.3 30.5C217.3 23.486 211.614 17.8 204.6 17.8C197.586 17.8 191.9 23.486 191.9 30.5C191.9 37.514 197.586 43.2 204.6 43.2Z" fill="#545454" stroke="black" stroke-width="1.3817" stroke-miterlimit="10" stroke-linecap="round" stroke-linejoin="round"/>
<path d="M197.4 37C198.339 37 199.1 36.2389 199.1 35.3C199.1 34.3611 198.339 33.6 197.4 33.6C196.461 33.6 195.7 34.3611 195.7 35.3C195.7 36.2389 196.461 37 197.4 37Z" fill="#545454" stroke="black" stroke-width="1.3817" stroke-miterlimit="10" stroke-linecap="round" stroke-linejoin="round"/>
<path d="M211.2 28.6C212.36 28.6 213.3 27.6598 213.3 26.5C213.3 25.3402 212.36 24.4 211.2 24.4C210.04 24.4 209.1 25.3402 209.1 26.5C209.1 27.6598 210.04 28.6 211.2 28.6Z" fill="#545454" stroke="black" stroke-width="1.3817" stroke-miterlimit="10" stroke-linecap="round" stroke-linejoin="round"/>
<path d="M207.7 38.2C209.467 38.2 210.9 36.7673 210.9 35C210.9 33.2327 209.467 31.8 207.7 31.8C205.933 31.8 204.5 33.2327 204.5 35C204.5 36.7673 205.933 38.2 207.7 38.2Z" fill="#545454" stroke="black" stroke-width="1.3817" stroke-miterlimit="10" stroke-linecap="round" stroke-linejoin="round"/>
<path d="M198.4 339.6H168.5C164.8 339.6 161.8 336.6 161.8 332.9V281.3H165.4C167.3 281.3 169 282.3 169.8 284L198.4 339.6Z" fill="#3D3D3D" stroke="black" stroke-width="1.3817" stroke-miterlimit="10" stroke-linecap="round" stroke-linejoin="round"/>
<path d="M291.3 193.4H281.2V189.3H291.3C292.4 189.3 293.4 190.2 293.4 191.4C293.3 192.5 292.4 193.4 291.3 193.4Z" fill="white" stroke="black" stroke-width="1.3817" stroke-miterlimit="10" stroke-linecap="round" stroke-linejoin="round"/>
<path d="M259.5 193.4H269.6V189.3H259.5C258.4 189.3 257.4 190.2 257.4 191.4C257.4 192.5 258.3 193.4 259.5 193.4Z" fill="white" stroke="black" stroke-width="1.3817" stroke-miterlimit="10" stroke-linecap="round" stroke-linejoin="round"/>
<path d="M289.5 312.4C289.5 316.3 287.9 319.8 285.4 322.4C282.8 325 279.3 326.5 275.4 326.5C267.6 326.5 261.3 320.2 261.3 312.4L261.7 294.2C261.8 289.6 262.7 285.1 264.5 280.8C264.6 280.7 264.6 280.6 264.6 280.5C266.1 276.7 267.2 272.9 268.2 269.2C273.9 245.7 269.8 223 266.7 211.4C265 205 264.2 198.5 264.1 191.9L264 183.8C264 177.6 269 172.5 275.2 172.4C281.6 172.3 286.8 177.6 286.8 184L286.6 193.4C286.5 199.1 285.8 204.9 284.5 210.5C281.7 222.2 277.5 246.2 282.7 269.2C283.6 273.2 284.8 277.2 286.4 281.1C288.1 285.3 289 289.8 289.1 294.4L289.5 312.4Z" fill="white" stroke="black" stroke-width="1.3817" stroke-miterlimit="10" stroke-linecap="round" stroke-linejoin="round"/>
<path d="M271.9 323.8H299.6C301.2 323.8 301.7 321.6 300.3 320.9L277.2 309.8L271.9 323.8Z" fill="#FF4166" stroke="black" stroke-width="1.3817" stroke-miterlimit="10" stroke-linecap="round" stroke-linejoin="round"/>
<path d="M289.5 312.4L289.1 294.5C289 289.9 288.1 285.4 286.4 281.2C284.9 277.3 283.7 273.3 282.7 269.3H268.1C267.2 273.1 266 276.9 264.5 280.6C264.5 280.7 264.4 280.8 264.4 280.9C262.7 285.1 261.7 289.7 261.6 294.3L261.2 312.5C261.2 316.8 263.1 320.6 266.1 323.2V335.5C266.1 337.5 267.7 339.1 269.7 339.1C271.7 339.1 273.3 337.5 273.3 335.5V326.5C274 326.6 274.7 326.7 275.4 326.7C276.1 326.7 276.8 326.6 277.5 326.5V335.5C277.5 337.5 279.1 339.1 281.1 339.1C283.1 339.1 284.7 337.5 284.7 335.5V323.2C285 323 285.2 322.8 285.4 322.5C288 319.9 289.5 316.3 289.5 312.4Z" fill="#FF4166" stroke="black" stroke-width="1.3817" stroke-miterlimit="10" stroke-linecap="round" stroke-linejoin="round"/>
<path d="M269 188.7C270.546 188.7 271.8 187.446 271.8 185.9C271.8 184.354 270.546 183.1 269 183.1C267.454 183.1 266.2 184.354 266.2 185.9C266.2 187.446 267.454 188.7 269 188.7Z" fill="white" stroke="black" stroke-width="1.3817" stroke-miterlimit="10" stroke-linecap="round" stroke-linejoin="round"/>
<path d="M269 186.9C269.552 186.9 270 186.452 270 185.9C270 185.348 269.552 184.9 269 184.9C268.448 184.9 268 185.348 268 185.9C268 186.452 268.448 186.9 269 186.9Z" fill="black"/>
<path d="M279.2 188.7C280.746 188.7 282 187.446 282 185.9C282 184.354 280.746 183.1 279.2 183.1C277.654 183.1 276.4 184.354 276.4 185.9C276.4 187.446 277.654 188.7 279.2 188.7Z" fill="white" stroke="black" stroke-width="1.3817" stroke-miterlimit="10" stroke-linecap="round" stroke-linejoin="round"/>
<path d="M279.2 186.9C279.752 186.9 280.2 186.452 280.2 185.9C280.2 185.348 279.752 184.9 279.2 184.9C278.648 184.9 278.2 185.348 278.2 185.9C278.2 186.452 278.648 186.9 279.2 186.9Z" fill="black"/>
<path d="M286.7 197.5C294.8 198.3 300.3 199.9 300.3 201.7C300.3 204.3 289.2 206.4 275.4 206.4C261.7 206.4 250.5 204.3 250.5 201.7C250.5 199.9 256 198.3 264 197.5" stroke="black" stroke-width="1.3817" stroke-miterlimit="10" stroke-linecap="round" stroke-linejoin="round"/>
<path d="M250.6 201.7C250.6 201.7 267.5 235.8 265.4 269.9" stroke="black" stroke-width="1.3817" stroke-miterlimit="10" stroke-linecap="round" stroke-linejoin="round"/>
<path d="M300.3 201.7C300.3 201.7 283.4 235.8 285.5 269.9" stroke="black" stroke-width="1.3817" stroke-miterlimit="10" stroke-linecap="round" stroke-linejoin="round"/>
<path d="M266.2 330.3H273.4V335.4C273.4 337.4 271.8 339 269.8 339C267.8 339 266.2 337.4 266.2 335.4V330.3Z" fill="white" stroke="black" stroke-width="1.3817" stroke-miterlimit="10" stroke-linecap="round" stroke-linejoin="round"/>
<path d="M284.7 330.3V335.4C284.7 337.4 283.1 339 281.1 339C279.1 339 277.5 337.4 277.5 335.4V330.3H284.7Z" fill="white" stroke="black" stroke-width="1.3817" stroke-miterlimit="10" stroke-linecap="round" stroke-linejoin="round"/>
<path d="M283.2 272.2H267.6C266.4 272.2 265.3 271.2 265.3 269.9C265.3 268.7 266.3 267.6 267.6 267.6H283.2C284.4 267.6 285.5 268.6 285.5 269.9C285.5 271.2 284.5 272.2 283.2 272.2Z" fill="#FF365D" stroke="black" stroke-width="1.3817" stroke-miterlimit="10" stroke-linecap="round" stroke-linejoin="round"/>
<path d="M299.3 299C297.9 300.4 295.6 300.4 294.2 299L291.8 296.7L281 286L286 280.9L296.8 291.6L299.1 293.9C300.7 295.4 300.7 297.6 299.3 299Z" fill="#FF4166"/>
<path d="M299.3 299C297.9 300.4 295.6 300.4 294.2 299L291.8 296.7L296.9 291.6L299.2 293.9C300.7 295.4 300.7 297.6 299.3 299Z" fill="white" stroke="black" stroke-width="1.3817" stroke-miterlimit="10" stroke-linecap="round" stroke-linejoin="round"/>
<path d="M286.5 281.3L297 291.6L299.3 293.9C300.7 295.3 300.7 297.6 299.3 299C297.9 300.4 295.6 300.4 294.2 299L291.8 296.7L287.3 292.2" stroke="black" stroke-width="1.3817" stroke-miterlimit="10" stroke-linecap="round" stroke-linejoin="round"/>
<path d="M251.5 299C252.9 300.4 255.2 300.4 256.6 299L259 296.7L269.8 286L264.8 280.9L254 291.6L251.7 293.9C250.2 295.4 250.2 297.6 251.5 299Z" fill="#FF4166"/>
<path d="M251.5 299C252.9 300.4 255.2 300.4 256.6 299L259 296.7L253.9 291.6L251.6 293.9C250.2 295.4 250.2 297.6 251.5 299Z" fill="white" stroke="black" stroke-width="1.3817" stroke-miterlimit="10" stroke-linecap="round" stroke-linejoin="round"/>
<path d="M264.4 281.3L253.9 291.6L251.6 293.9C250.2 295.3 250.2 297.6 251.6 299C253 300.4 255.3 300.4 256.7 299L259.1 296.7L263.6 292.2" stroke="black" stroke-width="1.3817" stroke-miterlimit="10" stroke-linecap="round" stroke-linejoin="round"/>
<path d="M273.4 200.3H280.7" stroke="black" stroke-width="1.3817" stroke-miterlimit="10" stroke-linecap="round" stroke-linejoin="round"/>
<path d="M263.1 227.3C264.6 233 266.2 239.9 267.2 247.5" stroke="white" stroke-width="1.3817" stroke-miterlimit="10" stroke-linecap="round" stroke-linejoin="round"/>
<path d="M257.6 210.8C257.6 210.8 260.3 217.2 263.1 227.3" stroke="white" stroke-width="1.3817" stroke-miterlimit="10" stroke-linecap="round" stroke-linejoin="round" stroke-dasharray="2.42 2.42"/>
<path d="M275.6 172.6C274.5 171.6 274.3 169.8 275.1 168.5C275.7 167.5 276.9 166.7 276.8 165.6C276.7 164.1 274.5 163.3 274.5 161.8C274.5 161.1 274.9 160.5 275.4 160C275.8 159.5 276.3 158.9 276.4 158.2C276.5 157.5 276 156.7 275.3 156.8" stroke="black" stroke-width="1.3817" stroke-miterlimit="10" stroke-linecap="round" stroke-linejoin="round"/>
<path d="M275.9 158.3C276.839 158.3 277.6 157.539 277.6 156.6C277.6 155.661 276.839 154.9 275.9 154.9C274.961 154.9 274.2 155.661 274.2 156.6C274.2 157.539 274.961 158.3 275.9 158.3Z" fill="black"/>
<path d="M263.5 167.1C264.439 167.1 265.2 166.339 265.2 165.4C265.2 164.461 264.439 163.7 263.5 163.7C262.561 163.7 261.8 164.461 261.8 165.4C261.8 166.339 262.561 167.1 263.5 167.1Z" fill="black"/>
<path d="M287.8 168C288.739 168 289.5 167.239 289.5 166.3C289.5 165.361 288.739 164.6 287.8 164.6C286.861 164.6 286.1 165.361 286.1 166.3C286.1 167.239 286.861 168 287.8 168Z" fill="black"/>
<path d="M280.9 173.7C280.6 173.2 280.9 172.5 281.3 172.1C281.7 171.7 282.3 171.6 282.9 171.4C283.5 171.2 284 170.9 284.2 170.3C284.5 169.7 284.2 168.9 283.8 168.4C283.4 167.9 283 167.2 283 166.5C282.9 165.7 283.4 164.8 284.2 164.5C285 164.1 285.9 164.2 286.6 164.7C287.3 165.2 287.8 165.9 288 166.7" stroke="black" stroke-width="1.3817" stroke-miterlimit="10" stroke-linecap="round" stroke-linejoin="round"/>
<path d="M270.2 173.6C269.7 173.8 269.1 173.2 269.2 172.6C269.2 172 269.6 171.6 269.9 171.1C270.2 170.6 270.5 170.1 270.3 169.5C270.1 168.8 269.3 168.6 268.6 168.4C267.9 168.2 267.2 167.9 267 167.3C266.9 166.8 267.2 166.2 267.2 165.7C267.2 164.9 266.4 164.3 265.6 164.3C264.8 164.3 264.1 164.7 263.5 165.3" stroke="black" stroke-width="1.3817" stroke-miterlimit="10" stroke-linecap="round" stroke-linejoin="round"/>
<path d="M274.6 301.3C278.356 301.3 281.4 298.256 281.4 294.5C281.4 290.745 278.356 287.7 274.6 287.7C270.844 287.7 267.8 290.745 267.8 294.5C267.8 298.256 270.844 301.3 274.6 301.3Z" fill="white" stroke="black" stroke-width="1.3817" stroke-miterlimit="10" stroke-linecap="round" stroke-linejoin="round"/>
<path d="M274.6 304.9H285.3" stroke="black" stroke-width="1.3817" stroke-miterlimit="10" stroke-linecap="round" stroke-linejoin="round"/>
<path d="M274.6 308.8H285.3" stroke="black" stroke-width="1.3817" stroke-miterlimit="10" stroke-linecap="round" stroke-linejoin="round" stroke-dasharray="2.42 2.42"/>
<path d="M274.6 298.7C276.92 298.7 278.8 296.82 278.8 294.5C278.8 292.18 276.92 290.3 274.6 290.3C272.28 290.3 270.4 292.18 270.4 294.5C270.4 296.82 272.28 298.7 274.6 298.7Z" stroke="black" stroke-width="1.3817" stroke-miterlimit="10" stroke-linecap="round" stroke-linejoin="round" stroke-dasharray="2.42 2.42"/>
<path d="M261.3 312.8H289.5" stroke="black" stroke-width="1.3817" stroke-miterlimit="10" stroke-linecap="round" stroke-linejoin="round"/>
<path d="M202.1 193.4H212.2V189.3H202.1C201 189.3 200 190.2 200 191.4C200 192.5 200.9 193.4 202.1 193.4Z" fill="#FFAA00" stroke="black" stroke-width="1.3817" stroke-miterlimit="10" stroke-linecap="round" stroke-linejoin="round"/>
<path d="M233.9 193.4H223.8V189.3H233.9C235 189.3 236 190.2 236 191.4C235.9 192.5 235 193.4 233.9 193.4Z" fill="#FFAA00" stroke="black" stroke-width="1.3817" stroke-miterlimit="10" stroke-linecap="round" stroke-linejoin="round"/>
<path d="M203.8 312.4C203.8 316.3 205.4 319.8 207.9 322.4C210.5 325 214 326.5 217.9 326.5C225.7 326.5 232 320.2 232 312.4L231.6 294.2C231.5 289.6 230.6 285.1 228.8 280.8C228.7 280.7 228.7 280.6 228.7 280.5C227.2 276.7 226.1 272.9 225.1 269.2C219.4 245.7 223.5 223 226.6 211.4C228.3 205 229.1 198.5 229.2 191.9L229.3 183.8C229.3 177.6 224.3 172.5 218.1 172.4C211.7 172.3 206.5 177.6 206.5 184L206.7 193.4C206.8 199.1 207.5 204.9 208.8 210.5C211.6 222.2 215.8 246.2 210.6 269.2C209.7 273.2 208.5 277.2 206.9 281.1C205.2 285.3 204.3 289.8 204.2 294.4L203.8 312.4Z" fill="#FFAA00" stroke="black" stroke-width="1.3817" stroke-miterlimit="10" stroke-linecap="round" stroke-linejoin="round"/>
<path d="M221.5 323.8H193.8C192.2 323.8 191.7 321.6 193.1 320.9L216.2 309.8L221.5 323.8Z" fill="#FF4166" stroke="black" stroke-width="1.3817" stroke-miterlimit="10" stroke-linecap="round" stroke-linejoin="round"/>
<path d="M203.8 312.4L204.2 294.5C204.3 289.9 205.2 285.4 206.9 281.2C208.4 277.3 209.6 273.3 210.6 269.3H225.2C226.1 273.1 227.3 276.9 228.8 280.6C228.8 280.7 228.9 280.8 228.9 280.9C230.6 285.1 231.6 289.7 231.7 294.3L232.1 312.5C232.1 316.8 230.2 320.6 227.2 323.2V335.5C227.2 337.5 225.6 339.1 223.6 339.1C221.6 339.1 220 337.5 220 335.5V326.5C219.3 326.6 218.6 326.7 217.9 326.7C217.2 326.7 216.5 326.6 215.8 326.5V335.5C215.8 337.5 214.2 339.1 212.2 339.1C210.2 339.1 208.6 337.5 208.6 335.5V323.2C208.3 323 208.1 322.8 207.9 322.5C205.4 319.9 203.8 316.3 203.8 312.4Z" fill="#FF4166" stroke="black" stroke-width="1.3817" stroke-miterlimit="10" stroke-linecap="round" stroke-linejoin="round"/>
<path d="M226.7 184.5C228.246 184.5 229.5 183.246 229.5 181.7C229.5 180.154 228.246 178.9 226.7 178.9C225.154 178.9 223.9 180.154 223.9 181.7C223.9 183.246 225.154 184.5 226.7 184.5Z" fill="white" stroke="black" stroke-width="1.3817" stroke-miterlimit="10" stroke-linecap="round" stroke-linejoin="round"/>
<path d="M226.7 182.7C227.252 182.7 227.7 182.252 227.7 181.7C227.7 181.148 227.252 180.7 226.7 180.7C226.148 180.7 225.7 181.148 225.7 181.7C225.7 182.252 226.148 182.7 226.7 182.7Z" fill="black"/>
<path d="M216.4 184.5C217.946 184.5 219.2 183.246 219.2 181.7C219.2 180.154 217.946 178.9 216.4 178.9C214.854 178.9 213.6 180.154 213.6 181.7C213.6 183.246 214.854 184.5 216.4 184.5Z" fill="white" stroke="black" stroke-width="1.3817" stroke-miterlimit="10" stroke-linecap="round" stroke-linejoin="round"/>
<path d="M216.4 182.7C216.952 182.7 217.4 182.252 217.4 181.7C217.4 181.148 216.952 180.7 216.4 180.7C215.848 180.7 215.4 181.148 215.4 181.7C215.4 182.252 215.848 182.7 216.4 182.7Z" fill="black"/>
<path d="M206.6 197.5C198.5 198.3 193 199.9 193 201.7C193 204.3 204.1 206.4 217.9 206.4C231.6 206.4 242.8 204.3 242.8 201.7C242.8 199.9 237.3 198.3 229.3 197.5" stroke="black" stroke-width="1.3817" stroke-miterlimit="10" stroke-linecap="round" stroke-linejoin="round"/>
<path d="M242.8 201.7C242.8 201.7 225.9 235.8 228 269.9" stroke="black" stroke-width="1.3817" stroke-miterlimit="10" stroke-linecap="round" stroke-linejoin="round"/>
<path d="M193 201.7C193 201.7 209.9 235.8 207.8 269.9" stroke="black" stroke-width="1.3817" stroke-miterlimit="10" stroke-linecap="round" stroke-linejoin="round"/>
<path d="M227.1 330.3H220V335.4C220 337.4 221.6 339 223.6 339C225.6 339 227.2 337.4 227.2 335.4V330.3H227.1Z" fill="#FFAA00" stroke="black" stroke-width="1.3817" stroke-miterlimit="10" stroke-linecap="round" stroke-linejoin="round"/>
<path d="M208.7 330.3V335.4C208.7 337.4 210.3 339 212.3 339C214.3 339 215.9 337.4 215.9 335.4V330.3H208.7Z" fill="#FFAA00" stroke="black" stroke-width="1.3817" stroke-miterlimit="10" stroke-linecap="round" stroke-linejoin="round"/>
<path d="M210.1 272.2H225.7C226.9 272.2 228 271.2 228 269.9C228 268.7 227 267.6 225.7 267.6H210.1C208.9 267.6 207.8 268.6 207.8 269.9C207.8 271.2 208.8 272.2 210.1 272.2Z" fill="#FF365D" stroke="black" stroke-width="1.3817" stroke-miterlimit="10" stroke-linecap="round" stroke-linejoin="round"/>
<path d="M194 299C195.4 300.4 197.7 300.4 199.1 299L201.5 296.7L212.3 286L207.3 280.9L196.5 291.6L194.2 293.9C192.6 295.4 192.6 297.6 194 299Z" fill="#FF4166"/>
<path d="M194 299C195.4 300.4 197.7 300.4 199.1 299L201.5 296.7L196.4 291.6L194.1 293.9C192.6 295.4 192.6 297.6 194 299Z" fill="#FFAA00" stroke="black" stroke-width="1.3817" stroke-miterlimit="10" stroke-linecap="round" stroke-linejoin="round"/>
<path d="M206.9 281.3L196.4 291.6L194.1 293.9C192.7 295.3 192.7 297.6 194.1 299C195.5 300.4 197.8 300.4 199.2 299L201.6 296.7L206.1 292.2" stroke="black" stroke-width="1.3817" stroke-miterlimit="10" stroke-linecap="round" stroke-linejoin="round"/>
<path d="M241.8 299C240.4 300.4 238.1 300.4 236.7 299L234.3 296.7L223.5 286L228.5 280.9L239.3 291.6L241.6 293.9C243.2 295.4 243.2 297.6 241.8 299Z" fill="#FF4166"/>
<path d="M241.8 299C240.4 300.4 238.1 300.4 236.7 299L234.3 296.7L239.4 291.6L241.7 293.9C243.2 295.4 243.2 297.6 241.8 299Z" fill="#FFAA00" stroke="black" stroke-width="1.3817" stroke-miterlimit="10" stroke-linecap="round" stroke-linejoin="round"/>
<path d="M228.9 281.3L239.4 291.6L241.7 293.9C243.1 295.3 243.1 297.6 241.7 299C240.3 300.4 238 300.4 236.6 299L234.2 296.7L229.7 292.2" stroke="black" stroke-width="1.3817" stroke-miterlimit="10" stroke-linecap="round" stroke-linejoin="round"/>
<path d="M225 200.3H212.6" stroke="black" stroke-width="1.3817" stroke-miterlimit="10" stroke-linecap="round" stroke-linejoin="round"/>
<path d="M206 227.3C207.5 233 209.1 239.9 210.1 247.5" stroke="white" stroke-width="1.3817" stroke-miterlimit="10" stroke-linecap="round" stroke-linejoin="round"/>
<path d="M200.5 210.8C200.5 210.8 203.2 217.2 206 227.3" stroke="white" stroke-width="1.3817" stroke-miterlimit="10" stroke-linecap="round" stroke-linejoin="round" stroke-dasharray="2.42 2.42"/>
<path d="M204 175.5C204.939 175.5 205.7 174.739 205.7 173.8C205.7 172.861 204.939 172.1 204 172.1C203.061 172.1 202.3 172.861 202.3 173.8C202.3 174.739 203.061 175.5 204 175.5Z" fill="black"/>
<path d="M217.6 164.3C218.539 164.3 219.3 163.539 219.3 162.6C219.3 161.661 218.539 160.9 217.6 160.9C216.661 160.9 215.9 161.661 215.9 162.6C215.9 163.539 216.661 164.3 217.6 164.3Z" fill="black"/>
<path d="M207.7 167.9C208.639 167.9 209.4 167.139 209.4 166.2C209.4 165.261 208.639 164.5 207.7 164.5C206.761 164.5 206 165.261 206 166.2C206 167.139 206.761 167.9 207.7 167.9Z" fill="black"/>
<path d="M218.7 301.3C222.456 301.3 225.5 298.256 225.5 294.5C225.5 290.745 222.456 287.7 218.7 287.7C214.944 287.7 211.9 290.745 211.9 294.5C211.9 298.256 214.944 301.3 218.7 301.3Z" fill="#FFAA00" stroke="black" stroke-width="1.3817" stroke-miterlimit="10" stroke-linecap="round" stroke-linejoin="round"/>
<path d="M218.7 304.9H208.1" stroke="black" stroke-width="1.3817" stroke-miterlimit="10" stroke-linecap="round" stroke-linejoin="round"/>
<path d="M218.7 308.8H208.1" stroke="black" stroke-width="1.3817" stroke-miterlimit="10" stroke-linecap="round" stroke-linejoin="round" stroke-dasharray="2.42 2.42"/>
<path d="M218.7 298.7C221.02 298.7 222.9 296.82 222.9 294.5C222.9 292.18 221.02 290.3 218.7 290.3C216.38 290.3 214.5 292.18 214.5 294.5C214.5 296.82 216.38 298.7 218.7 298.7Z" stroke="black" stroke-width="1.3817" stroke-miterlimit="10" stroke-linecap="round" stroke-linejoin="round" stroke-dasharray="2.42 2.42"/>
<path d="M232 312.8H203.8" stroke="black" stroke-width="1.3817" stroke-miterlimit="10" stroke-linecap="round" stroke-linejoin="round"/>
<path d="M217.4 172.4C217.3 169 217.1 165.8 212.1 163.7C211.2 163.3 210.1 163.5 209.3 163.9C208.5 164.4 207.8 165.2 207.6 166.2" stroke="black" stroke-width="1.3817" stroke-miterlimit="10" stroke-linecap="round" stroke-linejoin="round"/>
<path d="M221.9 173.1C222.1 171.6 222.2 170 222.2 168.5C222.2 167.2 222.2 165.9 221.5 164.8C220.7 163.4 219.1 162.6 217.5 162.8" stroke="black" stroke-width="1.3817" stroke-miterlimit="10" stroke-linecap="round" stroke-linejoin="round"/>
<path d="M213.6 172.8C212.5 170.8 209.9 170.3 207.6 170.5C205 170.6 203.9 173.3 204.1 173.9" stroke="black" stroke-width="1.3817" stroke-miterlimit="10" stroke-linecap="round" stroke-linejoin="round"/>
<path d="M66.4 298.8L49.5 334.7" stroke="black" stroke-width="1.3817" stroke-miterlimit="10" stroke-linecap="round" stroke-linejoin="round" stroke-dasharray="3.09 3.09"/>
<path d="M156.1 293.9L139.6 326.6" stroke="black" stroke-width="1.3817" stroke-miterlimit="10" stroke-linecap="round" stroke-linejoin="round" stroke-dasharray="3.09 3.09"/>
<path d="M99.2 258.4L85 287.2" stroke="black" stroke-width="1.3817" stroke-miterlimit="10" stroke-linecap="round" stroke-linejoin="round" stroke-dasharray="3.09 3.09"/>
<path d="M95 305.8C95.9389 305.8 96.7 305.039 96.7 304.1C96.7 303.161 95.9389 302.4 95 302.4C94.0611 302.4 93.3 303.161 93.3 304.1C93.3 305.039 94.0611 305.8 95 305.8Z" fill="black"/>
<path d="M119.7 329.8C120.639 329.8 121.4 329.039 121.4 328.1C121.4 327.161 120.639 326.4 119.7 326.4C118.761 326.4 118 327.161 118 328.1C118 329.039 118.761 329.8 119.7 329.8Z" fill="black"/>
<path d="M115.3 314C115.963 314 116.5 313.463 116.5 312.8C116.5 312.137 115.963 311.6 115.3 311.6C114.637 311.6 114.1 312.137 114.1 312.8C114.1 313.463 114.637 314 115.3 314Z" fill="black"/>
<path d="M110.3 300.2C110.852 300.2 111.3 299.752 111.3 299.2C111.3 298.648 110.852 298.2 110.3 298.2C109.748 298.2 109.3 298.648 109.3 299.2C109.3 299.752 109.748 300.2 110.3 300.2Z" fill="black"/>
<path d="M105.2 312.9C105.918 312.9 106.5 312.318 106.5 311.6C106.5 310.882 105.918 310.3 105.2 310.3C104.482 310.3 103.9 310.882 103.9 311.6C103.9 312.318 104.482 312.9 105.2 312.9Z" fill="black"/>
<path d="M98.6 328C99.1523 328 99.6 327.552 99.6 327C99.6 326.448 99.1523 326 98.6 326C98.0477 326 97.6 326.448 97.6 327C97.6 327.552 98.0477 328 98.6 328Z" fill="black"/>
<path d="M181.5 329.8C182.439 329.8 183.2 329.039 183.2 328.1C183.2 327.161 182.439 326.4 181.5 326.4C180.561 326.4 179.8 327.161 179.8 328.1C179.8 329.039 180.561 329.8 181.5 329.8Z" fill="black"/>
<path d="M168.9 319.7C169.839 319.7 170.6 318.939 170.6 318C170.6 317.061 169.839 316.3 168.9 316.3C167.961 316.3 167.2 317.061 167.2 318C167.2 318.939 167.961 319.7 168.9 319.7Z" fill="black"/>
<path d="M175.4 308.5C176.118 308.5 176.7 307.918 176.7 307.2C176.7 306.482 176.118 305.9 175.4 305.9C174.682 305.9 174.1 306.482 174.1 307.2C174.1 307.918 174.682 308.5 175.4 308.5Z" fill="black"/>
<path d="M166.7 293.5C167.308 293.5 167.8 293.008 167.8 292.4C167.8 291.792 167.308 291.3 166.7 291.3C166.092 291.3 165.6 291.792 165.6 292.4C165.6 293.008 166.092 293.5 166.7 293.5Z" fill="black"/>
<path d="M113.4 260.5C114.063 260.5 114.6 259.963 114.6 259.3C114.6 258.637 114.063 258.1 113.4 258.1C112.737 258.1 112.2 258.637 112.2 259.3C112.2 259.963 112.737 260.5 113.4 260.5Z" fill="black"/>
<path d="M123.6 272.4C124.373 272.4 125 271.773 125 271C125 270.227 124.373 269.6 123.6 269.6C122.827 269.6 122.2 270.227 122.2 271C122.2 271.773 122.827 272.4 123.6 272.4Z" fill="black"/>
<path d="M114.1 286.5C114.928 286.5 115.6 285.828 115.6 285C115.6 284.172 114.928 283.5 114.1 283.5C113.272 283.5 112.6 284.172 112.6 285C112.6 285.828 113.272 286.5 114.1 286.5Z" fill="black"/>
<path d="M128 298.8C128.718 298.8 129.3 298.218 129.3 297.5C129.3 296.782 128.718 296.2 128 296.2C127.282 296.2 126.7 296.782 126.7 297.5C126.7 298.218 127.282 298.8 128 298.8Z" fill="black"/>
<path d="M137.6 302.4C138.539 302.4 139.3 301.639 139.3 300.7C139.3 299.761 138.539 299 137.6 299C136.661 299 135.9 299.761 135.9 300.7C135.9 301.639 136.661 302.4 137.6 302.4Z" fill="black"/>
<path d="M108.9 109.4C108.9 112 104.3 134.2 104.3 134.2C104.3 134.2 99.7 112 99.7 109.4C99.7 106.8 101.8 104.8 104.3 104.8C106.8 104.8 108.9 106.8 108.9 109.4Z" fill="#FF4166" stroke="black" stroke-width="1.3817" stroke-miterlimit="10" stroke-linecap="round" stroke-linejoin="round"/>
<path d="M106.9 107.4C106.9 108.9 104.2 121.8 104.2 121.8C104.2 121.8 101.5 108.9 101.5 107.4C101.5 105.9 102.7 104.7 104.2 104.7C105.7 104.8 106.9 106 106.9 107.4Z" fill="#FFF429" stroke="black" stroke-width="1.3817" stroke-miterlimit="10" stroke-linecap="round" stroke-linejoin="round"/>
<path d="M74.8 134.1C74.8 138.9 66.1 180.5 66.1 180.5C66.1 180.5 57.4 138.9 57.4 134.1C57.4 129.3 61.3 125.4 66.1 125.4C70.9 125.4 74.8 129.4 74.8 134.1Z" fill="#FF4166" stroke="black" stroke-width="1.3817" stroke-miterlimit="10" stroke-linecap="round" stroke-linejoin="round"/>
<path d="M72.4 131.7C72.4 135.1 66.2 164.8 66.2 164.8C66.2 164.8 60 135.1 60 131.7C60 128.3 62.8 125.5 66.2 125.5C69.6 125.5 72.4 128.2 72.4 131.7Z" fill="#FFF429" stroke="black" stroke-width="1.3817" stroke-miterlimit="10" stroke-linecap="round" stroke-linejoin="round"/>
<path d="M69.9 129.2C69.9 131.2 66.2 149 66.2 149C66.2 149 62.5 131.2 62.5 129.2C62.5 127.2 64.2 125.5 66.2 125.5C68.2 125.5 69.9 127.1 69.9 129.2Z" fill="white" stroke="black" stroke-width="1.3817" stroke-miterlimit="10" stroke-linecap="round" stroke-linejoin="round"/>
<path d="M32 109.4C32 112 27.4 134.2 27.4 134.2C27.4 134.2 22.8 112 22.8 109.4C22.8 106.8 24.9 104.8 27.4 104.8C29.9 104.8 32 106.8 32 109.4Z" fill="#FF4166" stroke="black" stroke-width="1.3817" stroke-miterlimit="10" stroke-linecap="round" stroke-linejoin="round"/>
<path d="M30.1 107.4C30.1 108.9 27.4 121.8 27.4 121.8C27.4 121.8 24.7 108.9 24.7 107.4C24.7 105.9 25.9 104.7 27.4 104.7C28.9 104.7 30.1 106 30.1 107.4Z" fill="#FFF429" stroke="black" stroke-width="1.3817" stroke-miterlimit="10" stroke-linecap="round" stroke-linejoin="round"/>
<path d="M98.4522 98.9132L109.952 98.9132L109.952 85.4132L98.4522 85.4132L98.4522 98.9132Z" fill="white" stroke="black" stroke-width="1.3817" stroke-miterlimit="10" stroke-linecap="round" stroke-linejoin="round"/>
<path d="M98.5 98.9L97.2 100.9H111.4L110 98.9H98.5Z" fill="white" stroke="black" stroke-width="1.3817" stroke-miterlimit="10" stroke-linecap="round" stroke-linejoin="round"/>
<path d="M97.2872 106.62L111.387 106.62L111.387 100.82L97.2872 100.82L97.2872 106.62Z" fill="white" stroke="black" stroke-width="1.3817" stroke-miterlimit="10" stroke-linecap="round" stroke-linejoin="round"/>
<path d="M55.2132 116.599L77.0132 116.599L77.0132 90.8986L55.2132 90.8986L55.2132 116.599Z" fill="white" stroke="black" stroke-width="1.3817" stroke-miterlimit="10" stroke-linecap="round" stroke-linejoin="round"/>
<path d="M55.1 116.6L52.8 120.3H79.6L77 116.6H55.1Z" fill="white" stroke="black" stroke-width="1.3817" stroke-miterlimit="10" stroke-linecap="round" stroke-linejoin="round"/>
<path d="M52.7699 128.285L79.5699 128.285L79.5699 120.285L52.7699 120.285L52.7699 128.285Z" fill="white" stroke="black" stroke-width="1.3817" stroke-miterlimit="10" stroke-linecap="round" stroke-linejoin="round"/>
<path d="M33.2 85.4H21.7V98.9H33.2V85.4Z" fill="white" stroke="black" stroke-width="1.3817" stroke-miterlimit="10" stroke-linecap="round" stroke-linejoin="round"/>
<path d="M110 49.2L92.7 40.9V37.2C92.7 22.6 80.9 10.7 66.2 10.7C51.6 10.7 39.7 22.5 39.7 37.2V40.9L22.4 49.2C21.7 49.6 21.5 50.5 22.1 51.1L24.8 53.7C25.9 54.8 27.4 55.5 28.9 55.8L39.7 57.9V95C39.7 98.8 42.7 101.8 46.5 101.8H85.8C89.6 101.8 92.6 98.8 92.6 95V57.9L103.4 55.8C105 55.5 106.4 54.8 107.5 53.7L110.2 51.1C110.9 50.5 110.7 49.6 110 49.2Z" fill="white" stroke="black" stroke-width="1.3817" stroke-miterlimit="10" stroke-linecap="round" stroke-linejoin="round"/>
<path d="M44.5 104.5V37.5C44.5 25.6 53.9 15.7 65.8 15.5C77.9 15.3 87.8 25.1 87.8 37.1V104.4C87.8 109.2 83.9 113 79.2 113H53.1C48.4 113.1 44.5 109.2 44.5 104.5Z" fill="#FFAA00" stroke="black" stroke-width="1.3817" stroke-miterlimit="10" stroke-linecap="round" stroke-linejoin="round"/>
<path d="M82 37.2V50.6C82 53.7 79.4 56.3 76.3 56.3H56.1C53 56.3 50.4 53.7 50.4 50.6V37.5C50.4 28.8 57.4 21.5 65.9 21.4H66.1C74.9 21.4 82 28.4 82 37.2Z" fill="#545454" stroke="black" stroke-width="1.3817" stroke-miterlimit="10" stroke-linecap="round" stroke-linejoin="round"/>
<path d="M54.6 34.5C55.9 29.2 60.5 25.3 66 25.2" stroke="white" stroke-width="1.3817" stroke-miterlimit="10" stroke-linecap="round" stroke-linejoin="round" stroke-dasharray="2.42 2.42"/>
<path d="M54.2 50.5V37.5C54.2 36.5 54.3 35.5 54.6 34.5" stroke="white" stroke-width="1.3817" stroke-miterlimit="10" stroke-linecap="round" stroke-linejoin="round"/>
<path d="M47.7 96.6H11.9C10.5 96.6 9.40002 95.2 9.80002 93.8L11.2 88.5C12.9 81.8 17.5 76.2 23.6 73.1L47.7 60.8V96.6Z" fill="#FFAA00" stroke="black" stroke-width="1.3817" stroke-miterlimit="10" stroke-linecap="round" stroke-linejoin="round"/>
<path d="M25.3 76.5L43.9 67" stroke="white" stroke-width="1.3817" stroke-miterlimit="10" stroke-linecap="round" stroke-linejoin="round" stroke-dasharray="2.42 2.42"/>
<path d="M14.8 89.5C16.3 83.9 20.1 79.1 25.2 76.5" stroke="white" stroke-width="1.3817" stroke-miterlimit="10" stroke-linecap="round" stroke-linejoin="round"/>
<path d="M84.7 96.6H120.5C121.9 96.6 123 95.2 122.6 93.8L121.2 88.5C119.5 81.8 114.9 76.2 108.8 73.1L84.7 60.9V96.6Z" fill="#FFAA00" stroke="black" stroke-width="1.3817" stroke-miterlimit="10" stroke-linecap="round" stroke-linejoin="round"/>
<path d="M33.2 98.9L34.5 100.9H20.3L21.7 98.9H33.2Z" fill="white" stroke="black" stroke-width="1.3817" stroke-miterlimit="10" stroke-linecap="round" stroke-linejoin="round"/>
<path d="M34.4 100.9H20.3V106.7H34.4V100.9Z" fill="white" stroke="black" stroke-width="1.3817" stroke-miterlimit="10" stroke-linecap="round" stroke-linejoin="round"/>
<path d="M77.4 78.7H55C54 78.7 53.1 77.9 53.1 76.8V66.2C53.1 65.2 53.9 64.3 55 64.3H77.4C78.4 64.3 79.3 65.1 79.3 66.2V76.9C79.2 77.9 78.4 78.7 77.4 78.7Z" fill="#FF4166" stroke="black" stroke-width="1.3817" stroke-miterlimit="10" stroke-linecap="round" stroke-linejoin="round"/>
<path d="M77.4 102.4H72.7C71.7 102.4 70.8 101.6 70.8 100.5V83.4C70.8 82.4 71.6 81.5 72.7 81.5H77.4C78.4 81.5 79.3 82.3 79.3 83.4V100.5C79.2 101.6 78.4 102.4 77.4 102.4Z" fill="#FF4166" stroke="black" stroke-width="1.3817" stroke-miterlimit="10" stroke-linecap="round" stroke-linejoin="round"/>
<path d="M59.7 102.4H55C54 102.4 53.1 101.6 53.1 100.5V83.4C53.1 82.4 53.9 81.5 55 81.5H59.7C60.7 81.5 61.6 82.3 61.6 83.4V100.5C61.5 101.6 60.7 102.4 59.7 102.4Z" fill="#FF4166" stroke="black" stroke-width="1.3817" stroke-miterlimit="10" stroke-linecap="round" stroke-linejoin="round"/>
<path d="M68.3 81.6V109.4" stroke="black" stroke-width="1.3817" stroke-miterlimit="10" stroke-linecap="round" stroke-linejoin="round"/>
<path d="M66.2 81.6V109.4" stroke="black" stroke-width="1.3817" stroke-miterlimit="10" stroke-linecap="round" stroke-linejoin="round"/>
<path d="M64 81.6V109.4" stroke="black" stroke-width="1.3817" stroke-miterlimit="10" stroke-linecap="round" stroke-linejoin="round"/>
</svg>
