<svg width="344" height="560" viewBox="0 0 344 560" fill="none" xmlns="http://www.w3.org/2000/svg">
<path d="M324.2 138.5C313.4 148.7 298.8 154.9 282.8 154.9C261.9 154.9 243.4 144.2 232.6 128.1C235.3 124.6 240.7 120.2 244.3 119.9C255.4 118.9 263.6 131.7 274.7 132.6C282.5 133.2 289.5 127.9 297.1 126.2C306.6 124.1 318.4 130.4 324.2 138.5Z" fill="#C273FF" stroke="black" stroke-width="1.3817" stroke-miterlimit="10" stroke-linecap="round" stroke-linejoin="round"/>
<path d="M343.1 94.6C343.1 111.9 335.8 127.5 324.1 138.5C318.4 130.4 306.5 124.1 297 126.2C289.4 127.9 282.4 133.2 274.6 132.6C263.5 131.7 255.3 118.9 244.2 119.9C240.6 120.2 235.2 124.6 232.5 128.1C226.4 119 222.7 108.1 222.4 96.5C225.6 92.8 231.8 89.7 235.7 90.3C240.9 91.1 245.3 94.2 249.7 97C254.1 99.8 259 102.4 264.2 101.9C273.6 101 279.9 90.4 289.4 89.6C294.8 89.1 299.8 92 304.9 93.5C316.8 97.1 332.8 90.4 341.6 81C342.6 85.4 343.1 90 343.1 94.6Z" fill="#9539FF" stroke="black" stroke-width="1.3817" stroke-miterlimit="10" stroke-linecap="round" stroke-linejoin="round"/>
<path d="M341.6 81.1C332.8 90.5 316.9 97.2 304.9 93.6C299.7 92 294.7 89.2 289.4 89.7C280 90.5 273.6 101.2 264.2 102C259 102.5 254.1 99.9 249.7 97.1C245.3 94.3 240.9 91.2 235.7 90.4C231.8 89.8 225.7 92.8 222.4 96.6C222.4 96 222.4 95.3 222.4 94.7C222.4 84.6 224.9 75.2 229.2 66.8C233.4 64.1 239.4 62.6 243.4 63.3C250.1 64.4 255.8 69.9 262.6 69.6C269.6 69.3 274.7 63 281.3 60.7C286.3 59 291.9 59.7 297.1 60.8C302.3 61.8 307.7 63.1 313 62.4C317.5 61.8 322.9 56.7 325.3 52C333.2 59.7 339 69.8 341.6 81.1Z" fill="#F9ABFF" stroke="black" stroke-width="1.3817" stroke-miterlimit="10" stroke-linecap="round" stroke-linejoin="round"/>
<path d="M325.3 51.8C322.9 56.5 317.5 61.6 313 62.2C307.7 62.9 302.4 61.7 297.1 60.6C291.9 59.6 286.3 58.8 281.3 60.5C274.7 62.8 269.5 69.1 262.6 69.4C255.8 69.7 250.1 64.2 243.4 63.1C239.3 62.4 233.4 64 229.2 66.6C234.5 56.4 242.6 47.9 252.6 42.2C253.6 45 255.9 48.3 257.6 48.8C260 49.5 262.6 48.9 265 48C267.4 47.1 269.6 45.9 272.1 45.5C275.2 44.9 278.3 45.5 281.4 45.8C284.5 46 287.9 45.9 290.4 44.1C292.3 42.7 293.1 38.2 292.5 35C305.2 37.1 316.6 43.1 325.3 51.8Z" fill="#1ACFFF" stroke="black" stroke-width="1.3817" stroke-miterlimit="10" stroke-linecap="round" stroke-linejoin="round"/>
<path d="M290.4 44.2C287.9 46 284.5 46.1 281.4 45.9C278.3 45.7 275.2 45.1 272.1 45.6C269.6 46.1 267.3 47.2 265 48.1C262.6 49 260 49.6 257.6 48.9C255.9 48.4 253.5 45 252.6 42.3C261.5 37.2 271.8 34.2 282.8 34.2C286.1 34.2 289.4 34.5 292.6 35C293.1 38.2 292.4 42.8 290.4 44.2Z" fill="#9539FF" stroke="black" stroke-width="1.3817" stroke-miterlimit="10" stroke-linecap="round" stroke-linejoin="round"/>
<path d="M289.6 116.1C292.803 116.1 295.4 113.503 295.4 110.3C295.4 107.097 292.803 104.5 289.6 104.5C286.397 104.5 283.8 107.097 283.8 110.3C283.8 113.503 286.397 116.1 289.6 116.1Z" stroke="black" stroke-width="1.3817" stroke-miterlimit="10" stroke-linecap="round" stroke-linejoin="round"/>
<path d="M314.5 79.9C316.764 79.9 318.6 78.0644 318.6 75.8C318.6 73.5357 316.764 71.7 314.5 71.7C312.236 71.7 310.4 73.5357 310.4 75.8C310.4 78.0644 312.236 79.9 314.5 79.9Z" stroke="black" stroke-width="0.977" stroke-miterlimit="10" stroke-linecap="round" stroke-linejoin="round"/>
<path d="M301.3 110.3C301.3 116.8 296 122.1 289.5 122.1C285.1 122.1 281.3 119.7 279.3 116.1" stroke="black" stroke-width="1.3817" stroke-miterlimit="10" stroke-linecap="round" stroke-linejoin="round" stroke-dasharray="1.62 1.62"/>
<path d="M279.3 116.1C278.3 114.4 277.8 112.4 277.8 110.3C277.8 103.8 283.1 98.5 289.6 98.5C296.1 98.5 301.4 103.8 301.4 110.3" stroke="black" stroke-width="1.3817" stroke-miterlimit="10" stroke-linecap="round" stroke-linejoin="round"/>
<path d="M224.4 80.5C228.7 76.6 235.6 75.9 240.7 78.7C244.5 80.8 247.1 84.5 250.9 86.6C255.2 89.1 260.9 89.1 265.2 86.6C268.3 84.9 270.6 82.1 273.4 79.9C276.2 77.7 279.8 76 283.2 77.1" stroke="black" stroke-width="1.3817" stroke-miterlimit="10" stroke-linecap="round" stroke-linejoin="round" stroke-dasharray="3.8 3.8"/>
<path d="M343.3 97C340 101.3 335.5 104.6 330.4 106.2C325.3 107.9 319.7 108 314.5 106.5" stroke="black" stroke-width="1.3817" stroke-miterlimit="10" stroke-linecap="round" stroke-linejoin="round" stroke-dasharray="3.8 3.8"/>
<path d="M243.6 140.4C246.9 137.1 252.3 136.2 256.5 138.1C258.6 139.1 260.4 140.7 262.3 142C267.4 145.3 274 146.1 279.8 144.2" stroke="black" stroke-width="1.3817" stroke-miterlimit="10" stroke-linecap="round" stroke-linejoin="round" stroke-dasharray="3.8 3.8"/>
<path d="M304.5 38.4C306.6 40.7 306.4 44.4 304.6 46.9C302.8 49.4 299.7 50.7 296.7 51.1C293.7 51.5 290.6 51.1 287.5 50.8C284.4 50.5 281.3 50.2 278.3 50.8C275.1 51.5 272.1 53.2 269.9 55.7" stroke="black" stroke-width="1.3817" stroke-miterlimit="10" stroke-linecap="round" stroke-linejoin="round" stroke-dasharray="3.8 3.8"/>
<path d="M62.4 88.6C74.2189 88.6 83.8 79.0189 83.8 67.2C83.8 55.3811 74.2189 45.8 62.4 45.8C50.5811 45.8 41 55.3811 41 67.2C41 79.0189 50.5811 88.6 62.4 88.6Z" fill="white" stroke="black" stroke-width="1.3817" stroke-miterlimit="10" stroke-linecap="round" stroke-linejoin="round"/>
<path d="M249.8 181.7C249.8 199.1 235.7 213.2 218.3 213.2C200.9 213.2 186.8 199.1 186.8 181.7C186.8 178.8 187.2 175.9 188 173.2C189.5 167.9 192.3 163.2 196 159.5C201.7 153.8 209.6 150.2 218.4 150.2C235.7 150.2 249.8 164.3 249.8 181.7Z" fill="#F9ABFF" stroke="black" stroke-width="1.3817" stroke-miterlimit="10" stroke-linecap="round" stroke-linejoin="round"/>
<path d="M236.3 180C240 180 243 177 243 173.3C243 169.6 240 166.6 236.3 166.6C232.6 166.6 229.6 169.6 229.6 173.3C229.6 177 232.6 180 236.3 180Z" fill="#0F9CBC" stroke="black" stroke-width="1.3817" stroke-miterlimit="10" stroke-linecap="round" stroke-linejoin="round"/>
<path d="M197.8 164.8C197.8 169.5 194 173.3 189.3 173.3C188.8 173.3 188.4 173.3 188 173.2C189.5 167.9 192.3 163.2 196 159.5C197.1 160.9 197.8 162.8 197.8 164.8Z" fill="#0F9CBC" stroke="black" stroke-width="1.3817" stroke-miterlimit="10" stroke-linecap="round" stroke-linejoin="round"/>
<path d="M209.9 202.8C213.048 202.8 215.6 200.248 215.6 197.1C215.6 193.952 213.048 191.4 209.9 191.4C206.752 191.4 204.2 193.952 204.2 197.1C204.2 200.248 206.752 202.8 209.9 202.8Z" fill="#0F9CBC" stroke="black" stroke-width="1.3817" stroke-miterlimit="10" stroke-linecap="round" stroke-linejoin="round"/>
<path d="M226.7 161.5C228.025 161.5 229.1 160.426 229.1 159.1C229.1 157.775 228.025 156.7 226.7 156.7C225.374 156.7 224.3 157.775 224.3 159.1C224.3 160.426 225.374 161.5 226.7 161.5Z" fill="#0F9CBC" stroke="black" stroke-width="1.3817" stroke-miterlimit="10" stroke-linecap="round" stroke-linejoin="round"/>
<path d="M231.1 189.6C232.702 189.6 234 188.302 234 186.7C234 185.098 232.702 183.8 231.1 183.8C229.498 183.8 228.2 185.098 228.2 186.7C228.2 188.302 229.498 189.6 231.1 189.6Z" fill="#0F9CBC" stroke="black" stroke-width="1.3817" stroke-miterlimit="10" stroke-linecap="round" stroke-linejoin="round"/>
<path d="M242 192.5C243.823 192.5 245.3 191.023 245.3 189.2C245.3 187.377 243.823 185.9 242 185.9C240.177 185.9 238.7 187.377 238.7 189.2C238.7 191.023 240.177 192.5 242 192.5Z" fill="#0F9CBC" stroke="black" stroke-width="1.3817" stroke-miterlimit="10" stroke-linecap="round" stroke-linejoin="round"/>
<path d="M193.1 181.7C194.315 181.7 195.3 180.715 195.3 179.5C195.3 178.285 194.315 177.3 193.1 177.3C191.885 177.3 190.9 178.285 190.9 179.5C190.9 180.715 191.885 181.7 193.1 181.7Z" fill="#0F9CBC" stroke="black" stroke-width="1.3817" stroke-miterlimit="10" stroke-linecap="round" stroke-linejoin="round"/>
<path d="M222.6 179C223.925 179 225 177.926 225 176.6C225 175.275 223.925 174.2 222.6 174.2C221.275 174.2 220.2 175.275 220.2 176.6C220.2 177.926 221.275 179 222.6 179Z" fill="#0F9CBC" stroke="black" stroke-width="1.3817" stroke-miterlimit="10" stroke-linecap="round" stroke-linejoin="round"/>
<path d="M196.4 195.7C197.505 195.7 198.4 194.805 198.4 193.7C198.4 192.595 197.505 191.7 196.4 191.7C195.295 191.7 194.4 192.595 194.4 193.7C194.4 194.805 195.295 195.7 196.4 195.7Z" fill="#0F9CBC" stroke="black" stroke-width="1.3817" stroke-miterlimit="10" stroke-linecap="round" stroke-linejoin="round"/>
<path d="M233.6 169.3C234.4 168.8 235.3 168.5 236.3 168.5C239 168.5 241.1 170.7 241.1 173.3C241.1 176 238.9 178.1 236.3 178.1C235.5 178.1 234.7 177.9 234.1 177.6" stroke="black" stroke-width="1.3817" stroke-miterlimit="10" stroke-linecap="round" stroke-linejoin="round" stroke-dasharray="3.11 3.11"/>
<path d="M194.4 93L200.4 96.3" stroke="white" stroke-width="1.3817" stroke-miterlimit="10" stroke-linecap="round" stroke-linejoin="round"/>
<path d="M195.8 97.7L199.1 91.7" stroke="white" stroke-width="1.3817" stroke-miterlimit="10" stroke-linecap="round" stroke-linejoin="round"/>
<path d="M0.699997 87L6.7 90.3" stroke="white" stroke-width="1.3817" stroke-miterlimit="10" stroke-linecap="round" stroke-linejoin="round"/>
<path d="M2.09999 91.7L5.29999 85.7" stroke="white" stroke-width="1.3817" stroke-miterlimit="10" stroke-linecap="round" stroke-linejoin="round"/>
<path d="M141.5 45.4L147.4 48.8" stroke="white" stroke-width="1.3817" stroke-miterlimit="10" stroke-linecap="round" stroke-linejoin="round"/>
<path d="M142.8 50.1L146.2 44.1" stroke="white" stroke-width="1.3817" stroke-miterlimit="10" stroke-linecap="round" stroke-linejoin="round"/>
<path d="M109 189.1L114.9 192.5" stroke="white" stroke-width="1.3817" stroke-miterlimit="10" stroke-linecap="round" stroke-linejoin="round"/>
<path d="M110.3 193.8L113.7 187.8" stroke="white" stroke-width="1.3817" stroke-miterlimit="10" stroke-linecap="round" stroke-linejoin="round"/>
<path d="M98.7 26.4L105.3 24.8" stroke="white" stroke-width="1.3817" stroke-miterlimit="10" stroke-linecap="round" stroke-linejoin="round"/>
<path d="M102.8 28.9L101.2 22.3" stroke="white" stroke-width="1.3817" stroke-miterlimit="10" stroke-linecap="round" stroke-linejoin="round"/>
<path d="M308 21.5L314.8 21.4" stroke="white" stroke-width="1.3817" stroke-miterlimit="10" stroke-linecap="round" stroke-linejoin="round"/>
<path d="M311.4 24.8L311.3 18" stroke="white" stroke-width="1.3817" stroke-miterlimit="10" stroke-linecap="round" stroke-linejoin="round"/>
<path d="M210.9 42.2L216.5 38.3" stroke="white" stroke-width="1.3817" stroke-miterlimit="10" stroke-linecap="round" stroke-linejoin="round"/>
<path d="M215.7 43L211.8 37.4" stroke="white" stroke-width="1.3817" stroke-miterlimit="10" stroke-linecap="round" stroke-linejoin="round"/>
<path d="M110.3 103.9C111.128 103.9 111.8 103.228 111.8 102.4C111.8 101.572 111.128 100.9 110.3 100.9C109.472 100.9 108.8 101.572 108.8 102.4C108.8 103.228 109.472 103.9 110.3 103.9Z" fill="white"/>
<path d="M285.7 3C286.528 3 287.2 2.32843 287.2 1.5C287.2 0.671573 286.528 0 285.7 0C284.872 0 284.2 0.671573 284.2 1.5C284.2 2.32843 284.872 3 285.7 3Z" fill="white"/>
<path d="M14.5 34.7C15.3284 34.7 16 34.0284 16 33.2C16 32.3716 15.3284 31.7 14.5 31.7C13.6716 31.7 13 32.3716 13 33.2C13 34.0284 13.6716 34.7 14.5 34.7Z" fill="white"/>
<path d="M331.3 43.1C332.515 43.1 333.5 42.115 333.5 40.9C333.5 39.685 332.515 38.7 331.3 38.7C330.085 38.7 329.1 39.685 329.1 40.9C329.1 42.115 330.085 43.1 331.3 43.1Z" fill="white"/>
<path d="M324 164.5C325.325 164.5 326.4 163.426 326.4 162.1C326.4 160.775 325.325 159.7 324 159.7C322.674 159.7 321.6 160.775 321.6 162.1C321.6 163.426 322.674 164.5 324 164.5Z" fill="white"/>
<path d="M34 121.6C35.3807 121.6 36.5 120.481 36.5 119.1C36.5 117.719 35.3807 116.6 34 116.6C32.6193 116.6 31.5 117.719 31.5 119.1C31.5 120.481 32.6193 121.6 34 121.6Z" fill="white"/>
<path d="M146.2 120.1C148.409 120.1 150.2 118.309 150.2 116.1C150.2 113.891 148.409 112.1 146.2 112.1C143.991 112.1 142.2 113.891 142.2 116.1C142.2 118.309 143.991 120.1 146.2 120.1Z" fill="white"/>
<path d="M62.4 108.8C85.375 108.8 104 90.175 104 67.2C104 44.225 85.375 25.6 62.4 25.6C39.4249 25.6 20.8 44.225 20.8 67.2C20.8 90.175 39.4249 108.8 62.4 108.8Z" stroke="black" stroke-width="1.3817" stroke-miterlimit="10" stroke-linecap="round" stroke-linejoin="round" stroke-dasharray="9.33 9.33"/>
<path d="M76.2 34.7C79.7899 34.7 82.7 31.7899 82.7 28.2C82.7 24.6102 79.7899 21.7 76.2 21.7C72.6102 21.7 69.7 24.6102 69.7 28.2C69.7 31.7899 72.6102 34.7 76.2 34.7Z" fill="#9539FF" stroke="black" stroke-width="1.3817" stroke-miterlimit="10" stroke-linecap="round" stroke-linejoin="round"/>
<path d="M67.6 85.5L61.9 88.6" stroke="black" stroke-width="1.3817" stroke-miterlimit="10" stroke-linecap="round" stroke-linejoin="round"/>
<path d="M65.5 81.5L54.8 87.2" stroke="black" stroke-width="1.3817" stroke-miterlimit="10" stroke-linecap="round" stroke-linejoin="round"/>
<path d="M63.3 77.4L49.9 84.6" stroke="black" stroke-width="1.3817" stroke-miterlimit="10" stroke-linecap="round" stroke-linejoin="round"/>
<path d="M46.5 81.2L61.1 73.3" stroke="black" stroke-width="1.3817" stroke-miterlimit="10" stroke-linecap="round" stroke-linejoin="round"/>
<path d="M43.6 77.5L58.9 69.3" stroke="black" stroke-width="1.3817" stroke-miterlimit="10" stroke-linecap="round" stroke-linejoin="round"/>
<path d="M41.8 73.2L56.7 65.2" stroke="black" stroke-width="1.3817" stroke-miterlimit="10" stroke-linecap="round" stroke-linejoin="round"/>
<path d="M54.5 61.1L41 68.4" stroke="black" stroke-width="1.3817" stroke-miterlimit="10" stroke-linecap="round" stroke-linejoin="round"/>
<path d="M52.3 57L41.4 62.9" stroke="black" stroke-width="1.3817" stroke-miterlimit="10" stroke-linecap="round" stroke-linejoin="round"/>
<path d="M50.1 53L44 56.3" stroke="black" stroke-width="1.3817" stroke-miterlimit="10" stroke-linecap="round" stroke-linejoin="round"/>
<path d="M274.3 419.6H256.8V260.4C256.8 255.6 260.7 251.7 265.5 251.7C270.3 251.7 274.2 255.6 274.2 260.4V419.6H274.3Z" fill="#1ACFFF" stroke="black" stroke-width="1.3817" stroke-miterlimit="10" stroke-linecap="round" stroke-linejoin="round"/>
<path d="M286.6 410.5H278.4V217.7C278.4 215.4 280.2 213.6 282.5 213.6C284.8 213.6 286.6 215.4 286.6 217.7V410.5Z" fill="#008EAF" stroke="black" stroke-width="1.3817" stroke-miterlimit="10" stroke-linecap="round" stroke-linejoin="round"/>
<path d="M53.7 447.4H45.5V336.1C45.5 333.8 47.3 332 49.6 332C51.9 332 53.7 333.8 53.7 336.1V447.4Z" fill="#008EAF" stroke="black" stroke-width="1.3817" stroke-miterlimit="10" stroke-linecap="round" stroke-linejoin="round"/>
<path d="M165.6 528.9H157.4V336.1C157.4 333.8 159.2 332 161.5 332C163.8 332 165.6 333.8 165.6 336.1V528.9Z" fill="#008EAF" stroke="black" stroke-width="1.3817" stroke-miterlimit="10" stroke-linecap="round" stroke-linejoin="round"/>
<path d="M180.3 544.5H172.1C171.7 544.5 171.3 544.1 171.3 543.7V313.8C171.3 311.1 173.5 308.9 176.2 308.9C178.9 308.9 181.1 311.1 181.1 313.8V543.7C181.1 544.1 180.8 544.5 180.3 544.5Z" fill="#1ACFFF" stroke="black" stroke-width="1.3817" stroke-miterlimit="10" stroke-linecap="round" stroke-linejoin="round"/>
<path d="M313 442.6H267.8V297.4C267.8 284.9 277.9 274.8 290.4 274.8C302.9 274.8 313 284.9 313 297.4V442.6Z" fill="#1ACFFF" stroke="black" stroke-width="1.3817" stroke-miterlimit="10" stroke-linecap="round" stroke-linejoin="round"/>
<path d="M304.2 357.9H238.1C238.1 357.8 238.1 357.8 238.1 357.8C238.1 350.5 232.2 344.5 224.8 344.5C217.5 344.5 211.5 350.4 211.5 357.8C211.5 357.9 211.5 357.9 211.5 357.9H198.4C198.4 357.8 198.4 357.8 198.4 357.8C198.4 348.5 190.8 340.9 181.5 340.9C173.7 340.9 167.2 346.1 165.2 353.3C164.4 352.8 163.4 352.5 162.3 352.5C159.3 352.5 156.9 354.9 156.9 357.9C156.9 358 156.9 358 156.9 358H151.6C151.6 357.9 151.6 357.9 151.6 357.9C151.6 354 148.4 350.8 144.5 350.8C140.6 350.8 137.4 354 137.4 357.9C137.4 358 137.4 358 137.4 358H69.3C69.3 357.9 69.3 357.9 69.3 357.9C69.3 353.4 65.6 349.7 61.1 349.7C56.6 349.7 52.9 353.4 52.9 357.9C52.9 358 52.9 358 52.9 358.1C42.1 358.9 33.7 367.8 33.7 378.8V411H324.9V378.8C324.9 367.2 315.6 357.9 304.2 357.9Z" fill="#1ACFFF" stroke="black" stroke-width="1.3817" stroke-miterlimit="10" stroke-linecap="round" stroke-linejoin="round"/>
<path d="M64.5 502.4H294.6C290.8 507.4 286.6 512.1 282.2 516.5C258.2 540.5 225.8 556.2 189.9 558.8C139.3 562.4 93.3 539.5 64.5 502.4Z" fill="#0F9CBC" stroke="black" stroke-width="1.3817" stroke-miterlimit="10" stroke-linecap="round" stroke-linejoin="round"/>
<path d="M324.9 410.8V413.5C324.9 427.7 322.9 441.4 319.1 454.4H39.9C35.9 441.1 33.8 427 33.8 412.3V410.8H324.9Z" fill="#0F9CBC" stroke="black" stroke-width="1.3817" stroke-miterlimit="10" stroke-linecap="round" stroke-linejoin="round"/>
<path d="M319.1 454.4C314 472 305.6 488.2 294.7 502.4H64.5C53.5 488.3 45.1 472.1 39.9 454.4H319.1Z" fill="#F9ABFF" stroke="black" stroke-width="1.3817" stroke-miterlimit="10" stroke-linecap="round" stroke-linejoin="round"/>
<path d="M228.6 416.5C219.4 416.5 212 409 212 399.9V357.9H198.5V399.9C198.5 416.5 212 430 228.6 430C237.8 430 245.2 437.5 245.2 446.6V458.1C245.2 467.3 237.7 474.7 228.6 474.7H202.3C196.7 459.6 183.6 448.1 167.4 444.9V398.5C167.4 382.7 154.6 369.9 138.8 369.9H137.7V357.7H69.4V384C69.4 402.9 84.7 418.2 103.6 418.2C122.5 418.2 137.8 402.9 137.8 384V383.4H138.9C147.3 383.4 154.1 390.2 154.1 398.6V444.3C130.2 446.5 111.5 466.6 111.5 491V511.7C111.5 515.7 114.7 518.9 118.7 518.9H198C202 518.9 205.2 515.7 205.2 511.7V491C205.2 490.1 205.2 489.2 205.1 488.2H228.6C245.2 488.2 258.7 474.7 258.7 458.1V446.6C258.7 430 245.2 416.5 228.6 416.5Z" fill="#353535" stroke="black" stroke-width="1.3817" stroke-miterlimit="10" stroke-linecap="round" stroke-linejoin="round"/>
<path d="M297.9 354.9C297.7 353.7 296.6 352.8 295.4 352.8C290.9 352.8 286.4 350.7 283.1 347.2C280.4 344.3 278.7 340.7 278.1 336.8C277.7 334.3 278 331.8 278.9 329.5C280.1 325.9 280.9 322.3 280.9 319.3C280.9 308.4 272.1 299.6 261.2 299.6C250.3 299.6 241.5 308.4 241.5 319.3C241.5 322.4 242.2 326 243.5 329.5C244.3 331.8 244.6 334.4 244.3 336.8C243.7 340.8 242 344.4 239.3 347.2C236 350.7 231.6 352.7 227 352.8C225.8 352.8 224.7 353.7 224.5 354.9C224.3 356.4 225.4 357.7 226.9 357.7C232.8 357.7 238.5 355 242.8 350.6C247.3 345.9 249.7 341.1 249.7 341.2C249.3 345.8 247.2 350.1 243.6 353.1C242.7 353.9 242.4 355.3 243 356.3C243.5 357 244.3 357.4 245 357.4C245.6 357.4 246.1 357.1 246.6 356.8C251.7 353.6 254.1 347 255 345.7V355.2C255 356.5 256 357.7 257.3 357.7C258.7 357.7 259.8 356.6 259.8 355.3V347.5C260.2 347.5 260.6 347.6 261 347.6C261.4 347.6 261.8 347.6 262.2 347.5V355.2C262.2 356.5 263.2 357.7 264.5 357.7C265.9 357.7 267 356.6 267 355.3V345.7C268.8 349.1 271 353.8 275.4 356.8C275.9 357.1 276.4 357.4 277 357.4C277.7 357.4 278.4 357.1 278.8 356.5C279.7 355.5 279.5 354 278.5 353.1C274.9 350 272.7 345.7 272.4 341.1C272.4 340.9 275.8 347 279.3 350.5C283.6 354.9 289.3 357.6 295.2 357.6C297 357.6 298.1 356.3 297.9 354.9Z" fill="#9539FF" stroke="black" stroke-width="1.3817" stroke-miterlimit="10" stroke-linecap="round" stroke-linejoin="round"/>
<path d="M273.1 336C272.6 338 272.6 340.1 272.8 342.1" stroke="black" stroke-width="1.3817" stroke-miterlimit="10" stroke-linecap="round" stroke-linejoin="round"/>
<path d="M249.4 336C249.9 338 249.9 340.1 249.7 342.1" stroke="black" stroke-width="1.3817" stroke-miterlimit="10" stroke-linecap="round" stroke-linejoin="round"/>
<path d="M255.2 347.9V343.1" stroke="black" stroke-width="1.3817" stroke-miterlimit="10" stroke-linecap="round" stroke-linejoin="round"/>
<path d="M260 345.5V347.7" stroke="black" stroke-width="1.3817" stroke-miterlimit="10" stroke-linecap="round" stroke-linejoin="round"/>
<path d="M262.5 347.7V345.5" stroke="black" stroke-width="1.3817" stroke-miterlimit="10" stroke-linecap="round" stroke-linejoin="round"/>
<path d="M267.3 343.1V346.2" stroke="black" stroke-width="1.3817" stroke-miterlimit="10" stroke-linecap="round" stroke-linejoin="round"/>
<path d="M252.4 317.3C253.946 317.3 255.2 316.046 255.2 314.5C255.2 312.954 253.946 311.7 252.4 311.7C250.854 311.7 249.6 312.954 249.6 314.5C249.6 316.046 250.854 317.3 252.4 317.3Z" fill="white" stroke="black" stroke-width="1.3817" stroke-miterlimit="10" stroke-linecap="round" stroke-linejoin="round"/>
<path d="M252.4 315.5C252.952 315.5 253.4 315.052 253.4 314.5C253.4 313.948 252.952 313.5 252.4 313.5C251.848 313.5 251.4 313.948 251.4 314.5C251.4 315.052 251.848 315.5 252.4 315.5Z" fill="black"/>
<path d="M262.7 317.3C264.246 317.3 265.5 316.046 265.5 314.5C265.5 312.954 264.246 311.7 262.7 311.7C261.154 311.7 259.9 312.954 259.9 314.5C259.9 316.046 261.154 317.3 262.7 317.3Z" fill="white" stroke="black" stroke-width="1.3817" stroke-miterlimit="10" stroke-linecap="round" stroke-linejoin="round"/>
<path d="M262.7 315.5C263.252 315.5 263.7 315.052 263.7 314.5C263.7 313.948 263.252 313.5 262.7 313.5C262.148 313.5 261.7 313.948 261.7 314.5C261.7 315.052 262.148 315.5 262.7 315.5Z" fill="black"/>
<path d="M285.6 318.1C285.6 318.2 285.6 318.4 285.6 318.5C285.6 319.6 284.7 320.4 283.7 320.4H238.9C237.8 320.4 237 319.6 237 318.5C237 318.4 237 318.2 237 318.1C237 304.7 247.9 293.8 261.3 293.8C274.7 293.8 285.6 304.7 285.6 318.1Z" stroke="black" stroke-width="1.3817" stroke-miterlimit="10" stroke-linecap="round" stroke-linejoin="round"/>
<path d="M258.7 296.7C259.5 296.6 260.4 296.5 261.3 296.5C268.6 296.5 275.1 300.2 279 305.8" stroke="white" stroke-width="1.3817" stroke-miterlimit="10" stroke-linecap="round" stroke-linejoin="round"/>
<path d="M244.5 304.5C247.9 300.2 253 297.3 258.7 296.6" stroke="white" stroke-width="1.3817" stroke-miterlimit="10" stroke-linecap="round" stroke-linejoin="round" stroke-dasharray="2.42 2.42"/>
<path d="M263.8 325.9H276.3" stroke="black" stroke-width="1.3817" stroke-miterlimit="10" stroke-linecap="round" stroke-linejoin="round"/>
<path d="M271.1 311.4C271.708 311.4 272.2 310.908 272.2 310.3C272.2 309.693 271.708 309.2 271.1 309.2C270.492 309.2 270 309.693 270 310.3C270 310.908 270.492 311.4 271.1 311.4Z" fill="#F9ABFF"/>
<path d="M275.6 316.7C276.208 316.7 276.7 316.208 276.7 315.6C276.7 314.992 276.208 314.5 275.6 314.5C274.992 314.5 274.5 314.992 274.5 315.6C274.5 316.208 274.992 316.7 275.6 316.7Z" fill="#F9ABFF"/>
<path d="M272.2 318.9C272.642 318.9 273 318.542 273 318.1C273 317.658 272.642 317.3 272.2 317.3C271.758 317.3 271.4 317.658 271.4 318.1C271.4 318.542 271.758 318.9 272.2 318.9Z" fill="#F9ABFF"/>
<path d="M276.7 323.6C277.252 323.6 277.7 323.152 277.7 322.6C277.7 322.048 277.252 321.6 276.7 321.6C276.148 321.6 275.7 322.048 275.7 322.6C275.7 323.152 276.148 323.6 276.7 323.6Z" fill="#F9ABFF"/>
<path d="M268.8 333.6C269.684 333.6 270.4 332.884 270.4 332C270.4 331.116 269.684 330.4 268.8 330.4C267.916 330.4 267.2 331.116 267.2 332C267.2 332.884 267.916 333.6 268.8 333.6Z" fill="#F9ABFF"/>
<path d="M275.3 332C275.963 332 276.5 331.463 276.5 330.8C276.5 330.137 275.963 329.6 275.3 329.6C274.637 329.6 274.1 330.137 274.1 330.8C274.1 331.463 274.637 332 275.3 332Z" fill="#F9ABFF"/>
<path d="M264.7 341.2C265.749 341.2 266.6 340.349 266.6 339.3C266.6 338.251 265.749 337.4 264.7 337.4C263.651 337.4 262.8 338.251 262.8 339.3C262.8 340.349 263.651 341.2 264.7 341.2Z" fill="#F9ABFF"/>
<path d="M266.6 307C267.263 307 267.8 306.463 267.8 305.8C267.8 305.137 267.263 304.6 266.6 304.6C265.937 304.6 265.4 305.137 265.4 305.8C265.4 306.463 265.937 307 266.6 307Z" fill="#F9ABFF"/>
<path d="M275.3 311.4C275.687 311.4 276 311.087 276 310.7C276 310.313 275.687 310 275.3 310C274.913 310 274.6 310.313 274.6 310.7C274.6 311.087 274.913 311.4 275.3 311.4Z" fill="#F9ABFF"/>
<path d="M262.7 303.1C263.031 303.1 263.3 302.831 263.3 302.5C263.3 302.169 263.031 301.9 262.7 301.9C262.369 301.9 262.1 302.169 262.1 302.5C262.1 302.831 262.369 303.1 262.7 303.1Z" fill="#F9ABFF"/>
<path d="M259.1 308.1C259.376 308.1 259.6 307.876 259.6 307.6C259.6 307.324 259.376 307.1 259.1 307.1C258.824 307.1 258.6 307.324 258.6 307.6C258.6 307.876 258.824 308.1 259.1 308.1Z" fill="#F9ABFF"/>
<path d="M271.1 306.9C271.431 306.9 271.7 306.631 271.7 306.3C271.7 305.969 271.431 305.7 271.1 305.7C270.769 305.7 270.5 305.969 270.5 306.3C270.5 306.631 270.769 306.9 271.1 306.9Z" fill="#F9ABFF"/>
<path d="M263.7 309.2C263.921 309.2 264.1 309.021 264.1 308.8C264.1 308.579 263.921 308.4 263.7 308.4C263.479 308.4 263.3 308.579 263.3 308.8C263.3 309.021 263.479 309.2 263.7 309.2Z" fill="#F9ABFF"/>
<path d="M258.3 304.3C258.521 304.3 258.7 304.121 258.7 303.9C258.7 303.679 258.521 303.5 258.3 303.5C258.079 303.5 257.9 303.679 257.9 303.9C257.9 304.121 258.079 304.3 258.3 304.3Z" fill="#F9ABFF"/>
<path d="M254.4 304.1C254.731 304.1 255 303.831 255 303.5C255 303.169 254.731 302.9 254.4 302.9C254.069 302.9 253.8 303.169 253.8 303.5C253.8 303.831 254.069 304.1 254.4 304.1Z" fill="#F9ABFF"/>
<path d="M254.4 307.1C254.731 307.1 255 306.831 255 306.5C255 306.169 254.731 305.9 254.4 305.9C254.069 305.9 253.8 306.169 253.8 306.5C253.8 306.831 254.069 307.1 254.4 307.1Z" fill="#F9ABFF"/>
<path d="M250.7 306.3C251.031 306.3 251.3 306.031 251.3 305.7C251.3 305.369 251.031 305.1 250.7 305.1C250.369 305.1 250.1 305.369 250.1 305.7C250.1 306.031 250.369 306.3 250.7 306.3Z" fill="#F9ABFF"/>
<path d="M250.7 309.1C251.087 309.1 251.4 308.787 251.4 308.4C251.4 308.013 251.087 307.7 250.7 307.7C250.313 307.7 250 308.013 250 308.4C250 308.787 250.313 309.1 250.7 309.1Z" fill="#F9ABFF"/>
<path d="M276 340.6C276.718 340.6 277.3 340.018 277.3 339.3C277.3 338.582 276.718 338 276 338C275.282 338 274.7 338.582 274.7 339.3C274.7 340.018 275.282 340.6 276 340.6Z" fill="#F9ABFF"/>
<path d="M270.3 344.1C270.742 344.1 271.1 343.742 271.1 343.3C271.1 342.858 270.742 342.5 270.3 342.5C269.858 342.5 269.5 342.858 269.5 343.3C269.5 343.742 269.858 344.1 270.3 344.1Z" fill="#F9ABFF"/>
<path d="M271.8 349.8C272.021 349.8 272.2 349.621 272.2 349.4C272.2 349.179 272.021 349 271.8 349C271.579 349 271.4 349.179 271.4 349.4C271.4 349.621 271.579 349.8 271.8 349.8Z" fill="#F9ABFF"/>
<path d="M275.1 353.8C275.487 353.8 275.8 353.487 275.8 353.1C275.8 352.713 275.487 352.4 275.1 352.4C274.713 352.4 274.4 352.713 274.4 353.1C274.4 353.487 274.713 353.8 275.1 353.8Z" fill="#F9ABFF"/>
<path d="M279.5 347.7C279.831 347.7 280.1 347.431 280.1 347.1C280.1 346.769 279.831 346.5 279.5 346.5C279.169 346.5 278.9 346.769 278.9 347.1C278.9 347.431 279.169 347.7 279.5 347.7Z" fill="#F9ABFF"/>
<path d="M283.1 351C283.431 351 283.7 350.731 283.7 350.4C283.7 350.069 283.431 349.8 283.1 349.8C282.769 349.8 282.5 350.069 282.5 350.4C282.5 350.731 282.769 351 283.1 351Z" fill="#F9ABFF"/>
<path d="M123.6 516C123.8 514.8 124.9 513.9 126.1 513.9C130.6 513.9 135.1 511.8 138.4 508.3C141.1 505.4 142.8 501.8 143.4 497.9C143.8 495.4 143.5 492.9 142.6 490.6C141.4 487 140.6 483.4 140.6 480.4C140.6 469.5 149.4 460.7 160.3 460.7C171.2 460.7 180 469.5 180 480.4C180 483.5 179.3 487.1 178 490.6C177.2 492.9 176.9 495.5 177.2 497.9C177.8 501.9 179.5 505.5 182.2 508.3C185.5 511.8 189.9 513.8 194.5 513.9C195.7 513.9 196.8 514.8 197 516C197.2 517.5 196.1 518.8 194.6 518.8C188.7 518.8 183 516.1 178.7 511.7C174.2 507 171.8 502.2 171.8 502.3C172.2 506.9 174.3 511.2 177.9 514.2C178.8 515 179.1 516.4 178.5 517.4C178 518.1 177.2 518.5 176.5 518.5C175.9 518.5 175.4 518.2 174.9 517.9C169.8 514.7 167.4 508.1 166.5 506.8V516.3C166.5 517.6 165.5 518.8 164.2 518.8C162.8 518.8 161.7 517.7 161.7 516.4V508.6C161.3 508.6 160.9 508.7 160.5 508.7C160.1 508.7 159.7 508.7 159.3 508.6V516.3C159.3 517.6 158.3 518.8 157 518.8C155.6 518.8 154.5 517.7 154.5 516.4V506.8C152.7 510.2 150.5 514.9 146.1 517.9C145.6 518.2 145.1 518.5 144.5 518.5C143.8 518.5 143.1 518.2 142.7 517.6C141.8 516.6 142 515.1 143 514.2C146.6 511.1 148.8 506.8 149.1 502.2C149.1 502 145.7 508.1 142.2 511.6C137.9 516 132.2 518.7 126.3 518.7C124.5 518.8 123.4 517.5 123.6 516Z" fill="#1ACFFF" stroke="black" stroke-width="1.3817" stroke-miterlimit="10" stroke-linecap="round" stroke-linejoin="round"/>
<path d="M148.4 497.2C148.9 499.2 148.9 501.3 148.7 503.3" stroke="black" stroke-width="1.3817" stroke-miterlimit="10" stroke-linecap="round" stroke-linejoin="round"/>
<path d="M172.2 497.2C171.7 499.2 171.7 501.3 171.9 503.3" stroke="black" stroke-width="1.3817" stroke-miterlimit="10" stroke-linecap="round" stroke-linejoin="round"/>
<path d="M166.3 509.1V504.2" stroke="black" stroke-width="1.3817" stroke-miterlimit="10" stroke-linecap="round" stroke-linejoin="round"/>
<path d="M161.5 506.7V508.9" stroke="black" stroke-width="1.3817" stroke-miterlimit="10" stroke-linecap="round" stroke-linejoin="round"/>
<path d="M159 508.9V506.7" stroke="black" stroke-width="1.3817" stroke-miterlimit="10" stroke-linecap="round" stroke-linejoin="round"/>
<path d="M154.2 504.2V507.4" stroke="black" stroke-width="1.3817" stroke-miterlimit="10" stroke-linecap="round" stroke-linejoin="round"/>
<path d="M170.2 479C171.746 479 173 477.746 173 476.2C173 474.654 171.746 473.4 170.2 473.4C168.654 473.4 167.4 474.654 167.4 476.2C167.4 477.746 168.654 479 170.2 479Z" fill="white" stroke="black" stroke-width="1.3817" stroke-miterlimit="10" stroke-linecap="round" stroke-linejoin="round"/>
<path d="M170.2 477.2C170.752 477.2 171.2 476.752 171.2 476.2C171.2 475.648 170.752 475.2 170.2 475.2C169.648 475.2 169.2 475.648 169.2 476.2C169.2 476.752 169.648 477.2 170.2 477.2Z" fill="black"/>
<path d="M159.9 479C161.446 479 162.7 477.746 162.7 476.2C162.7 474.654 161.446 473.4 159.9 473.4C158.354 473.4 157.1 474.654 157.1 476.2C157.1 477.746 158.354 479 159.9 479Z" fill="white" stroke="black" stroke-width="1.3817" stroke-miterlimit="10" stroke-linecap="round" stroke-linejoin="round"/>
<path d="M159.9 477.2C160.452 477.2 160.9 476.752 160.9 476.2C160.9 475.648 160.452 475.2 159.9 475.2C159.348 475.2 158.9 475.648 158.9 476.2C158.9 476.752 159.348 477.2 159.9 477.2Z" fill="black"/>
<path d="M135.9 479.3C135.9 479.4 135.9 479.6 135.9 479.7C135.9 480.8 136.8 481.6 137.8 481.6H182.6C183.7 481.6 184.5 480.8 184.5 479.7C184.5 479.6 184.5 479.4 184.5 479.3C184.5 465.9 173.6 455 160.2 455C146.8 454.9 135.9 465.8 135.9 479.3Z" stroke="black" stroke-width="1.3817" stroke-miterlimit="10" stroke-linecap="round" stroke-linejoin="round"/>
<path d="M162.8 457.8C162 457.7 161.1 457.6 160.2 457.6C152.9 457.6 146.4 461.3 142.5 466.9" stroke="white" stroke-width="1.3817" stroke-miterlimit="10" stroke-linecap="round" stroke-linejoin="round"/>
<path d="M177 465.7C173.6 461.4 168.5 458.5 162.8 457.8" stroke="white" stroke-width="1.3817" stroke-miterlimit="10" stroke-linecap="round" stroke-linejoin="round" stroke-dasharray="2.42 2.42"/>
<path d="M175.4 486.1H170.1" stroke="black" stroke-width="1.3817" stroke-miterlimit="10" stroke-linecap="round" stroke-linejoin="round"/>
<path d="M150.4 472.6C151.007 472.6 151.5 472.108 151.5 471.5C151.5 470.893 151.007 470.4 150.4 470.4C149.792 470.4 149.3 470.893 149.3 471.5C149.3 472.108 149.792 472.6 150.4 472.6Z" fill="#0F9CBC"/>
<path d="M145.9 477.8C146.507 477.8 147 477.307 147 476.7C147 476.092 146.507 475.6 145.9 475.6C145.292 475.6 144.8 476.092 144.8 476.7C144.8 477.307 145.292 477.8 145.9 477.8Z" fill="#0F9CBC"/>
<path d="M149.4 480.1C149.842 480.1 150.2 479.742 150.2 479.3C150.2 478.858 149.842 478.5 149.4 478.5C148.958 478.5 148.6 478.858 148.6 479.3C148.6 479.742 148.958 480.1 149.4 480.1Z" fill="#0F9CBC"/>
<path d="M144.9 484.8C145.452 484.8 145.9 484.352 145.9 483.8C145.9 483.248 145.452 482.8 144.9 482.8C144.348 482.8 143.9 483.248 143.9 483.8C143.9 484.352 144.348 484.8 144.9 484.8Z" fill="#0F9CBC"/>
<path d="M152.7 494.8C153.584 494.8 154.3 494.084 154.3 493.2C154.3 492.316 153.584 491.6 152.7 491.6C151.816 491.6 151.1 492.316 151.1 493.2C151.1 494.084 151.816 494.8 152.7 494.8Z" fill="#0F9CBC"/>
<path d="M146.2 493.2C146.863 493.2 147.4 492.663 147.4 492C147.4 491.337 146.863 490.8 146.2 490.8C145.537 490.8 145 491.337 145 492C145 492.663 145.537 493.2 146.2 493.2Z" fill="#0F9CBC"/>
<path d="M156.9 502.3C157.949 502.3 158.8 501.449 158.8 500.4C158.8 499.351 157.949 498.5 156.9 498.5C155.851 498.5 155 499.351 155 500.4C155 501.449 155.851 502.3 156.9 502.3Z" fill="#0F9CBC"/>
<path d="M154.9 468.2C155.563 468.2 156.1 467.663 156.1 467C156.1 466.337 155.563 465.8 154.9 465.8C154.237 465.8 153.7 466.337 153.7 467C153.7 467.663 154.237 468.2 154.9 468.2Z" fill="#0F9CBC"/>
<path d="M146.2 472.6C146.587 472.6 146.9 472.287 146.9 471.9C146.9 471.513 146.587 471.2 146.2 471.2C145.813 471.2 145.5 471.513 145.5 471.9C145.5 472.287 145.813 472.6 146.2 472.6Z" fill="#0F9CBC"/>
<path d="M158.8 464.2C159.131 464.2 159.4 463.931 159.4 463.6C159.4 463.269 159.131 463 158.8 463C158.469 463 158.2 463.269 158.2 463.6C158.2 463.931 158.469 464.2 158.8 464.2Z" fill="#0F9CBC"/>
<path d="M162.4 469.3C162.676 469.3 162.9 469.076 162.9 468.8C162.9 468.524 162.676 468.3 162.4 468.3C162.124 468.3 161.9 468.524 161.9 468.8C161.9 469.076 162.124 469.3 162.4 469.3Z" fill="#0F9CBC"/>
<path d="M150.4 468C150.731 468 151 467.731 151 467.4C151 467.069 150.731 466.8 150.4 466.8C150.069 466.8 149.8 467.069 149.8 467.4C149.8 467.731 150.069 468 150.4 468Z" fill="#0F9CBC"/>
<path d="M157.8 470.4C158.021 470.4 158.2 470.221 158.2 470C158.2 469.779 158.021 469.6 157.8 469.6C157.579 469.6 157.4 469.779 157.4 470C157.4 470.221 157.579 470.4 157.8 470.4Z" fill="#0F9CBC"/>
<path d="M163.2 465.5C163.421 465.5 163.6 465.321 163.6 465.1C163.6 464.879 163.421 464.7 163.2 464.7C162.979 464.7 162.8 464.879 162.8 465.1C162.8 465.321 162.979 465.5 163.2 465.5Z" fill="#0F9CBC"/>
<path d="M167.1 465.3C167.431 465.3 167.7 465.031 167.7 464.7C167.7 464.369 167.431 464.1 167.1 464.1C166.769 464.1 166.5 464.369 166.5 464.7C166.5 465.031 166.769 465.3 167.1 465.3Z" fill="#0F9CBC"/>
<path d="M167.1 468.3C167.431 468.3 167.7 468.031 167.7 467.7C167.7 467.369 167.431 467.1 167.1 467.1C166.769 467.1 166.5 467.369 166.5 467.7C166.5 468.031 166.769 468.3 167.1 468.3Z" fill="#0F9CBC"/>
<path d="M170.8 467.4C171.131 467.4 171.4 467.131 171.4 466.8C171.4 466.469 171.131 466.2 170.8 466.2C170.469 466.2 170.2 466.469 170.2 466.8C170.2 467.131 170.469 467.4 170.8 467.4Z" fill="#0F9CBC"/>
<path d="M170.8 470.3C171.187 470.3 171.5 469.987 171.5 469.6C171.5 469.213 171.187 468.9 170.8 468.9C170.413 468.9 170.1 469.213 170.1 469.6C170.1 469.987 170.413 470.3 170.8 470.3Z" fill="#0F9CBC"/>
<path d="M145.5 501.7C146.218 501.7 146.8 501.118 146.8 500.4C146.8 499.682 146.218 499.1 145.5 499.1C144.782 499.1 144.2 499.682 144.2 500.4C144.2 501.118 144.782 501.7 145.5 501.7Z" fill="#0F9CBC"/>
<path d="M151.2 505.3C151.642 505.3 152 504.942 152 504.5C152 504.058 151.642 503.7 151.2 503.7C150.758 503.7 150.4 504.058 150.4 504.5C150.4 504.942 150.758 505.3 151.2 505.3Z" fill="#0F9CBC"/>
<path d="M149.7 511C149.921 511 150.1 510.821 150.1 510.6C150.1 510.379 149.921 510.2 149.7 510.2C149.479 510.2 149.3 510.379 149.3 510.6C149.3 510.821 149.479 511 149.7 511Z" fill="#0F9CBC"/>
<path d="M146.4 515C146.787 515 147.1 514.687 147.1 514.3C147.1 513.913 146.787 513.6 146.4 513.6C146.013 513.6 145.7 513.913 145.7 514.3C145.7 514.687 146.013 515 146.4 515Z" fill="#0F9CBC"/>
<path d="M142 508.9C142.331 508.9 142.6 508.631 142.6 508.3C142.6 507.969 142.331 507.7 142 507.7C141.669 507.7 141.4 507.969 141.4 508.3C141.4 508.631 141.669 508.9 142 508.9Z" fill="#0F9CBC"/>
<path d="M138.4 512.1C138.731 512.1 139 511.831 139 511.5C139 511.169 138.731 510.9 138.4 510.9C138.069 510.9 137.8 511.169 137.8 511.5C137.8 511.831 138.069 512.1 138.4 512.1Z" fill="#0F9CBC"/>
<path d="M246.6 357.9H219.3" stroke="black" stroke-width="1.3817" stroke-miterlimit="10" stroke-linecap="round" stroke-linejoin="round"/>
<path d="M324.9 383.2H238.5" stroke="black" stroke-width="1.3817" stroke-miterlimit="10" stroke-linecap="round" stroke-linejoin="round"/>
<path d="M285.1 396.8H261.3" stroke="black" stroke-width="1.3817" stroke-miterlimit="10" stroke-linecap="round" stroke-linejoin="round" stroke-dasharray="5.53 5.53"/>
<path d="M324.9 396.8H285.1" stroke="black" stroke-width="1.3817" stroke-miterlimit="10" stroke-linecap="round" stroke-linejoin="round"/>
<path d="M324.3 426.7H282.5" stroke="black" stroke-width="1.3817" stroke-miterlimit="10" stroke-linecap="round" stroke-linejoin="round"/>
<path d="M297.3 443.9H275.9" stroke="black" stroke-width="1.3817" stroke-miterlimit="10" stroke-linecap="round" stroke-linejoin="round" stroke-dasharray="5.53 5.53"/>
<path d="M321.8 443.9H297.3" stroke="black" stroke-width="1.3817" stroke-miterlimit="10" stroke-linecap="round" stroke-linejoin="round"/>
<path d="M233.4 548.7H161.5" stroke="black" stroke-width="1.3817" stroke-miterlimit="10" stroke-linecap="round" stroke-linejoin="round"/>
<path d="M246.9 528.1H209.3" stroke="black" stroke-width="1.3817" stroke-miterlimit="10" stroke-linecap="round" stroke-linejoin="round" stroke-dasharray="5.53 5.53"/>
<path d="M269.2 528.1H246.9" stroke="black" stroke-width="1.3817" stroke-miterlimit="10" stroke-linecap="round" stroke-linejoin="round"/>
<path d="M285.1 513.6H239.3" stroke="black" stroke-width="1.3817" stroke-miterlimit="10" stroke-linecap="round" stroke-linejoin="round"/>
<path d="M288.5 488.4H258.7" stroke="black" stroke-width="1.3817" stroke-miterlimit="10" stroke-linecap="round" stroke-linejoin="round" stroke-dasharray="5.53 5.53"/>
<path d="M304.2 488.4H288.5" stroke="black" stroke-width="1.3817" stroke-miterlimit="10" stroke-linecap="round" stroke-linejoin="round"/>
<path d="M313.4 470.4H274.3" stroke="black" stroke-width="1.3817" stroke-miterlimit="10" stroke-linecap="round" stroke-linejoin="round"/>
<path d="M80.4 370.3C81.3389 370.3 82.1 369.539 82.1 368.6C82.1 367.661 81.3389 366.9 80.4 366.9C79.4611 366.9 78.7 367.661 78.7 368.6C78.7 369.539 79.4611 370.3 80.4 370.3Z" fill="black"/>
<path d="M92.8 398.4C94.5673 398.4 96 396.967 96 395.2C96 393.433 94.5673 392 92.8 392C91.0327 392 89.6 393.433 89.6 395.2C89.6 396.967 91.0327 398.4 92.8 398.4Z" fill="black"/>
<path d="M116.3 403.3C117.239 403.3 118 402.539 118 401.6C118 400.661 117.239 399.9 116.3 399.9C115.361 399.9 114.6 400.661 114.6 401.6C114.6 402.539 115.361 403.3 116.3 403.3Z" fill="black"/>
<path d="M101.8 412.5C102.905 412.5 103.8 411.605 103.8 410.5C103.8 409.395 102.905 408.5 101.8 408.5C100.695 408.5 99.8 409.395 99.8 410.5C99.8 411.605 100.695 412.5 101.8 412.5Z" fill="black"/>
<path d="M121.1 381C122.425 381 123.5 379.925 123.5 378.6C123.5 377.275 122.425 376.2 121.1 376.2C119.775 376.2 118.7 377.275 118.7 378.6C118.7 379.925 119.775 381 121.1 381Z" fill="black"/>
<path d="M103.8 375.9C105.07 375.9 106.1 374.87 106.1 373.6C106.1 372.33 105.07 371.3 103.8 371.3C102.53 371.3 101.5 372.33 101.5 373.6C101.5 374.87 102.53 375.9 103.8 375.9Z" fill="black"/>
<path d="M128.5 366.4C129.384 366.4 130.1 365.684 130.1 364.8C130.1 363.916 129.384 363.2 128.5 363.2C127.616 363.2 126.9 363.916 126.9 364.8C126.9 365.684 127.616 366.4 128.5 366.4Z" fill="black"/>
<path d="M123.6 484.3C124.428 484.3 125.1 483.628 125.1 482.8C125.1 481.972 124.428 481.3 123.6 481.3C122.772 481.3 122.1 481.972 122.1 482.8C122.1 483.628 122.772 484.3 123.6 484.3Z" fill="black"/>
<path d="M186.8 468.9C187.628 468.9 188.3 468.228 188.3 467.4C188.3 466.572 187.628 465.9 186.8 465.9C185.972 465.9 185.3 466.572 185.3 467.4C185.3 468.228 185.972 468.9 186.8 468.9Z" fill="black"/>
<path d="M189.4 501.7C190.781 501.7 191.9 500.581 191.9 499.2C191.9 497.819 190.781 496.7 189.4 496.7C188.019 496.7 186.9 497.819 186.9 499.2C186.9 500.581 188.019 501.7 189.4 501.7Z" fill="black"/>
<path d="M123.6 505.3C124.705 505.3 125.6 504.405 125.6 503.3C125.6 502.195 124.705 501.3 123.6 501.3C122.495 501.3 121.6 502.195 121.6 503.3C121.6 504.405 122.495 505.3 123.6 505.3Z" fill="black"/>
<path d="M203.1 378.6C204.426 378.6 205.5 377.525 205.5 376.2C205.5 374.875 204.426 373.8 203.1 373.8C201.775 373.8 200.7 374.875 200.7 376.2C200.7 377.525 201.775 378.6 203.1 378.6Z" fill="black"/>
<path d="M209 395.3C209.773 395.3 210.4 394.673 210.4 393.9C210.4 393.127 209.773 392.5 209 392.5C208.227 392.5 207.6 393.127 207.6 393.9C207.6 394.673 208.227 395.3 209 395.3Z" fill="black"/>
<path d="M214.6 423.1C215.318 423.1 215.9 422.518 215.9 421.8C215.9 421.082 215.318 420.5 214.6 420.5C213.882 420.5 213.3 421.082 213.3 421.8C213.3 422.518 213.882 423.1 214.6 423.1Z" fill="black"/>
<path d="M252.3 440.6C253.239 440.6 254 439.839 254 438.9C254 437.961 253.239 437.2 252.3 437.2C251.361 437.2 250.6 437.961 250.6 438.9C250.6 439.839 251.361 440.6 252.3 440.6Z" fill="black"/>
<path d="M244.7 473.7C245.142 473.7 245.5 473.342 245.5 472.9C245.5 472.458 245.142 472.1 244.7 472.1C244.258 472.1 243.9 472.458 243.9 472.9C243.9 473.342 244.258 473.7 244.7 473.7Z" fill="black"/>
<path d="M158.2 432.1C159.084 432.1 159.8 431.384 159.8 430.5C159.8 429.616 159.084 428.9 158.2 428.9C157.316 428.9 156.6 429.616 156.6 430.5C156.6 431.384 157.316 432.1 158.2 432.1Z" fill="black"/>
<path d="M162 399.7C162.718 399.7 163.3 399.118 163.3 398.4C163.3 397.682 162.718 397.1 162 397.1C161.282 397.1 160.7 397.682 160.7 398.4C160.7 399.118 161.282 399.7 162 399.7Z" fill="black"/>
<path d="M56.1 438.3H83.7" stroke="black" stroke-width="1.3817" stroke-miterlimit="10" stroke-linecap="round" stroke-linejoin="round" stroke-dasharray="5.53 5.53"/>
<path d="M103.8 430.5H140.5" stroke="black" stroke-width="1.3817" stroke-miterlimit="10" stroke-linecap="round" stroke-linejoin="round" stroke-dasharray="5.53 5.53"/>
<path d="M61.5 476.7H90.7" stroke="black" stroke-width="1.3817" stroke-miterlimit="10" stroke-linecap="round" stroke-linejoin="round" stroke-dasharray="5.53 5.53"/>
<path d="M129.2 535H162.4" stroke="black" stroke-width="1.3817" stroke-miterlimit="10" stroke-linecap="round" stroke-linejoin="round" stroke-dasharray="5.53 5.53"/>
<path d="M189.4 437.2H218.3" stroke="black" stroke-width="1.3817" stroke-miterlimit="10" stroke-linecap="round" stroke-linejoin="round" stroke-dasharray="5.53 5.53"/>
<path d="M44.5 389.7H58" stroke="black" stroke-width="1.3817" stroke-miterlimit="10" stroke-linecap="round" stroke-linejoin="round" stroke-dasharray="5.53 5.53"/>
<path d="M176.2 401.6H188.3" stroke="black" stroke-width="1.3817" stroke-miterlimit="10" stroke-linecap="round" stroke-linejoin="round" stroke-dasharray="5.53 5.53"/>
<path d="M90.8931 243.493L74.7406 251.88L77.1368 256.495L93.2893 248.108L90.8931 243.493Z" fill="#4F4F4F" stroke="black" stroke-width="1.3817" stroke-miterlimit="10" stroke-linecap="round" stroke-linejoin="round"/>
<path d="M77.1 263.9H81.5C82.9 263.9 84.1 262.7 84.1 261.3V252.6C84.1 250 82 247.8 79.3 247.8C76.7 247.8 74.5 249.9 74.5 252.6V261.3C74.5 262.8 75.7 263.9 77.1 263.9Z" fill="#F9ABFF" stroke="black" stroke-width="1.3817" stroke-miterlimit="10" stroke-linecap="round" stroke-linejoin="round"/>
<path d="M109.805 243.476L107.409 248.091L123.562 256.478L125.958 251.863L109.805 243.476Z" fill="#4F4F4F" stroke="black" stroke-width="1.3817" stroke-miterlimit="10" stroke-linecap="round" stroke-linejoin="round"/>
<path d="M134.3 180.2C134.3 192.5 119.7 232.6 109.7 258.5C106.5 266.8 94.8 266.8 91.6 258.5C81.6 232.6 67 192.5 67 180.2C67 164.7 90.5 151.6 98.2 147.7C99.7 146.9 101.5 146.9 103 147.7C110.7 151.6 134.3 164.7 134.3 180.2Z" fill="#C273FF" stroke="black" stroke-width="1.3817" stroke-miterlimit="10" stroke-linecap="round" stroke-linejoin="round"/>
<path d="M123.6 178.8C123 175.3 120 171.2 114.9 167C109.8 162.8 104 159.5 100.7 157.8C97.3 159.5 91.5 162.8 86.5 167C81.4 171.3 78.4 175.3 77.8 178.8C77.8 189.3 85.3 198.1 95.2 200.1V204.8C95.2 207.3 97.2 209.3 99.7 209.3C102.2 209.3 104.2 207.3 104.2 204.8V200.4C109.4 199.9 114 197.6 117.5 194.1C121.2 190.4 123.6 185.2 123.8 179.6C123.8 179.3 123.8 179 123.8 178.8H123.6Z" fill="#1ACFFF" stroke="black" stroke-width="1.3817" stroke-miterlimit="10" stroke-linecap="round" stroke-linejoin="round"/>
<path d="M71.5 180.2C71.5 173.5 77.7 166.5 85.8 160.5" stroke="white" stroke-width="1.3817" stroke-miterlimit="10" stroke-linecap="round" stroke-linejoin="round" stroke-dasharray="4.14 4.14"/>
<path d="M87.4 234.5C77.2 206.4 71.5 187.1 71.5 180.2" stroke="white" stroke-width="1.3817" stroke-miterlimit="10" stroke-linecap="round" stroke-linejoin="round"/>
<path d="M89.7 193.4C85.1 190.3 82 185.1 81.9 179.2" stroke="white" stroke-width="1.3817" stroke-miterlimit="10" stroke-linecap="round" stroke-linejoin="round" stroke-dasharray="4.14 4.14"/>
<path d="M114.4 191.2C111.1 194.5 106.7 196.3 102 196.3H99.4C95.8 196.3 92.5 195.2 89.7 193.4" stroke="white" stroke-width="1.3817" stroke-miterlimit="10" stroke-linecap="round" stroke-linejoin="round"/>
<path d="M99.6 235.3C97.1 235.3 95.1 233.3 95.1 230.8V219.3C95.1 216.8 97.1 214.8 99.6 214.8C102.1 214.8 104.1 216.8 104.1 219.3V230.8C104.1 233.3 102.1 235.3 99.6 235.3Z" fill="#1ACFFF" stroke="black" stroke-width="1.3817" stroke-miterlimit="10" stroke-linecap="round" stroke-linejoin="round"/>
<path d="M123.6 263.9H119.2C117.8 263.9 116.6 262.7 116.6 261.3V252.6C116.6 250 118.7 247.8 121.4 247.8C124 247.8 126.2 249.9 126.2 252.6V261.3C126.2 262.8 125 263.9 123.6 263.9Z" fill="#F9ABFF" stroke="black" stroke-width="1.3817" stroke-miterlimit="10" stroke-linecap="round" stroke-linejoin="round"/>
<path d="M120 317.1V319.8" stroke="white" stroke-width="1.3817" stroke-linecap="round" stroke-linejoin="round"/>
<path d="M120 322.3V325.1" stroke="white" stroke-width="1.3817" stroke-linecap="round" stroke-linejoin="round"/>
<path d="M120 267.5V317.1" stroke="white" stroke-width="1.3817" stroke-miterlimit="10" stroke-linecap="round" stroke-linejoin="round"/>
<path d="M129.1 294.4C129.5 294.6 129.9 294.8 130.3 295" stroke="white" stroke-width="1.3817" stroke-linecap="round" stroke-linejoin="round"/>
<path d="M134 295.9C134.5 296 134.9 296 135.4 296" stroke="white" stroke-width="1.3817" stroke-linecap="round" stroke-linejoin="round"/>
<path d="M122.9 266V283.6C122.9 288.2 125.4 292.2 129.1 294.4" stroke="white" stroke-width="1.3817" stroke-miterlimit="10" stroke-linecap="round" stroke-linejoin="round"/>
<path d="M134.8 280.7C134.9 280.4 135.1 280.2 135.1 279.9" stroke="white" stroke-width="1.3817" stroke-linecap="round" stroke-linejoin="round"/>
<path d="M135.4 277.7V276.8" stroke="white" stroke-width="1.3817" stroke-linecap="round" stroke-linejoin="round"/>
<path d="M125.7 270.5V278.4C125.7 281.1 127.9 283.2 130.5 283.2C132.3 283.2 133.9 282.2 134.8 280.7" stroke="white" stroke-width="1.3817" stroke-miterlimit="10" stroke-linecap="round" stroke-linejoin="round"/>
<path d="M116 278.3C115.4 278.8 114.6 279.1 113.8 279.1C113.7 279.1 113.6 279.1 113.5 279.1" stroke="white" stroke-width="1.3817" stroke-linecap="round" stroke-linejoin="round"/>
<path d="M110.5 276.7C110.4 276.4 110.3 276 110.3 275.6V274" stroke="white" stroke-width="1.3817" stroke-linecap="round" stroke-linejoin="round"/>
<path d="M117.1 267.5V275.7C117.1 276.7 116.6 277.6 115.9 278.3" stroke="white" stroke-width="1.3817" stroke-miterlimit="10" stroke-linecap="round" stroke-linejoin="round"/>
<path d="M80.6 315.6V318.3" stroke="white" stroke-width="1.3817" stroke-linecap="round" stroke-linejoin="round"/>
<path d="M80.6 322.3V325.1" stroke="white" stroke-width="1.3817" stroke-linecap="round" stroke-linejoin="round"/>
<path d="M80.6 267.5V315.6" stroke="white" stroke-width="1.3817" stroke-miterlimit="10" stroke-linecap="round" stroke-linejoin="round"/>
<path d="M69.2 295.4C68.9 295.5 68.7 295.6 68.4 295.6" stroke="white" stroke-width="1.3817" stroke-linecap="round" stroke-linejoin="round"/>
<path d="M66.1 296C65.8 296 65.5 296 65.2 296" stroke="white" stroke-width="1.3817" stroke-linecap="round" stroke-linejoin="round"/>
<path d="M77.7 266V283.6C77.7 289.1 74.1 293.8 69.2 295.4" stroke="white" stroke-width="1.3817" stroke-miterlimit="10" stroke-linecap="round" stroke-linejoin="round"/>
<path d="M70.1 283.2C69.1 283.2 68.2 282.9 67.5 282.4" stroke="white" stroke-width="1.3817" stroke-linecap="round" stroke-linejoin="round"/>
<path d="M65.4 279.5C65.3 279.1 65.3 278.8 65.3 278.4V276.8" stroke="white" stroke-width="1.3817" stroke-linecap="round" stroke-linejoin="round"/>
<path d="M74.9 270.5V278.4C74.9 281.1 72.7 283.2 70.1 283.2" stroke="white" stroke-width="1.3817" stroke-miterlimit="10" stroke-linecap="round" stroke-linejoin="round"/>
<path d="M90 277C90.2 276.6 90.3 276.1 90.3 275.7V274" stroke="white" stroke-width="1.3817" stroke-linecap="round" stroke-linejoin="round"/>
<path d="M83.5 267.5V275.7C83.5 277.6 85 279.1 86.9 279.1C88.3 279.1 89.5 278.2 90 277" stroke="white" stroke-width="1.3817" stroke-miterlimit="10" stroke-linecap="round" stroke-linejoin="round"/>
</svg>
