<svg width="352" height="549" viewBox="0 0 352 549" fill="none" xmlns="http://www.w3.org/2000/svg">
<path d="M316.826 428.968C313.688 446.434 307.411 462.853 298.605 477.524H52.5737C43.681 462.853 37.3166 446.522 34.0909 428.968H316.826Z" fill="#1ACFFF" stroke="black" stroke-width="1.5649" stroke-miterlimit="10" stroke-linecap="round" stroke-linejoin="round"/>
<path d="M278.64 503.461C278.117 503.985 277.594 504.597 276.984 505.121C253.27 528.875 221.361 544.332 185.79 546.952C141.588 550.096 100.96 532.892 72.5387 503.461H278.64Z" fill="#FF8C1A" stroke="black" stroke-width="1.5649" stroke-miterlimit="10" stroke-linecap="round" stroke-linejoin="round"/>
<path d="M298.605 477.524H210.986C208.893 477.524 206.714 477 204.883 475.952C200.698 473.507 195.729 472.11 190.498 472.11C185.267 472.11 180.384 473.507 176.112 475.952C174.282 477 172.189 477.524 170.01 477.524H52.5737C58.2406 486.956 64.9537 495.689 72.6259 503.461H152.137C157.281 503.461 161.902 506.605 163.732 511.408C167.917 522.15 178.379 529.748 190.585 529.748C202.791 529.748 213.253 522.15 217.437 511.408C219.268 506.605 223.889 503.461 229.033 503.461H278.727C286.225 495.602 292.938 486.869 298.605 477.524Z" fill="#27FF83" stroke="black" stroke-width="1.5649" stroke-miterlimit="10" stroke-linejoin="round"/>
<path d="M31.6497 399.887V402.158C31.6497 411.327 32.5216 420.235 34.0909 428.968H63.9947C72.7131 428.968 79.6877 436.129 79.6005 444.862C79.6005 445.212 79.6005 445.474 79.6005 445.823C79.9493 458.661 90.4113 469.053 103.227 469.315C116.828 469.664 127.987 458.661 127.987 445.037C127.987 444.95 127.987 444.95 127.987 444.862C127.9 436.129 134.875 428.968 143.593 428.968H316.826C318.308 420.672 319.093 412.026 319.093 403.293V399.887H31.6497Z" fill="#FF365D" stroke="black" stroke-width="1.5649" stroke-miterlimit="10" stroke-linecap="round"/>
<path d="M123.018 279.458V350.196H63.0357L103.75 279.458H123.018Z" fill="#D2F9FF" stroke="black" stroke-width="1.5649" stroke-miterlimit="10" stroke-linecap="round" stroke-linejoin="round"/>
<path d="M70.5335 335.961V350.196H52.3993L60.6817 335.961H70.5335Z" fill="#D2F9FF" stroke="black" stroke-width="1.5649" stroke-miterlimit="10" stroke-linecap="round" stroke-linejoin="round"/>
<path d="M319.093 368.797C319.093 357.444 309.939 348.275 298.605 348.275H207.934C201.919 348.275 196.426 345.044 193.375 339.891L178.292 313.692H161.902L142.198 279.458H123.018V348.275H94.5961C90.2369 348.275 86.2265 345.917 84.0469 342.162L80.4724 335.961H70.5335V343.21C70.5335 346.004 68.2667 348.275 65.4768 348.275H52.1378C40.804 348.275 31.6497 357.444 31.6497 368.797V399.887H192.764C196.862 399.887 200.524 402.332 202.355 406.088C205.842 413.336 213.165 418.401 221.796 418.401C230.428 418.401 237.751 413.336 241.238 406.088C242.982 402.332 246.644 399.887 250.829 399.887H319.267V368.797H319.093Z" fill="white" stroke="black" stroke-width="1.5649" stroke-miterlimit="10" stroke-linecap="round" stroke-linejoin="round"/>
<path d="M149.696 129.686L140.455 155.711C139.495 158.331 139.757 161.3 141.239 163.658L146.121 171.954L144.552 193.088L171.23 191.866L165.04 157.632L153.358 153.702C151.527 153.091 150.481 151.169 150.917 149.335L156.409 126.018C156.583 125.145 155.712 124.534 154.927 124.97L151.701 126.979C150.829 127.677 150.045 128.638 149.696 129.686Z" fill="#AE31FF" stroke="black" stroke-width="1.5649" stroke-miterlimit="10" stroke-linejoin="round"/>
<path d="M190.323 129.686L199.565 155.711C200.524 158.331 200.262 161.3 198.78 163.658L193.898 171.954L195.467 193.088L168.789 191.866L174.979 157.632L186.662 153.702C188.492 153.091 189.539 151.169 189.103 149.335L183.61 126.018C183.436 125.145 184.308 124.534 185.092 124.97L188.318 126.979C189.19 127.677 189.887 128.638 190.323 129.686Z" fill="#AE31FF" stroke="black" stroke-width="1.5649" stroke-miterlimit="10" stroke-linejoin="round"/>
<path d="M180.995 151.955L195.38 157.37C197.908 158.331 197.996 161.911 195.467 162.959L183.436 168.112L180.995 151.955Z" fill="#1ACFFF" stroke="black" stroke-width="1.5649" stroke-miterlimit="10" stroke-linecap="round" stroke-linejoin="round"/>
<path d="M158.937 151.955L144.552 157.37C142.024 158.331 141.937 161.911 144.465 162.959L156.496 168.112L158.937 151.955Z" fill="#1ACFFF" stroke="black" stroke-width="1.5649" stroke-miterlimit="10" stroke-linecap="round" stroke-linejoin="round"/>
<path d="M170.01 210.554L153.881 210.991L157.891 222.257H182.128L186.139 210.991L170.01 210.554Z" fill="#1ACFFF" stroke="black" stroke-width="1.5649" stroke-miterlimit="10" stroke-linecap="round" stroke-linejoin="round"/>
<path d="M182.564 225.313H157.368C156.758 225.313 156.409 224.615 156.671 224.091L157.804 222.169H182.041L183.174 224.091C183.61 224.702 183.174 225.313 182.564 225.313Z" fill="#FFE527" stroke="black" stroke-width="1.5649" stroke-miterlimit="10" stroke-linecap="round"/>
<path d="M188.492 204.79L197.56 217.977C198.083 218.763 197.211 219.724 196.426 219.287L182.651 212.214L188.492 204.79Z" fill="#1ACFFF" stroke="black" stroke-width="1.5649" stroke-miterlimit="10" stroke-linecap="round" stroke-linejoin="round"/>
<path d="M151.44 204.79L142.373 217.977C141.849 218.763 142.721 219.724 143.506 219.287L157.281 212.214L151.44 204.79Z" fill="#1ACFFF" stroke="black" stroke-width="1.5649" stroke-miterlimit="10" stroke-linecap="round" stroke-linejoin="round"/>
<path d="M167.481 102.614L151.701 183.132C151.352 184.704 152.573 186.102 154.142 186.102H185.703C187.272 186.102 188.493 184.617 188.144 183.132L172.364 102.614C171.928 99.9063 168.092 99.9063 167.481 102.614Z" fill="#1ACFFF" stroke="black" stroke-width="1.5649" stroke-miterlimit="10" stroke-linecap="round" stroke-linejoin="round"/>
<path d="M183.174 214.484H156.845C152.224 214.484 148.475 210.729 148.475 206.1V189.071C148.475 184.442 152.224 180.687 156.845 180.687H183.174C187.795 180.687 191.544 184.442 191.544 189.071V206.1C191.544 210.642 187.795 214.484 183.174 214.484Z" fill="#1ACFFF" stroke="black" stroke-width="1.5649" stroke-miterlimit="10" stroke-linecap="round" stroke-linejoin="round"/>
<path d="M191.457 187.237L206.016 195.271C208.022 196.407 209.242 198.503 209.242 200.773V204.703C209.242 208.982 205.145 211.952 201.134 210.729L189.277 207.061C188.057 206.712 187.272 205.576 187.272 204.354V189.857C187.272 187.586 189.626 186.189 191.457 187.237Z" fill="#1ACFFF" stroke="black" stroke-width="1.5649" stroke-miterlimit="10" stroke-linecap="round" stroke-linejoin="round"/>
<path d="M208.632 197.979L217.089 215.532C217.437 216.231 217.35 217.104 216.827 217.628L213.078 221.733C212.206 222.606 210.811 222.519 210.114 221.558L202.006 210.991L208.632 197.979Z" fill="#1ACFFF" stroke="black" stroke-width="1.5649" stroke-miterlimit="10" stroke-linecap="round" stroke-linejoin="round"/>
<path d="M148.475 187.237L133.916 195.271C131.911 196.407 130.69 198.503 130.69 200.773V204.703C130.69 208.982 134.788 211.952 138.798 210.729L150.655 207.061C151.876 206.712 152.66 205.576 152.66 204.354V189.857C152.747 187.586 150.393 186.189 148.475 187.237Z" fill="#1ACFFF" stroke="black" stroke-width="1.5649" stroke-miterlimit="10" stroke-linecap="round" stroke-linejoin="round"/>
<path d="M131.387 197.979L122.931 215.532C122.582 216.231 122.669 217.104 123.192 217.628L126.941 221.733C127.813 222.606 129.208 222.519 129.905 221.558L138.013 210.991L131.387 197.979Z" fill="#1ACFFF" stroke="black" stroke-width="1.5649" stroke-miterlimit="10" stroke-linecap="round" stroke-linejoin="round"/>
<path d="M165.825 144.532L160.507 171.605C159.984 174.225 161.989 176.67 164.691 176.67H175.328C178.03 176.67 180.036 174.225 179.513 171.605L174.194 144.532C173.235 139.991 166.697 139.991 165.825 144.532Z" fill="#1ACFFF" stroke="black" stroke-width="1.5649" stroke-miterlimit="10" stroke-linecap="round" stroke-linejoin="round"/>
<path d="M180.908 206.799H178.728C177.246 206.799 176.112 205.664 176.112 204.179V189.857C176.112 188.372 177.246 187.237 178.728 187.237H180.908C182.39 187.237 183.523 188.372 183.523 189.857V204.179C183.523 205.664 182.302 206.799 180.908 206.799Z" fill="#FF365D" stroke="black" stroke-width="1.5649" stroke-miterlimit="10" stroke-linecap="round"/>
<path d="M161.291 206.799H159.112C157.63 206.799 156.496 205.664 156.496 204.179V189.857C156.496 188.372 157.63 187.237 159.112 187.237H161.291C162.773 187.237 163.907 188.372 163.907 189.857V204.179C163.907 205.664 162.773 206.799 161.291 206.799Z" fill="#FF365D" stroke="black" stroke-width="1.5649" stroke-miterlimit="10" stroke-linecap="round"/>
<path d="M166.174 185.752H173.148" stroke="black" stroke-width="1.5649" stroke-miterlimit="10" stroke-linecap="round" stroke-linejoin="round"/>
<path d="M166.348 190.294H173.235" stroke="black" stroke-width="1.5649" stroke-miterlimit="10" stroke-linecap="round" stroke-linejoin="round"/>
<path d="M166.435 194.747H173.41" stroke="black" stroke-width="1.5649" stroke-miterlimit="10" stroke-linecap="round" stroke-linejoin="round"/>
<path d="M166.609 199.289H173.497" stroke="black" stroke-width="1.5649" stroke-miterlimit="10" stroke-linecap="round" stroke-linejoin="round"/>
<path d="M166.697 203.83H173.671" stroke="black" stroke-width="1.5649" stroke-miterlimit="10" stroke-linecap="round" stroke-linejoin="round"/>
<path d="M166.784 208.284H173.759" stroke="black" stroke-width="1.5649" stroke-miterlimit="10" stroke-linecap="round" stroke-linejoin="round"/>
<path d="M165.215 130.035L160.594 154.401" stroke="white" stroke-width="1.5649" stroke-miterlimit="10" stroke-linecap="round"/>
<path d="M168.615 111.871L165.215 130.035" stroke="white" stroke-width="1.5649" stroke-miterlimit="10" stroke-linecap="round" stroke-dasharray="2.49 2.49"/>
<path d="M165.825 144.532L160.507 171.605C159.984 174.225 161.989 176.67 164.691 176.67H175.328C178.03 176.67 180.036 174.225 179.513 171.605L174.194 144.532C173.235 139.991 166.697 139.991 165.825 144.532Z" fill="#1ACFFF" stroke="black" stroke-width="1.5649" stroke-miterlimit="10" stroke-linecap="round" stroke-linejoin="round"/>
<path d="M166.522 153.702L168.179 145.056C168.44 143.746 169.574 143.659 169.922 143.659C170.271 143.659 171.405 143.746 171.666 145.056L173.061 152.217" stroke="white" stroke-width="1.5649" stroke-miterlimit="10" stroke-linecap="round" stroke-dasharray="2.49 2.49"/>
<path d="M163.209 170.731L166.522 153.702" stroke="white" stroke-width="1.5649" stroke-miterlimit="10" stroke-linecap="round"/>
<path d="M148.911 138.768L144.291 153.702" stroke="white" stroke-width="1.5649" stroke-miterlimit="10" stroke-linecap="round"/>
<path d="M151.701 130.035L148.911 138.768" stroke="white" stroke-width="1.5649" stroke-miterlimit="10" stroke-linecap="round" stroke-dasharray="2.49 2.49"/>
<path d="M169.661 274.83V303.736" stroke="black" stroke-width="1.5649" stroke-miterlimit="10" stroke-linecap="round" stroke-dasharray="9 9"/>
<path d="M169.661 229.243V274.83" stroke="black" stroke-width="1.5649" stroke-miterlimit="10" stroke-linecap="round" stroke-linejoin="round"/>
<path d="M175.415 259.983V282.602" stroke="black" stroke-width="1.5649" stroke-miterlimit="10" stroke-linecap="round" stroke-dasharray="9 9"/>
<path d="M175.415 229.243V259.983" stroke="black" stroke-width="1.5649" stroke-miterlimit="10" stroke-linecap="round" stroke-linejoin="round"/>
<path d="M181.082 242.255V266.533" stroke="black" stroke-width="1.5649" stroke-miterlimit="10" stroke-linecap="round" stroke-dasharray="9 9"/>
<path d="M181.082 229.243V242.255" stroke="black" stroke-width="1.5649" stroke-miterlimit="10" stroke-linecap="round" stroke-linejoin="round"/>
<path d="M163.994 259.983V282.602" stroke="black" stroke-width="1.5649" stroke-miterlimit="10" stroke-linecap="round" stroke-dasharray="9 9"/>
<path d="M163.994 229.243V259.983" stroke="black" stroke-width="1.5649" stroke-miterlimit="10" stroke-linecap="round" stroke-linejoin="round"/>
<path d="M158.24 247.146V266.533" stroke="black" stroke-width="1.5649" stroke-miterlimit="10" stroke-linecap="round" stroke-dasharray="9 9"/>
<path d="M158.24 229.243V247.146" stroke="black" stroke-width="1.5649" stroke-miterlimit="10" stroke-linecap="round" stroke-linejoin="round"/>
<path d="M310.2 38.9495L232.956 51.0011C240.279 38.3382 253.095 28.9065 268.701 26.5485C284.307 24.1906 299.302 29.0811 310.2 38.9495Z" fill="#27FF83" stroke="black" stroke-width="1.5649" stroke-miterlimit="10" stroke-linejoin="round"/>
<path d="M322.319 55.6297L226.417 70.6505C226.94 66.1093 228.074 61.6555 229.73 57.5509L315.17 44.1893C318.047 47.5952 320.401 51.4378 322.319 55.6297Z" fill="#AE31FF" stroke="black" stroke-width="1.5649" stroke-miterlimit="10" stroke-linejoin="round"/>
<path d="M326.155 68.5546C326.94 73.3578 326.94 78.161 326.329 82.7895L230.864 97.723C228.858 93.5312 227.463 88.99 226.766 84.0994C226.504 82.5275 226.33 80.9555 226.243 79.3836L325.196 63.9261C325.545 65.4107 325.893 66.9826 326.155 68.5546Z" fill="#AE31FF" stroke="black" stroke-width="1.5649" stroke-miterlimit="10" stroke-linejoin="round"/>
<path d="M324.324 91.7845C322.842 96.3257 320.75 100.692 318.047 104.622L245.336 115.975C241.587 113.006 238.274 109.6 235.484 105.67L324.324 91.7845Z" fill="#FFE527" stroke="black" stroke-width="1.5649" stroke-miterlimit="10" stroke-linecap="round"/>
<path d="M307.411 116.062C300.872 121.215 292.938 124.796 284.22 126.105C275.501 127.415 266.783 126.455 259.024 123.573L307.411 116.062Z" fill="#AE31FF" stroke="black" stroke-width="1.5649" stroke-miterlimit="10" stroke-linejoin="round"/>
<path d="M325.196 63.9261L226.156 79.3836C225.981 76.4144 226.068 73.5324 226.417 70.6505L322.319 55.6297C323.452 58.2496 324.498 61.0442 325.196 63.9261Z" fill="#FFE527" stroke="black" stroke-width="1.5649" stroke-miterlimit="10" stroke-linecap="round"/>
<path d="M318.047 104.622C315.083 108.901 311.508 112.831 307.41 116.062L259.024 123.66C254.142 121.826 249.521 119.294 245.423 116.062L318.047 104.622Z" fill="#27FF83" stroke="black" stroke-width="1.5649" stroke-miterlimit="10" stroke-linejoin="round"/>
<path d="M315.17 44.1893C313.601 42.3554 311.944 40.6088 310.2 38.9495L286.138 42.7047C284.307 39.6481 280.82 37.8142 277.071 38.4255C273.322 39.0368 270.532 41.8314 269.747 45.2373L232.869 51.0011C231.648 53.0971 230.602 55.2803 229.73 57.4636L270.532 51.0885C272.188 54.4944 275.937 56.503 279.861 55.8916C283.784 55.2803 286.748 52.1364 287.271 48.4685L315.17 44.1893Z" fill="#FF365D" stroke="black" stroke-width="1.5649" stroke-miterlimit="10" stroke-linecap="round"/>
<path d="M326.329 82.7895L264.952 92.3959C263.296 90.3873 260.593 89.3393 257.89 89.7759C255.188 90.2126 252.921 92.0465 251.962 94.4918L230.864 97.8104C232.171 100.605 233.741 103.312 235.484 105.757L253.618 102.963C255.275 104.622 257.716 105.495 260.244 105.059C262.773 104.622 264.778 103.138 265.911 101.042L324.411 91.8719C325.283 88.9026 325.893 85.8461 326.329 82.7895Z" fill="#FF365D" stroke="black" stroke-width="1.5649" stroke-miterlimit="10" stroke-linecap="round"/>
<path d="M262.196 107.908C268.007 106.161 271.303 100.026 269.559 94.2049C267.815 88.3842 261.69 85.082 255.879 86.8292C250.069 88.5763 246.772 94.7113 248.516 100.532C250.26 106.353 256.385 109.655 262.196 107.908Z" stroke="black" stroke-width="1.5649" stroke-miterlimit="10" stroke-linecap="round" stroke-dasharray="9.86 9.86"/>
<path d="M290.929 49.5862C292.245 42.6691 287.714 35.993 280.808 34.6748C273.903 33.3566 267.238 37.8954 265.922 44.8125C264.606 51.7297 269.137 58.4058 276.043 59.724C282.948 61.0422 289.613 56.5034 290.929 49.5862Z" stroke="black" stroke-width="1.5649" stroke-miterlimit="10" stroke-linecap="round" stroke-dasharray="9.17 9.17"/>
<path d="M325.719 66.9826L277.768 74.4931" stroke="black" stroke-width="1.5649" stroke-miterlimit="10" stroke-linecap="round" stroke-dasharray="9 9"/>
<path d="M323.714 59.7342L262.337 69.3406" stroke="black" stroke-width="1.5649" stroke-miterlimit="10" stroke-linecap="round" stroke-dasharray="9 9"/>
<path d="M320.488 52.7477L291.282 57.3763" stroke="black" stroke-width="1.5649" stroke-miterlimit="10" stroke-linecap="round" stroke-dasharray="9 9"/>
<path d="M319.18 49.9532L294.595 53.7957" stroke="black" stroke-width="1.5649" stroke-miterlimit="10" stroke-linecap="round" stroke-dasharray="9 9"/>
<path d="M317.262 47.2459L294.507 50.8265" stroke="black" stroke-width="1.5649" stroke-miterlimit="10" stroke-linecap="round" stroke-dasharray="9 9"/>
<path d="M312.554 41.7441L294.071 44.626" stroke="black" stroke-width="1.5649" stroke-miterlimit="10" stroke-linecap="round" stroke-dasharray="9 9"/>
<path d="M305.841 35.5436L291.543 37.8142" stroke="black" stroke-width="1.5649" stroke-miterlimit="10" stroke-linecap="round" stroke-dasharray="9 9"/>
<path d="M299.564 31.7884L288.753 33.4477" stroke="black" stroke-width="1.5649" stroke-miterlimit="10" stroke-linecap="round" stroke-dasharray="9 9"/>
<path d="M326.329 71.0872L291.892 76.4143" stroke="black" stroke-width="1.5649" stroke-miterlimit="10" stroke-linecap="round" stroke-dasharray="9 9"/>
<path d="M326.416 75.2791L296.6 79.9076" stroke="black" stroke-width="1.5649" stroke-miterlimit="10" stroke-linecap="round" stroke-dasharray="9 9"/>
<path d="M326.504 79.4709L287.62 85.4967" stroke="black" stroke-width="1.5649" stroke-miterlimit="10" stroke-linecap="round" stroke-dasharray="9 9"/>
<path d="M325.545 87.0687L283.435 93.7058" stroke="black" stroke-width="1.5649" stroke-miterlimit="10" stroke-linecap="round" stroke-dasharray="9 9"/>
<path d="M322.493 95.9764L289.451 101.129" stroke="black" stroke-width="1.5649" stroke-miterlimit="10" stroke-linecap="round" stroke-dasharray="9 9"/>
<path d="M320.226 100.867L278.117 107.417" stroke="black" stroke-width="1.5649" stroke-miterlimit="10" stroke-linecap="round" stroke-dasharray="9 9"/>
<path d="M313.077 110.648L271.578 117.11" stroke="black" stroke-width="1.5649" stroke-miterlimit="10" stroke-linecap="round" stroke-dasharray="9 9"/>
<path d="M300.523 120.429L280.645 123.486" stroke="black" stroke-width="1.5649" stroke-miterlimit="10" stroke-linecap="round" stroke-dasharray="9 9"/>
<path d="M278.291 50.0405C279.928 50.0405 281.256 48.7111 281.256 47.0712C281.256 45.4314 279.928 44.102 278.291 44.102C276.654 44.102 275.327 45.4314 275.327 47.0712C275.327 48.7111 276.654 50.0405 278.291 50.0405Z" fill="black"/>
<path d="M262.162 99.6443C261.552 100.43 260.68 101.042 259.634 101.216C257.542 101.566 255.536 100.081 255.275 97.985C255.188 97.1991 255.275 96.4131 255.624 95.7144" stroke="black" stroke-width="1.5649" stroke-miterlimit="10" stroke-linecap="round" stroke-dasharray="9 9"/>
<path d="M255.536 95.7144C256.06 94.5791 257.106 93.7058 258.413 93.5312C258.501 93.5312 258.501 93.5312 258.588 93.5312" stroke="black" stroke-width="1.5649" stroke-miterlimit="10" stroke-linecap="round"/>
<path d="M262.598 95.8891C262.685 96.1511 262.773 96.4131 262.86 96.7624C263.034 97.8104 262.773 98.8583 262.162 99.6443" stroke="black" stroke-width="1.5649" stroke-miterlimit="10" stroke-linecap="round"/>
<path d="M236.007 66.284C237.307 66.284 238.361 65.2283 238.361 63.9261C238.361 62.6238 237.307 61.5681 236.007 61.5681C234.707 61.5681 233.653 62.6238 233.653 63.9261C233.653 65.2283 234.707 66.284 236.007 66.284Z" fill="black"/>
<path d="M241.587 87.8547C242.406 87.8547 243.069 87.19 243.069 86.37C243.069 85.5501 242.406 84.8854 241.587 84.8854C240.769 84.8854 240.105 85.5501 240.105 86.37C240.105 87.19 240.769 87.8547 241.587 87.8547Z" fill="black"/>
<path d="M262.162 119.381C263.318 119.381 264.255 118.443 264.255 117.285C264.255 116.128 263.318 115.189 262.162 115.189C261.007 115.189 260.07 116.128 260.07 117.285C260.07 118.443 261.007 119.381 262.162 119.381Z" fill="black"/>
<path d="M217.089 288.279C216.391 288.803 215.432 288.715 214.822 288.017L207.237 278.236C206.714 277.537 206.801 276.576 207.498 275.965C208.196 275.441 209.155 275.528 209.765 276.227L217.35 286.008C217.96 286.707 217.786 287.755 217.089 288.279Z" fill="#27FF83" stroke="black" stroke-width="1.5649" stroke-miterlimit="10" stroke-linejoin="round"/>
<path d="M228.771 287.493C227.899 287.667 227.028 287.143 226.853 286.27L224.15 274.218C223.976 273.345 224.499 272.472 225.371 272.297C226.243 272.122 227.115 272.646 227.289 273.52L229.992 285.571C230.166 286.445 229.643 287.318 228.771 287.493Z" fill="#27FF83" stroke="black" stroke-width="1.5649" stroke-miterlimit="10" stroke-linejoin="round"/>
<path d="M219.966 274.655L219.094 270.9C218.832 269.852 219.53 268.804 220.576 268.629C221.622 268.367 222.668 269.066 222.843 270.114" stroke="black" stroke-width="1.5649" stroke-miterlimit="10" stroke-linecap="round"/>
<path d="M223.017 271.598C223.691 271.598 224.238 271.051 224.238 270.376C224.238 269.701 223.691 269.153 223.017 269.153C222.343 269.153 221.797 269.701 221.797 270.376C221.797 271.051 222.343 271.598 223.017 271.598Z" fill="black"/>
<path d="M216.217 275.528L215.258 271.773C214.996 270.725 213.95 270.114 212.904 270.376C211.858 270.638 211.247 271.686 211.509 272.734" stroke="black" stroke-width="1.5649" stroke-miterlimit="10" stroke-linecap="round"/>
<path d="M211.596 274.393C212.27 274.393 212.817 273.846 212.817 273.17C212.817 272.495 212.27 271.948 211.596 271.948C210.922 271.948 210.376 272.495 210.376 273.17C210.376 273.846 210.922 274.393 211.596 274.393Z" fill="black"/>
<path d="M233.566 300.156H206.975C207.847 298.846 208.283 297.274 208.283 295.614V287.143C208.283 280.768 213.427 275.616 219.791 275.616H220.663C227.028 275.616 232.171 280.768 232.171 287.143V295.614C232.258 297.274 232.694 298.846 233.566 300.156Z" fill="#27FF83" stroke="black" stroke-width="1.5649" stroke-miterlimit="10" stroke-linejoin="round"/>
<path d="M240.628 315.962C240.628 323.036 237.054 329.237 231.648 332.817V343.21C231.648 345.48 229.817 347.227 227.638 347.227H227.376C225.109 347.227 223.366 345.393 223.366 343.21V336.048C222.407 336.223 221.361 336.31 220.402 336.31C219.355 336.31 218.396 336.223 217.437 336.048V343.21C217.437 345.48 215.607 347.227 213.427 347.227H213.165C210.899 347.227 209.155 345.393 209.155 343.21V332.817C203.75 329.149 200.175 322.949 200.175 315.962C200.175 311.247 201.832 306.88 204.534 303.387C204.97 302.775 205.493 302.251 206.016 301.64C206.452 301.204 206.888 300.68 207.237 300.156H233.828C234.177 300.68 234.525 301.204 235.048 301.64C235.571 302.164 236.095 302.775 236.53 303.387C238.972 306.88 240.628 311.247 240.628 315.962Z" fill="white" stroke="black" stroke-width="1.5649" stroke-miterlimit="10"/>
<path d="M196.775 326.617L196.513 326.442C194.508 325.394 193.724 322.949 194.77 321.028L199.565 311.858C200.611 309.849 205.58 304.173 207.586 305.221L207.847 305.395C209.852 306.443 210.637 308.889 209.591 310.81L202.267 324.87C201.134 326.879 198.693 327.665 196.775 326.617Z" fill="white"/>
<path d="M219.704 287.755C221.245 287.755 222.494 286.503 222.494 284.96C222.494 283.417 221.245 282.165 219.704 282.165C218.163 282.165 216.914 283.417 216.914 284.96C216.914 286.503 218.163 287.755 219.704 287.755Z" fill="white" stroke="black" stroke-width="1.5649" stroke-miterlimit="10" stroke-linecap="round" stroke-linejoin="round"/>
<path d="M219.704 286.008C220.282 286.008 220.75 285.539 220.75 284.96C220.75 284.381 220.282 283.912 219.704 283.912C219.126 283.912 218.658 284.381 218.658 284.96C218.658 285.539 219.126 286.008 219.704 286.008Z" fill="black"/>
<path d="M229.817 287.755C231.358 287.755 232.607 286.503 232.607 284.96C232.607 283.417 231.358 282.165 229.817 282.165C228.277 282.165 227.028 283.417 227.028 284.96C227.028 286.503 228.277 287.755 229.817 287.755Z" fill="white" stroke="black" stroke-width="1.5649" stroke-miterlimit="10" stroke-linecap="round" stroke-linejoin="round"/>
<path d="M229.817 286.008C230.395 286.008 230.864 285.539 230.864 284.96C230.864 284.381 230.395 283.912 229.817 283.912C229.24 283.912 228.771 284.381 228.771 284.96C228.771 285.539 229.24 286.008 229.817 286.008Z" fill="black"/>
<path d="M241.413 284.523C241.413 290.724 238.797 296.313 234.525 300.156H206.016C201.744 296.313 199.129 290.724 199.129 284.523C199.129 272.821 208.632 263.302 220.314 263.302C231.997 263.302 241.413 272.821 241.413 284.523Z" stroke="black" stroke-width="1.5649" stroke-miterlimit="10"/>
<path d="M237.054 301.902C237.054 302.513 236.705 303.037 236.269 303.387C236.007 303.561 235.659 303.649 235.31 303.649H205.232C204.883 303.649 204.534 303.561 204.273 303.387C203.75 303.037 203.488 302.513 203.488 301.902C203.488 300.942 204.273 300.156 205.232 300.156H235.31C236.269 300.156 237.054 300.942 237.054 301.902Z" fill="#1ACFFF" stroke="black" stroke-width="1.5649" stroke-miterlimit="10" stroke-linecap="round" stroke-linejoin="round"/>
<path d="M207.76 314.128L202.18 324.957C201.134 326.966 198.693 327.752 196.775 326.704L196.513 326.529C194.508 325.481 193.724 323.036 194.77 321.115L202.093 307.055" stroke="black" stroke-width="1.5649" stroke-miterlimit="10" stroke-linecap="round"/>
<path d="M243.854 326.617L244.115 326.442C246.121 325.394 246.905 322.949 245.859 321.028L241.238 312.207C240.192 310.199 235.048 304.173 233.043 305.221L232.782 305.395C230.776 306.443 229.992 308.889 231.038 310.81L238.449 324.87C239.408 326.879 241.849 327.665 243.854 326.617Z" fill="white"/>
<path d="M232.782 314.128L238.449 324.87C239.495 326.879 241.936 327.665 243.854 326.617L244.115 326.442C246.121 325.394 246.905 322.949 245.859 321.028L238.536 306.967" stroke="black" stroke-width="1.5649" stroke-miterlimit="10" stroke-linecap="round"/>
<path d="M225.807 295.003C225.807 295.003 220.75 289.239 216.217 295.003" stroke="black" stroke-width="1.5649" stroke-miterlimit="10" stroke-linecap="round" stroke-linejoin="round"/>
<path d="M217.263 342.336H214.386" stroke="black" stroke-width="1.5649" stroke-miterlimit="10" stroke-linecap="round"/>
<path d="M231.038 342.336H228.161" stroke="black" stroke-width="1.5649" stroke-miterlimit="10" stroke-linecap="round"/>
<path d="M225.981 320.853H216.13C214.647 320.853 213.514 319.718 213.514 318.233V311.421C213.514 309.937 214.647 308.801 216.13 308.801H225.981C227.463 308.801 228.597 309.937 228.597 311.421V318.233C228.597 319.718 227.463 320.853 225.981 320.853Z" fill="#1ACFFF" stroke="black" stroke-width="1.5649" stroke-miterlimit="10" stroke-linecap="round" stroke-linejoin="round"/>
<path d="M216.304 311.421H225.981" stroke="white" stroke-width="1.5649" stroke-miterlimit="10" stroke-linecap="round" stroke-dasharray="2.74 2.74"/>
<path d="M216.304 314.827H217.525" stroke="white" stroke-width="1.5649" stroke-miterlimit="10" stroke-linecap="round"/>
<path d="M219.966 314.827H223.627" stroke="white" stroke-width="1.5649" stroke-miterlimit="10" stroke-linecap="round" stroke-dasharray="2.8 2.8"/>
<path d="M224.848 314.827H225.981" stroke="white" stroke-width="1.5649" stroke-miterlimit="10" stroke-linecap="round"/>
<path d="M216.304 318.146H225.981" stroke="white" stroke-width="1.5649" stroke-miterlimit="10" stroke-linecap="round"/>
<path d="M236.356 277.1C237.315 279.196 237.751 281.554 237.751 283.999C237.751 285.484 237.577 286.881 237.228 288.191" stroke="white" stroke-width="1.5649" stroke-miterlimit="10" stroke-linecap="round"/>
<path d="M229.469 269.153C232.52 270.987 234.874 273.782 236.356 277.1" stroke="white" stroke-width="1.5649" stroke-miterlimit="10" stroke-linecap="round" stroke-dasharray="2.74 2.74"/>
<path d="M212.206 289.938C212.543 289.938 212.817 289.664 212.817 289.327C212.817 288.989 212.543 288.715 212.206 288.715C211.869 288.715 211.596 288.989 211.596 289.327C211.596 289.664 211.869 289.938 212.206 289.938Z" fill="#15B756"/>
<path d="M210.986 294.566C211.419 294.566 211.77 294.214 211.77 293.78C211.77 293.346 211.419 292.994 210.986 292.994C210.552 292.994 210.201 293.346 210.201 293.78C210.201 294.214 210.552 294.566 210.986 294.566Z" fill="#15B756"/>
<path d="M213.601 298.496C214.179 298.496 214.647 298.027 214.647 297.448C214.647 296.87 214.179 296.4 213.601 296.4C213.023 296.4 212.555 296.87 212.555 297.448C212.555 298.027 213.023 298.496 213.601 298.496Z" fill="#15B756"/>
<path d="M211.509 284.96C211.894 284.96 212.206 284.647 212.206 284.261C212.206 283.875 211.894 283.563 211.509 283.563C211.124 283.563 210.811 283.875 210.811 284.261C210.811 284.647 211.124 284.96 211.509 284.96Z" fill="#15B756"/>
<path d="M215.694 280.506C216.031 280.506 216.304 280.232 216.304 279.895C216.304 279.557 216.031 279.283 215.694 279.283C215.357 279.283 215.083 279.557 215.083 279.895C215.083 280.232 215.357 280.506 215.694 280.506Z" fill="#15B756"/>
<path d="M221.099 278.76C221.34 278.76 221.535 278.564 221.535 278.323C221.535 278.082 221.34 277.886 221.099 277.886C220.858 277.886 220.663 278.082 220.663 278.323C220.663 278.564 220.858 278.76 221.099 278.76Z" fill="#15B756"/>
<path d="M220.314 336.31V320.853" stroke="black" stroke-width="1.5649" stroke-miterlimit="10" stroke-linecap="round" stroke-dasharray="3.02 3.02"/>
<path d="M275.501 288.628C274.804 289.152 273.845 289.065 273.235 288.366L265.65 278.585C265.127 277.886 265.214 276.926 265.911 276.314C266.609 275.79 267.568 275.878 268.178 276.576L275.763 286.357C276.373 287.056 276.199 288.104 275.501 288.628Z" fill="#FFE527" stroke="black" stroke-width="1.5649" stroke-miterlimit="10" stroke-linecap="round"/>
<path d="M276.112 275.616L275.937 271.773C275.85 270.725 274.978 269.939 273.845 269.939C272.799 270.026 272.014 270.9 272.014 272.035" stroke="black" stroke-width="1.5649" stroke-miterlimit="10" stroke-linecap="round"/>
<path d="M272.014 273.694C272.688 273.694 273.235 273.147 273.235 272.472C273.235 271.796 272.688 271.249 272.014 271.249C271.34 271.249 270.794 271.796 270.794 272.472C270.794 273.147 271.34 273.694 272.014 273.694Z" fill="black"/>
<path d="M281.866 288.628C282.563 289.152 283.522 289.065 284.133 288.366L291.718 278.585C292.241 277.886 292.153 276.926 291.456 276.314C290.759 275.79 289.8 275.878 289.189 276.576L281.604 286.357C280.994 287.056 281.168 288.104 281.866 288.628Z" fill="#FFE527" stroke="black" stroke-width="1.5649" stroke-miterlimit="10" stroke-linecap="round"/>
<path d="M281.255 275.616L281.43 271.773C281.517 270.725 282.389 269.939 283.522 269.939C284.568 270.026 285.353 270.9 285.353 272.035" stroke="black" stroke-width="1.5649" stroke-miterlimit="10" stroke-linecap="round"/>
<path d="M285.353 273.694C286.027 273.694 286.574 273.147 286.574 272.472C286.574 271.796 286.027 271.249 285.353 271.249C284.679 271.249 284.133 271.796 284.133 272.472C284.133 273.147 284.679 273.694 285.353 273.694Z" fill="black"/>
<path d="M291.979 300.505H265.388C266.26 299.195 266.696 297.623 266.696 295.964V287.493C266.696 281.117 271.84 275.965 278.204 275.965H279.076C285.44 275.965 290.584 281.117 290.584 287.493V295.964C290.671 297.623 291.107 299.195 291.979 300.505Z" fill="#FFE527" stroke="black" stroke-width="1.5649" stroke-miterlimit="10" stroke-linecap="round"/>
<path d="M299.041 316.312C299.041 323.385 295.466 329.586 290.061 333.167V343.559C290.061 345.829 288.23 347.576 286.051 347.576H285.789C283.522 347.576 281.779 345.742 281.779 343.559V336.398C280.82 336.572 279.773 336.66 278.814 336.66C277.768 336.66 276.809 336.572 275.85 336.398V343.559C275.85 345.829 274.019 347.576 271.84 347.576H271.578C269.311 347.576 267.568 345.742 267.568 343.559V333.167C262.162 329.499 258.588 323.298 258.588 316.312C258.588 311.596 260.244 307.229 262.947 303.736C263.383 303.125 263.906 302.601 264.429 301.989C264.865 301.553 265.301 301.029 265.65 300.505H292.241C292.589 301.029 292.938 301.553 293.461 301.989C293.984 302.513 294.507 303.125 294.943 303.736C297.384 307.142 299.041 311.509 299.041 316.312Z" fill="#AE31FF" stroke="black" stroke-width="1.5649" stroke-miterlimit="10" stroke-linejoin="round"/>
<path d="M255.101 326.966L254.839 326.791C252.834 325.743 252.049 323.298 253.095 321.377L257.89 312.207C258.937 310.199 263.906 304.522 265.911 305.57L266.173 305.745C268.178 306.793 268.963 309.238 267.916 311.159L260.593 325.219C259.547 327.228 257.106 328.014 255.101 326.966Z" fill="#AE31FF"/>
<path d="M273.583 288.017C275.124 288.017 276.373 286.765 276.373 285.222C276.373 283.679 275.124 282.427 273.583 282.427C272.043 282.427 270.794 283.679 270.794 285.222C270.794 286.765 272.043 288.017 273.583 288.017Z" fill="white" stroke="black" stroke-width="1.5649" stroke-miterlimit="10" stroke-linecap="round" stroke-linejoin="round"/>
<path d="M273.583 286.27C274.161 286.27 274.63 285.801 274.63 285.222C274.63 284.643 274.161 284.174 273.583 284.174C273.006 284.174 272.537 284.643 272.537 285.222C272.537 285.801 273.006 286.27 273.583 286.27Z" fill="black"/>
<path d="M283.784 288.017C285.325 288.017 286.574 286.765 286.574 285.222C286.574 283.679 285.325 282.427 283.784 282.427C282.243 282.427 280.994 283.679 280.994 285.222C280.994 286.765 282.243 288.017 283.784 288.017Z" fill="white" stroke="black" stroke-width="1.5649" stroke-miterlimit="10" stroke-linecap="round" stroke-linejoin="round"/>
<path d="M283.784 286.27C284.362 286.27 284.83 285.801 284.83 285.222C284.83 284.643 284.362 284.174 283.784 284.174C283.206 284.174 282.738 284.643 282.738 285.222C282.738 285.801 283.206 286.27 283.784 286.27Z" fill="black"/>
<path d="M299.826 284.873C299.826 291.073 297.21 296.662 292.938 300.505H264.429C260.157 296.662 257.542 291.073 257.542 284.873C257.542 273.17 267.045 263.651 278.727 263.651C290.41 263.651 299.826 273.17 299.826 284.873Z" stroke="black" stroke-width="1.5649" stroke-miterlimit="10"/>
<path d="M295.466 302.251C295.466 302.863 295.118 303.387 294.682 303.736C294.42 303.911 294.071 303.998 293.723 303.998H263.644C263.296 303.998 262.947 303.911 262.685 303.736C262.162 303.387 261.901 302.863 261.901 302.251C261.901 301.291 262.685 300.505 263.644 300.505H293.723C294.682 300.505 295.466 301.291 295.466 302.251Z" fill="#FF365D" stroke="black" stroke-width="1.5649" stroke-miterlimit="10" stroke-linecap="round"/>
<path d="M266.173 314.39L260.593 325.219C259.547 327.228 257.106 328.014 255.188 326.966L254.926 326.791C252.921 325.743 252.136 323.298 253.183 321.377L260.506 307.317" stroke="black" stroke-width="1.5649" stroke-miterlimit="10" stroke-linecap="round"/>
<path d="M302.267 326.966L302.528 326.791C304.533 325.743 305.318 323.298 304.272 321.377L299.651 312.556C298.605 310.548 293.461 304.522 291.456 305.57L291.194 305.745C289.189 306.793 288.405 309.238 289.451 311.159L296.774 325.219C297.82 327.228 300.261 328.014 302.267 326.966Z" fill="#AE31FF"/>
<path d="M291.194 314.478L296.774 325.307C297.82 327.315 300.261 328.101 302.18 327.053L302.441 326.879C304.446 325.831 305.231 323.385 304.185 321.464L296.861 307.404" stroke="black" stroke-width="1.5649" stroke-miterlimit="10" stroke-linecap="round"/>
<path d="M275.676 342.686H272.799" stroke="black" stroke-width="1.5649" stroke-miterlimit="10" stroke-linecap="round"/>
<path d="M289.451 342.686H286.574" stroke="black" stroke-width="1.5649" stroke-miterlimit="10" stroke-linecap="round"/>
<path d="M284.394 321.202H274.542C273.06 321.202 271.927 320.067 271.927 318.582V311.771C271.927 310.286 273.06 309.151 274.542 309.151H284.394C285.876 309.151 287.01 310.286 287.01 311.771V318.582C287.01 320.067 285.876 321.202 284.394 321.202Z" fill="#FF365D" stroke="black" stroke-width="1.5649" stroke-miterlimit="10" stroke-linecap="round"/>
<path d="M274.717 311.771H284.394" stroke="white" stroke-width="1.5649" stroke-miterlimit="10" stroke-linecap="round" stroke-dasharray="2.74 2.74"/>
<path d="M274.717 315.176H275.85" stroke="white" stroke-width="1.5649" stroke-miterlimit="10" stroke-linecap="round"/>
<path d="M278.291 315.176H281.953" stroke="white" stroke-width="1.5649" stroke-miterlimit="10" stroke-linecap="round" stroke-dasharray="2.8 2.8"/>
<path d="M283.174 315.176H284.394" stroke="white" stroke-width="1.5649" stroke-miterlimit="10" stroke-linecap="round"/>
<path d="M274.717 318.495H284.394" stroke="white" stroke-width="1.5649" stroke-miterlimit="10" stroke-linecap="round"/>
<path d="M295.118 277.1C296.077 279.196 296.513 281.554 296.513 283.999C296.513 285.484 296.338 286.881 295.989 288.191" stroke="white" stroke-width="1.5649" stroke-miterlimit="10" stroke-linecap="round"/>
<path d="M288.23 269.153C291.282 270.987 293.636 273.782 295.118 277.1" stroke="white" stroke-width="1.5649" stroke-miterlimit="10" stroke-linecap="round" stroke-dasharray="2.74 2.74"/>
<path d="M270.619 290.287C270.956 290.287 271.229 290.013 271.229 289.676C271.229 289.338 270.956 289.065 270.619 289.065C270.282 289.065 270.009 289.338 270.009 289.676C270.009 290.013 270.282 290.287 270.619 290.287Z" fill="#BCA419"/>
<path d="M269.311 294.916C269.745 294.916 270.096 294.564 270.096 294.13C270.096 293.696 269.745 293.344 269.311 293.344C268.878 293.344 268.527 293.696 268.527 294.13C268.527 294.564 268.878 294.916 269.311 294.916Z" fill="#BCA419"/>
<path d="M271.927 298.846C272.505 298.846 272.973 298.376 272.973 297.798C272.973 297.219 272.505 296.75 271.927 296.75C271.349 296.75 270.881 297.219 270.881 297.798C270.881 298.376 271.349 298.846 271.927 298.846Z" fill="#BCA419"/>
<path d="M268.527 286.619C268.912 286.619 269.224 286.307 269.224 285.921C269.224 285.535 268.912 285.222 268.527 285.222C268.142 285.222 267.829 285.535 267.829 285.921C267.829 286.307 268.142 286.619 268.527 286.619Z" fill="#BCA419"/>
<path d="M273.496 280.855C273.833 280.855 274.106 280.582 274.106 280.244C274.106 279.907 273.833 279.633 273.496 279.633C273.159 279.633 272.886 279.907 272.886 280.244C272.886 280.582 273.159 280.855 273.496 280.855Z" fill="#BCA419"/>
<path d="M279.512 279.109C279.753 279.109 279.948 278.913 279.948 278.672C279.948 278.431 279.753 278.236 279.512 278.236C279.271 278.236 279.076 278.431 279.076 278.672C279.076 278.913 279.271 279.109 279.512 279.109Z" fill="#BCA419"/>
<path d="M275.414 293.868H287.01" stroke="black" stroke-width="1.5649" stroke-miterlimit="10" stroke-linecap="round" stroke-linejoin="round"/>
<path d="M161.989 61.5681L167.917 64.7994" stroke="white" stroke-width="1.5649" stroke-miterlimit="10" stroke-linecap="round"/>
<path d="M163.384 66.1967L166.609 60.2582" stroke="white" stroke-width="1.5649" stroke-miterlimit="10" stroke-linecap="round"/>
<path d="M105.581 26.5485L111.422 29.8671" stroke="white" stroke-width="1.5649" stroke-miterlimit="10" stroke-linecap="round"/>
<path d="M106.802 31.0897L110.202 25.2386" stroke="white" stroke-width="1.5649" stroke-miterlimit="10" stroke-linecap="round"/>
<path d="M112.73 150.296L118.571 153.615" stroke="white" stroke-width="1.5649" stroke-miterlimit="10" stroke-linecap="round"/>
<path d="M113.951 154.925L117.351 148.986" stroke="white" stroke-width="1.5649" stroke-miterlimit="10" stroke-linecap="round"/>
<path d="M30.7779 67.4193L37.3166 65.76" stroke="white" stroke-width="1.5649" stroke-miterlimit="10" stroke-linecap="round"/>
<path d="M34.8755 69.8645L33.219 63.3147" stroke="white" stroke-width="1.5649" stroke-miterlimit="10" stroke-linecap="round"/>
<path d="M319.355 121.477L326.068 121.39" stroke="white" stroke-width="1.5649" stroke-miterlimit="10" stroke-linecap="round"/>
<path d="M322.755 124.796L322.668 118.071" stroke="white" stroke-width="1.5649" stroke-miterlimit="10" stroke-linecap="round"/>
<path d="M344.376 35.0196L349.869 31.177" stroke="white" stroke-width="1.5649" stroke-miterlimit="10" stroke-linecap="round"/>
<path d="M349.084 35.8929L345.161 30.3037" stroke="white" stroke-width="1.5649" stroke-miterlimit="10" stroke-linecap="round"/>
<path d="M88.0573 410.105L95.2935 412.899" stroke="black" stroke-width="1.5649" stroke-miterlimit="10" stroke-linecap="round" stroke-linejoin="round"/>
<path d="M90.3241 415.17L93.114 407.922" stroke="black" stroke-width="1.5649" stroke-miterlimit="10" stroke-linecap="round" stroke-linejoin="round"/>
<path d="M185.964 444.513L191.195 450.19" stroke="black" stroke-width="1.5649" stroke-miterlimit="10" stroke-linecap="round" stroke-linejoin="round"/>
<path d="M185.703 450.016L191.457 444.689" stroke="black" stroke-width="1.5649" stroke-miterlimit="10" stroke-linecap="round" stroke-linejoin="round"/>
<path d="M143.855 514.116L143.157 521.888" stroke="black" stroke-width="1.5649" stroke-miterlimit="10" stroke-linecap="round" stroke-linejoin="round"/>
<path d="M139.67 517.696L147.429 518.395" stroke="black" stroke-width="1.5649" stroke-miterlimit="10" stroke-linecap="round" stroke-linejoin="round"/>
<path d="M123.018 282.165C133.611 282.165 142.198 280.953 142.198 279.458C142.198 277.963 133.611 276.751 123.018 276.751C112.425 276.751 103.837 277.963 103.837 279.458C103.837 280.953 112.425 282.165 123.018 282.165Z" fill="#D2F9FF" stroke="black" stroke-width="1.5649" stroke-miterlimit="10" stroke-linecap="round" stroke-linejoin="round"/>
<path d="M70.5335 337.97C76.0226 337.97 80.4724 337.07 80.4724 335.961C80.4724 334.852 76.0226 333.952 70.5335 333.952C65.0444 333.952 60.5946 334.852 60.5946 335.961C60.5946 337.07 65.0444 337.97 70.5335 337.97Z" fill="#D2F9FF" stroke="black" stroke-width="1.5649" stroke-miterlimit="10" stroke-linecap="round" stroke-linejoin="round"/>
<path d="M148.301 313.692V336.223C148.301 342.948 142.896 348.362 136.182 348.362H98.3449L118.31 313.779H148.301V313.692Z" fill="#D2F9FF" stroke="black" stroke-width="1.5649" stroke-miterlimit="10" stroke-linecap="round" stroke-linejoin="round"/>
<path d="M148.301 316.399C164.865 316.399 178.292 315.187 178.292 313.692C178.292 312.197 164.865 310.985 148.301 310.985C131.737 310.985 118.31 312.197 118.31 313.692C118.31 315.187 131.737 316.399 148.301 316.399Z" fill="#D2F9FF" stroke="black" stroke-width="1.5649" stroke-miterlimit="10" stroke-linecap="round" stroke-linejoin="round"/>
<path d="M190.498 513.068C197.191 513.068 202.616 507.633 202.616 500.929C202.616 494.225 197.191 488.79 190.498 488.79C183.805 488.79 178.379 494.225 178.379 500.929C178.379 507.633 183.805 513.068 190.498 513.068Z" stroke="black" stroke-width="1.5649" stroke-miterlimit="10" stroke-linecap="round" stroke-dasharray="9 9"/>
<path d="M221.709 413.249C230.762 413.249 238.1 405.898 238.1 396.831C238.1 387.763 230.762 380.412 221.709 380.412C212.657 380.412 205.319 387.763 205.319 396.831C205.319 405.898 212.657 413.249 221.709 413.249Z" fill="#1ACFFF" stroke="black" stroke-width="1.5649" stroke-miterlimit="10" stroke-linecap="round" stroke-linejoin="round"/>
<path d="M103.75 462.154C113.188 462.154 120.838 454.49 120.838 445.037C120.838 435.584 113.188 427.92 103.75 427.92C94.3129 427.92 86.6624 435.584 86.6624 445.037C86.6624 454.49 94.3129 462.154 103.75 462.154Z" fill="#1ACFFF" stroke="black" stroke-width="1.5649" stroke-miterlimit="10" stroke-linecap="round" stroke-linejoin="round"/>
<path d="M115.607 447.482C114.474 452.984 109.592 457.176 103.75 457.176C97.0372 457.176 91.6318 451.762 91.6318 445.037C91.6318 440.583 93.9858 436.741 97.5603 434.645" stroke="black" stroke-width="1.5649" stroke-miterlimit="10" stroke-linecap="round" stroke-dasharray="9 9"/>
<path d="M226.33 406.874C224.935 407.485 223.366 407.834 221.797 407.834C215.694 407.834 210.811 402.856 210.811 396.831C210.811 394.822 211.335 392.901 212.381 391.241" stroke="black" stroke-width="1.5649" stroke-miterlimit="10" stroke-linecap="round" stroke-dasharray="9 9"/>
<path d="M212.294 391.241C214.212 388.01 217.699 385.827 221.796 385.827C227.899 385.827 232.782 390.805 232.782 396.831C232.782 401.284 230.166 405.127 226.33 406.874" fill="#1ACFFF"/>
<path d="M212.294 391.241C214.212 388.01 217.699 385.827 221.796 385.827C227.899 385.827 232.782 390.805 232.782 396.831C232.782 401.284 230.166 405.127 226.33 406.874" stroke="black" stroke-width="1.5649" stroke-miterlimit="10" stroke-linecap="round" stroke-linejoin="round"/>
<path d="M190.498 505.907C193.242 505.907 195.467 503.678 195.467 500.929C195.467 498.18 193.242 495.951 190.498 495.951C187.753 495.951 185.528 498.18 185.528 500.929C185.528 503.678 187.753 505.907 190.498 505.907Z" fill="black"/>
<path d="M263.034 436.828H221.709" stroke="black" stroke-width="1.5649" stroke-miterlimit="10" stroke-linecap="round" stroke-dasharray="9 9"/>
<path d="M315.17 436.828H263.034" stroke="black" stroke-width="1.5649" stroke-miterlimit="10" stroke-linecap="round" stroke-linejoin="round"/>
<path d="M256.931 448.356H218.484" stroke="black" stroke-width="1.5649" stroke-miterlimit="10" stroke-linecap="round" stroke-dasharray="9 9"/>
<path d="M311.944 448.356H256.931" stroke="black" stroke-width="1.5649" stroke-miterlimit="10" stroke-linecap="round" stroke-linejoin="round"/>
<path d="M254.316 462.154H219.53" stroke="black" stroke-width="1.5649" stroke-miterlimit="10" stroke-linecap="round" stroke-dasharray="9 9"/>
<path d="M306.626 462.154H254.316" stroke="black" stroke-width="1.5649" stroke-miterlimit="10" stroke-linecap="round" stroke-linejoin="round"/>
<path d="M248.736 494.204H227.028" stroke="black" stroke-width="1.5649" stroke-miterlimit="10" stroke-linecap="round" stroke-dasharray="9 9"/>
<path d="M286.835 494.204H248.736" stroke="black" stroke-width="1.5649" stroke-miterlimit="10" stroke-linecap="round" stroke-linejoin="round"/>
<path d="M242.895 516.474H233.13" stroke="black" stroke-width="1.5649" stroke-miterlimit="10" stroke-linecap="round" stroke-dasharray="9 9"/>
<path d="M264.255 516.474H242.895" stroke="black" stroke-width="1.5649" stroke-miterlimit="10" stroke-linecap="round" stroke-linejoin="round"/>
<path d="M211.596 534.638H188.841" stroke="black" stroke-width="1.5649" stroke-miterlimit="10" stroke-linecap="round" stroke-dasharray="9 9"/>
<path d="M234.438 534.638H211.596" stroke="black" stroke-width="1.5649" stroke-miterlimit="10" stroke-linecap="round" stroke-linejoin="round"/>
<path d="M280.471 422.68H254.316" stroke="black" stroke-width="1.5649" stroke-miterlimit="10" stroke-linecap="round" stroke-dasharray="9 9"/>
<path d="M317.785 422.68H280.471" stroke="black" stroke-width="1.5649" stroke-miterlimit="10" stroke-linecap="round" stroke-linejoin="round"/>
<path d="M289.102 413.336H263.034" stroke="black" stroke-width="1.5649" stroke-miterlimit="10" stroke-linecap="round" stroke-dasharray="9 9"/>
<path d="M318.744 413.336H289.102" stroke="black" stroke-width="1.5649" stroke-miterlimit="10" stroke-linecap="round" stroke-linejoin="round"/>
<path d="M303.139 405.476H287.184" stroke="black" stroke-width="1.5649" stroke-miterlimit="10" stroke-linecap="round" stroke-dasharray="9 9"/>
<path d="M319.093 405.476H303.139" stroke="black" stroke-width="1.5649" stroke-miterlimit="10" stroke-linecap="round" stroke-linejoin="round"/>
<path d="M44.64 350.196V358.143" stroke="black" stroke-width="1.5649" stroke-miterlimit="10" stroke-linecap="round" stroke-linejoin="round"/>
<path d="M58.5022 348.973V364.256" stroke="black" stroke-width="1.5649" stroke-miterlimit="10" stroke-linecap="round" stroke-linejoin="round"/>
<path d="M72.3643 348.973V367.4" stroke="black" stroke-width="1.5649" stroke-miterlimit="10" stroke-linecap="round" stroke-linejoin="round"/>
<path d="M86.2264 348.973V369.845" stroke="black" stroke-width="1.5649" stroke-miterlimit="10" stroke-linecap="round" stroke-linejoin="round"/>
<path d="M100.089 348.973V368.011" stroke="black" stroke-width="1.5649" stroke-miterlimit="10" stroke-linecap="round" stroke-linejoin="round"/>
<path d="M113.951 348.973V364.693" stroke="black" stroke-width="1.5649" stroke-miterlimit="10" stroke-linecap="round" stroke-linejoin="round"/>
<path d="M127.813 348.973V370.719" stroke="black" stroke-width="1.5649" stroke-miterlimit="10" stroke-linecap="round" stroke-linejoin="round"/>
<path d="M141.675 348.973V371.33" stroke="black" stroke-width="1.5649" stroke-miterlimit="10" stroke-linecap="round" stroke-linejoin="round"/>
<path d="M155.537 348.973V371.33" stroke="black" stroke-width="1.5649" stroke-miterlimit="10" stroke-linecap="round" stroke-linejoin="round"/>
<path d="M169.399 348.973V369.845" stroke="black" stroke-width="1.5649" stroke-miterlimit="10" stroke-linecap="round" stroke-linejoin="round"/>
<path d="M183.261 348.973V364.693" stroke="black" stroke-width="1.5649" stroke-miterlimit="10" stroke-linecap="round" stroke-linejoin="round"/>
<path d="M197.124 348.973V359.89" stroke="black" stroke-width="1.5649" stroke-miterlimit="10" stroke-linecap="round" stroke-linejoin="round"/>
<path d="M210.986 348.973V355.523" stroke="black" stroke-width="1.5649" stroke-miterlimit="10" stroke-linecap="round" stroke-linejoin="round"/>
<path d="M224.848 348.973V356.397" stroke="black" stroke-width="1.5649" stroke-miterlimit="10" stroke-linecap="round" stroke-linejoin="round"/>
<path d="M238.71 348.973V354.825" stroke="black" stroke-width="1.5649" stroke-miterlimit="10" stroke-linecap="round" stroke-linejoin="round"/>
<path d="M252.572 348.973V354.388" stroke="black" stroke-width="1.5649" stroke-miterlimit="10" stroke-linecap="round" stroke-linejoin="round"/>
<path d="M266.434 348.973V356.397" stroke="black" stroke-width="1.5649" stroke-miterlimit="10" stroke-linecap="round" stroke-linejoin="round"/>
<path d="M280.297 348.973V355.523" stroke="black" stroke-width="1.5649" stroke-miterlimit="10" stroke-linecap="round" stroke-linejoin="round"/>
<path d="M294.159 348.973V355.523" stroke="black" stroke-width="1.5649" stroke-miterlimit="10" stroke-linecap="round" stroke-linejoin="round"/>
<path d="M44.64 358.143V362.16" stroke="black" stroke-width="1.5649" stroke-miterlimit="10" stroke-linecap="round" stroke-dasharray="3.02 3.02"/>
<path d="M58.5021 364.256V372.203" stroke="black" stroke-width="1.5649" stroke-miterlimit="10" stroke-linecap="round" stroke-dasharray="3.02 3.02"/>
<path d="M72.3643 367.4V377.443" stroke="black" stroke-width="1.5649" stroke-miterlimit="10" stroke-linecap="round" stroke-dasharray="3.02 3.02"/>
<path d="M86.2264 369.845V384.954" stroke="black" stroke-width="1.5649" stroke-miterlimit="10" stroke-linecap="round" stroke-dasharray="3.02 3.02"/>
<path d="M100.089 368.011V379.015" stroke="black" stroke-width="1.5649" stroke-miterlimit="10" stroke-linecap="round" stroke-dasharray="3.02 3.02"/>
<path d="M113.951 364.693V371.33" stroke="black" stroke-width="1.5649" stroke-miterlimit="10" stroke-linecap="round" stroke-dasharray="3.02 3.02"/>
<path d="M127.813 370.719V377.443" stroke="black" stroke-width="1.5649" stroke-miterlimit="10" stroke-linecap="round" stroke-dasharray="3.02 3.02"/>
<path d="M141.675 371.33V380.412" stroke="black" stroke-width="1.5649" stroke-miterlimit="10" stroke-linecap="round" stroke-dasharray="3.02 3.02"/>
<path d="M155.537 371.33V377.443" stroke="black" stroke-width="1.5649" stroke-miterlimit="10" stroke-linecap="round" stroke-dasharray="3.02 3.02"/>
<path d="M169.399 369.845V380.412" stroke="black" stroke-width="1.5649" stroke-miterlimit="10" stroke-linecap="round" stroke-dasharray="3.02 3.02"/>
<path d="M183.261 364.693V373.164" stroke="black" stroke-width="1.5649" stroke-miterlimit="10" stroke-linecap="round" stroke-dasharray="3.02 3.02"/>
<path d="M197.124 359.89V366.964" stroke="black" stroke-width="1.5649" stroke-miterlimit="10" stroke-linecap="round" stroke-dasharray="3.02 3.02"/>
<path d="M210.986 355.523V362.16" stroke="black" stroke-width="1.5649" stroke-miterlimit="10" stroke-linecap="round" stroke-dasharray="3.02 3.02"/>
<path d="M224.848 356.397V362.16" stroke="black" stroke-width="1.5649" stroke-miterlimit="10" stroke-linecap="round" stroke-dasharray="3.02 3.02"/>
<path d="M238.71 354.825V360.676" stroke="black" stroke-width="1.5649" stroke-miterlimit="10" stroke-linecap="round" stroke-dasharray="3.02 3.02"/>
<path d="M252.572 354.388V359.89" stroke="black" stroke-width="1.5649" stroke-miterlimit="10" stroke-linecap="round" stroke-dasharray="3.02 3.02"/>
<path d="M266.434 356.397V359.89" stroke="black" stroke-width="1.5649" stroke-miterlimit="10" stroke-linecap="round" stroke-dasharray="3.02 3.02"/>
<path d="M280.297 355.523V359.104" stroke="black" stroke-width="1.5649" stroke-miterlimit="10" stroke-linecap="round" stroke-dasharray="3.02 3.02"/>
<path d="M294.159 355.523V359.104" stroke="black" stroke-width="1.5649" stroke-miterlimit="10" stroke-linecap="round" stroke-dasharray="3.02 3.02"/>
<path d="M308.021 355.523V359.104" stroke="black" stroke-width="1.5649" stroke-miterlimit="10" stroke-linecap="round" stroke-dasharray="3.02 3.02"/>
<path d="M308.021 350.807V355.523" stroke="black" stroke-width="1.5649" stroke-miterlimit="10" stroke-linecap="round" stroke-linejoin="round"/>
<path d="M54.7533 416.305C56.0533 416.305 57.1072 415.25 57.1072 413.947C57.1072 412.645 56.0533 411.589 54.7533 411.589C53.4532 411.589 52.3993 412.645 52.3993 413.947C52.3993 415.25 53.4532 416.305 54.7533 416.305Z" fill="black"/>
<path d="M124.238 420.497C125.394 420.497 126.331 419.559 126.331 418.401C126.331 417.244 125.394 416.305 124.238 416.305C123.083 416.305 122.146 417.244 122.146 418.401C122.146 419.559 123.083 420.497 124.238 420.497Z" fill="black"/>
<path d="M164.953 409.144C166.205 409.144 167.22 408.128 167.22 406.874C167.22 405.62 166.205 404.603 164.953 404.603C163.701 404.603 162.686 405.62 162.686 406.874C162.686 408.128 163.701 409.144 164.953 409.144Z" fill="black"/>
<path d="M160.855 455.866C161.626 455.866 162.25 455.241 162.25 454.469C162.25 453.697 161.626 453.072 160.855 453.072C160.085 453.072 159.46 453.697 159.46 454.469C159.46 455.241 160.085 455.866 160.855 455.866Z" fill="black"/>
<path d="M60.5946 443.902C61.1724 443.902 61.6408 443.433 61.6408 442.854C61.6408 442.275 61.1724 441.806 60.5946 441.806C60.0168 441.806 59.5484 442.275 59.5484 442.854C59.5484 443.433 60.0168 443.902 60.5946 443.902Z" fill="black"/>
<path d="M102.617 515.164C103.821 515.164 104.797 514.186 104.797 512.98C104.797 511.775 103.821 510.797 102.617 510.797C101.413 510.797 100.437 511.775 100.437 512.98C100.437 514.186 101.413 515.164 102.617 515.164Z" fill="black"/>
<path d="M161.814 539.005C163.018 539.005 163.994 538.028 163.994 536.822C163.994 535.616 163.018 534.638 161.814 534.638C160.611 534.638 159.635 535.616 159.635 536.822C159.635 538.028 160.611 539.005 161.814 539.005Z" fill="black"/>
<path d="M108.109 495.34C110.421 495.34 112.294 493.463 112.294 491.148C112.294 488.833 110.421 486.956 108.109 486.956C105.798 486.956 103.925 488.833 103.925 491.148C103.925 493.463 105.798 495.34 108.109 495.34Z" fill="black"/>
<path d="M213.863 28.2078C219.159 28.2078 223.453 23.9069 223.453 18.6014C223.453 13.296 219.159 8.99506 213.863 8.99506C208.566 8.99506 204.273 13.296 204.273 18.6014C204.273 23.9069 208.566 28.2078 213.863 28.2078Z" fill="#AE31FF" stroke="black" stroke-width="1.5649" stroke-miterlimit="10" stroke-linejoin="round"/>
<path d="M105.843 81.3922C106.661 81.3922 107.325 80.7275 107.325 79.9076C107.325 79.0876 106.661 78.4229 105.843 78.4229C105.024 78.4229 104.361 79.0876 104.361 79.9076C104.361 80.7275 105.024 81.3922 105.843 81.3922Z" fill="white"/>
<path d="M302.354 4.36653C303.558 4.36653 304.533 3.38905 304.533 2.18327C304.533 0.977482 303.558 0 302.354 0C301.15 0 300.174 0.977482 300.174 2.18327C300.174 3.38905 301.15 4.36653 302.354 4.36653Z" fill="white"/>
<path d="M349.084 100.605C350.384 100.605 351.438 99.5493 351.438 98.247C351.438 96.9448 350.384 95.8891 349.084 95.8891C347.784 95.8891 346.73 96.9448 346.73 98.247C346.73 99.5493 347.784 100.605 349.084 100.605Z" fill="white"/>
<path d="M212.206 117.547C213.843 117.547 215.171 116.218 215.171 114.578C215.171 112.938 213.843 111.609 212.206 111.609C210.569 111.609 209.242 112.938 209.242 114.578C209.242 116.218 210.569 117.547 212.206 117.547Z" fill="white"/>
<path d="M27.988 164.706C29.3844 164.706 30.5163 163.572 30.5163 162.173C30.5163 160.774 29.3844 159.64 27.988 159.64C26.5917 159.64 25.4597 160.774 25.4597 162.173C25.4597 163.572 26.5917 164.706 27.988 164.706Z" fill="white"/>
<path d="M276.46 154.925C278.627 154.925 280.384 153.165 280.384 150.995C280.384 148.824 278.627 147.065 276.46 147.065C274.294 147.065 272.537 148.824 272.537 150.995C272.537 153.165 274.294 154.925 276.46 154.925Z" fill="white"/>
<path d="M87.3599 124.708C87.0983 126.629 86.6624 128.463 86.0521 130.21C85.0931 133.092 83.6982 135.712 81.9545 138.07C75.5029 147.065 64.4306 152.217 52.7481 150.558C41.0655 148.899 31.9113 140.777 28.2496 130.297C27.2906 127.503 26.6803 124.621 26.5931 121.564C26.5059 119.73 26.5931 117.809 26.8546 115.888C27.4649 111.434 29.1214 107.329 31.3882 103.749C31.6497 103.312 31.9113 102.876 32.26 102.526C38.7116 93.5312 49.7838 88.3786 61.4664 90.0379C73.149 91.6972 82.3032 99.819 85.9649 110.299C86.1393 110.823 86.3137 111.259 86.4008 111.783C87.6214 115.888 88.0573 120.254 87.3599 124.708Z" fill="#FFE527" stroke="black" stroke-width="1.5649" stroke-miterlimit="10" stroke-linecap="round"/>
<path d="M66.1743 149.597L59.9843 148.724" stroke="black" stroke-width="1.5649" stroke-miterlimit="10" stroke-linecap="round" stroke-linejoin="round"/>
<path d="M74.1952 145.755L65.2153 144.445" stroke="black" stroke-width="1.5649" stroke-miterlimit="10" stroke-linecap="round" stroke-linejoin="round"/>
<path d="M79.2518 141.388L67.918 139.816" stroke="black" stroke-width="1.5649" stroke-miterlimit="10" stroke-linecap="round" stroke-linejoin="round"/>
<path d="M82.8263 136.935L69.1385 134.926" stroke="black" stroke-width="1.5649" stroke-miterlimit="10" stroke-linecap="round" stroke-linejoin="round"/>
<path d="M85.2674 132.219L70.5335 130.035" stroke="black" stroke-width="1.5649" stroke-miterlimit="10" stroke-linecap="round" stroke-linejoin="round"/>
<path d="M87.0111 127.415L71.9284 125.232" stroke="black" stroke-width="1.5649" stroke-miterlimit="10" stroke-linecap="round" stroke-linejoin="round"/>
<path d="M87.7086 122.438L72.1899 120.254" stroke="black" stroke-width="1.5649" stroke-miterlimit="10" stroke-linecap="round" stroke-linejoin="round"/>
<path d="M87.5342 117.372L72.0156 115.189" stroke="black" stroke-width="1.5649" stroke-miterlimit="10" stroke-linecap="round" stroke-linejoin="round"/>
<path d="M86.5752 112.22L71.8412 110.124" stroke="black" stroke-width="1.5649" stroke-miterlimit="10" stroke-linecap="round" stroke-linejoin="round"/>
<path d="M84.57 106.893L70.9694 104.884" stroke="black" stroke-width="1.5649" stroke-miterlimit="10" stroke-linecap="round" stroke-linejoin="round"/>
<path d="M81.0826 101.391L68.9642 99.557" stroke="black" stroke-width="1.5649" stroke-miterlimit="10" stroke-linecap="round" stroke-linejoin="round"/>
<path d="M59.9843 148.724L57.8919 148.375" stroke="black" stroke-width="1.5649" stroke-miterlimit="10" stroke-linecap="round"/>
<path d="M55.0148 148.026L50.6557 147.327" stroke="black" stroke-width="1.5649" stroke-miterlimit="10" stroke-linecap="round" stroke-dasharray="3.33 3.33"/>
<path d="M49.2607 147.152L47.1683 146.803" stroke="black" stroke-width="1.5649" stroke-miterlimit="10" stroke-linecap="round"/>
<path d="M65.2153 144.445L63.1229 144.096" stroke="black" stroke-width="1.5649" stroke-miterlimit="10" stroke-linecap="round"/>
<path d="M59.5484 143.572L54.143 142.786" stroke="black" stroke-width="1.5649" stroke-miterlimit="10" stroke-linecap="round" stroke-dasharray="4.14 4.14"/>
<path d="M52.3993 142.524L50.3069 142.262" stroke="black" stroke-width="1.5649" stroke-miterlimit="10" stroke-linecap="round"/>
<path d="M67.918 139.816L65.8256 139.467" stroke="black" stroke-width="1.5649" stroke-miterlimit="10" stroke-linecap="round"/>
<path d="M62.0767 138.943L56.5841 138.157" stroke="black" stroke-width="1.5649" stroke-miterlimit="10" stroke-linecap="round" stroke-dasharray="4.27 4.27"/>
<path d="M54.7533 137.895L52.6609 137.546" stroke="black" stroke-width="1.5649" stroke-miterlimit="10" stroke-linecap="round"/>
<path d="M69.1385 134.926L67.0461 134.577" stroke="black" stroke-width="1.5649" stroke-miterlimit="10" stroke-linecap="round"/>
<path d="M63.5588 134.053L58.3278 133.354" stroke="black" stroke-width="1.5649" stroke-miterlimit="10" stroke-linecap="round" stroke-dasharray="4.04 4.04"/>
<path d="M56.5841 133.092L54.4045 132.743" stroke="black" stroke-width="1.5649" stroke-miterlimit="10" stroke-linecap="round"/>
<path d="M70.5335 130.035L68.4411 129.773" stroke="black" stroke-width="1.5649" stroke-miterlimit="10" stroke-linecap="round"/>
<path d="M64.9538 129.249L59.7227 128.463" stroke="black" stroke-width="1.5649" stroke-miterlimit="10" stroke-linecap="round" stroke-dasharray="4.05 4.05"/>
<path d="M57.9791 128.201L55.7995 127.939" stroke="black" stroke-width="1.5649" stroke-miterlimit="10" stroke-linecap="round"/>
<path d="M71.9284 125.232L69.836 124.883" stroke="black" stroke-width="1.5649" stroke-miterlimit="10" stroke-linecap="round"/>
<path d="M66.1743 124.359L60.8561 123.66" stroke="black" stroke-width="1.5649" stroke-miterlimit="10" stroke-linecap="round" stroke-dasharray="4.17 4.17"/>
<path d="M59.0253 123.398L56.9329 123.049" stroke="black" stroke-width="1.5649" stroke-miterlimit="10" stroke-linecap="round"/>
<path d="M72.19 120.254L70.0104 119.905" stroke="black" stroke-width="1.5649" stroke-miterlimit="10" stroke-linecap="round"/>
<path d="M66.6102 119.381L61.4664 118.682" stroke="black" stroke-width="1.5649" stroke-miterlimit="10" stroke-linecap="round" stroke-dasharray="3.98 3.98"/>
<path d="M59.7227 118.42L57.6303 118.071" stroke="black" stroke-width="1.5649" stroke-miterlimit="10" stroke-linecap="round"/>
<path d="M72.0156 115.189L69.836 114.84" stroke="black" stroke-width="1.5649" stroke-miterlimit="10" stroke-linecap="round"/>
<path d="M66.6102 114.403L61.728 113.705" stroke="black" stroke-width="1.5649" stroke-miterlimit="10" stroke-linecap="round" stroke-dasharray="3.75 3.75"/>
<path d="M60.1587 113.443L58.0663 113.093" stroke="black" stroke-width="1.5649" stroke-miterlimit="10" stroke-linecap="round"/>
<path d="M71.8412 110.124L69.7488 109.775" stroke="black" stroke-width="1.5649" stroke-miterlimit="10" stroke-linecap="round"/>
<path d="M66.523 109.338L61.8151 108.639" stroke="black" stroke-width="1.5649" stroke-miterlimit="10" stroke-linecap="round" stroke-dasharray="3.68 3.68"/>
<path d="M60.2458 108.377L58.0663 108.115" stroke="black" stroke-width="1.5649" stroke-miterlimit="10" stroke-linecap="round"/>
<path d="M70.9694 104.884L68.7898 104.622" stroke="black" stroke-width="1.5649" stroke-miterlimit="10" stroke-linecap="round"/>
<path d="M65.8256 104.186L61.3792 103.487" stroke="black" stroke-width="1.5649" stroke-miterlimit="10" stroke-linecap="round" stroke-dasharray="3.47 3.47"/>
<path d="M59.8971 103.312L57.7175 102.963" stroke="black" stroke-width="1.5649" stroke-miterlimit="10" stroke-linecap="round"/>
<path d="M68.9642 99.557L66.8718 99.295" stroke="black" stroke-width="1.5649" stroke-miterlimit="10" stroke-linecap="round"/>
<path d="M64.2563 98.8583L60.333 98.3344" stroke="black" stroke-width="1.5649" stroke-miterlimit="10" stroke-linecap="round" stroke-dasharray="3.04 3.04"/>
<path d="M59.0253 98.1597L56.8457 97.8104" stroke="black" stroke-width="1.5649" stroke-miterlimit="10" stroke-linecap="round"/>
<path d="M65.0409 93.9678L62.9485 93.7058" stroke="black" stroke-width="1.5649" stroke-miterlimit="10" stroke-linecap="round"/>
<path d="M57.3688 92.8325L55.2764 92.5705" stroke="black" stroke-width="1.5649" stroke-miterlimit="10" stroke-linecap="round"/>
<path d="M74.8054 95.3651L65.0409 93.9678" stroke="black" stroke-width="1.5649" stroke-miterlimit="10" stroke-linecap="round" stroke-linejoin="round"/>
<path d="M85.9649 110.299C86.1393 110.823 86.3137 111.259 86.4008 111.783C95.5551 115.364 101.048 119.643 100.525 123.398C100.001 126.891 94.5089 129.249 85.9649 130.297C77.9441 131.258 67.3077 130.996 55.7123 129.337C44.2041 127.677 33.9165 124.883 26.5059 121.652C18.6594 118.246 14.0387 114.403 14.4746 110.91C14.9977 107.155 21.5365 104.622 31.301 103.836C31.5625 103.4 31.8241 102.963 32.1728 102.614C14.4746 102.788 1.92021 106.281 1.04837 112.307C0.17654 118.333 11.1616 125.232 28.1624 130.472C35.9217 132.83 44.9888 134.926 54.7533 136.323C64.5178 137.72 73.7593 138.332 81.8673 138.244C99.5655 138.07 112.12 134.577 112.992 128.551C113.951 122.438 102.966 115.538 85.9649 110.299Z" fill="#27FF83" stroke="black" stroke-width="1.5649" stroke-miterlimit="10" stroke-linejoin="round"/>
<path d="M62.7742 133.878C60.5074 133.616 58.1534 133.354 55.7123 133.005C28.5111 128.987 7.41276 119.468 8.54614 111.696C8.72051 110.386 9.59234 109.163 10.9873 108.115" stroke="black" stroke-width="1.5649" stroke-miterlimit="10" stroke-linecap="round" stroke-dasharray="4.92 4.92"/>
<path d="M105.058 121.04C106.54 122.7 107.238 124.359 107.063 126.018C106.017 133.092 86.8368 136.323 62.7742 133.791" stroke="black" stroke-width="1.5649" stroke-miterlimit="10" stroke-linecap="round" stroke-linejoin="round"/>
</svg>
