<svg width="260" height="98" viewBox="0 0 260 98" fill="none" xmlns="http://www.w3.org/2000/svg">
<g opacity="0.5">
<line x1="3.12132" y1="16" x2="27" y2="39.8787" stroke="#8B64B7" stroke-width="3" stroke-linecap="round"/>
<line x1="22.8284" y1="3" x2="46" y2="26.1716" stroke="#8B64B7" stroke-width="4" stroke-linecap="round"/>
<line x1="126.828" y1="72" x2="150" y2="95.1716" stroke="#8B64B7" stroke-width="4" stroke-linecap="round"/>
<line x1="32.8284" y1="65" x2="56" y2="88.1716" stroke="#8B64B7" stroke-width="4" stroke-linecap="round"/>
<line x1="233.828" y1="3" x2="257" y2="26.1716" stroke="#8B64B7" stroke-width="4" stroke-linecap="round"/>
<line x1="143.828" y1="3" x2="152" y2="11.1716" stroke="#8B64B7" stroke-width="4" stroke-linecap="round"/>
<line x1="169.828" y1="87" x2="178" y2="95.1716" stroke="#8B64B7" stroke-width="4" stroke-linecap="round"/>
<line x1="246.828" y1="38" x2="255" y2="46.1716" stroke="#8B64B7" stroke-width="4" stroke-linecap="round"/>
<line x1="51.8284" y1="32" x2="60" y2="40.1716" stroke="#8B64B7" stroke-width="4" stroke-linecap="round"/>
<line x1="16.8284" y1="59" x2="25" y2="67.1716" stroke="#8B64B7" stroke-width="4" stroke-linecap="round"/>
<line x1="60.1213" y1="10" x2="84" y2="33.8787" stroke="#8B64B7" stroke-width="3" stroke-linecap="round"/>
<line x1="90.1213" y1="40" x2="94" y2="43.8787" stroke="#8B64B7" stroke-width="3" stroke-linecap="round"/>
<line x1="192.121" y1="48" x2="216" y2="71.8787" stroke="#8B64B7" stroke-width="3" stroke-linecap="round"/>
<line x1="226.121" y1="63" x2="230" y2="66.8787" stroke="#8B64B7" stroke-width="3" stroke-linecap="round"/>
<line x1="222.121" y1="78" x2="226" y2="81.8787" stroke="#8B64B7" stroke-width="3" stroke-linecap="round"/>
<line x1="32.1213" y1="45" x2="47" y2="59.8787" stroke="#8B64B7" stroke-width="3" stroke-linecap="round" stroke-dasharray="4 6"/>
<line x1="2.12132" y1="62" x2="11" y2="70.8787" stroke="#8B64B7" stroke-width="3" stroke-linecap="round"/>
<line x1="17.1213" y1="77" x2="26" y2="85.8787" stroke="#8B64B7" stroke-width="3" stroke-linecap="round" stroke-dasharray="4 6"/>
<line x1="224.121" y1="43" x2="233" y2="51.8787" stroke="#8B64B7" stroke-width="3" stroke-linecap="round"/>
<line x1="236.121" y1="73" x2="245" y2="81.8787" stroke="#8B64B7" stroke-width="3" stroke-linecap="round"/>
<line x1="223.121" y1="28" x2="227" y2="31.8787" stroke="#8B64B7" stroke-width="3" stroke-linecap="round"/>
<line x1="210.121" y1="15" x2="219" y2="23.8787" stroke="#8B64B7" stroke-width="3" stroke-linecap="round"/>
<line x1="239.121" y1="58" x2="248" y2="66.8787" stroke="#8B64B7" stroke-width="3" stroke-linecap="round" stroke-dasharray="4 6"/>
</g>
</svg>
