<svg width="73" height="74" viewBox="0 0 73 74" fill="none" xmlns="http://www.w3.org/2000/svg">
<path d="M14.8967 52.4971V38.2971C14.8967 25.7971 22.3967 18.0971 35.6967 18.0971C49.0967 18.0971 56.4967 25.7971 56.4967 38.2971V52.4971C56.4967 64.9971 48.9967 72.6971 35.6967 72.6971C22.3967 72.6971 14.8967 64.8971 14.8967 52.4971ZM43.3967 52.8971V37.8971C43.3967 32.6971 40.6967 29.8971 35.6967 29.8971C30.6967 29.8971 27.9967 32.5971 27.9967 37.8971V52.9971C27.9967 58.1971 30.6967 60.9971 35.6967 60.9971C40.7967 60.8971 43.3967 58.0971 43.3967 52.8971Z" fill="black"/>
<path d="M35.7968 73.6971C22.0968 73.6971 13.9968 65.6971 13.9968 52.4971V38.2971C13.9968 24.9971 22.0968 17.0971 35.7968 17.0971C49.3968 17.0971 57.5968 24.9971 57.5968 38.2971V52.4971C57.4968 65.6971 49.3968 73.6971 35.7968 73.6971ZM35.7968 18.9971C23.1968 18.9971 15.9968 25.9971 15.9968 38.1971V52.3971C15.9968 64.5971 23.1968 71.6971 35.7968 71.6971C48.3968 71.6971 55.5968 64.6971 55.5968 52.3971V38.2971C55.5968 26.0971 48.3968 18.9971 35.7968 18.9971ZM35.7968 61.7971C30.1968 61.7971 27.1968 58.5971 27.1968 52.8971V37.8971C27.1968 32.0971 30.2968 28.9971 35.7968 28.9971C41.3968 28.9971 44.3968 32.1971 44.3968 37.8971V52.9971C44.3968 58.6971 41.2968 61.7971 35.7968 61.7971ZM35.7968 30.8971C31.2968 30.8971 29.0968 33.1971 29.0968 37.8971V52.9971C29.0968 57.6971 31.2968 59.9971 35.7968 59.9971C40.2968 59.9971 42.4968 57.6971 42.4968 52.9971V37.8971C42.4968 33.0971 40.2968 30.8971 35.7968 30.8971Z" fill="black"/>
<path d="M11.6968 50.5971V36.3971C11.6968 23.8971 19.1968 16.1971 32.4968 16.1971C45.8968 16.1971 53.2968 23.8971 53.2968 36.3971V50.5971C53.2968 63.0971 45.7968 70.7971 32.4968 70.7971C19.1968 70.7971 11.6968 63.0971 11.6968 50.5971Z" fill="white"/>
<path d="M32.4968 71.7971C18.8968 71.7971 10.6968 63.8971 10.6968 50.5971V36.3971C10.6968 23.1971 18.8968 15.1971 32.4968 15.1971C46.0968 15.1971 54.2968 23.0971 54.2968 36.3971V50.5971C54.2968 63.8971 46.1968 71.7971 32.4968 71.7971ZM32.4968 17.1971C19.8968 17.1971 12.6968 24.1971 12.6968 36.4971V50.6971C12.6968 62.8971 19.8968 69.9971 32.4968 69.9971C45.0968 69.9971 52.2968 62.9971 52.2968 50.6971V36.3971C52.3968 24.1971 45.0968 17.1971 32.4968 17.1971Z" fill="black"/>
<path d="M33.0967 16.7971C33.0967 18.5971 34.4967 19.9971 36.2967 19.9971C38.0967 19.9971 39.4967 18.5971 39.4967 16.7971C39.4967 14.9971 38.0967 13.5971 36.2967 13.5971C34.4967 13.5971 33.0967 15.0971 33.0967 16.7971Z" fill="white"/>
<path d="M25.5967 16.7971C25.5967 18.5971 26.9967 19.9971 28.7967 19.9971C30.5967 19.9971 31.9967 18.5971 31.9967 16.7971C31.9967 14.9971 30.5967 13.5971 28.7967 13.5971C26.9967 13.5971 25.5967 15.0971 25.5967 16.7971Z" fill="white"/>
<path d="M32.4968 14.5971C32.5968 14.4971 32.7968 14.2971 32.8968 14.0971C34.0968 12.7971 35.5968 12.3971 37.2968 12.7971C38.9968 13.1971 40.0968 14.1971 40.5968 15.8971C41.1968 18.1971 39.5968 20.6971 37.0968 21.0971C35.3968 21.3971 33.8968 20.8971 32.6968 19.4971C32.5968 19.3971 32.5968 19.2971 32.5968 19.2971C32.0968 19.7971 31.6968 20.1971 31.1968 20.5971C28.6968 22.2971 25.1968 20.9971 24.3968 17.9971C23.7968 15.7971 25.1968 13.4971 27.4968 12.8971C29.2968 12.3971 30.8968 12.8971 32.1968 14.2971C32.2968 14.3971 32.3968 14.4971 32.4968 14.5971C32.3968 14.5971 32.4968 14.5971 32.4968 14.5971ZM28.7968 19.9971C29.0968 19.8971 29.3968 19.8971 29.6968 19.7971C30.9968 19.3971 31.9968 17.9971 31.7968 16.6971C31.5968 15.2971 30.5968 14.2971 29.0968 14.0971C27.6968 13.8971 26.2968 14.7971 25.8968 15.9971C25.1968 17.9971 26.6968 19.9971 28.7968 19.9971ZM36.2968 13.9971C34.5968 13.9971 33.1968 15.2971 33.1968 16.7971C33.1968 18.3971 34.5968 19.7971 36.2968 19.7971C37.9968 19.7971 39.3968 18.3971 39.3968 16.7971C39.2968 15.2971 37.8968 14.0971 36.2968 13.9971Z" fill="black"/>
<path d="M29.4968 17.0971C28.5968 17.0971 27.9968 16.3971 27.9968 15.5971C27.9968 14.7971 28.6968 14.0971 29.5968 14.0971C30.3968 14.0971 31.0968 14.7971 31.0968 15.5971C31.0968 16.4971 30.2968 17.1971 29.4968 17.0971Z" fill="black"/>
<path d="M36.9967 17.0971C36.0967 17.0971 35.4967 16.3971 35.3967 15.5971C35.3967 14.6971 36.0967 13.9971 36.9967 14.0971C37.7967 14.0971 38.4967 14.7971 38.5967 15.5971C38.5967 16.3971 37.8967 17.0971 36.9967 17.0971Z" fill="black"/>
<path d="M23.8999 31.9C23.8999 31.9 30.6999 38 37.4999 31.6" stroke="black" stroke-width="1.666" stroke-miterlimit="10" stroke-linecap="round" stroke-linejoin="round"/>
<path fill-rule="evenodd" clip-rule="evenodd" d="M3.59683 9.09711C3.99683 8.39711 4.29683 7.79711 4.59683 7.09711C5.09683 5.99711 7.09683 6.49711 6.59683 7.69711C6.29683 8.39711 5.89683 9.19711 5.49683 9.89711C6.59683 10.3971 7.79683 10.7971 8.89683 10.8971C10.2968 10.9971 10.2968 13.1971 8.89683 13.1971C7.29683 13.0971 5.89683 12.4971 4.49683 11.8971C4.19683 12.5971 3.89683 13.3971 3.69683 14.0971C3.39683 15.2971 1.39683 14.7971 1.69683 13.5971C1.89683 12.6971 2.19683 11.8971 2.59683 11.0971C1.99683 10.8971 1.39683 10.5971 0.796832 10.3971C-0.603168 9.99711 -0.00316846 7.79711 1.39683 8.19711C2.09683 8.39711 2.89683 8.69711 3.59683 9.09711Z" fill="black"/>
<path d="M52.8969 2.39711C57.9969 1.59711 51.3969 9.89711 54.6969 11.3971C56.9969 12.3971 61.0969 9.79711 63.5969 9.99711C64.7969 10.0971 64.0969 9.19711 64.4969 10.0971C64.6969 10.5971 63.8969 13.1971 63.7969 13.8971C63.6969 14.8971 63.3969 15.7971 63.4969 16.7971C63.4969 17.2971 64.0969 17.6971 64.5969 17.5971C66.3969 17.3971 69.4969 16.3971 70.9969 17.4971C71.9969 18.1971 73.1969 16.5971 72.1969 15.8971C70.0969 14.3971 66.7969 15.2971 64.3969 15.5971C64.6969 15.8971 65.0969 16.1971 65.4969 16.3971C65.3969 14.2971 67.5969 9.89711 66.3969 8.29711C64.8969 6.29711 59.2969 8.59711 57.3969 8.89711C56.4969 8.99711 56.0969 9.39711 55.7969 8.69711C55.5969 8.29711 56.2969 6.39711 56.2969 5.89711C56.4969 4.79711 57.1969 3.19711 57.0969 1.99711C56.8969 -0.502887 54.5969 -0.102887 52.5969 0.297113C51.4969 0.597113 51.6969 2.59711 52.8969 2.39711Z" fill="black"/>
</svg>
