<svg width="22" height="63" viewBox="0 0 22 63" fill="none" xmlns="http://www.w3.org/2000/svg">
<path fill-rule="evenodd" clip-rule="evenodd" d="M16.5 40.2C16.5 41.3 17.4 42.2 18.5 42.2C19.6 42.2 20.5 41.3 20.5 40.2V3C20.5 1.9 19.6 1 18.5 1C17.4 1 16.5 1.9 16.5 3V40.2ZM0.699997 59.8C0.699997 60.9 1.6 61.8 2.7 61.8C3.8 61.8 4.7 60.9 4.7 59.9V22.7C4.7 21.6 3.8 20.7 2.7 20.7C1.6 20.7 0.699997 21.6 0.699997 22.7V59.8Z" fill="#FFDDDD"/>
<path d="M18.5 41.639C17.7099 41.639 17.061 40.9901 17.061 40.2H15.939C15.939 41.6099 17.0901 42.7611 18.5 42.7611V41.639ZM19.939 40.2C19.939 40.9901 19.2901 41.639 18.5 41.639V42.7611C19.9099 42.7611 21.061 41.6099 21.061 40.2H19.939ZM19.939 3V40.2H21.061V3H19.939ZM18.5 1.56105C19.2901 1.56105 19.939 2.20986 19.939 3H21.061C21.061 1.59014 19.9099 0.43895 18.5 0.43895V1.56105ZM17.061 3C17.061 2.20986 17.7099 1.56105 18.5 1.56105V0.43895C17.0901 0.43895 15.939 1.59014 15.939 3H17.061ZM17.061 40.2V3H15.939V40.2H17.061ZM2.7 61.239C1.90986 61.239 1.26105 60.5902 1.26105 59.8H0.138947C0.138947 61.2099 1.29014 62.3611 2.7 62.3611V61.239ZM4.13895 59.9C4.13895 60.5718 3.50886 61.239 2.7 61.239V62.3611C4.09114 62.3611 5.26105 61.2283 5.26105 59.9H4.13895ZM4.13895 22.7V59.9H5.26105V22.7H4.13895ZM2.7 21.2611C3.49014 21.2611 4.13895 21.9099 4.13895 22.7H5.26105C5.26105 21.2902 4.10986 20.139 2.7 20.139V21.2611ZM1.26105 22.7C1.26105 21.9099 1.90986 21.2611 2.7 21.2611V20.139C1.29014 20.139 0.138947 21.2902 0.138947 22.7H1.26105ZM1.26105 59.8V22.7H0.138947V59.8H1.26105Z" fill="#FF6B95"/>
</svg>
