<svg width="375" height="320" viewBox="0 0 375 320" fill="none" xmlns="http://www.w3.org/2000/svg">
<path opacity="0.1" d="M373 54C350 49 328.873 51.1523 309.282 63.0717C293.609 72.6072 281.585 90.3908 279.038 98.4627C272.963 107.43 269.337 132.088 259.668 136.328C250 140.567 243.531 138.5 239.247 133.944C232.961 127.259 234.546 116.631 239.247 112C244.5 106.824 253.694 105.626 261 111C268.306 116.374 271.101 131.404 269.242 139.129C265.061 156.5 252.994 171.124 239.247 183C225.5 194.875 211.215 198.473 184.5 201C175.454 201.856 140 191 127 202C114 213 116.5 211 107 233C97.5 255 80.8663 269.469 57.0001 272C28.5 275.023 5 251.5 -0.499995 243.5" stroke="black" stroke-width="2" stroke-linecap="round" stroke-linejoin="round" stroke-dasharray="4 6"/>
</svg>