<svg width="82" height="93" viewBox="0 0 82 93" fill="none" xmlns="http://www.w3.org/2000/svg">
<path d="M21.4 72.6V70.1H19.8H18.2V72.5C18.2 72.5 16.4 73.5 16.4 75.4C16.4 77.4 17.5 78.2 18.2 78.8C19.3 79.7 19.8 80.5 19.8 80.5C19.8 80.5 20.4 79.8 21.4 78.8C22.1 78.2 23.2 77.4 23.2 75.4C23.3 73.5 21.4 72.6 21.4 72.6Z" fill="#9E1F63"/>
<path d="M62.9 72.6V70.1H61.3H59.7V72.5C59.7 72.5 57.9 73.5 57.9 75.4C57.9 77.4 59 78.2 59.7 78.8C60.8 79.7 61.3 80.5 61.3 80.5C61.3 80.5 61.9 79.8 62.9 78.8C63.6 78.2 64.7 77.4 64.7 75.4C64.7 73.5 62.9 72.6 62.9 72.6Z" fill="#9E1F63"/>
<path d="M3.29999 48.1L15.2 65.4L24.9 64.7L3.29999 48.1Z" fill="white" stroke="black" stroke-width="2.2112" stroke-miterlimit="10" stroke-linecap="round" stroke-linejoin="round"/>
<path d="M77.9 48.1L66.1 65.4L56.4 64.7L77.9 48.1Z" fill="white" stroke="black" stroke-width="2.2112" stroke-miterlimit="10" stroke-linecap="round" stroke-linejoin="round"/>
<path d="M78.2 25.2L59.2 6.19998C58.6 5.59998 57.5 5.99998 57.5 6.79998L57 12.4C56.8 14.8 57.3 17.2 58.6 19.2L64.9 29.5C65.1 29.8 65.2 30.1 65.2 30.4V40.5L52.9 32.3C51.8 31.6 51.1 30.3 51.1 29C51.1 26.6 51 22 50.1 15.1C49.3 8.49999 45.9 4.49998 43.5 2.39998C41.9 0.999976 39.6 0.999976 38 2.39998C35.6 4.49998 32.2 8.49999 31.4 15.1C30.5 21.9 30.4 26.5 30.4 29C30.4 30.3 29.8 31.6 28.6 32.3L16.3 40.5V30.4C16.3 30.1 16.4 29.7 16.6 29.5L22.9 19.2C24.1 17.2 24.7 14.8 24.5 12.4L24 6.79998C23.9 5.89998 22.9 5.59998 22.3 6.19998L3.29999 25.2C1.99999 26.5 1.29999 28.2 1.29999 29.9V43.7C1.29999 45.4 2.09999 47.1 3.49999 48.1L29.9 67.5C30.9 68.2 32.1 68.6 33.3 68.6H48.2C49.4 68.6 50.6 68.2 51.6 67.5L78 48.1C79.4 47.1 80.2 45.4 80.2 43.7V29.9C80.2 28.2 79.4 26.5 78.2 25.2Z" fill="white" stroke="black" stroke-width="2.2112" stroke-miterlimit="10"/>
<path d="M23.7 71H16.4C15.7 71 15.2 70.5 15.2 69.8V58.6C15.2 55.9 17.4 53.8 20 53.8C22.7 53.8 24.8 56 24.8 58.6V69.8C24.9 70.5 24.3 71 23.7 71Z" fill="white" stroke="black" stroke-width="2.2112" stroke-miterlimit="10"/>
<path d="M64.9 71H57.6C56.9 71 56.4 70.5 56.4 69.8V58.6C56.4 55.9 58.6 53.8 61.2 53.8C63.9 53.8 66 56 66 58.6V69.8C66.1 70.5 65.5 71 64.9 71Z" fill="white" stroke="black" stroke-width="2.2112" stroke-miterlimit="10"/>
<path d="M30.3 29.1V46.4" stroke="black" stroke-width="2.2112" stroke-miterlimit="10" stroke-linecap="round"/>
<path d="M51 29.1V46.4" stroke="black" stroke-width="2.2112" stroke-miterlimit="10" stroke-linecap="round"/>
<path d="M40.6 61.7C39.8 61.7 39.2 61 39.2 60.3V48.1C39.2 47.3 39.9 46.7 40.6 46.7C41.4 46.7 42 47.4 42 48.1V60.3C42.1 61.1 41.4 61.7 40.6 61.7Z" fill="white" stroke="black" stroke-width="2.2112" stroke-miterlimit="10"/>
<path d="M66.1 65.4H56.4" stroke="black" stroke-width="2.2112" stroke-miterlimit="10" stroke-linecap="round"/>
<path d="M24.7 65.4H15" stroke="black" stroke-width="2.2112" stroke-miterlimit="10" stroke-linecap="round"/>
<path d="M44.5 15.5C43.8 12.8 42.4 11.7 40.6 11.7C38.8 11.7 37.5 12.8 36.7 15.5C36.2 17.5 35.8 29.4 35.8 29.4C35.7 30.1 36.3 30.7 37 30.7H40.5H44C44.7 30.7 45.3 30.1 45.2 29.4C45.4 29.4 45 17.5 44.5 15.5Z" fill="#25A9E0" stroke="black" stroke-width="2.2112" stroke-miterlimit="10"/>
<path d="M34.4 73.6V85.6" stroke="#493963" stroke-width="2.6535" stroke-miterlimit="10" stroke-linecap="round"/>
<path d="M47.4 73.6V85.6" stroke="#493963" stroke-width="2.6535" stroke-miterlimit="10" stroke-linecap="round"/>
<path d="M40.6 75.7V90.9" stroke="#493963" stroke-width="2.6535" stroke-miterlimit="10" stroke-linecap="round"/>
</svg>
