<svg width="68" height="68" viewBox="0 0 68 68" fill="none" xmlns="http://www.w3.org/2000/svg">
<rect width="68" height="68" rx="10" fill="#F4BBD5"/>
<path d="M52.5 49.9C51.4 49.9 50.5 48.9 50.5 47.8V41.1C50.5 40.7 50.2 40.4 49.8 40.4H46.2C45.1 40.4 44.2 39.5 44.2 38.4V31.9C44.2 30.8 45.1 29.8 46.2 29.8C47.4 29.8 48.3 30.7 48.3 31.8V35.8C48.3 36.1 48.5 36.3 48.8 36.3H52.5C53.6 36.3 54.5 37.2 54.5 38.3V47.8C54.6 49 53.7 50 52.5 49.9Z" fill="#1ACFFF" stroke="black" stroke-width="1.4827" stroke-miterlimit="10"/>
<path d="M39.9 56.4C38.8 56.4 37.9 55.5 37.9 54.4V31.8C37.9 30.7 38.8 29.8 39.9 29.8C41 29.8 41.9 30.7 41.9 31.8V54.3C42 55.5 41.1 56.4 39.9 56.4Z" fill="#1ACFFF" stroke="black" stroke-width="1.4827" stroke-miterlimit="10"/>
<path d="M13.8 49.9C14.9 49.9 15.8 48.9 15.8 47.8V41.1C15.8 40.7 16.1 40.4 16.5 40.4H20.1C21.2 40.4 22.1 39.5 22.1 38.4V31.9C22.1 30.8 21.2 29.8 20.1 29.8C18.9 29.8 18 30.7 18 31.8V35.8C18 36.1 17.8 36.3 17.5 36.3H13.8C12.7 36.3 11.8 37.2 11.8 38.3V47.8C11.7 49 12.7 50 13.8 49.9Z" fill="#1ACFFF" stroke="black" stroke-width="1.4827" stroke-miterlimit="10"/>
<path d="M26.4 56.4C27.5 56.4 28.4 55.5 28.4 54.4V31.8C28.4 30.7 27.5 29.8 26.4 29.8C25.3 29.8 24.4 30.7 24.4 31.8V54.3C24.4 55.5 25.3 56.4 26.4 56.4Z" fill="#1ACFFF" stroke="black" stroke-width="1.4827" stroke-miterlimit="10"/>
<path d="M33.2 62C32.1 62 31.2 61.1 31.2 60V31.8C31.2 30.7 32.1 29.8 33.2 29.8C34.3 29.8 35.2 30.7 35.2 31.8V60C35.2 61.1 34.3 62 33.2 62Z" fill="#1ACFFF" stroke="black" stroke-width="1.4827" stroke-miterlimit="10"/>
<path d="M60.1 24L56.5 24.4" stroke="black" stroke-width="1.4827" stroke-miterlimit="10" stroke-linecap="round"/>
<path d="M58.5 26L58.1 22.4" stroke="black" stroke-width="1.4827" stroke-miterlimit="10" stroke-linecap="round"/>
<path d="M33.7 8.7H32.6C22.5 8.7 14.3 16.9 14.3 27C14.3 29.7 16.5 31.8 19.1 31.8H47.1C49.8 31.8 51.9 29.6 51.9 27C52 16.9 43.8 8.7 33.7 8.7Z" fill="#1ACFFF" stroke="black" stroke-width="1.4827" stroke-miterlimit="10"/>
<path d="M27.4 15.2C27.9523 15.2 28.4 14.7523 28.4 14.2C28.4 13.6477 27.9523 13.2 27.4 13.2C26.8477 13.2 26.4 13.6477 26.4 14.2C26.4 14.7523 26.8477 15.2 27.4 15.2Z" fill="black"/>
<path d="M39 15.2C39.5523 15.2 40 14.7523 40 14.2C40 13.6477 39.5523 13.2 39 13.2C38.4477 13.2 38 13.6477 38 14.2C38 14.7523 38.4477 15.2 39 15.2Z" fill="black"/>
<path d="M31.1 27.4H35.2" stroke="black" stroke-width="1.4827" stroke-miterlimit="10" stroke-linecap="round" stroke-linejoin="round"/>
<path d="M10 10C11.1046 10 12 9.10457 12 8C12 6.89543 11.1046 6 10 6C8.89543 6 8 6.89543 8 8C8 9.10457 8.89543 10 10 10Z" fill="#1ACFFF" stroke="black" stroke-width="1.4827" stroke-miterlimit="10"/>
<path d="M46.3 49.7C47.4046 49.7 48.3 48.8046 48.3 47.7C48.3 46.5954 47.4046 45.7 46.3 45.7C45.1954 45.7 44.3 46.5954 44.3 47.7C44.3 48.8046 45.1954 49.7 46.3 49.7Z" fill="white" stroke="black" stroke-width="1.4827" stroke-miterlimit="10"/>
<path d="M19.3 53.5C18.7 53.4 18 53.8 17.7 54.4C17.4 55 17.5 55.7 17.9 56.2C18.2 56.5 18.5 56.7 18.9 56.9C19.2 57.1 19.5 57.5 19.5 57.9C19.5 58.5 18.8 58.9 18.3 59.1C17.7 59.3 17.1 59.6 16.9 60.2C16.8 60.8 17.2 61.3 17.7 61.6C18.2 61.9 18.8 62.2 19.1 62.6C19.4 63 19.5 63.6 19.3 64.1C19.1 64.6 18.7 64.9 18.2 65" stroke="black" stroke-width="1.4827" stroke-miterlimit="10" stroke-linecap="round" stroke-linejoin="round"/>
<path d="M28.6 18.2C29.9807 18.2 31.1 17.0807 31.1 15.7C31.1 14.3193 29.9807 13.2 28.6 13.2C27.2193 13.2 26.1 14.3193 26.1 15.7C26.1 17.0807 27.2193 18.2 28.6 18.2Z" fill="white" stroke="black" stroke-width="1.1432" stroke-miterlimit="10" stroke-linecap="round" stroke-linejoin="round"/>
<path d="M28.6 16.6C29.0971 16.6 29.5 16.1971 29.5 15.7C29.5 15.2029 29.0971 14.8 28.6 14.8C28.103 14.8 27.7 15.2029 27.7 15.7C27.7 16.1971 28.103 16.6 28.6 16.6Z" fill="black"/>
<path d="M37.5 18.2C38.8807 18.2 40 17.0807 40 15.7C40 14.3193 38.8807 13.2 37.5 13.2C36.1193 13.2 35 14.3193 35 15.7C35 17.0807 36.1193 18.2 37.5 18.2Z" fill="white" stroke="black" stroke-width="1.1432" stroke-miterlimit="10" stroke-linecap="round" stroke-linejoin="round"/>
<path d="M37.5 16.6C37.9971 16.6 38.4 16.1971 38.4 15.7C38.4 15.2029 37.9971 14.8 37.5 14.8C37.003 14.8 36.6 15.2029 36.6 15.7C36.6 16.1971 37.003 16.6 37.5 16.6Z" fill="black"/>
<path d="M18.6 15.7C21 16.7 22.7 19.1 22.7 21.8C22.7 25.5 19.7 28.5 16 28.5C15.5 28.5 15 28.4 14.5 28.3" stroke="black" stroke-width="1.4827" stroke-miterlimit="10" stroke-linecap="round" stroke-dasharray="3.7 3.7"/>
</svg>
