<svg width="329" height="441" viewBox="0 0 329 441" fill="none" xmlns="http://www.w3.org/2000/svg">
<path d="M203.2 27.4H203C201.9 27.4 201 26.5 201 25.4V25.2C201 24.5 200.5 24 199.8 24H199.7C199 24 198.5 24.5 198.5 25.2V25.4C198.5 26.5 197.6 27.4 196.5 27.4H196.3C195.6 27.4 195.1 27.9 195.1 28.6C195.1 29.3 195.6 29.8 196.3 29.8H196.5C197.6 29.8 198.5 30.7 198.5 31.8V32C198.5 32.7 199 33.2 199.7 33.2H199.8C200.5 33.2 201 32.7 201 32V31.8C201 30.7 201.9 29.8 203 29.8H203.2C203.9 29.8 204.4 29.3 204.4 28.6C204.4 27.9 203.9 27.4 203.2 27.4Z" fill="white"/>
<path d="M327 172.8H326.8C325.5 172.8 324.5 171.8 324.5 170.5V170.3C324.5 169.6 323.9 169 323.2 169H323.1C322.4 169 321.8 169.6 321.8 170.3V170.5C321.8 171.8 320.8 172.8 319.5 172.8H319.3C318.6 172.8 318 173.4 318 174.1C318 174.8 318.6 175.4 319.3 175.4H319.5C320.8 175.4 321.8 176.4 321.8 177.7V177.9C321.8 178.6 322.4 179.2 323.1 179.2H323.2C323.9 179.2 324.5 178.6 324.5 177.9V177.7C324.5 176.4 325.5 175.4 326.8 175.4H327C327.7 175.4 328.3 174.8 328.3 174.1C328.3 173.4 327.7 172.8 327 172.8Z" fill="white"/>
<path d="M325.9 53H325.8C324.8 53 324 52.2 324 51.2V51C324 50.4 323.5 50 323 50H322.9C322.3 50 321.9 50.5 321.9 51V51.2C321.9 52.2 321.1 53 320.1 53H320C319.4 53 319 53.5 319 54C319 54.6 319.5 55 320 55H320.1C321.1 55 321.9 55.8 321.9 56.8V57C321.9 57.6 322.4 58 322.9 58H323C323.6 58 324 57.5 324 57V56.8C324 55.8 324.8 55 325.8 55H325.9C326.5 55 326.9 54.5 326.9 54C326.9 53.4 326.4 53 325.9 53Z" fill="white"/>
<path d="M54.1 439C53.7 439 53.5 438.7 53.5 438.4V438.3C53.5 438.1 53.3 438 53.2 438C53 438 52.9 438.2 52.9 438.3V438.4C52.9 438.7 52.6 439 52.3 439C52.1 439 52 439.2 52 439.3C52 439.5 52.2 439.6 52.3 439.6C52.6 439.6 52.9 439.9 52.9 440.2V440.3C52.9 440.5 53.1 440.6 53.2 440.6C53.4 440.6 53.5 440.4 53.5 440.3V440.2C53.5 439.9 53.8 439.6 54.1 439.6C54.3 439.6 54.4 439.4 54.4 439.3C54.4 439.2 54.3 439 54.1 439Z" fill="white"/>
<path d="M27.8 283.4H27.6C26.3 283.4 25.3 282.4 25.3 281.1V280.9C25.3 280.2 24.7 279.6 24 279.6C23.3 279.6 22.7 280.2 22.7 280.9V281.1C22.7 282.4 21.7 283.4 20.4 283.4H20.2C19.5 283.4 18.9 284 18.9 284.7C18.9 285.4 19.5 286 20.2 286H20.4C21.7 286 22.7 287 22.7 288.3V288.5C22.7 289.2 23.3 289.8 24 289.8C24.7 289.8 25.3 289.2 25.3 288.5V288.3C25.3 287 26.3 286 27.6 286H27.8C28.5 286 29.1 285.4 29.1 284.7C29.1 284 28.5 283.4 27.8 283.4Z" fill="white"/>
<path d="M154.8 3.8H154.6C153.3 3.8 152.3 2.8 152.3 1.5V1.3C152.3 0.6 151.7 0 151 0H150.9C150.2 0 149.6 0.6 149.6 1.3V1.5C149.6 2.8 148.6 3.8 147.3 3.8H147.1C146.4 3.8 145.8 4.4 145.8 5.1C145.8 5.8 146.4 6.4 147.1 6.4H147.3C148.6 6.4 149.6 7.4 149.6 8.7V8.9C149.6 9.6 150.2 10.2 150.9 10.2H151C151.7 10.2 152.3 9.6 152.3 8.9V8.7C152.3 7.4 153.3 6.4 154.6 6.4H154.8C155.5 6.4 156.1 5.8 156.1 5.1C156.1 4.4 155.5 3.8 154.8 3.8Z" fill="white"/>
<path d="M232.5 272.1H232.4C231.6 272.1 231 271.5 231 270.7V270.6C231 270.2 230.6 269.8 230.2 269.8C229.8 269.8 229.4 270.2 229.4 270.6V270.7C229.4 271.5 228.8 272.1 228 272.1H227.9C227.5 272.1 227.1 272.5 227.1 272.9C227.1 273.3 227.5 273.7 227.9 273.7H228C228.8 273.7 229.4 274.3 229.4 275.1V275.2C229.4 275.6 229.8 276 230.2 276C230.6 276 231 275.6 231 275.2V275.1C231 274.3 231.6 273.7 232.4 273.7H232.5C232.9 273.7 233.3 273.3 233.3 272.9C233.3 272.5 232.9 272.1 232.5 272.1Z" fill="white"/>
<path d="M262.9 311.5C262.2 311.5 261.7 311 261.7 310.4V310.3C261.7 309.9 261.4 309.6 261 309.6C260.6 309.6 260.3 309.9 260.3 310.3V310.4C260.3 311 259.8 311.5 259.2 311.5H259.1C258.7 311.5 258.4 311.8 258.4 312.2C258.4 312.6 258.7 312.9 259.1 312.9H259.2C259.8 312.9 260.3 313.4 260.3 314V314.1C260.3 314.5 260.6 314.8 261 314.8C261.4 314.8 261.7 314.5 261.7 314.1V314C261.7 313.4 262.2 312.9 262.8 312.9H262.9C263.3 312.9 263.6 312.6 263.6 312.2C263.5 311.8 263.2 311.5 262.9 311.5Z" fill="white"/>
<path d="M327.3 358.3C326.6 358.3 326.1 357.8 326.1 357.2V357.1C326.1 356.7 325.8 356.4 325.4 356.4C325 356.4 324.7 356.7 324.7 357.1V357.2C324.7 357.8 324.2 358.3 323.6 358.3H323.5C323.1 358.3 322.8 358.6 322.8 359C322.8 359.4 323.1 359.7 323.5 359.7H323.6C324.2 359.7 324.7 360.2 324.7 360.8V360.9C324.7 361.3 325 361.6 325.4 361.6C325.8 361.6 326.1 361.3 326.1 360.9V360.8C326.1 360.2 326.6 359.7 327.2 359.7H327.3C327.7 359.7 328 359.4 328 359C327.9 358.6 327.7 358.3 327.3 358.3Z" fill="white"/>
<path d="M139 330.9C138.3 330.9 137.8 330.4 137.8 329.8V329.7C137.8 329.3 137.5 329 137.1 329C136.7 329 136.4 329.3 136.4 329.7V329.8C136.4 330.4 135.9 330.9 135.3 330.9H135.2C134.8 330.9 134.5 331.2 134.5 331.6C134.5 332 134.8 332.3 135.2 332.3H135.3C135.9 332.3 136.4 332.8 136.4 333.4V333.5C136.4 333.9 136.7 334.2 137.1 334.2C137.5 334.2 137.8 333.9 137.8 333.5V333.4C137.8 332.8 138.3 332.3 138.9 332.3H139C139.4 332.3 139.7 332 139.7 331.6C139.7 331.2 139.4 330.9 139 330.9Z" fill="white"/>
<path d="M4.4 103C3.7 103 3.2 102.5 3.2 101.9V101.8C3.2 101.4 2.9 101.1 2.5 101.1C2.1 101.1 1.8 101.4 1.8 101.8V101.9C1.8 102.5 1.3 103 0.7 103C0.3 103 0 103.3 0 103.7C0 104.1 0.3 104.4 0.7 104.4H0.8C1.4 104.4 1.9 104.9 1.9 105.5V105.6C1.9 106 2.2 106.3 2.6 106.3C3 106.3 3.3 106 3.3 105.6V105.5C3.3 104.9 3.8 104.4 4.4 104.4H4.5C4.9 104.4 5.2 104.1 5.2 103.7C5.1 103.3 4.8 103 4.4 103Z" fill="white"/>
<path d="M261.9 17.7C261.5 17.7 261.1 17.4 261.1 17V16.9C261.1 16.7 260.9 16.5 260.7 16.5C260.5 16.5 260.3 16.7 260.3 16.9V17C260.3 17.4 260 17.7 259.6 17.7H259.5C259.3 17.7 259.1 17.9 259.1 18.1C259.1 18.3 259.3 18.5 259.5 18.5H259.6C260 18.5 260.3 18.8 260.3 19.2V19.3C260.3 19.5 260.5 19.7 260.7 19.7C260.9 19.7 261.1 19.5 261.1 19.3V19.2C261.1 18.8 261.4 18.5 261.8 18.5H261.9C262.1 18.5 262.3 18.3 262.3 18.1C262.3 17.9 262.1 17.7 261.9 17.7Z" fill="white"/>
<path d="M293 436.1C292.3 436.1 291.8 435.6 291.8 435V434.9C291.8 434.5 291.5 434.2 291.1 434.2C290.7 434.2 290.4 434.5 290.4 434.9V435C290.4 435.6 289.9 436.1 289.3 436.1H289.2C288.8 436.1 288.5 436.4 288.5 436.8C288.5 437.2 288.8 437.5 289.2 437.5H289.3C289.9 437.5 290.4 438 290.4 438.6V438.7C290.4 439.1 290.7 439.4 291.1 439.4C291.5 439.4 291.8 439.1 291.8 438.7V438.6C291.8 438 292.3 437.5 292.9 437.5H293C293.4 437.5 293.7 437.2 293.7 436.8C293.6 436.4 293.4 436.1 293 436.1Z" fill="white"/>
<path d="M239.3 4.5C238.6 4.5 238.1 4 238.1 3.4V3.2C238.1 2.8 237.8 2.5 237.4 2.5C237 2.5 236.7 2.8 236.7 3.2V3.3C236.7 3.9 236.2 4.4 235.6 4.4H235.5C235.1 4.4 234.8 4.7 234.8 5.1C234.8 5.5 235.1 5.8 235.5 5.8H235.6C236.2 5.8 236.7 6.3 236.7 6.9V7C236.7 7.4 237 7.7 237.4 7.7C237.8 7.7 238.1 7.4 238.1 7V6.9C238.1 6.3 238.6 5.8 239.2 5.8H239.3C239.7 5.8 240 5.5 240 5.1C240 4.8 239.7 4.5 239.3 4.5Z" fill="white"/>
<path d="M20.8 34.5C20.1 34.5 19.6 34 19.6 33.4V33.3C19.6 32.9 19.3 32.6 18.9 32.6C18.5 32.6 18.2 32.9 18.2 33.3V33.4C18.2 34 17.7 34.5 17.1 34.5H17C16.6 34.5 16.3 34.8 16.3 35.2C16.3 35.6 16.6 35.9 17 35.9H17.1C17.7 35.9 18.2 36.4 18.2 37C18.2 37.4 18.5 37.7 18.9 37.7C19.3 37.7 19.6 37.4 19.6 37V36.9C19.6 36.3 20.1 35.8 20.7 35.8H20.8C21.2 35.8 21.5 35.5 21.5 35.1C21.4 34.8 21.1 34.5 20.8 34.5Z" fill="white"/>

<g opacity="0.2">
<path opacity="0.93" d="M255 388.6H254.8C253.5 388.6 252.5 387.6 252.5 386.3V386.1C252.5 385.4 251.9 384.8 251.2 384.8H251.1C250.4 384.8 249.8 385.4 249.8 386.1V386.3C249.8 387.6 248.8 388.6 247.5 388.6H247.3C246.6 388.6 246 389.2 246 389.9C246 390.6 246.6 391.2 247.3 391.2H247.5C248.8 391.2 249.8 392.2 249.8 393.5V393.7C249.8 394.4 250.4 395 251.1 395H251.2C251.9 395 252.5 394.4 252.5 393.7V393.5C252.5 392.2 253.5 391.2 254.8 391.2H255C255.7 391.2 256.3 390.6 256.3 389.9C256.3 389.2 255.7 388.6 255 388.6Z" fill="#361C56"/>
<path opacity="0.93" d="M315.5 212.7H315.3C314 212.7 313 211.7 313 210.4V210.2C313 209.5 312.4 208.9 311.7 208.9H311.6C310.9 208.9 310.3 209.5 310.3 210.2V210.4C310.3 211.7 309.3 212.7 308 212.7H307.8C307.1 212.7 306.5 213.3 306.5 214C306.5 214.7 307.1 215.3 307.8 215.3H308C309.3 215.3 310.3 216.3 310.3 217.6V217.8C310.3 218.5 310.9 219.1 311.6 219.1H311.7C312.4 219.1 313 218.5 313 217.8V217.6C313 216.3 314 215.3 315.3 215.3H315.5C316.2 215.3 316.8 214.7 316.8 214C316.8 213.3 316.2 212.7 315.5 212.7Z" fill="#361C56"/>
<path opacity="0.93" d="M263.7 84.5H263.5C262.2 84.5 261.2 83.5 261.2 82.2V82C261.2 81.3 260.6 80.7 259.9 80.7H259.8C259.1 80.7 258.5 81.3 258.5 82V82.2C258.5 83.5 257.5 84.5 256.2 84.5H256C255.3 84.5 254.7 85.1 254.7 85.8C254.7 86.5 255.3 87.1 256 87.1H256.2C257.5 87.1 258.5 88.1 258.5 89.4V89.6C258.5 90.3 259.1 90.9 259.8 90.9H259.9C260.6 90.9 261.2 90.3 261.2 89.6V89.4C261.2 88.1 262.2 87.1 263.5 87.1H263.7C264.4 87.1 265 86.5 265 85.8C265 85.1 264.4 84.5 263.7 84.5Z" fill="#361C56"/>
<path opacity="0.93" d="M8.9 412.9H8.8C7.5 412.9 6.5 411.9 6.5 410.6V410.4C6.5 409.7 5.9 409.1 5.2 409.1H5.1C4.4 409.1 3.8 409.7 3.8 410.4V410.6C3.8 411.9 2.8 412.9 1.5 412.9H1.3C0.6 412.9 0 413.5 0 414.2C0 414.9 0.6 415.5 1.3 415.5H1.5C2.8 415.5 3.8 416.5 3.8 417.8V418C3.8 418.7 4.4 419.3 5.1 419.3H5.2C5.9 419.3 6.5 418.7 6.5 418V417.8C6.5 416.5 7.5 415.5 8.8 415.5H9C9.7 415.5 10.3 414.9 10.3 414.2C10.3 413.5 9.7 412.9 8.9 412.9Z" fill="#361C56"/>
<path opacity="0.93" d="M259.2 340.5C258.5 340.5 258 340 258 339.4V339.3C258 338.9 257.7 338.6 257.3 338.6C256.9 338.6 256.6 338.9 256.6 339.3V339.4C256.6 340 256.1 340.5 255.5 340.5H255.4C255 340.5 254.7 340.8 254.7 341.2C254.7 341.6 255 341.9 255.4 341.9H255.5C256.1 341.9 256.6 342.4 256.6 343V343.1C256.6 343.5 256.9 343.8 257.3 343.8C257.7 343.8 258 343.5 258 343.1V343C258 342.4 258.5 341.9 259.1 341.9H259.2C259.6 341.9 259.9 341.6 259.9 341.2C259.9 340.8 259.6 340.5 259.2 340.5Z" fill="#361C56"/>
<path opacity="0.93" d="M68.2 278C67.5 278 67 277.5 67 276.9V276.8C67 276.4 66.7 276.1 66.3 276.1C65.9 276.1 65.6 276.4 65.6 276.8V276.9C65.6 277.5 65.1 278 64.5 278H64.4C64 278 63.7 278.3 63.7 278.7C63.7 279.1 64 279.4 64.4 279.4H64.5C65.1 279.4 65.6 279.9 65.6 280.5V280.6C65.6 281 65.9 281.3 66.3 281.3C66.7 281.3 67 281 67 280.6V280.5C67 279.9 67.5 279.4 68.1 279.4H68.2C68.6 279.4 68.9 279.1 68.9 278.7C68.8 278.3 68.5 278 68.2 278Z" fill="#361C56"/>
<path opacity="0.93" d="M9.59998 250.1C8.89998 250.1 8.39998 249.6 8.39998 249V248.9C8.39998 248.5 8.09998 248.2 7.69998 248.2C7.29998 248.2 6.99998 248.5 6.99998 248.9V249C6.99998 249.6 6.49998 250.1 5.89998 250.1H5.79998C5.39998 250.1 5.09998 250.4 5.09998 250.8C5.09998 251.2 5.39998 251.5 5.79998 251.5H5.89998C6.49998 251.5 6.99998 252 6.99998 252.6V252.7C6.99998 253.1 7.29998 253.4 7.69998 253.4C8.09998 253.4 8.39998 253.1 8.39998 252.7V252.6C8.39998 252 8.89998 251.5 9.49998 251.5H9.59998C9.99998 251.5 10.3 251.2 10.3 250.8C10.3 250.4 9.99998 250.1 9.59998 250.1Z" fill="#361C56"/>
<path opacity="0.93" d="M149.4 234.2C148.7 234.2 148.2 233.7 148.2 233.1V233C148.2 232.6 147.9 232.3 147.5 232.3C147.1 232.3 146.8 232.6 146.8 233V233.1C146.8 233.7 146.3 234.2 145.7 234.2H145.6C145.2 234.2 144.9 234.5 144.9 234.9C144.9 235.3 145.2 235.6 145.6 235.6H145.7C146.3 235.6 146.8 236.1 146.8 236.7V236.8C146.8 237.2 147.1 237.5 147.5 237.5C147.9 237.5 148.2 237.2 148.2 236.8V236.7C148.2 236.1 148.7 235.6 149.3 235.6H149.4C149.8 235.6 150.1 235.3 150.1 234.9C150 234.5 149.7 234.2 149.4 234.2Z" fill="#361C56"/>
<path opacity="0.93" d="M288.7 112.6C288 112.6 287.5 112.1 287.5 111.5V111.4C287.5 111 287.2 110.7 286.8 110.7C286.4 110.7 286.1 111 286.1 111.4V111.5C286.1 112.1 285.6 112.6 285 112.6H284.9C284.5 112.6 284.2 112.9 284.2 113.3C284.2 113.7 284.5 114 284.9 114H285C285.6 114 286.1 114.5 286.1 115.1V115.2C286.1 115.6 286.4 115.9 286.8 115.9C287.2 115.9 287.5 115.6 287.5 115.2V115.1C287.5 114.5 288 114 288.6 114H288.7C289.1 114 289.4 113.7 289.4 113.3C289.4 112.9 289.1 112.6 288.7 112.6Z" fill="#361C56"/>
<path opacity="0.93" d="M12.2 57.3C11.5 57.3 11 56.8 11 56.2V56.1C11 55.7 10.7 55.4 10.3 55.4C9.90001 55.4 9.60001 55.7 9.60001 56.1V56.2C9.60001 56.8 9.10001 57.3 8.50001 57.3H8.40001C8.00001 57.3 7.70001 57.6 7.70001 58C7.70001 58.4 8.00001 58.7 8.40001 58.7H8.50001C9.10001 58.7 9.60001 59.2 9.60001 59.8V59.9C9.60001 60.3 9.90001 60.6 10.3 60.6C10.7 60.6 11 60.3 11 59.9V59.8C11 59.2 11.5 58.7 12.1 58.7H12.2C12.6 58.7 12.9 58.4 12.9 58C12.8 57.6 12.6 57.3 12.2 57.3Z" fill="#361C56"/>
<path opacity="0.93" d="M147.6 1.9C146.9 1.9 146.4 1.4 146.4 0.8V0.7C146.4 0.3 146.1 0 145.7 0C145.3 0 145 0.3 145 0.7V0.8C145 1.4 144.5 1.9 143.9 1.9H143.8C143.4 1.9 143.1 2.2 143.1 2.6C143.1 3 143.4 3.3 143.8 3.3H143.9C144.5 3.3 145 3.8 145 4.4V4.5C145 4.9 145.3 5.2 145.7 5.2C146.1 5.2 146.4 4.9 146.4 4.5V4.4C146.4 3.8 146.9 3.3 147.5 3.3H147.6C148 3.3 148.3 3 148.3 2.6C148.2 2.2 147.9 1.9 147.6 1.9Z" fill="#361C56"/>
</g>




</svg>
