<svg width="68" height="68" viewBox="0 0 68 68" fill="none" xmlns="http://www.w3.org/2000/svg">
<rect width="68" height="68" rx="10" fill="#F4BBD5"/>
<path d="M34 41.8C43.0575 41.8 50.4 34.4575 50.4 25.4C50.4 16.3425 43.0575 9 34 9C24.9425 9 17.6 16.3425 17.6 25.4C17.6 34.4575 24.9425 41.8 34 41.8Z" stroke="black" stroke-width="1.4827" stroke-miterlimit="10" stroke-linecap="round" stroke-dasharray="2.25 2.25"/>
<path d="M35 42H33.1C27.6 42 23.1 37.5 23.1 32V25.7C23.1 20.2 27.6 15.7 33.1 15.7H35C40.5 15.7 45 20.2 45 25.7V32.1C44.9 37.6 40.5 42 35 42Z" fill="#1ACFFF" stroke="black" stroke-width="1.4827" stroke-miterlimit="10"/>
<path d="M36.4 55.7H31.7C24 55.7 17.8 49.5 17.8 41.8H50.4C50.3 49.4 44.1 55.7 36.4 55.7Z" fill="white" stroke="black" stroke-width="1.4827" stroke-miterlimit="10" stroke-linejoin="round"/>
<path d="M34 47.3C50.0163 47.3 63 43.8526 63 39.6C63 35.3474 50.0163 31.9 34 31.9C17.9837 31.9 5 35.3474 5 39.6C5 43.8526 17.9837 47.3 34 47.3Z" fill="#AE31FF" stroke="black" stroke-width="1.4827" stroke-miterlimit="10" stroke-linejoin="round"/>
<path d="M22.5 52.2L16.2 59.7" stroke="black" stroke-width="1.4827" stroke-miterlimit="10" stroke-linecap="round" stroke-linejoin="round"/>
<path d="M45.6 52.2L51.9 59.7" stroke="black" stroke-width="1.4827" stroke-miterlimit="10" stroke-linecap="round" stroke-linejoin="round"/>
<path d="M34 55.7V59.7" stroke="black" stroke-width="1.4827" stroke-miterlimit="10" stroke-linecap="round" stroke-linejoin="round"/>
<path d="M33.9 44.9C35.1702 44.9 36.2 43.8703 36.2 42.6C36.2 41.3297 35.1702 40.3 33.9 40.3C32.6297 40.3 31.6 41.3297 31.6 42.6C31.6 43.8703 32.6297 44.9 33.9 44.9Z" fill="#FF5069" stroke="black" stroke-width="1.4827" stroke-miterlimit="10" stroke-linecap="round" stroke-linejoin="round"/>
<path d="M52.7 42.6C53.9703 42.6 55 41.5703 55 40.3C55 39.0297 53.9703 38 52.7 38C51.4297 38 50.4 39.0297 50.4 40.3C50.4 41.5703 51.4297 42.6 52.7 42.6Z" fill="#FF5069" stroke="black" stroke-width="1.4827" stroke-miterlimit="10" stroke-linecap="round" stroke-linejoin="round"/>
<path d="M15.1 42.6C16.3702 42.6 17.4 41.5703 17.4 40.3C17.4 39.0297 16.3702 38 15.1 38C13.8297 38 12.8 39.0297 12.8 40.3C12.8 41.5703 13.8297 42.6 15.1 42.6Z" fill="#FF5069" stroke="black" stroke-width="1.4827" stroke-miterlimit="10" stroke-linecap="round" stroke-linejoin="round"/>
<path d="M17.9 36.2V34.3C17.9 31 20.6 28.3 23.9 28.3H44.1C47.4 28.3 50.1 31 50.1 34.3V36.2C50.2 39.5 17.9 39.5 17.9 36.2Z" fill="white" stroke="black" stroke-width="1.4827" stroke-miterlimit="10" stroke-linejoin="round"/>
<path d="M56.3 26.9L56.7 25.3L55.2 26L53.8 25.1L54 26.7L52.7 27.7L54.3 28.1L54.9 29.6L55.7 28.2H57.4L56.3 26.9Z" fill="black"/>
<path d="M9.40002 53.3L12.6 54.1" stroke="black" stroke-width="1.4827" stroke-miterlimit="10" stroke-linecap="round"/>
<path d="M10.5 55.3L11.4 52.1" stroke="black" stroke-width="1.4827" stroke-miterlimit="10" stroke-linecap="round"/>
<path d="M59.1 57.9C59.4 57 59 55.9 58.1 55.6C57.6 55.4 57 55.4 56.5 55.3C56 55.2 55.4 55 55.1 54.5C54.9 54 55.1 53.4 55.3 52.8C55.5 52.2 55.7 51.6 55.3 51.1C55 50.7 54.4 50.6 53.8 50.5C53.3 50.4 52.7 50 52.7 49.5" stroke="black" stroke-width="1.4827" stroke-miterlimit="10" stroke-linecap="round" stroke-linejoin="round"/>
<path d="M42.2 25.9C42.2 21.8 38.9 18.4 34.7 18.4H33.3" stroke="white" stroke-width="1.4827" stroke-miterlimit="10" stroke-linecap="round" stroke-dasharray="2.25 2.25"/>
</svg>
