<svg width="68" height="68" viewBox="0 0 68 68" fill="none" xmlns="http://www.w3.org/2000/svg">
<rect width="68" height="68" rx="10" fill="#F4BBD5"/>
<path d="M43.4 48.8C53.2859 48.8 61.3 40.7859 61.3 30.9C61.3 21.0141 53.2859 13 43.4 13C33.5141 13 25.5 21.0141 25.5 30.9C25.5 40.7859 33.5141 48.8 43.4 48.8Z" fill="#FF5ABC" stroke="black" stroke-width="1.4827" stroke-miterlimit="10"/>
<path d="M29 56C38.9411 56 47 47.9411 47 38C47 28.0589 38.9411 20 29 20C19.0589 20 11 28.0589 11 38C11 47.9411 19.0589 56 29 56Z" fill="#F4BBD5"/>
<path d="M17.4 13.7L19 16.9" stroke="black" stroke-width="1.4827" stroke-miterlimit="10" stroke-linecap="round"/>
<path d="M19.8 14.5L16.6 16.1" stroke="black" stroke-width="1.4827" stroke-miterlimit="10" stroke-linecap="round"/>
<path d="M29.1 53.9C37.7156 53.9 44.7 46.9156 44.7 38.3C44.7 29.6844 37.7156 22.7 29.1 22.7C20.4844 22.7 13.5 29.6844 13.5 38.3C13.5 46.9156 20.4844 53.9 29.1 53.9Z" fill="#A44BF9" stroke="black" stroke-width="1.4827" stroke-miterlimit="10"/>
<path d="M25.4 44.2C16.1 43.8 9 42 9 39.8C9 38.8 10.5 37.8 13 37.1" stroke="black" stroke-width="1.4827" stroke-miterlimit="10" stroke-linecap="round"/>
<path d="M42.4 43.2C38.8 43.9 34.2 44.3 29 44.3C27.7 44.3 26.5 44.3 25.3 44.2" stroke="black" stroke-width="1.4827" stroke-miterlimit="10" stroke-linecap="round" stroke-dasharray="1.52 1.52"/>
<path d="M46.9 41.9C45.8 42.4 44.3 42.8 42.5 43.2" stroke="black" stroke-width="1.4827" stroke-miterlimit="10" stroke-linecap="round"/>
<path d="M45.2 37.1C47.7 37.9 49.2 38.8 49.2 39.8C49.2 40.6 48.4 41.3 46.9 41.9" stroke="black" stroke-width="1.4827" stroke-miterlimit="10" stroke-linecap="round"/>
<path d="M8.60001 43.7C6.30001 42.7 5 41.6 5 40.4C5 38.4 8.40001 36.7 13.7 35.6" stroke="black" stroke-width="1.4827" stroke-miterlimit="10" stroke-linecap="round" stroke-dasharray="1.52 1.52"/>
<path d="M45.2 45.1C40.9 46.1 35.3 46.7 29.1 46.7C20.4 46.7 12.8 45.5 8.59998 43.7" stroke="black" stroke-width="1.4827" stroke-miterlimit="10"/>
<path d="M53.1 40.4C53.1 42.3 50 43.9 45.1 45.1" stroke="black" stroke-width="1.4827" stroke-miterlimit="10" stroke-linecap="round"/>
<path d="M44.5 35.6C49.8 36.8 53.2 38.5 53.2 40.4" stroke="black" stroke-width="1.4827" stroke-miterlimit="10"/>
<path d="M29.4 31.7C29.5 32.1 29.6 32.5 29.6 33C29.6 35.6 27.5 37.6 25 37.6C22.5 37.6 20.4 35.5 20.4 33C20.4 31 21.7 29.2 23.6 28.6" stroke="black" stroke-width="1.4827" stroke-miterlimit="10" stroke-linecap="round"/>
<path d="M23.5 28.6C24 28.4 24.5 28.4 25 28.4C27.1 28.4 28.9 29.8 29.5 31.8" stroke="black" stroke-width="1.4827" stroke-miterlimit="10" stroke-linecap="round" stroke-dasharray="1.52 1.52"/>
<path d="M22.3 33.1C22.3 31.6 23.5 30.4 25 30.4C26.5 30.4 27.7 31.6 27.7 33.1C27.7 34.2 27.1 35.1 26.1 35.5" stroke="black" stroke-width="1.4067" stroke-miterlimit="10" stroke-linecap="round"/>
<path d="M39.4 39.7C39.9523 39.7 40.4 39.2523 40.4 38.7C40.4 38.1477 39.9523 37.7 39.4 37.7C38.8477 37.7 38.4 38.1477 38.4 38.7C38.4 39.2523 38.8477 39.7 39.4 39.7Z" fill="black"/>
<path d="M25.9 51.1C26.3418 51.1 26.7 50.7418 26.7 50.3C26.7 49.8582 26.3418 49.5 25.9 49.5C25.4581 49.5 25.1 49.8582 25.1 50.3C25.1 50.7418 25.4581 51.1 25.9 51.1Z" fill="black"/>
<path d="M52.9 15.9C52.7 16.3 52.5 16.6 52.3 16.9" stroke="black" stroke-width="1.4827" stroke-miterlimit="10" stroke-linecap="round"/>
<path d="M50.6 18.8C49.1 20 47.2 20.7 45.2 20.7C42.1 20.7 39.4 19.1 37.9 16.7" stroke="black" stroke-width="1.4827" stroke-miterlimit="10" stroke-linecap="round" stroke-dasharray="2.64 2.64"/>
<path d="M37.2 15.5C37 15.1 36.9 14.8 36.8 14.4" stroke="black" stroke-width="1.4827" stroke-miterlimit="10" stroke-linecap="round"/>
<path d="M56.9 30.8C56 32 54.7 32.7 53.1 32.7C50.5 32.7 48.4 30.6 48.4 28C48.4 26.5 49.1 25.2 50.2 24.3" stroke="black" stroke-width="1.4827" stroke-miterlimit="10" stroke-linecap="round"/>
<path d="M50.3 24.3C51.1 23.7 52.1 23.3 53.2 23.3C55.8 23.3 57.9 25.4 57.9 28C57.9 29 57.6 30 57 30.8" stroke="black" stroke-width="1.4827" stroke-miterlimit="10" stroke-linecap="round"/>
<path d="M54.7 29.8C54.3 30.2 53.7 30.4 53.1 30.4C51.8 30.4 50.7 29.3 50.7 28C50.7 26.7 51.8 25.6 53.1 25.6C53.4 25.6 53.8 25.7 54 25.8" stroke="black" stroke-width="1.4827" stroke-miterlimit="10" stroke-linecap="round"/>
<path d="M49.8 14.3C48.9 16 47.2 17.2 45.1 17.2C42.7 17.2 40.7 15.6 40.1 13.4" stroke="black" stroke-width="1.4827" stroke-miterlimit="10" stroke-linecap="round"/>
<path d="M47.2 58.3C48.9673 58.3 50.4 56.8673 50.4 55.1C50.4 53.3327 48.9673 51.9 47.2 51.9C45.4327 51.9 44 53.3327 44 55.1C44 56.8673 45.4327 58.3 47.2 58.3Z" fill="white" stroke="black" stroke-width="1.4827" stroke-miterlimit="10" stroke-linecap="round"/>
</svg>
